%TF.GenerationSoftware,KiCad,Pcbnew,9.0.0*%
%TF.CreationDate,2025-09-12T19:21:47+01:00*%
%TF.ProjectId,OE PyBoard,4f452050-7942-46f6-9172-642e6b696361,rev?*%
%TF.SameCoordinates,Original*%
%TF.FileFunction,Soldermask,Top*%
%TF.FilePolarity,Negative*%
%FSLAX46Y46*%
G04 Gerber Fmt 4.6, Leading zero omitted, Abs format (unit mm)*
G04 Created by KiCad (PCBNEW 9.0.0) date 2025-09-12 19:21:47*
%MOMM*%
%LPD*%
G01*
G04 APERTURE LIST*
G04 Aperture macros list*
%AMRoundRect*
0 Rectangle with rounded corners*
0 $1 Rounding radius*
0 $2 $3 $4 $5 $6 $7 $8 $9 X,Y pos of 4 corners*
0 Add a 4 corners polygon primitive as box body*
4,1,4,$2,$3,$4,$5,$6,$7,$8,$9,$2,$3,0*
0 Add four circle primitives for the rounded corners*
1,1,$1+$1,$2,$3*
1,1,$1+$1,$4,$5*
1,1,$1+$1,$6,$7*
1,1,$1+$1,$8,$9*
0 Add four rect primitives between the rounded corners*
20,1,$1+$1,$2,$3,$4,$5,0*
20,1,$1+$1,$4,$5,$6,$7,0*
20,1,$1+$1,$6,$7,$8,$9,0*
20,1,$1+$1,$8,$9,$2,$3,0*%
G04 Aperture macros list end*
%ADD10RoundRect,0.135000X-0.135000X-0.185000X0.135000X-0.185000X0.135000X0.185000X-0.135000X0.185000X0*%
%ADD11RoundRect,0.218750X0.256250X-0.218750X0.256250X0.218750X-0.256250X0.218750X-0.256250X-0.218750X0*%
%ADD12RoundRect,0.140000X0.170000X-0.140000X0.170000X0.140000X-0.170000X0.140000X-0.170000X-0.140000X0*%
%ADD13RoundRect,0.135000X0.135000X0.185000X-0.135000X0.185000X-0.135000X-0.185000X0.135000X-0.185000X0*%
%ADD14RoundRect,0.140000X-0.170000X0.140000X-0.170000X-0.140000X0.170000X-0.140000X0.170000X0.140000X0*%
%ADD15C,0.650000*%
%ADD16RoundRect,0.150000X0.150000X0.400000X-0.150000X0.400000X-0.150000X-0.400000X0.150000X-0.400000X0*%
%ADD17RoundRect,0.075000X0.075000X0.500000X-0.075000X0.500000X-0.075000X-0.500000X0.075000X-0.500000X0*%
%ADD18RoundRect,0.150000X0.150000X0.425000X-0.150000X0.425000X-0.150000X-0.425000X0.150000X-0.425000X0*%
%ADD19O,1.000000X2.100000*%
%ADD20O,1.000000X1.800000*%
%ADD21RoundRect,0.135000X-0.185000X0.135000X-0.185000X-0.135000X0.185000X-0.135000X0.185000X0.135000X0*%
%ADD22RoundRect,0.250000X-0.300000X0.275000X-0.300000X-0.275000X0.300000X-0.275000X0.300000X0.275000X0*%
%ADD23RoundRect,0.225000X0.250000X-0.225000X0.250000X0.225000X-0.250000X0.225000X-0.250000X-0.225000X0*%
%ADD24RoundRect,0.147500X-0.172500X0.147500X-0.172500X-0.147500X0.172500X-0.147500X0.172500X0.147500X0*%
%ADD25RoundRect,0.225000X0.225000X0.250000X-0.225000X0.250000X-0.225000X-0.250000X0.225000X-0.250000X0*%
%ADD26R,1.700000X1.700000*%
%ADD27C,1.700000*%
%ADD28RoundRect,0.225000X-0.225000X-0.250000X0.225000X-0.250000X0.225000X0.250000X-0.225000X0.250000X0*%
%ADD29RoundRect,0.135000X0.185000X-0.135000X0.185000X0.135000X-0.185000X0.135000X-0.185000X-0.135000X0*%
%ADD30RoundRect,0.140000X-0.140000X-0.170000X0.140000X-0.170000X0.140000X0.170000X-0.140000X0.170000X0*%
%ADD31RoundRect,0.250000X0.450000X0.800000X-0.450000X0.800000X-0.450000X-0.800000X0.450000X-0.800000X0*%
%ADD32R,0.900000X0.800000*%
%ADD33RoundRect,0.225000X-0.250000X0.225000X-0.250000X-0.225000X0.250000X-0.225000X0.250000X0.225000X0*%
%ADD34R,1.400000X1.600000*%
%ADD35RoundRect,0.140000X0.140000X0.170000X-0.140000X0.170000X-0.140000X-0.170000X0.140000X-0.170000X0*%
%ADD36RoundRect,0.075000X0.075000X-0.700000X0.075000X0.700000X-0.075000X0.700000X-0.075000X-0.700000X0*%
%ADD37RoundRect,0.075000X0.700000X-0.075000X0.700000X0.075000X-0.700000X0.075000X-0.700000X-0.075000X0*%
%ADD38RoundRect,0.150000X0.150000X-0.587500X0.150000X0.587500X-0.150000X0.587500X-0.150000X-0.587500X0*%
%TA.AperFunction,Profile*%
%ADD39C,0.230000*%
%TD*%
G04 APERTURE END LIST*
D10*
%TO.C,R11*%
X133519000Y-123442000D03*
X132499000Y-123442000D03*
%TD*%
D11*
%TO.C,D6*%
X153543000Y-133756500D03*
X153543000Y-132181500D03*
%TD*%
D12*
%TO.C,C20*%
X135509000Y-130272000D03*
X135509000Y-129312000D03*
%TD*%
D13*
%TO.C,R14*%
X132968991Y-120197838D03*
X131948991Y-120197838D03*
%TD*%
D14*
%TO.C,C11*%
X138938000Y-103632000D03*
X138938000Y-104592000D03*
%TD*%
D15*
%TO.C,J3*%
X145384000Y-100611000D03*
X139604000Y-100611000D03*
D16*
X145694000Y-101686000D03*
X144894000Y-101686000D03*
D17*
X143744000Y-101686000D03*
X142744000Y-101686000D03*
X142244000Y-101686000D03*
X141244000Y-101686000D03*
D18*
X140094000Y-101686000D03*
D16*
X139294000Y-101686000D03*
X139294000Y-101686000D03*
D18*
X140094000Y-101686000D03*
D17*
X140744000Y-101686000D03*
X141744000Y-101686000D03*
X143244000Y-101686000D03*
X144244000Y-101686000D03*
D16*
X144894000Y-101686000D03*
X145694000Y-101686000D03*
D19*
X146814000Y-101111000D03*
D20*
X146814000Y-96931000D03*
D19*
X138174000Y-101111000D03*
D20*
X138174000Y-96931000D03*
%TD*%
D21*
%TO.C,R4*%
X140716000Y-103592000D03*
X140716000Y-104612000D03*
%TD*%
D22*
%TO.C,X3*%
X133731000Y-130391000D03*
X133731000Y-132241000D03*
%TD*%
D23*
%TO.C,C9*%
X138557000Y-114311000D03*
X138557000Y-112761000D03*
%TD*%
D21*
%TO.C,R6*%
X141224000Y-112518000D03*
X141224000Y-113538000D03*
%TD*%
D13*
%TO.C,R12*%
X151045000Y-120140000D03*
X150025000Y-120140000D03*
%TD*%
D24*
%TO.C,FB2*%
X150495000Y-103655000D03*
X150495000Y-104625000D03*
%TD*%
D10*
%TO.C,R15*%
X150025000Y-121156000D03*
X151045000Y-121156000D03*
%TD*%
D21*
%TO.C,R19*%
X150444200Y-129117000D03*
X150444200Y-130137000D03*
%TD*%
%TO.C,R20*%
X152019000Y-129117000D03*
X152019000Y-130137000D03*
%TD*%
D25*
%TO.C,C15*%
X153340400Y-95504000D03*
X151790400Y-95504000D03*
%TD*%
D11*
%TO.C,D3*%
X148971000Y-133767300D03*
X148971000Y-132192300D03*
%TD*%
D13*
%TO.C,R13*%
X151045000Y-119124000D03*
X150025000Y-119124000D03*
%TD*%
D26*
%TO.C,J6*%
X128016000Y-96012000D03*
D27*
X128016000Y-98552000D03*
X128016000Y-101092000D03*
X128016000Y-103632000D03*
X128016000Y-106172000D03*
X128016000Y-108712000D03*
X128016000Y-111252000D03*
X128016000Y-113792000D03*
X128016000Y-116332000D03*
X128016000Y-118872000D03*
X128016000Y-121412000D03*
X128016000Y-123952000D03*
X128016000Y-126492000D03*
X128016000Y-129032000D03*
X128016000Y-131572000D03*
X128016000Y-134112000D03*
%TD*%
D28*
%TO.C,C8*%
X150101000Y-117473000D03*
X151651000Y-117473000D03*
%TD*%
D21*
%TO.C,R22*%
X153593800Y-129117000D03*
X153593800Y-130137000D03*
%TD*%
D29*
%TO.C,R17*%
X135636000Y-100584000D03*
X135636000Y-99564000D03*
%TD*%
%TO.C,R7*%
X141732000Y-104612000D03*
X141732000Y-103592000D03*
%TD*%
D30*
%TO.C,C4*%
X148785000Y-116203000D03*
X149745000Y-116203000D03*
%TD*%
D31*
%TO.C,D2*%
X153330000Y-97739200D03*
X148930000Y-97739200D03*
%TD*%
D32*
%TO.C,X2*%
X139891000Y-132195000D03*
X141541000Y-132195000D03*
X141541000Y-130945000D03*
X139891000Y-130945000D03*
%TD*%
D33*
%TO.C,C16*%
X152400000Y-103873000D03*
X152400000Y-105423000D03*
%TD*%
D26*
%TO.C,J4*%
X152004000Y-111018000D03*
D27*
X152004000Y-108478000D03*
X149464000Y-111018000D03*
X149464000Y-108478000D03*
X146924000Y-111018000D03*
X146924000Y-108478000D03*
%TD*%
D14*
%TO.C,C14*%
X138176000Y-131852000D03*
X138176000Y-132812000D03*
%TD*%
D11*
%TO.C,D4*%
X150456200Y-133756500D03*
X150456200Y-132181500D03*
%TD*%
D30*
%TO.C,C7*%
X149801000Y-124966000D03*
X150761000Y-124966000D03*
%TD*%
D34*
%TO.C,RST2*%
X133580000Y-109428000D03*
X133580000Y-116628000D03*
X130580000Y-109428000D03*
X130580000Y-116628000D03*
%TD*%
D35*
%TO.C,C22*%
X131544000Y-118237000D03*
X130584000Y-118237000D03*
%TD*%
D25*
%TO.C,C3*%
X133784000Y-127506000D03*
X132234000Y-127506000D03*
%TD*%
D12*
%TO.C,C12*%
X136906000Y-104592000D03*
X136906000Y-103632000D03*
%TD*%
D10*
%TO.C,R21*%
X132713000Y-118237000D03*
X133733000Y-118237000D03*
%TD*%
D14*
%TO.C,C13*%
X143256000Y-131090000D03*
X143256000Y-132050000D03*
%TD*%
D36*
%TO.C,U2*%
X138236000Y-127847000D03*
X138736000Y-127847000D03*
X139236000Y-127847000D03*
X139736000Y-127847000D03*
X140236000Y-127847000D03*
X140736000Y-127847000D03*
X141236000Y-127847000D03*
X141736000Y-127847000D03*
X142236000Y-127847000D03*
X142736000Y-127847000D03*
X143236000Y-127847000D03*
X143736000Y-127847000D03*
X144236000Y-127847000D03*
X144736000Y-127847000D03*
X145236000Y-127847000D03*
X145736000Y-127847000D03*
D37*
X147661000Y-125922000D03*
X147661000Y-125422000D03*
X147661000Y-124922000D03*
X147661000Y-124422000D03*
X147661000Y-123922000D03*
X147661000Y-123422000D03*
X147661000Y-122922000D03*
X147661000Y-122422000D03*
X147661000Y-121922000D03*
X147661000Y-121422000D03*
X147661000Y-120922000D03*
X147661000Y-120422000D03*
X147661000Y-119922000D03*
X147661000Y-119422000D03*
X147661000Y-118922000D03*
X147661000Y-118422000D03*
D36*
X145736000Y-116497000D03*
X145236000Y-116497000D03*
X144736000Y-116497000D03*
X144236000Y-116497000D03*
X143736000Y-116497000D03*
X143236000Y-116497000D03*
X142736000Y-116497000D03*
X142236000Y-116497000D03*
X141736000Y-116497000D03*
X141236000Y-116497000D03*
X140736000Y-116497000D03*
X140236000Y-116497000D03*
X139736000Y-116497000D03*
X139236000Y-116497000D03*
X138736000Y-116497000D03*
X138236000Y-116497000D03*
D37*
X136311000Y-118422000D03*
X136311000Y-118922000D03*
X136311000Y-119422000D03*
X136311000Y-119922000D03*
X136311000Y-120422000D03*
X136311000Y-120922000D03*
X136311000Y-121422000D03*
X136311000Y-121922000D03*
X136311000Y-122422000D03*
X136311000Y-122922000D03*
X136311000Y-123422000D03*
X136311000Y-123922000D03*
X136311000Y-124422000D03*
X136311000Y-124922000D03*
X136311000Y-125422000D03*
X136311000Y-125922000D03*
%TD*%
D13*
%TO.C,R8*%
X133519000Y-124458000D03*
X132499000Y-124458000D03*
%TD*%
D29*
%TO.C,R9*%
X137922000Y-104622000D03*
X137922000Y-103602000D03*
%TD*%
D23*
%TO.C,C17*%
X148971000Y-105423000D03*
X148971000Y-103873000D03*
%TD*%
D21*
%TO.C,R3*%
X143764000Y-103592000D03*
X143764000Y-104612000D03*
%TD*%
D26*
%TO.C,J7*%
X155956000Y-96012000D03*
D27*
X155956000Y-98552000D03*
X155956000Y-101092000D03*
X155956000Y-103632000D03*
X155956000Y-106172000D03*
X155956000Y-108712000D03*
X155956000Y-111252000D03*
X155956000Y-113792000D03*
X155956000Y-116332000D03*
X155956000Y-118872000D03*
X155956000Y-121412000D03*
X155956000Y-123952000D03*
X155956000Y-126492000D03*
X155956000Y-129032000D03*
X155956000Y-131572000D03*
X155956000Y-134112000D03*
%TD*%
D10*
%TO.C,R10*%
X131951000Y-122045000D03*
X132971000Y-122045000D03*
%TD*%
D38*
%TO.C,U3*%
X149026800Y-102108000D03*
X150926800Y-102108000D03*
X149976800Y-100233000D03*
%TD*%
D11*
%TO.C,D5*%
X152019000Y-133756500D03*
X152019000Y-132181500D03*
%TD*%
D34*
%TO.C,USR2*%
X133580000Y-99522000D03*
X133580000Y-106722000D03*
X130580000Y-99522000D03*
X130580000Y-106722000D03*
%TD*%
D29*
%TO.C,R2*%
X144907000Y-104612000D03*
X144907000Y-103592000D03*
%TD*%
D35*
%TO.C,C6*%
X133489000Y-125982000D03*
X132529000Y-125982000D03*
%TD*%
D12*
%TO.C,C18*%
X146679178Y-104593471D03*
X146679178Y-103633471D03*
%TD*%
D21*
%TO.C,R18*%
X148971000Y-129159000D03*
X148971000Y-130179000D03*
%TD*%
D35*
%TO.C,C10*%
X133957000Y-128903000D03*
X132997000Y-128903000D03*
%TD*%
D14*
%TO.C,C19*%
X135509000Y-131852000D03*
X135509000Y-132812000D03*
%TD*%
D29*
%TO.C,R5*%
X142748000Y-104612000D03*
X142748000Y-103592000D03*
%TD*%
D12*
%TO.C,C5*%
X137033000Y-114524000D03*
X137033000Y-113564000D03*
%TD*%
D39*
X125476000Y-94232000D02*
X158496000Y-94232000D01*
X158496000Y-136142000D01*
X125476000Y-136142000D01*
X125476000Y-94232000D01*
M02*
