%TF.GenerationSoftware,KiCad,Pcbnew,9.0.0*%
%TF.CreationDate,2025-09-12T19:21:47+01:00*%
%TF.ProjectId,OE PyBoard,4f452050-7942-46f6-9172-642e6b696361,rev?*%
%TF.SameCoordinates,Original*%
%TF.FileFunction,Copper,L3,Inr*%
%TF.FilePolarity,Positive*%
%FSLAX46Y46*%
G04 Gerber Fmt 4.6, Leading zero omitted, Abs format (unit mm)*
G04 Created by KiCad (PCBNEW 9.0.0) date 2025-09-12 19:21:47*
%MOMM*%
%LPD*%
G01*
G04 APERTURE LIST*
%TA.AperFunction,HeatsinkPad*%
%ADD10O,1.000000X2.100000*%
%TD*%
%TA.AperFunction,HeatsinkPad*%
%ADD11O,1.000000X1.800000*%
%TD*%
%TA.AperFunction,ComponentPad*%
%ADD12R,1.700000X1.700000*%
%TD*%
%TA.AperFunction,ComponentPad*%
%ADD13C,1.700000*%
%TD*%
%TA.AperFunction,ViaPad*%
%ADD14C,0.550000*%
%TD*%
%TA.AperFunction,Conductor*%
%ADD15C,0.220000*%
%TD*%
%TA.AperFunction,Conductor*%
%ADD16C,0.230000*%
%TD*%
%TA.AperFunction,Conductor*%
%ADD17C,0.210000*%
%TD*%
%TA.AperFunction,Conductor*%
%ADD18C,0.450000*%
%TD*%
%TA.AperFunction,Conductor*%
%ADD19C,0.250000*%
%TD*%
%TA.AperFunction,Profile*%
%ADD20C,0.230000*%
%TD*%
G04 APERTURE END LIST*
D10*
%TO.N,Net-(J3-SHIELD)*%
%TO.C,J3*%
X146814000Y-101111000D03*
D11*
X146814000Y-96931000D03*
D10*
X138174000Y-101111000D03*
D11*
X138174000Y-96931000D03*
%TD*%
D12*
%TO.N,/PC6-Y1*%
%TO.C,J6*%
X128016000Y-96012000D03*
D13*
%TO.N,/PC7-Y2*%
X128016000Y-98552000D03*
%TO.N,/PB8-Y3*%
X128016000Y-101092000D03*
%TO.N,/PB9-Y4*%
X128016000Y-103632000D03*
%TO.N,/PB12-Y5*%
X128016000Y-106172000D03*
%TO.N,/PB13-Y6*%
X128016000Y-108712000D03*
%TO.N,/PB14-Y7*%
X128016000Y-111252000D03*
%TO.N,/PB15-Y8*%
X128016000Y-113792000D03*
%TO.N,/PB6-SCL-X9*%
X128016000Y-116332000D03*
%TO.N,/PB7-SDA-X10*%
X128016000Y-118872000D03*
%TO.N,/PC4-X11*%
X128016000Y-121412000D03*
%TO.N,/PC5-X12*%
X128016000Y-123952000D03*
%TO.N,/RST-SW*%
X128016000Y-126492000D03*
%TO.N,GND*%
X128016000Y-129032000D03*
%TO.N,+3V3*%
X128016000Y-131572000D03*
%TO.N,V+*%
X128016000Y-134112000D03*
%TD*%
D12*
%TO.N,+3V3*%
%TO.C,J4*%
X152004000Y-111018000D03*
D13*
%TO.N,/PA14-JTCK*%
X152004000Y-108478000D03*
%TO.N,/PB4-NJTRST*%
X149464000Y-111018000D03*
%TO.N,/PB6-JTDO*%
X149464000Y-108478000D03*
%TO.N,GND*%
X146924000Y-111018000D03*
%TO.N,/PA15-JTDI*%
X146924000Y-108478000D03*
%TD*%
D12*
%TO.N,V+*%
%TO.C,J7*%
X155956000Y-96012000D03*
D13*
%TO.N,+3V3*%
X155956000Y-98552000D03*
%TO.N,GND*%
X155956000Y-101092000D03*
%TO.N,/RST-SW*%
X155956000Y-103632000D03*
%TO.N,/PB1-Y12*%
X155956000Y-106172000D03*
%TO.N,/PB0-Y11*%
X155956000Y-108712000D03*
%TO.N,/PB11-Y10*%
X155956000Y-111252000D03*
%TO.N,/PB10-Y9*%
X155956000Y-113792000D03*
%TO.N,/PA7-X8*%
X155956000Y-116332000D03*
%TO.N,/PA6-X7*%
X155956000Y-118872000D03*
%TO.N,/PA5-X6*%
X155956000Y-121412000D03*
%TO.N,/PA4-X5*%
X155956000Y-123952000D03*
%TO.N,/PA3-X4*%
X155956000Y-126492000D03*
%TO.N,/PA2-X3*%
X155956000Y-129032000D03*
%TO.N,/PA1-X2*%
X155956000Y-131572000D03*
%TO.N,/PA0-X1*%
X155956000Y-134112000D03*
%TD*%
D14*
%TO.N,/PB12-Y5*%
X144018000Y-109980000D03*
%TO.N,/PB14-Y7*%
X144018000Y-114552000D03*
%TO.N,/PB1-Y12*%
X145542000Y-105664000D03*
X145871000Y-120267000D03*
%TO.N,/PB9-Y4*%
X135424000Y-106085000D03*
X138023600Y-124788025D03*
%TO.N,/PA0-X1*%
X146255481Y-131902481D03*
%TO.N,/PB13-Y6*%
X144018000Y-113536000D03*
%TO.N,/PB7-SDA-X10*%
X134366000Y-123507000D03*
%TO.N,/PB11-Y10*%
X154559000Y-117856000D03*
X149315961Y-119320493D03*
%TO.N,/PA1-X2*%
X146558000Y-131189000D03*
%TO.N,/PA4-X5*%
X146177000Y-124331000D03*
%TO.N,/PC4-X11*%
X146177000Y-122807000D03*
%TO.N,/PC6-Y1*%
X143764000Y-115314000D03*
%TO.N,/PB15-Y8*%
X143764000Y-118489000D03*
%TO.N,/PA2-X3*%
X146558000Y-130300000D03*
%TO.N,/PB0-Y11*%
X154432000Y-119126000D03*
X146081750Y-121124250D03*
%TO.N,/VDDA*%
X147828000Y-105509000D03*
X147701000Y-126746000D03*
%TO.N,/PB6-SCL-X9*%
X132885431Y-121061573D03*
%TO.N,/PC5-X12*%
X145288000Y-124206000D03*
%TO.N,/RST-SW*%
X154555563Y-106807000D03*
X139827000Y-108585000D03*
X140589000Y-126111000D03*
X134945832Y-108712000D03*
%TO.N,/PB8-Y3*%
X136339022Y-101364106D03*
X137922000Y-123317000D03*
%TO.N,/PC7-Y2*%
X141478000Y-98552000D03*
X142240000Y-115187000D03*
%TO.N,/PB10-Y9*%
X149273885Y-120228716D03*
X149860000Y-114046000D03*
%TO.N,GND*%
X131706510Y-121062966D03*
X141478000Y-96647000D03*
X143154400Y-105714800D03*
X146304000Y-125424534D03*
X139573000Y-123317000D03*
X129540000Y-112014000D03*
X151700000Y-115500000D03*
X135255000Y-107569000D03*
X149299234Y-112839991D03*
X137464800Y-130911600D03*
X154500000Y-127600000D03*
X147370800Y-134518400D03*
X139827000Y-103124000D03*
X130246000Y-128250000D03*
X149961600Y-102717600D03*
X143245446Y-107500000D03*
X131064000Y-95123000D03*
X129540000Y-104902000D03*
X146750000Y-129350000D03*
X144720638Y-108710383D03*
X145034000Y-120904000D03*
X151275000Y-126925000D03*
X139827000Y-121158000D03*
X146177000Y-118872000D03*
X132715000Y-113030000D03*
X140843000Y-107823000D03*
X153162000Y-112649000D03*
X152908000Y-107061000D03*
X151393912Y-104421942D03*
X143637000Y-111887000D03*
X141224000Y-110871000D03*
X136246000Y-111000000D03*
X129540000Y-117983000D03*
X131815548Y-124458000D03*
X150786342Y-125711342D03*
X146685000Y-103251000D03*
X134061200Y-96875600D03*
X154482800Y-123342400D03*
X153100000Y-117500400D03*
X142748000Y-125730000D03*
X135636000Y-114427000D03*
X138430000Y-107315000D03*
X154635200Y-130454400D03*
X138823797Y-130940660D03*
X139176000Y-110570799D03*
X135255000Y-116459000D03*
X143459200Y-98602800D03*
X150774681Y-122263533D03*
X154482800Y-125577600D03*
X130200400Y-134569200D03*
X148996000Y-100000000D03*
X131246000Y-130000000D03*
X135001000Y-119634000D03*
X144256583Y-95235447D03*
X134747000Y-100584000D03*
X129794000Y-125250000D03*
X142544800Y-132559777D03*
X146685000Y-128397000D03*
X134493000Y-125222000D03*
X149199600Y-95402400D03*
X129667000Y-102362000D03*
X130200400Y-132232400D03*
X144907000Y-132588000D03*
X132080000Y-107950000D03*
X141986000Y-129284000D03*
X139827000Y-105410000D03*
X138303000Y-125730000D03*
X132080000Y-100584000D03*
X130048000Y-114681000D03*
X137033000Y-128522000D03*
X129590800Y-97688400D03*
X139649200Y-134366000D03*
X154432000Y-134620000D03*
X135685803Y-102980065D03*
X141478000Y-120777000D03*
%TO.N,+3V3*%
X136017000Y-127506000D03*
X136294720Y-112312720D03*
X149860000Y-125855000D03*
X134945832Y-118616000D03*
X151842000Y-120142000D03*
X136347200Y-133348000D03*
X153771600Y-103632000D03*
X141224000Y-111885000D03*
X136334500Y-117475000D03*
X146825000Y-133361000D03*
X136334500Y-115187000D03*
%TO.N,VBUS*%
X147965742Y-98615491D03*
X148049066Y-99334043D03*
%TO.N,/PA14-JTCK*%
X144275617Y-119049000D03*
X138526000Y-119049000D03*
X147701000Y-127635000D03*
X144907000Y-109474000D03*
%TO.N,/PB6-JTDO*%
X147701000Y-129159000D03*
%TO.N,/PB4-NJTRST*%
X152389999Y-121869757D03*
X149733000Y-122174000D03*
X153200000Y-126525000D03*
X134366000Y-121537000D03*
%TO.N,/PA15-JTDI*%
X152019000Y-126525000D03*
X144907000Y-119634000D03*
X151689988Y-118547201D03*
X138430000Y-119888000D03*
%TO.N,/PB3-SW1*%
X134316000Y-120788666D03*
X135636000Y-101949106D03*
%TD*%
D15*
%TO.N,/PB12-Y5*%
X129157000Y-106170000D02*
X128016000Y-106170000D01*
X144018000Y-109980000D02*
X132967000Y-109980000D01*
X132967000Y-109980000D02*
X129157000Y-106170000D01*
%TO.N,/PB14-Y7*%
X143131000Y-113665000D02*
X134493000Y-113665000D01*
X134493000Y-113665000D02*
X132078000Y-111250000D01*
X144018000Y-114552000D02*
X143131000Y-113665000D01*
X132078000Y-111250000D02*
X128016000Y-111250000D01*
D16*
%TO.N,/PB1-Y12*%
X155956000Y-106170000D02*
X155450000Y-105664000D01*
X148971000Y-105664000D02*
X148225000Y-104918000D01*
X148225000Y-104918000D02*
X147431000Y-104918000D01*
X146685000Y-105664000D02*
X145542000Y-105664000D01*
X147431000Y-104918000D02*
X146685000Y-105664000D01*
X155450000Y-105664000D02*
X148971000Y-105664000D01*
D15*
%TO.N,/PB9-Y4*%
X132969000Y-103630000D02*
X128016000Y-103630000D01*
X135424000Y-106085000D02*
X132969000Y-103630000D01*
%TO.N,/PA0-X1*%
X146255481Y-131902481D02*
X146304000Y-131951000D01*
X146304000Y-131951000D02*
X153797000Y-131951000D01*
X153797000Y-131951000D02*
X155956000Y-134110000D01*
%TO.N,/PB13-Y6*%
X134872000Y-113028000D02*
X130554000Y-108710000D01*
X130554000Y-108710000D02*
X128016000Y-108710000D01*
X144018000Y-113536000D02*
X143510000Y-113028000D01*
X143510000Y-113028000D02*
X134872000Y-113028000D01*
D16*
%TO.N,/PB11-Y10*%
X153094507Y-119320493D02*
X149315961Y-119320493D01*
X154559000Y-117856000D02*
X153094507Y-119320493D01*
D15*
%TO.N,/PA1-X2*%
X146558000Y-131189000D02*
X155575000Y-131189000D01*
%TO.N,/PA4-X5*%
X146177000Y-124331000D02*
X155575000Y-124331000D01*
%TO.N,/PC4-X11*%
X145792000Y-122422000D02*
X144478000Y-122422000D01*
X129032000Y-122426000D02*
X128016000Y-121410000D01*
X144474000Y-122426000D02*
X129032000Y-122426000D01*
X146177000Y-122807000D02*
X145792000Y-122422000D01*
X144478000Y-122422000D02*
X144474000Y-122426000D01*
%TO.N,/PB15-Y8*%
X143764000Y-118489000D02*
X143738000Y-118463000D01*
X143738000Y-118463000D02*
X138402000Y-118463000D01*
X138402000Y-118463000D02*
X133729000Y-113790000D01*
X133729000Y-113790000D02*
X128016000Y-113790000D01*
%TO.N,/PA2-X3*%
X154686000Y-129489200D02*
X153875200Y-130300000D01*
D16*
X155632647Y-129353353D02*
X155956000Y-129030000D01*
X154821847Y-129353353D02*
X155632647Y-129353353D01*
X154686000Y-129489200D02*
X154821847Y-129353353D01*
D15*
X153875200Y-130300000D02*
X146558000Y-130300000D01*
D16*
%TO.N,/PB0-Y11*%
X154432000Y-119126000D02*
X152654000Y-120904000D01*
X146302000Y-120904000D02*
X146081750Y-121124250D01*
X152654000Y-120904000D02*
X146302000Y-120904000D01*
D15*
%TO.N,/PB6-SCL-X9*%
X132885431Y-121061573D02*
X132886039Y-121060965D01*
X132886039Y-121060965D02*
X132886039Y-117519039D01*
X131732273Y-116365273D02*
X128016000Y-116365273D01*
X132886039Y-117519039D02*
X131732273Y-116365273D01*
%TO.N,/PC5-X12*%
X132389110Y-124203025D02*
X132011085Y-123825000D01*
X132011085Y-123825000D02*
X128141000Y-123825000D01*
X145288000Y-124206000D02*
X145285025Y-124203025D01*
X145285025Y-124203025D02*
X132389110Y-124203025D01*
%TO.N,/RST-SW*%
X140210000Y-126490000D02*
X128016000Y-126490000D01*
D17*
X153998563Y-106250000D02*
X154555563Y-106807000D01*
D15*
X143129000Y-108585000D02*
X145464000Y-106250000D01*
X134945832Y-108712000D02*
X139700000Y-108712000D01*
X145464000Y-106250000D02*
X147369000Y-106250000D01*
X139700000Y-108712000D02*
X139827000Y-108585000D01*
D17*
X147369000Y-106250000D02*
X153998563Y-106250000D01*
D15*
X139827000Y-108585000D02*
X143129000Y-108585000D01*
X140589000Y-126111000D02*
X140210000Y-126490000D01*
%TO.N,/PB8-Y3*%
X136339022Y-101364106D02*
X128290106Y-101364106D01*
D17*
%TO.N,/PC7-Y2*%
X141478000Y-98552000D02*
X141476000Y-98550000D01*
X141476000Y-98550000D02*
X128016000Y-98550000D01*
D15*
%TO.N,/PB10-Y9*%
X149860000Y-114046000D02*
X155305667Y-114046000D01*
%TO.N,+3V3*%
X140790000Y-112319000D02*
X141224000Y-111885000D01*
X136369720Y-112312720D02*
X136376000Y-112319000D01*
D18*
X146812000Y-133348000D02*
X129794000Y-133348000D01*
D15*
X136294720Y-112312720D02*
X136369720Y-112312720D01*
D16*
X134945832Y-117974668D02*
X134945832Y-118616000D01*
D18*
X129794000Y-133348000D02*
X128016000Y-131570000D01*
D16*
X135445500Y-117475000D02*
X134945832Y-117974668D01*
D15*
X136376000Y-112319000D02*
X140790000Y-112319000D01*
D18*
X146825000Y-133361000D02*
X146812000Y-133348000D01*
D16*
X136334500Y-117475000D02*
X135445500Y-117475000D01*
D19*
%TO.N,Net-(J3-SHIELD)*%
X138377000Y-101420000D02*
X146615000Y-101420000D01*
D15*
%TO.N,/PA14-JTCK*%
X138526000Y-119049000D02*
X138572000Y-119095000D01*
X144229617Y-119095000D02*
X144275617Y-119049000D01*
X138572000Y-119095000D02*
X144229617Y-119095000D01*
%TO.N,/PB4-NJTRST*%
X150368000Y-121539000D02*
X149733000Y-122174000D01*
X152059242Y-121539000D02*
X150368000Y-121539000D01*
X134690000Y-121861000D02*
X134366000Y-121537000D01*
X149420000Y-121861000D02*
X134690000Y-121861000D01*
X149733000Y-122174000D02*
X149420000Y-121861000D01*
X152389999Y-121869757D02*
X152059242Y-121539000D01*
%TO.N,/PA15-JTDI*%
X144519347Y-119634000D02*
X148080000Y-119634000D01*
X148080000Y-119634000D02*
X149166799Y-118547201D01*
X149166799Y-118547201D02*
X151689988Y-118547201D01*
X144032887Y-119635000D02*
X144518347Y-119635000D01*
X144031887Y-119634000D02*
X144032887Y-119635000D01*
X144518347Y-119635000D02*
X144519347Y-119634000D01*
X138430000Y-119888000D02*
X138684000Y-119634000D01*
X138684000Y-119634000D02*
X144031887Y-119634000D01*
%TD*%
%TA.AperFunction,Conductor*%
%TO.N,GND*%
G36*
X131880680Y-124206317D02*
G01*
X131893686Y-124217425D01*
X132100638Y-124424377D01*
X132100637Y-124424377D01*
X132167755Y-124491494D01*
X132167758Y-124491497D01*
X132249962Y-124538958D01*
X132341649Y-124563525D01*
X137397666Y-124563525D01*
X137461735Y-124584342D01*
X137501331Y-124638842D01*
X137502951Y-124700738D01*
X137498100Y-124718841D01*
X137498100Y-124857207D01*
X137533911Y-124990860D01*
X137533912Y-124990861D01*
X137603095Y-125110690D01*
X137700935Y-125208530D01*
X137820764Y-125277713D01*
X137954417Y-125313525D01*
X138092783Y-125313525D01*
X138226436Y-125277713D01*
X138346265Y-125208530D01*
X138444105Y-125110690D01*
X138513288Y-124990861D01*
X138549100Y-124857208D01*
X138549100Y-124718842D01*
X138544249Y-124700737D01*
X138547773Y-124633464D01*
X138590167Y-124581111D01*
X138649534Y-124563525D01*
X144857205Y-124563525D01*
X144921274Y-124584342D01*
X144934279Y-124595449D01*
X144965335Y-124626505D01*
X145085164Y-124695688D01*
X145218817Y-124731500D01*
X145357183Y-124731500D01*
X145490836Y-124695688D01*
X145610665Y-124626505D01*
X145610665Y-124626504D01*
X145614498Y-124624292D01*
X145680392Y-124610286D01*
X145741933Y-124637686D01*
X145755471Y-124652330D01*
X145756493Y-124653662D01*
X145756495Y-124653665D01*
X145854335Y-124751505D01*
X145974164Y-124820688D01*
X146107817Y-124856500D01*
X146246183Y-124856500D01*
X146379836Y-124820688D01*
X146499665Y-124751505D01*
X146519670Y-124731500D01*
X146527747Y-124723424D01*
X146587770Y-124692842D01*
X146604820Y-124691500D01*
X154831000Y-124691500D01*
X154895069Y-124712317D01*
X154934665Y-124766817D01*
X154940000Y-124800500D01*
X154940000Y-126040371D01*
X154934665Y-126074054D01*
X154882598Y-126234295D01*
X154855500Y-126405387D01*
X154855500Y-126578612D01*
X154882598Y-126749704D01*
X154934665Y-126909946D01*
X154940000Y-126943629D01*
X154940000Y-128580371D01*
X154934665Y-128614054D01*
X154882598Y-128774294D01*
X154863105Y-128897371D01*
X154832521Y-128957394D01*
X154780117Y-128984094D01*
X154780629Y-128986004D01*
X154680769Y-129012760D01*
X154597425Y-129060879D01*
X154393529Y-129264774D01*
X154393524Y-129264781D01*
X154391039Y-129269085D01*
X154373722Y-129291652D01*
X153757801Y-129907575D01*
X153697778Y-129938158D01*
X153680726Y-129939500D01*
X146985820Y-129939500D01*
X146921751Y-129918683D01*
X146908747Y-129907576D01*
X146880665Y-129879495D01*
X146760835Y-129810311D01*
X146627183Y-129774500D01*
X146488817Y-129774500D01*
X146355164Y-129810311D01*
X146235337Y-129879493D01*
X146137493Y-129977337D01*
X146068311Y-130097164D01*
X146032500Y-130230817D01*
X146032500Y-130369182D01*
X146068311Y-130502835D01*
X146137493Y-130622662D01*
X146137495Y-130622665D01*
X146182257Y-130667427D01*
X146212839Y-130727449D01*
X146202301Y-130793985D01*
X146182258Y-130821571D01*
X146148758Y-130855072D01*
X146137493Y-130866337D01*
X146068311Y-130986164D01*
X146032500Y-131119817D01*
X146032500Y-131258183D01*
X146049428Y-131321364D01*
X146045902Y-131388638D01*
X146003506Y-131440990D01*
X145998642Y-131443971D01*
X145932818Y-131481974D01*
X145834974Y-131579818D01*
X145765792Y-131699645D01*
X145729981Y-131833298D01*
X145729981Y-131971663D01*
X145765792Y-132105316D01*
X145765793Y-132105317D01*
X145834976Y-132225146D01*
X145932816Y-132322986D01*
X146052645Y-132392169D01*
X146186298Y-132427981D01*
X146324664Y-132427981D01*
X146458317Y-132392169D01*
X146572747Y-132326102D01*
X146627247Y-132311500D01*
X153602526Y-132311500D01*
X153666595Y-132332317D01*
X153679601Y-132343425D01*
X154908075Y-133571899D01*
X154912067Y-133579735D01*
X154919183Y-133584905D01*
X154927070Y-133609180D01*
X154938658Y-133631923D01*
X154940000Y-133648974D01*
X154940000Y-133660371D01*
X154934665Y-133694054D01*
X154882598Y-133854295D01*
X154855500Y-134025387D01*
X154855500Y-134198612D01*
X154882598Y-134369704D01*
X154934665Y-134529946D01*
X154940000Y-134563629D01*
X154940000Y-135398000D01*
X154919183Y-135462069D01*
X154864683Y-135501665D01*
X154831000Y-135507000D01*
X128633000Y-135507000D01*
X128568931Y-135486183D01*
X128529335Y-135431683D01*
X128524000Y-135398000D01*
X128524000Y-135155076D01*
X128529936Y-135136803D01*
X128530643Y-135117606D01*
X128539375Y-135107754D01*
X128544817Y-135091007D01*
X128572216Y-135064598D01*
X128577663Y-135060938D01*
X128592788Y-135053232D01*
X128637635Y-135020648D01*
X128639312Y-135019522D01*
X128669869Y-135010821D01*
X128700096Y-135001000D01*
X129105197Y-135001000D01*
X129105198Y-135001000D01*
X129105198Y-134278546D01*
X129106540Y-134261494D01*
X129116500Y-134198611D01*
X129116500Y-134025389D01*
X129106540Y-133962503D01*
X129105198Y-133945452D01*
X129105198Y-133594806D01*
X129113085Y-133570531D01*
X129117078Y-133545321D01*
X129123297Y-133539101D01*
X129126015Y-133530737D01*
X129146664Y-133515734D01*
X129164713Y-133497686D01*
X129173400Y-133496310D01*
X129180515Y-133491141D01*
X129206038Y-133491141D01*
X129231249Y-133487148D01*
X129239086Y-133491141D01*
X129247881Y-133491141D01*
X129291273Y-133517731D01*
X129413503Y-133639961D01*
X129413504Y-133639963D01*
X129502034Y-133728494D01*
X129502036Y-133728495D01*
X129610461Y-133791094D01*
X129610464Y-133791095D01*
X129731399Y-133823501D01*
X129731400Y-133823501D01*
X129863277Y-133823501D01*
X129863293Y-133823500D01*
X136090583Y-133823500D01*
X136137319Y-133836023D01*
X136137763Y-133834954D01*
X136144360Y-133837685D01*
X136144364Y-133837688D01*
X136278017Y-133873500D01*
X136416383Y-133873500D01*
X136550036Y-133837688D01*
X136550042Y-133837684D01*
X136556637Y-133834954D01*
X136557080Y-133836023D01*
X136603817Y-133823500D01*
X146545866Y-133823500D01*
X146600366Y-133838103D01*
X146622164Y-133850688D01*
X146755817Y-133886500D01*
X146894183Y-133886500D01*
X147027836Y-133850688D01*
X147147665Y-133781505D01*
X147245505Y-133683665D01*
X147314688Y-133563836D01*
X147350500Y-133430183D01*
X147350500Y-133291817D01*
X147314688Y-133158164D01*
X147245505Y-133038335D01*
X147147665Y-132940495D01*
X147029894Y-132872500D01*
X147027835Y-132871311D01*
X146894183Y-132835500D01*
X146755817Y-132835500D01*
X146631589Y-132868786D01*
X146603382Y-132872500D01*
X142343649Y-132872500D01*
X142279580Y-132851683D01*
X142239984Y-132797183D01*
X142239984Y-132729817D01*
X142240000Y-132729790D01*
X142240000Y-130300001D01*
X142240000Y-130300000D01*
X139192000Y-130300000D01*
X139192000Y-132713000D01*
X139192000Y-132738580D01*
X139196009Y-132746449D01*
X139185471Y-132812985D01*
X139137836Y-132860620D01*
X139088351Y-132872500D01*
X136603817Y-132872500D01*
X136557080Y-132859976D01*
X136556637Y-132861046D01*
X136550036Y-132858312D01*
X136416383Y-132822500D01*
X136278017Y-132822500D01*
X136144363Y-132858312D01*
X136137763Y-132861046D01*
X136137319Y-132859976D01*
X136090583Y-132872500D01*
X130036108Y-132872500D01*
X129972039Y-132851683D01*
X129959033Y-132840575D01*
X129137123Y-132018664D01*
X129133130Y-132010827D01*
X129126015Y-132005658D01*
X129118127Y-131981382D01*
X129106540Y-131958640D01*
X129105198Y-131941589D01*
X129105198Y-131738546D01*
X129106540Y-131721494D01*
X129116500Y-131658611D01*
X129116500Y-131485389D01*
X129106540Y-131422503D01*
X129105198Y-131405452D01*
X129105198Y-130429001D01*
X129105198Y-130429000D01*
X128633000Y-130429000D01*
X128568931Y-130408183D01*
X128529335Y-130353683D01*
X128524000Y-130320000D01*
X128524000Y-130074515D01*
X128544817Y-130010446D01*
X128583516Y-129977395D01*
X128592517Y-129972808D01*
X128592527Y-129972802D01*
X128701124Y-129893902D01*
X128701124Y-129893901D01*
X128524000Y-129716776D01*
X128524000Y-129363223D01*
X128877901Y-129717124D01*
X128877902Y-129717124D01*
X128956801Y-129608529D01*
X129035411Y-129454248D01*
X129088913Y-129289588D01*
X129116000Y-129118572D01*
X129116000Y-129089817D01*
X147175500Y-129089817D01*
X147175500Y-129228182D01*
X147211311Y-129361835D01*
X147280493Y-129481662D01*
X147280495Y-129481665D01*
X147378335Y-129579505D01*
X147498164Y-129648688D01*
X147631817Y-129684500D01*
X147770183Y-129684500D01*
X147903836Y-129648688D01*
X148023665Y-129579505D01*
X148121505Y-129481665D01*
X148190688Y-129361836D01*
X148226500Y-129228183D01*
X148226500Y-129089817D01*
X148190688Y-128956164D01*
X148121505Y-128836335D01*
X148023665Y-128738495D01*
X147958332Y-128700775D01*
X147903835Y-128669311D01*
X147770183Y-128633500D01*
X147631817Y-128633500D01*
X147498164Y-128669311D01*
X147378337Y-128738493D01*
X147280493Y-128836337D01*
X147211311Y-128956164D01*
X147175500Y-129089817D01*
X129116000Y-129089817D01*
X129116000Y-128945427D01*
X129088913Y-128774411D01*
X129035411Y-128609751D01*
X128956802Y-128455474D01*
X128877901Y-128346874D01*
X128524000Y-128700775D01*
X128524000Y-128347220D01*
X128701124Y-128170096D01*
X128592521Y-128091194D01*
X128583510Y-128086602D01*
X128535878Y-128038965D01*
X128524000Y-127989485D01*
X128524000Y-127744000D01*
X128544817Y-127679931D01*
X128599317Y-127640335D01*
X128633000Y-127635000D01*
X129105197Y-127635000D01*
X129105198Y-127635000D01*
X129105198Y-126959500D01*
X129126015Y-126895431D01*
X129180515Y-126855835D01*
X129214198Y-126850500D01*
X135694565Y-126850500D01*
X135758634Y-126871317D01*
X135798230Y-126925817D01*
X135798230Y-126993183D01*
X135758634Y-127047683D01*
X135749064Y-127053897D01*
X135694338Y-127085492D01*
X135596493Y-127183337D01*
X135527311Y-127303164D01*
X135491500Y-127436817D01*
X135491500Y-127575182D01*
X135527311Y-127708835D01*
X135596493Y-127828662D01*
X135596495Y-127828665D01*
X135694335Y-127926505D01*
X135814164Y-127995688D01*
X135947817Y-128031500D01*
X136086183Y-128031500D01*
X136219836Y-127995688D01*
X136339665Y-127926505D01*
X136437505Y-127828665D01*
X136506688Y-127708836D01*
X136542500Y-127575183D01*
X136542500Y-127436817D01*
X136506688Y-127303164D01*
X136437505Y-127183335D01*
X136339665Y-127085495D01*
X136339662Y-127085493D01*
X136339661Y-127085492D01*
X136284936Y-127053897D01*
X136239859Y-127003835D01*
X136232817Y-126936838D01*
X136266499Y-126878498D01*
X136328041Y-126851097D01*
X136339435Y-126850500D01*
X140257461Y-126850500D01*
X140349148Y-126825933D01*
X140431352Y-126778472D01*
X140488175Y-126721649D01*
X140533008Y-126676817D01*
X147175500Y-126676817D01*
X147175500Y-126815183D01*
X147184203Y-126847662D01*
X147211311Y-126948835D01*
X147280493Y-127068662D01*
X147280495Y-127068665D01*
X147325257Y-127113427D01*
X147355839Y-127173449D01*
X147345301Y-127239985D01*
X147325258Y-127267571D01*
X147289666Y-127303164D01*
X147280493Y-127312337D01*
X147211311Y-127432164D01*
X147175500Y-127565817D01*
X147175500Y-127704183D01*
X147176747Y-127708836D01*
X147211311Y-127837835D01*
X147211312Y-127837836D01*
X147280495Y-127957665D01*
X147378335Y-128055505D01*
X147498164Y-128124688D01*
X147631817Y-128160500D01*
X147770183Y-128160500D01*
X147903836Y-128124688D01*
X148023665Y-128055505D01*
X148121505Y-127957665D01*
X148190688Y-127837836D01*
X148226500Y-127704183D01*
X148226500Y-127565817D01*
X148190688Y-127432164D01*
X148121505Y-127312335D01*
X148076742Y-127267572D01*
X148046161Y-127207551D01*
X148056699Y-127141015D01*
X148076741Y-127113428D01*
X148121505Y-127068665D01*
X148190688Y-126948836D01*
X148226500Y-126815183D01*
X148226500Y-126676817D01*
X148190688Y-126543164D01*
X148140258Y-126455817D01*
X151493500Y-126455817D01*
X151493500Y-126594182D01*
X151529311Y-126727835D01*
X151585948Y-126825933D01*
X151598495Y-126847665D01*
X151696335Y-126945505D01*
X151816164Y-127014688D01*
X151949817Y-127050500D01*
X152088183Y-127050500D01*
X152221836Y-127014688D01*
X152341665Y-126945505D01*
X152439505Y-126847665D01*
X152508688Y-126727836D01*
X152508689Y-126727829D01*
X152508796Y-126727575D01*
X152508927Y-126727420D01*
X152512260Y-126721649D01*
X152513329Y-126722266D01*
X152552546Y-126676348D01*
X152618050Y-126660621D01*
X152680288Y-126686399D01*
X152706147Y-126721991D01*
X152706740Y-126721649D01*
X152709996Y-126727289D01*
X152710204Y-126727575D01*
X152710312Y-126727836D01*
X152766947Y-126825932D01*
X152779495Y-126847665D01*
X152877335Y-126945505D01*
X152997164Y-127014688D01*
X153130817Y-127050500D01*
X153269183Y-127050500D01*
X153402836Y-127014688D01*
X153522665Y-126945505D01*
X153620505Y-126847665D01*
X153689688Y-126727836D01*
X153725500Y-126594183D01*
X153725500Y-126455817D01*
X153689688Y-126322164D01*
X153620505Y-126202335D01*
X153522665Y-126104495D01*
X153522662Y-126104493D01*
X153402835Y-126035311D01*
X153269183Y-125999500D01*
X153130817Y-125999500D01*
X152997164Y-126035311D01*
X152877337Y-126104493D01*
X152779493Y-126202337D01*
X152710312Y-126322163D01*
X152710202Y-126322430D01*
X152710067Y-126322587D01*
X152706740Y-126328351D01*
X152705671Y-126327734D01*
X152666449Y-126373654D01*
X152600945Y-126389378D01*
X152538708Y-126363596D01*
X152512851Y-126328009D01*
X152512260Y-126328351D01*
X152509009Y-126322721D01*
X152508798Y-126322430D01*
X152508689Y-126322167D01*
X152508688Y-126322164D01*
X152439505Y-126202335D01*
X152341665Y-126104495D01*
X152341662Y-126104493D01*
X152221835Y-126035311D01*
X152088183Y-125999500D01*
X151949817Y-125999500D01*
X151816164Y-126035311D01*
X151696337Y-126104493D01*
X151598493Y-126202337D01*
X151529311Y-126322164D01*
X151493500Y-126455817D01*
X148140258Y-126455817D01*
X148121505Y-126423335D01*
X148023665Y-126325495D01*
X148023662Y-126325493D01*
X147903835Y-126256311D01*
X147770183Y-126220500D01*
X147631817Y-126220500D01*
X147498164Y-126256311D01*
X147378337Y-126325493D01*
X147280493Y-126423337D01*
X147211311Y-126543164D01*
X147186303Y-126636500D01*
X147175500Y-126676817D01*
X140533008Y-126676817D01*
X140541400Y-126668425D01*
X140601423Y-126637842D01*
X140618474Y-126636500D01*
X140658183Y-126636500D01*
X140791836Y-126600688D01*
X140911665Y-126531505D01*
X141009505Y-126433665D01*
X141078688Y-126313836D01*
X141114500Y-126180183D01*
X141114500Y-126041817D01*
X141078688Y-125908164D01*
X141009505Y-125788335D01*
X141006987Y-125785817D01*
X149334500Y-125785817D01*
X149334500Y-125924182D01*
X149370311Y-126057835D01*
X149411601Y-126129351D01*
X149439495Y-126177665D01*
X149537335Y-126275505D01*
X149657164Y-126344688D01*
X149790817Y-126380500D01*
X149929183Y-126380500D01*
X150062836Y-126344688D01*
X150182665Y-126275505D01*
X150280505Y-126177665D01*
X150349688Y-126057836D01*
X150385500Y-125924183D01*
X150385500Y-125785817D01*
X150349688Y-125652164D01*
X150280505Y-125532335D01*
X150182665Y-125434495D01*
X150182662Y-125434493D01*
X150062835Y-125365311D01*
X149929183Y-125329500D01*
X149790817Y-125329500D01*
X149657164Y-125365311D01*
X149537337Y-125434493D01*
X149439493Y-125532337D01*
X149370311Y-125652164D01*
X149334500Y-125785817D01*
X141006987Y-125785817D01*
X140911665Y-125690495D01*
X140911662Y-125690493D01*
X140791835Y-125621311D01*
X140658183Y-125585500D01*
X140519817Y-125585500D01*
X140386164Y-125621311D01*
X140266337Y-125690493D01*
X140168493Y-125788337D01*
X140099311Y-125908164D01*
X140074839Y-125999500D01*
X140063888Y-126040371D01*
X140061653Y-126048711D01*
X140024963Y-126105209D01*
X139962072Y-126129351D01*
X139956367Y-126129500D01*
X129214198Y-126129500D01*
X129150129Y-126108683D01*
X129110533Y-126054183D01*
X129105198Y-126020500D01*
X129105198Y-124294500D01*
X129126015Y-124230431D01*
X129180515Y-124190835D01*
X129214198Y-124185500D01*
X131816611Y-124185500D01*
X131880680Y-124206317D01*
G37*
%TD.AperFunction*%
%TA.AperFunction,Conductor*%
G36*
X154880485Y-129911053D02*
G01*
X154928120Y-129958688D01*
X154940000Y-130008173D01*
X154940000Y-130719500D01*
X154919183Y-130783569D01*
X154864683Y-130823165D01*
X154831000Y-130828500D01*
X154087605Y-130828500D01*
X154023536Y-130807683D01*
X153983940Y-130753183D01*
X153983940Y-130685817D01*
X154023536Y-130631317D01*
X154033104Y-130625104D01*
X154096552Y-130588472D01*
X154753925Y-129931097D01*
X154813949Y-129900515D01*
X154880485Y-129911053D01*
G37*
%TD.AperFunction*%
%TA.AperFunction,Conductor*%
G36*
X154880485Y-119527199D02*
G01*
X154928120Y-119574834D01*
X154940000Y-119624319D01*
X154940000Y-120960371D01*
X154934665Y-120994054D01*
X154882598Y-121154295D01*
X154855500Y-121325387D01*
X154855500Y-121498612D01*
X154882598Y-121669704D01*
X154934665Y-121829946D01*
X154940000Y-121863629D01*
X154940000Y-123500371D01*
X154934665Y-123534054D01*
X154882598Y-123694295D01*
X154855500Y-123865387D01*
X154855164Y-123869659D01*
X154852906Y-123869481D01*
X154834683Y-123925569D01*
X154780183Y-123965165D01*
X154746500Y-123970500D01*
X146604820Y-123970500D01*
X146540751Y-123949683D01*
X146527747Y-123938576D01*
X146499665Y-123910495D01*
X146379835Y-123841311D01*
X146246183Y-123805500D01*
X146107817Y-123805500D01*
X145974163Y-123841312D01*
X145974161Y-123841312D01*
X145850500Y-123912707D01*
X145784606Y-123926713D01*
X145723065Y-123899312D01*
X145709527Y-123884667D01*
X145708507Y-123883338D01*
X145708506Y-123883337D01*
X145708505Y-123883335D01*
X145610665Y-123785495D01*
X145606361Y-123783010D01*
X145490835Y-123716311D01*
X145357183Y-123680500D01*
X145218817Y-123680500D01*
X145085164Y-123716311D01*
X144965337Y-123785493D01*
X144965335Y-123785494D01*
X144965335Y-123785495D01*
X144940228Y-123810601D01*
X144880207Y-123841183D01*
X144863156Y-123842525D01*
X138402794Y-123842525D01*
X138338725Y-123821708D01*
X138299129Y-123767208D01*
X138299129Y-123699842D01*
X138325717Y-123656452D01*
X138342505Y-123639665D01*
X138411688Y-123519836D01*
X138447500Y-123386183D01*
X138447500Y-123247817D01*
X138411688Y-123114164D01*
X138342505Y-122994335D01*
X138320742Y-122972572D01*
X138290161Y-122912551D01*
X138300699Y-122846015D01*
X138348334Y-122798380D01*
X138397819Y-122786500D01*
X144521459Y-122786500D01*
X144521461Y-122786500D01*
X144522028Y-122786347D01*
X144522529Y-122786214D01*
X144550740Y-122782500D01*
X145543576Y-122782500D01*
X145607645Y-122803317D01*
X145647241Y-122857817D01*
X145650833Y-122873695D01*
X145687311Y-123009835D01*
X145756493Y-123129662D01*
X145756495Y-123129665D01*
X145854335Y-123227505D01*
X145974164Y-123296688D01*
X146107817Y-123332500D01*
X146246183Y-123332500D01*
X146379836Y-123296688D01*
X146499665Y-123227505D01*
X146597505Y-123129665D01*
X146666688Y-123009836D01*
X146702500Y-122876183D01*
X146702500Y-122737817D01*
X146666688Y-122604164D01*
X146597505Y-122484335D01*
X146520742Y-122407572D01*
X146490161Y-122347551D01*
X146500699Y-122281015D01*
X146548334Y-122233380D01*
X146597819Y-122221500D01*
X149118051Y-122221500D01*
X149182120Y-122242317D01*
X149221716Y-122296817D01*
X149223337Y-122302289D01*
X149243311Y-122376835D01*
X149253947Y-122395257D01*
X149312495Y-122496665D01*
X149410335Y-122594505D01*
X149530164Y-122663688D01*
X149663817Y-122699500D01*
X149802183Y-122699500D01*
X149935836Y-122663688D01*
X150055665Y-122594505D01*
X150153505Y-122496665D01*
X150222688Y-122376836D01*
X150258500Y-122243183D01*
X150258500Y-122203474D01*
X150279317Y-122139405D01*
X150290425Y-122126399D01*
X150485399Y-121931425D01*
X150545423Y-121900842D01*
X150562474Y-121899500D01*
X151770292Y-121899500D01*
X151834361Y-121920317D01*
X151873957Y-121974817D01*
X151875578Y-121980289D01*
X151900310Y-122072592D01*
X151969492Y-122192419D01*
X151969494Y-122192422D01*
X152067334Y-122290262D01*
X152187163Y-122359445D01*
X152320816Y-122395257D01*
X152459182Y-122395257D01*
X152592835Y-122359445D01*
X152712664Y-122290262D01*
X152810504Y-122192422D01*
X152879687Y-122072593D01*
X152915499Y-121938940D01*
X152915499Y-121800574D01*
X152879687Y-121666921D01*
X152810504Y-121547092D01*
X152712664Y-121449252D01*
X152712661Y-121449250D01*
X152712660Y-121449249D01*
X152711663Y-121448484D01*
X152711153Y-121447742D01*
X152707612Y-121444201D01*
X152708268Y-121443544D01*
X152673506Y-121392966D01*
X152675269Y-121325624D01*
X152716278Y-121272179D01*
X152749806Y-121256722D01*
X152795078Y-121244592D01*
X152878422Y-121196473D01*
X154391470Y-119683425D01*
X154451494Y-119652842D01*
X154468545Y-119651500D01*
X154501183Y-119651500D01*
X154634836Y-119615688D01*
X154754665Y-119546505D01*
X154754669Y-119546500D01*
X154760330Y-119542158D01*
X154761335Y-119543468D01*
X154813949Y-119516661D01*
X154880485Y-119527199D01*
G37*
%TD.AperFunction*%
%TA.AperFunction,Conductor*%
G36*
X133598595Y-114171317D02*
G01*
X133611601Y-114182425D01*
X136221222Y-116792046D01*
X136251805Y-116852070D01*
X136241267Y-116918606D01*
X136193632Y-116966241D01*
X136172360Y-116974406D01*
X136131667Y-116985310D01*
X136131665Y-116985311D01*
X136011837Y-117054493D01*
X136011835Y-117054494D01*
X136011835Y-117054495D01*
X135988753Y-117077576D01*
X135928732Y-117108158D01*
X135911681Y-117109500D01*
X135397380Y-117109500D01*
X135304422Y-117134407D01*
X135221080Y-117182525D01*
X134721410Y-117682195D01*
X134721409Y-117682194D01*
X134653358Y-117750246D01*
X134605239Y-117833590D01*
X134580332Y-117926549D01*
X134580332Y-118193180D01*
X134559515Y-118257249D01*
X134548408Y-118270253D01*
X134525327Y-118293334D01*
X134456143Y-118413164D01*
X134429152Y-118513900D01*
X134420332Y-118546817D01*
X134420332Y-118685183D01*
X134429927Y-118720994D01*
X134456143Y-118818835D01*
X134507450Y-118907701D01*
X134525327Y-118938665D01*
X134623167Y-119036505D01*
X134742996Y-119105688D01*
X134876649Y-119141500D01*
X135015015Y-119141500D01*
X135148668Y-119105688D01*
X135268497Y-119036505D01*
X135366337Y-118938665D01*
X135435520Y-118818836D01*
X135471332Y-118685183D01*
X135471332Y-118546817D01*
X135435520Y-118413164D01*
X135366337Y-118293335D01*
X135359166Y-118286164D01*
X135343256Y-118270253D01*
X135339264Y-118262418D01*
X135332149Y-118257249D01*
X135324260Y-118232969D01*
X135312674Y-118210229D01*
X135311332Y-118193180D01*
X135311332Y-118171213D01*
X135332149Y-118107144D01*
X135343257Y-118094138D01*
X135564970Y-117872425D01*
X135624994Y-117841842D01*
X135642045Y-117840500D01*
X135911681Y-117840500D01*
X135975750Y-117861317D01*
X135988749Y-117872419D01*
X136011835Y-117895505D01*
X136131664Y-117964688D01*
X136265317Y-118000500D01*
X136403683Y-118000500D01*
X136537336Y-117964688D01*
X136657165Y-117895505D01*
X136755005Y-117797665D01*
X136824188Y-117677836D01*
X136835092Y-117637140D01*
X136871782Y-117580644D01*
X136934673Y-117556501D01*
X136999743Y-117573937D01*
X137017453Y-117588277D01*
X138064660Y-118635484D01*
X138095243Y-118695508D01*
X138084705Y-118762044D01*
X138081982Y-118767058D01*
X138036312Y-118846161D01*
X138036312Y-118846163D01*
X138006182Y-118958610D01*
X138000500Y-118979817D01*
X138000500Y-119118183D01*
X138003586Y-119129701D01*
X138036311Y-119251835D01*
X138099425Y-119361152D01*
X138113431Y-119427046D01*
X138086030Y-119488588D01*
X138082103Y-119492726D01*
X138009494Y-119565334D01*
X137940311Y-119685164D01*
X137913092Y-119786750D01*
X137904500Y-119818817D01*
X137904500Y-119957183D01*
X137914095Y-119992994D01*
X137940311Y-120090835D01*
X137959278Y-120123687D01*
X138009495Y-120210665D01*
X138107335Y-120308505D01*
X138227164Y-120377688D01*
X138360817Y-120413500D01*
X138499183Y-120413500D01*
X138632836Y-120377688D01*
X138752665Y-120308505D01*
X138850505Y-120210665D01*
X138919688Y-120090836D01*
X138923854Y-120075287D01*
X138960544Y-120018791D01*
X139023436Y-119994649D01*
X139029140Y-119994500D01*
X143970686Y-119994500D01*
X143984913Y-119995432D01*
X143985422Y-119995498D01*
X143985426Y-119995500D01*
X144080348Y-119995500D01*
X144470886Y-119995500D01*
X144480180Y-119995500D01*
X144544249Y-120016317D01*
X144557253Y-120027424D01*
X144584334Y-120054504D01*
X144584335Y-120054505D01*
X144704164Y-120123688D01*
X144837817Y-120159500D01*
X144976183Y-120159500D01*
X145109836Y-120123688D01*
X145184233Y-120080734D01*
X145250126Y-120066728D01*
X145311668Y-120094128D01*
X145345351Y-120152468D01*
X145344364Y-120190461D01*
X145346432Y-120190734D01*
X145345500Y-120197813D01*
X145345500Y-120336182D01*
X145381311Y-120469835D01*
X145420180Y-120537158D01*
X145450495Y-120589665D01*
X145548335Y-120687505D01*
X145565152Y-120697214D01*
X145588018Y-120710416D01*
X145633094Y-120760479D01*
X145640136Y-120827475D01*
X145627915Y-120859312D01*
X145592062Y-120921411D01*
X145592062Y-120921413D01*
X145556250Y-121055067D01*
X145556250Y-121193432D01*
X145592061Y-121327085D01*
X145597786Y-121337000D01*
X145611792Y-121402893D01*
X145584392Y-121464435D01*
X145526052Y-121498118D01*
X145503389Y-121500500D01*
X134983896Y-121500500D01*
X134919827Y-121479683D01*
X134880231Y-121425183D01*
X134878610Y-121419711D01*
X134855688Y-121334164D01*
X134815415Y-121264409D01*
X134786505Y-121214335D01*
X134776243Y-121204073D01*
X134745662Y-121144052D01*
X134756200Y-121077516D01*
X134758923Y-121072501D01*
X134805688Y-120991502D01*
X134841500Y-120857849D01*
X134841500Y-120719483D01*
X134805688Y-120585830D01*
X134736505Y-120466001D01*
X134638665Y-120368161D01*
X134638662Y-120368159D01*
X134518835Y-120298977D01*
X134385183Y-120263166D01*
X134246817Y-120263166D01*
X134113164Y-120298977D01*
X133993337Y-120368159D01*
X133895493Y-120466003D01*
X133826311Y-120585830D01*
X133790500Y-120719483D01*
X133790500Y-120857848D01*
X133826311Y-120991501D01*
X133875972Y-121077516D01*
X133895495Y-121111331D01*
X133905755Y-121121591D01*
X133936337Y-121181613D01*
X133925799Y-121248149D01*
X133923076Y-121253163D01*
X133876312Y-121334161D01*
X133876312Y-121334163D01*
X133840500Y-121467817D01*
X133840500Y-121606182D01*
X133876311Y-121739835D01*
X133945493Y-121859662D01*
X133945495Y-121859665D01*
X133965257Y-121879427D01*
X133995839Y-121939449D01*
X133985301Y-122005985D01*
X133937666Y-122053620D01*
X133888181Y-122065500D01*
X129226474Y-122065500D01*
X129218109Y-122062782D01*
X129209423Y-122064158D01*
X129186680Y-122052570D01*
X129162405Y-122044683D01*
X129149399Y-122033575D01*
X129137123Y-122021299D01*
X129106540Y-121961275D01*
X129105198Y-121944224D01*
X129105198Y-121578546D01*
X129106540Y-121561494D01*
X129108821Y-121547092D01*
X129116500Y-121498611D01*
X129116500Y-121325389D01*
X129106540Y-121262503D01*
X129105198Y-121245452D01*
X129105198Y-119038546D01*
X129106540Y-119021494D01*
X129107744Y-119013893D01*
X129116500Y-118958611D01*
X129116500Y-118785389D01*
X129106540Y-118722503D01*
X129105198Y-118705452D01*
X129105198Y-116834773D01*
X129126015Y-116770704D01*
X129180515Y-116731108D01*
X129214198Y-116725773D01*
X131537799Y-116725773D01*
X131601868Y-116746590D01*
X131614874Y-116757698D01*
X132493614Y-117636438D01*
X132524197Y-117696462D01*
X132525539Y-117713513D01*
X132525539Y-120633145D01*
X132504722Y-120697214D01*
X132493615Y-120710218D01*
X132464926Y-120738907D01*
X132395742Y-120858737D01*
X132359931Y-120992390D01*
X132359931Y-121130755D01*
X132395742Y-121264408D01*
X132430950Y-121325390D01*
X132464926Y-121384238D01*
X132562766Y-121482078D01*
X132682595Y-121551261D01*
X132816248Y-121587073D01*
X132954614Y-121587073D01*
X133088267Y-121551261D01*
X133208096Y-121482078D01*
X133305936Y-121384238D01*
X133375119Y-121264409D01*
X133410931Y-121130756D01*
X133410931Y-120992390D01*
X133375119Y-120858737D01*
X133305936Y-120738908D01*
X133305935Y-120738907D01*
X133278463Y-120711434D01*
X133247881Y-120651411D01*
X133246539Y-120634361D01*
X133246539Y-117471578D01*
X133221972Y-117379891D01*
X133221971Y-117379890D01*
X133221972Y-117379890D01*
X133201510Y-117344450D01*
X133174511Y-117297687D01*
X133157205Y-117280381D01*
X133107391Y-117230566D01*
X133107391Y-117230567D01*
X131953625Y-116076801D01*
X131871421Y-116029340D01*
X131779734Y-116004773D01*
X129214198Y-116004773D01*
X129150129Y-115983956D01*
X129110533Y-115929456D01*
X129105198Y-115895773D01*
X129105198Y-114259500D01*
X129126015Y-114195431D01*
X129180515Y-114155835D01*
X129214198Y-114150500D01*
X133534526Y-114150500D01*
X133598595Y-114171317D01*
G37*
%TD.AperFunction*%
%TA.AperFunction,Conductor*%
G36*
X155405992Y-94633817D02*
G01*
X155445588Y-94688317D01*
X155450915Y-94720646D01*
X155451915Y-94801146D01*
X155431895Y-94865468D01*
X155377891Y-94905739D01*
X155342923Y-94911500D01*
X155081326Y-94911500D01*
X155008260Y-94926034D01*
X154925399Y-94981399D01*
X154870034Y-95064260D01*
X154855500Y-95137326D01*
X154855500Y-96886674D01*
X154870034Y-96959740D01*
X154925399Y-97042601D01*
X155008260Y-97097966D01*
X155081326Y-97112500D01*
X155081330Y-97112500D01*
X155372972Y-97112500D01*
X155437041Y-97133317D01*
X155476637Y-97187817D01*
X155481964Y-97220146D01*
X155485298Y-97488560D01*
X155465278Y-97552882D01*
X155425793Y-97587033D01*
X155379211Y-97610768D01*
X155239074Y-97712584D01*
X155116584Y-97835074D01*
X155014765Y-97975216D01*
X155014763Y-97975219D01*
X155011329Y-97981959D01*
X155011284Y-97982048D01*
X154980738Y-98042000D01*
X154940000Y-98042000D01*
X154940000Y-98121953D01*
X154936127Y-98129555D01*
X154932205Y-98141623D01*
X154932203Y-98141629D01*
X154882598Y-98294295D01*
X154855500Y-98465387D01*
X154855500Y-98638612D01*
X154882598Y-98809704D01*
X154934665Y-98969946D01*
X154940000Y-99003629D01*
X154940000Y-99947000D01*
X154940001Y-99947000D01*
X155326215Y-99947000D01*
X155390284Y-99967817D01*
X155429880Y-100022317D01*
X155429880Y-100089683D01*
X155390284Y-100144183D01*
X155382950Y-100148687D01*
X155383120Y-100148963D01*
X155379475Y-100151195D01*
X155270874Y-100230096D01*
X155522481Y-100481703D01*
X155526872Y-100835271D01*
X155525269Y-100838047D01*
X155094096Y-100406874D01*
X155015193Y-100515478D01*
X154936588Y-100669751D01*
X154883086Y-100834411D01*
X154856000Y-101005427D01*
X154856000Y-101178572D01*
X154883086Y-101349588D01*
X154936588Y-101514248D01*
X155015196Y-101668524D01*
X155094096Y-101777124D01*
X155525268Y-101345950D01*
X155533391Y-101360019D01*
X155537457Y-101687317D01*
X155270874Y-101953901D01*
X155382940Y-102035321D01*
X155381716Y-102037005D01*
X155420393Y-102082310D01*
X155425664Y-102149469D01*
X155390453Y-102206900D01*
X155328209Y-102232666D01*
X155319681Y-102233000D01*
X154940000Y-102233000D01*
X154940000Y-102233001D01*
X154940000Y-103180371D01*
X154934665Y-103214054D01*
X154882598Y-103374295D01*
X154855500Y-103545387D01*
X154855500Y-103718612D01*
X154882598Y-103889704D01*
X154934665Y-104049946D01*
X154940000Y-104083629D01*
X154940000Y-105189500D01*
X154919183Y-105253569D01*
X154864683Y-105293165D01*
X154831000Y-105298500D01*
X149167545Y-105298500D01*
X149103476Y-105277683D01*
X149090470Y-105266575D01*
X148962395Y-105138500D01*
X148449422Y-104625527D01*
X148449419Y-104625525D01*
X148366077Y-104577407D01*
X148273119Y-104552500D01*
X147479119Y-104552500D01*
X147382880Y-104552500D01*
X147289922Y-104577407D01*
X147206580Y-104625525D01*
X146565530Y-105266575D01*
X146505506Y-105297158D01*
X146488455Y-105298500D01*
X145964819Y-105298500D01*
X145900750Y-105277683D01*
X145887750Y-105266580D01*
X145864665Y-105243495D01*
X145771143Y-105189500D01*
X145744835Y-105174311D01*
X145611183Y-105138500D01*
X145472817Y-105138500D01*
X145339164Y-105174311D01*
X145219337Y-105243493D01*
X145121493Y-105341337D01*
X145052311Y-105461164D01*
X145016500Y-105594817D01*
X145016500Y-105733182D01*
X145052312Y-105866836D01*
X145052312Y-105866838D01*
X145114819Y-105975104D01*
X145128825Y-106040997D01*
X145101424Y-106102539D01*
X145097497Y-106106678D01*
X143011601Y-108192575D01*
X142951577Y-108223158D01*
X142934526Y-108224500D01*
X140254820Y-108224500D01*
X140190751Y-108203683D01*
X140177747Y-108192576D01*
X140149665Y-108164495D01*
X140029835Y-108095311D01*
X139896183Y-108059500D01*
X139757817Y-108059500D01*
X139624164Y-108095311D01*
X139504337Y-108164493D01*
X139406493Y-108262337D01*
X139386481Y-108297000D01*
X139336418Y-108342077D01*
X139292084Y-108351500D01*
X135373652Y-108351500D01*
X135309583Y-108330683D01*
X135296579Y-108319576D01*
X135268497Y-108291495D01*
X135148667Y-108222311D01*
X135015015Y-108186500D01*
X134876649Y-108186500D01*
X134742996Y-108222311D01*
X134623169Y-108291493D01*
X134525325Y-108389337D01*
X134456143Y-108509164D01*
X134420332Y-108642817D01*
X134420332Y-108781182D01*
X134456143Y-108914835D01*
X134525325Y-109034662D01*
X134525327Y-109034665D01*
X134623167Y-109132505D01*
X134742996Y-109201688D01*
X134876649Y-109237500D01*
X135015015Y-109237500D01*
X135148668Y-109201688D01*
X135268497Y-109132505D01*
X135285571Y-109115431D01*
X135296579Y-109104424D01*
X135356602Y-109073842D01*
X135373652Y-109072500D01*
X139601649Y-109072500D01*
X139629858Y-109076213D01*
X139757817Y-109110500D01*
X139896183Y-109110500D01*
X140029836Y-109074688D01*
X140149665Y-109005505D01*
X140163706Y-108991464D01*
X140177747Y-108977424D01*
X140237770Y-108946842D01*
X140254820Y-108945500D01*
X143176461Y-108945500D01*
X143268148Y-108920933D01*
X143350352Y-108873472D01*
X144781824Y-107442000D01*
X145669000Y-107442000D01*
X145669000Y-109982000D01*
X146143030Y-109982000D01*
X146207099Y-110002817D01*
X146246695Y-110057317D01*
X146246695Y-110124683D01*
X146240696Y-110132938D01*
X146238874Y-110156096D01*
X146670047Y-110587270D01*
X146616993Y-110617901D01*
X146523901Y-110710993D01*
X146493269Y-110764047D01*
X146062096Y-110332874D01*
X145983193Y-110441478D01*
X145904588Y-110595751D01*
X145851086Y-110760411D01*
X145824000Y-110931427D01*
X145824000Y-111104572D01*
X145851086Y-111275588D01*
X145904588Y-111440248D01*
X145983196Y-111594524D01*
X146062096Y-111703124D01*
X146493269Y-111271950D01*
X146523901Y-111325007D01*
X146616993Y-111418099D01*
X146670045Y-111448729D01*
X146238874Y-111879901D01*
X146347474Y-111958802D01*
X146501751Y-112037411D01*
X146666411Y-112090913D01*
X146837428Y-112118000D01*
X147010572Y-112118000D01*
X147181588Y-112090913D01*
X147346248Y-112037411D01*
X147500529Y-111958801D01*
X147553332Y-111920438D01*
X147617400Y-111899621D01*
X147681469Y-111920438D01*
X147721065Y-111974938D01*
X147726400Y-112008621D01*
X147726400Y-112014000D01*
X148968533Y-112014000D01*
X149018016Y-112025879D01*
X149041555Y-112037873D01*
X149123927Y-112064637D01*
X149206295Y-112091401D01*
X149206297Y-112091401D01*
X149206299Y-112091402D01*
X149377389Y-112118500D01*
X149377390Y-112118500D01*
X149550610Y-112118500D01*
X149550611Y-112118500D01*
X149721701Y-112091402D01*
X149886445Y-112037873D01*
X149909983Y-112025879D01*
X149959467Y-112014000D01*
X150893649Y-112014000D01*
X150957718Y-112034817D01*
X150970724Y-112045925D01*
X150973396Y-112048597D01*
X150973399Y-112048601D01*
X151056260Y-112103966D01*
X151129326Y-112118500D01*
X151129330Y-112118500D01*
X152878670Y-112118500D01*
X152878674Y-112118500D01*
X152951740Y-112103966D01*
X153034601Y-112048601D01*
X153089966Y-111965740D01*
X153104500Y-111892674D01*
X153104500Y-111862650D01*
X153125317Y-111798581D01*
X153136425Y-111785575D01*
X153162000Y-111760000D01*
X153162000Y-107442001D01*
X153162000Y-107442000D01*
X153161999Y-107442000D01*
X152394076Y-107442000D01*
X152360393Y-107436665D01*
X152261704Y-107404598D01*
X152261705Y-107404598D01*
X152090612Y-107377500D01*
X152090611Y-107377500D01*
X151917389Y-107377500D01*
X151917387Y-107377500D01*
X151746295Y-107404598D01*
X151647607Y-107436665D01*
X151613924Y-107442000D01*
X149854076Y-107442000D01*
X149820393Y-107436665D01*
X149721704Y-107404598D01*
X149721705Y-107404598D01*
X149550612Y-107377500D01*
X149550611Y-107377500D01*
X149377389Y-107377500D01*
X149377387Y-107377500D01*
X149206295Y-107404598D01*
X149107607Y-107436665D01*
X149073924Y-107442000D01*
X147314076Y-107442000D01*
X147280393Y-107436665D01*
X147181704Y-107404598D01*
X147181705Y-107404598D01*
X147010612Y-107377500D01*
X147010611Y-107377500D01*
X146837389Y-107377500D01*
X146837387Y-107377500D01*
X146666295Y-107404598D01*
X146567607Y-107436665D01*
X146533924Y-107442000D01*
X145669000Y-107442000D01*
X144781824Y-107442000D01*
X145581399Y-106642425D01*
X145641423Y-106611842D01*
X145658474Y-106610500D01*
X147416461Y-106610500D01*
X147421261Y-106609213D01*
X147449471Y-106605500D01*
X153806160Y-106605500D01*
X153814524Y-106608217D01*
X153823211Y-106606842D01*
X153845953Y-106618429D01*
X153870229Y-106626317D01*
X153883235Y-106637425D01*
X153998138Y-106752328D01*
X154028721Y-106812352D01*
X154030063Y-106829403D01*
X154030063Y-106876182D01*
X154065874Y-107009835D01*
X154065875Y-107009836D01*
X154135058Y-107129665D01*
X154232898Y-107227505D01*
X154352727Y-107296688D01*
X154486380Y-107332500D01*
X154624746Y-107332500D01*
X154758399Y-107296688D01*
X154776499Y-107286237D01*
X154842393Y-107272231D01*
X154903934Y-107299631D01*
X154937618Y-107357971D01*
X154940000Y-107380634D01*
X154940000Y-108260371D01*
X154934665Y-108294054D01*
X154882598Y-108454295D01*
X154855500Y-108625387D01*
X154855500Y-108798612D01*
X154882598Y-108969704D01*
X154934665Y-109129946D01*
X154940000Y-109163629D01*
X154940000Y-110800371D01*
X154934665Y-110834054D01*
X154882598Y-110994295D01*
X154855500Y-111165387D01*
X154855500Y-111338612D01*
X154882598Y-111509704D01*
X154934665Y-111669946D01*
X154940000Y-111703629D01*
X154940000Y-113340371D01*
X154934665Y-113374054D01*
X154882598Y-113534294D01*
X154873213Y-113593552D01*
X154842629Y-113653575D01*
X154782606Y-113684158D01*
X154765555Y-113685500D01*
X150287820Y-113685500D01*
X150223751Y-113664683D01*
X150210747Y-113653576D01*
X150182665Y-113625495D01*
X150062835Y-113556311D01*
X149929183Y-113520500D01*
X149790817Y-113520500D01*
X149657164Y-113556311D01*
X149537337Y-113625493D01*
X149439493Y-113723337D01*
X149370311Y-113843164D01*
X149338589Y-113961556D01*
X149334500Y-113976817D01*
X149334500Y-114115183D01*
X149338871Y-114131495D01*
X149370311Y-114248835D01*
X149428236Y-114349164D01*
X149439495Y-114368665D01*
X149537335Y-114466505D01*
X149657164Y-114535688D01*
X149790817Y-114571500D01*
X149929183Y-114571500D01*
X150062836Y-114535688D01*
X150182665Y-114466505D01*
X150196706Y-114452464D01*
X150210747Y-114438424D01*
X150270770Y-114407842D01*
X150287820Y-114406500D01*
X154831000Y-114406500D01*
X154895069Y-114427317D01*
X154934665Y-114481817D01*
X154940000Y-114515500D01*
X154940000Y-115880371D01*
X154934665Y-115914054D01*
X154882598Y-116074295D01*
X154855500Y-116245387D01*
X154855500Y-116418612D01*
X154882598Y-116589704D01*
X154934665Y-116749946D01*
X154940000Y-116783629D01*
X154940000Y-117280381D01*
X154919183Y-117344450D01*
X154864683Y-117384046D01*
X154797317Y-117384046D01*
X154776501Y-117374778D01*
X154761837Y-117366312D01*
X154628183Y-117330500D01*
X154489817Y-117330500D01*
X154356164Y-117366311D01*
X154236337Y-117435493D01*
X154138493Y-117533337D01*
X154069311Y-117653164D01*
X154033500Y-117786817D01*
X154033500Y-117819455D01*
X154012683Y-117883524D01*
X154001575Y-117896530D01*
X152975037Y-118923068D01*
X152915013Y-118953651D01*
X152897962Y-118954993D01*
X152250138Y-118954993D01*
X152186069Y-118934176D01*
X152146473Y-118879676D01*
X152146473Y-118812310D01*
X152155741Y-118791493D01*
X152159265Y-118785390D01*
X152179676Y-118750037D01*
X152215488Y-118616384D01*
X152215488Y-118478018D01*
X152179676Y-118344365D01*
X152110493Y-118224536D01*
X152012653Y-118126696D01*
X151978788Y-118107144D01*
X151892823Y-118057512D01*
X151759171Y-118021701D01*
X151620805Y-118021701D01*
X151487152Y-118057512D01*
X151367322Y-118126696D01*
X151339241Y-118154777D01*
X151279218Y-118185359D01*
X151262168Y-118186701D01*
X149119338Y-118186701D01*
X149027650Y-118211268D01*
X148945448Y-118258728D01*
X147962601Y-119241575D01*
X147902577Y-119272158D01*
X147885526Y-119273500D01*
X145334820Y-119273500D01*
X145270751Y-119252683D01*
X145257747Y-119241576D01*
X145229665Y-119213495D01*
X145109835Y-119144311D01*
X144976183Y-119108500D01*
X144910117Y-119108500D01*
X144846048Y-119087683D01*
X144806452Y-119033183D01*
X144801117Y-118999500D01*
X144801117Y-118979817D01*
X144765305Y-118846164D01*
X144730217Y-118785389D01*
X144696122Y-118726335D01*
X144598282Y-118628495D01*
X144580748Y-118618372D01*
X144478453Y-118559312D01*
X144370288Y-118530329D01*
X144313791Y-118493639D01*
X144289649Y-118430747D01*
X144289500Y-118425043D01*
X144289500Y-118419817D01*
X144253688Y-118286164D01*
X144184506Y-118166337D01*
X144184505Y-118166335D01*
X144086665Y-118068495D01*
X144024469Y-118032586D01*
X143966835Y-117999311D01*
X143833183Y-117963500D01*
X143694817Y-117963500D01*
X143561164Y-117999311D01*
X143441337Y-118068493D01*
X143441335Y-118068494D01*
X143441335Y-118068495D01*
X143439253Y-118070576D01*
X143437375Y-118071532D01*
X143435670Y-118072842D01*
X143435427Y-118072525D01*
X143379232Y-118101158D01*
X143362181Y-118102500D01*
X138596474Y-118102500D01*
X138532405Y-118081683D01*
X138519399Y-118070575D01*
X136345811Y-115896987D01*
X136315228Y-115836963D01*
X136325766Y-115770427D01*
X136373401Y-115722792D01*
X136397075Y-115715443D01*
X136396782Y-115714349D01*
X136403683Y-115712500D01*
X136537336Y-115676688D01*
X136657165Y-115607505D01*
X136755005Y-115509665D01*
X136824188Y-115389836D01*
X136860000Y-115256183D01*
X136860000Y-115117817D01*
X141714500Y-115117817D01*
X141714500Y-115256182D01*
X141750311Y-115389835D01*
X141809634Y-115492586D01*
X141819495Y-115509665D01*
X141917335Y-115607505D01*
X142037164Y-115676688D01*
X142170817Y-115712500D01*
X142309183Y-115712500D01*
X142442836Y-115676688D01*
X142562665Y-115607505D01*
X142660505Y-115509665D01*
X142729688Y-115389836D01*
X142765500Y-115256183D01*
X142765500Y-115117817D01*
X142729688Y-114984164D01*
X142660505Y-114864335D01*
X142562665Y-114766495D01*
X142542471Y-114754836D01*
X142442835Y-114697311D01*
X142309183Y-114661500D01*
X142170817Y-114661500D01*
X142037164Y-114697311D01*
X141917337Y-114766493D01*
X141819493Y-114864337D01*
X141750311Y-114984164D01*
X141714500Y-115117817D01*
X136860000Y-115117817D01*
X136824188Y-114984164D01*
X136755005Y-114864335D01*
X136657165Y-114766495D01*
X136636971Y-114754836D01*
X136537335Y-114697311D01*
X136403683Y-114661500D01*
X136265317Y-114661500D01*
X136131664Y-114697311D01*
X136011837Y-114766493D01*
X135913993Y-114864337D01*
X135844811Y-114984164D01*
X135807151Y-115124718D01*
X135804355Y-115123968D01*
X135780627Y-115173671D01*
X135721414Y-115205795D01*
X135654627Y-115196979D01*
X135624512Y-115175688D01*
X134660399Y-114211575D01*
X134629816Y-114151551D01*
X134640354Y-114085015D01*
X134687989Y-114037380D01*
X134737474Y-114025500D01*
X142936526Y-114025500D01*
X143000595Y-114046317D01*
X143013601Y-114057425D01*
X143460575Y-114504399D01*
X143490494Y-114560658D01*
X143492500Y-114570968D01*
X143492500Y-114621183D01*
X143528167Y-114754296D01*
X143528895Y-114758036D01*
X143525235Y-114787884D01*
X143523661Y-114817915D01*
X143521176Y-114820983D01*
X143520696Y-114824901D01*
X143500193Y-114846894D01*
X143481266Y-114870268D01*
X143476402Y-114873248D01*
X143441338Y-114893492D01*
X143343493Y-114991337D01*
X143274311Y-115111164D01*
X143251318Y-115196979D01*
X143238500Y-115244817D01*
X143238500Y-115383183D01*
X143240283Y-115389836D01*
X143274311Y-115516835D01*
X143326660Y-115607506D01*
X143343495Y-115636665D01*
X143441335Y-115734505D01*
X143561164Y-115803688D01*
X143694817Y-115839500D01*
X143833183Y-115839500D01*
X143966836Y-115803688D01*
X144086665Y-115734505D01*
X144184505Y-115636665D01*
X144253688Y-115516836D01*
X144289500Y-115383183D01*
X144289500Y-115244817D01*
X144254812Y-115115358D01*
X144258338Y-115048085D01*
X144300733Y-114995732D01*
X144305580Y-114992761D01*
X144340665Y-114972505D01*
X144438505Y-114874665D01*
X144507688Y-114754836D01*
X144543500Y-114621183D01*
X144543500Y-114482817D01*
X144507688Y-114349164D01*
X144438505Y-114229335D01*
X144340665Y-114131495D01*
X144340662Y-114131493D01*
X144340659Y-114131490D01*
X144339336Y-114130475D01*
X144338659Y-114129490D01*
X144335613Y-114126444D01*
X144336177Y-114125879D01*
X144301180Y-114074958D01*
X144302943Y-114007615D01*
X144336073Y-113962016D01*
X144335613Y-113961556D01*
X144338517Y-113958651D01*
X144339336Y-113957525D01*
X144340659Y-113956509D01*
X144340660Y-113956507D01*
X144340665Y-113956505D01*
X144438505Y-113858665D01*
X144507688Y-113738836D01*
X144543500Y-113605183D01*
X144543500Y-113466817D01*
X144507688Y-113333164D01*
X144438505Y-113213335D01*
X144340665Y-113115495D01*
X144340662Y-113115493D01*
X144220835Y-113046311D01*
X144087183Y-113010500D01*
X144047474Y-113010500D01*
X143983405Y-112989683D01*
X143970400Y-112978575D01*
X143731354Y-112739530D01*
X143731352Y-112739528D01*
X143649148Y-112692067D01*
X143557461Y-112667500D01*
X141214474Y-112667500D01*
X141190199Y-112659612D01*
X141164989Y-112655620D01*
X141158769Y-112649400D01*
X141150405Y-112646683D01*
X141135402Y-112626033D01*
X141117354Y-112607985D01*
X141115978Y-112599297D01*
X141110809Y-112592183D01*
X141110809Y-112566660D01*
X141106816Y-112541449D01*
X141110809Y-112533612D01*
X141110809Y-112524817D01*
X141137399Y-112481425D01*
X141176399Y-112442425D01*
X141236423Y-112411842D01*
X141253474Y-112410500D01*
X141293183Y-112410500D01*
X141426836Y-112374688D01*
X141546665Y-112305505D01*
X141644505Y-112207665D01*
X141713688Y-112087836D01*
X141749500Y-111954183D01*
X141749500Y-111815817D01*
X141713688Y-111682164D01*
X141644505Y-111562335D01*
X141546665Y-111464495D01*
X141504668Y-111440248D01*
X141426835Y-111395311D01*
X141293183Y-111359500D01*
X141154817Y-111359500D01*
X141021164Y-111395311D01*
X140901337Y-111464493D01*
X140803493Y-111562337D01*
X140734311Y-111682164D01*
X140698500Y-111815817D01*
X140698500Y-111849500D01*
X140677683Y-111913569D01*
X140623183Y-111953165D01*
X140589500Y-111958500D01*
X136728820Y-111958500D01*
X136664751Y-111937683D01*
X136651746Y-111926576D01*
X136638739Y-111913569D01*
X136617385Y-111892215D01*
X136617382Y-111892213D01*
X136497555Y-111823031D01*
X136363903Y-111787220D01*
X136225537Y-111787220D01*
X136091884Y-111823031D01*
X135972057Y-111892213D01*
X135874213Y-111990057D01*
X135805031Y-112109884D01*
X135778832Y-112207665D01*
X135769220Y-112243537D01*
X135769220Y-112381903D01*
X135777242Y-112411842D01*
X135805033Y-112515560D01*
X135805542Y-112516789D01*
X135805616Y-112517738D01*
X135806881Y-112522457D01*
X135806006Y-112522691D01*
X135810827Y-112583947D01*
X135775628Y-112641385D01*
X135713390Y-112667164D01*
X135704839Y-112667500D01*
X135066474Y-112667500D01*
X135002405Y-112646683D01*
X134989399Y-112635575D01*
X133948348Y-111594524D01*
X132880396Y-110526572D01*
X132849815Y-110466551D01*
X132860353Y-110400015D01*
X132907988Y-110352380D01*
X132957473Y-110340500D01*
X133014461Y-110340500D01*
X143590180Y-110340500D01*
X143654249Y-110361317D01*
X143667253Y-110372424D01*
X143694845Y-110400015D01*
X143695335Y-110400505D01*
X143815164Y-110469688D01*
X143948817Y-110505500D01*
X144087183Y-110505500D01*
X144220836Y-110469688D01*
X144340665Y-110400505D01*
X144438505Y-110302665D01*
X144507688Y-110182836D01*
X144543500Y-110049183D01*
X144543500Y-110049175D01*
X144544016Y-110045261D01*
X144545236Y-110042701D01*
X144545349Y-110042282D01*
X144545426Y-110042302D01*
X144573014Y-109984456D01*
X144632214Y-109952308D01*
X144699004Y-109961098D01*
X144703051Y-109963227D01*
X144704160Y-109963685D01*
X144704164Y-109963688D01*
X144837817Y-109999500D01*
X144976183Y-109999500D01*
X145109836Y-109963688D01*
X145229665Y-109894505D01*
X145327505Y-109796665D01*
X145396688Y-109676836D01*
X145432500Y-109543183D01*
X145432500Y-109404817D01*
X145396688Y-109271164D01*
X145327505Y-109151335D01*
X145229665Y-109053495D01*
X145229662Y-109053493D01*
X145109835Y-108984311D01*
X144976183Y-108948500D01*
X144837817Y-108948500D01*
X144704164Y-108984311D01*
X144584337Y-109053493D01*
X144486493Y-109151337D01*
X144417311Y-109271164D01*
X144381499Y-109404818D01*
X144380982Y-109408749D01*
X144379760Y-109411309D01*
X144379651Y-109411718D01*
X144379575Y-109411697D01*
X144351977Y-109469551D01*
X144292774Y-109501693D01*
X144225985Y-109492897D01*
X144221944Y-109490770D01*
X144220836Y-109490312D01*
X144087183Y-109454500D01*
X143948817Y-109454500D01*
X143815164Y-109490311D01*
X143695334Y-109559495D01*
X143667253Y-109587576D01*
X143607230Y-109618158D01*
X143590180Y-109619500D01*
X133161474Y-109619500D01*
X133097405Y-109598683D01*
X133084399Y-109587575D01*
X131309885Y-107813061D01*
X129378352Y-105881528D01*
X129296148Y-105834067D01*
X129204458Y-105809499D01*
X129199967Y-105808908D01*
X129139165Y-105779904D01*
X129107023Y-105720701D01*
X129105198Y-105700841D01*
X129105198Y-104099500D01*
X129126015Y-104035431D01*
X129180515Y-103995835D01*
X129214198Y-103990500D01*
X132774526Y-103990500D01*
X132838595Y-104011317D01*
X132851601Y-104022425D01*
X134866575Y-106037399D01*
X134897158Y-106097423D01*
X134898500Y-106114474D01*
X134898500Y-106154182D01*
X134934311Y-106287835D01*
X134934312Y-106287836D01*
X135003495Y-106407665D01*
X135101335Y-106505505D01*
X135221164Y-106574688D01*
X135354817Y-106610500D01*
X135493183Y-106610500D01*
X135626836Y-106574688D01*
X135746665Y-106505505D01*
X135844505Y-106407665D01*
X135913688Y-106287836D01*
X135949500Y-106154183D01*
X135949500Y-106015817D01*
X135913688Y-105882164D01*
X135844505Y-105762335D01*
X135746665Y-105664495D01*
X135746662Y-105664493D01*
X135626835Y-105595311D01*
X135493183Y-105559500D01*
X135453474Y-105559500D01*
X135389405Y-105538683D01*
X135376399Y-105527575D01*
X134474349Y-104625525D01*
X133411641Y-103562817D01*
X153246100Y-103562817D01*
X153246100Y-103701182D01*
X153281911Y-103834835D01*
X153281912Y-103834836D01*
X153351095Y-103954665D01*
X153448935Y-104052505D01*
X153568764Y-104121688D01*
X153702417Y-104157500D01*
X153840783Y-104157500D01*
X153974436Y-104121688D01*
X154094265Y-104052505D01*
X154192105Y-103954665D01*
X154261288Y-103834836D01*
X154297100Y-103701183D01*
X154297100Y-103562817D01*
X154261288Y-103429164D01*
X154192105Y-103309335D01*
X154094265Y-103211495D01*
X154064280Y-103194183D01*
X153974435Y-103142311D01*
X153840783Y-103106500D01*
X153702417Y-103106500D01*
X153568764Y-103142311D01*
X153448937Y-103211493D01*
X153351093Y-103309337D01*
X153281911Y-103429164D01*
X153246100Y-103562817D01*
X133411641Y-103562817D01*
X133190352Y-103341528D01*
X133108148Y-103294067D01*
X133016461Y-103269500D01*
X129214198Y-103269500D01*
X129150129Y-103248683D01*
X129110533Y-103194183D01*
X129105198Y-103160500D01*
X129105198Y-101833606D01*
X129126015Y-101769537D01*
X129180515Y-101729941D01*
X129214198Y-101724606D01*
X135010066Y-101724606D01*
X135074135Y-101745423D01*
X135113731Y-101799923D01*
X135115351Y-101861819D01*
X135110500Y-101879922D01*
X135110500Y-102018288D01*
X135146311Y-102151941D01*
X135215493Y-102271768D01*
X135215495Y-102271771D01*
X135313335Y-102369611D01*
X135433164Y-102438794D01*
X135566817Y-102474606D01*
X135705183Y-102474606D01*
X135838836Y-102438794D01*
X135958665Y-102369611D01*
X136056505Y-102271771D01*
X136125688Y-102151942D01*
X136161500Y-102018289D01*
X136161500Y-101998606D01*
X136182317Y-101934537D01*
X136236817Y-101894941D01*
X136270500Y-101889606D01*
X136408205Y-101889606D01*
X136541858Y-101853794D01*
X136661687Y-101784611D01*
X136759527Y-101686771D01*
X136828710Y-101566942D01*
X136864522Y-101433289D01*
X136864522Y-101294923D01*
X136828710Y-101161270D01*
X136759527Y-101041441D01*
X136661687Y-100943601D01*
X136661684Y-100943599D01*
X136541857Y-100874417D01*
X136408205Y-100838606D01*
X136269839Y-100838606D01*
X136136186Y-100874417D01*
X136016356Y-100943601D01*
X135988275Y-100971682D01*
X135928252Y-101002264D01*
X135911202Y-101003606D01*
X129214198Y-101003606D01*
X129150129Y-100982789D01*
X129110533Y-100928289D01*
X129105198Y-100894606D01*
X129105198Y-100487082D01*
X137423500Y-100487082D01*
X137423500Y-101734918D01*
X137452342Y-101879913D01*
X137452343Y-101879915D01*
X137508914Y-102016491D01*
X137508916Y-102016496D01*
X137521495Y-102035321D01*
X137591049Y-102139416D01*
X137695584Y-102243951D01*
X137737215Y-102271768D01*
X137818503Y-102326083D01*
X137818504Y-102326083D01*
X137818505Y-102326084D01*
X137955087Y-102382658D01*
X138100082Y-102411500D01*
X138100086Y-102411500D01*
X138247914Y-102411500D01*
X138247918Y-102411500D01*
X138392913Y-102382658D01*
X138529495Y-102326084D01*
X138652416Y-102243951D01*
X138756951Y-102139416D01*
X138839084Y-102016495D01*
X138895658Y-101879913D01*
X138895660Y-101879899D01*
X138897213Y-101874786D01*
X138899362Y-101875438D01*
X138927918Y-101824455D01*
X138989097Y-101796255D01*
X139001903Y-101795500D01*
X145986097Y-101795500D01*
X146050166Y-101816317D01*
X146089762Y-101870817D01*
X146090865Y-101875045D01*
X146092343Y-101879915D01*
X146148914Y-102016491D01*
X146148916Y-102016496D01*
X146161495Y-102035321D01*
X146231049Y-102139416D01*
X146335584Y-102243951D01*
X146377215Y-102271768D01*
X146458503Y-102326083D01*
X146458504Y-102326083D01*
X146458505Y-102326084D01*
X146595087Y-102382658D01*
X146740082Y-102411500D01*
X146740086Y-102411500D01*
X146887914Y-102411500D01*
X146887918Y-102411500D01*
X147032913Y-102382658D01*
X147169495Y-102326084D01*
X147292416Y-102243951D01*
X147396951Y-102139416D01*
X147479084Y-102016495D01*
X147535658Y-101879913D01*
X147564500Y-101734918D01*
X147564500Y-100487082D01*
X147535658Y-100342087D01*
X147479084Y-100205505D01*
X147469053Y-100190493D01*
X147396952Y-100082586D01*
X147396951Y-100082584D01*
X147292416Y-99978049D01*
X147245948Y-99947000D01*
X147169496Y-99895916D01*
X147169491Y-99895914D01*
X147032915Y-99839343D01*
X147032916Y-99839343D01*
X147032913Y-99839342D01*
X146887918Y-99810500D01*
X146740082Y-99810500D01*
X146595087Y-99839342D01*
X146595085Y-99839342D01*
X146595084Y-99839343D01*
X146458508Y-99895914D01*
X146458503Y-99895916D01*
X146335586Y-99978047D01*
X146231047Y-100082586D01*
X146148916Y-100205503D01*
X146148914Y-100205508D01*
X146092343Y-100342084D01*
X146092339Y-100342096D01*
X146082626Y-100390928D01*
X146049710Y-100449704D01*
X145988532Y-100477907D01*
X145922461Y-100464764D01*
X145876733Y-100415295D01*
X145875019Y-100411376D01*
X145873689Y-100408167D01*
X145873688Y-100408166D01*
X145873688Y-100408164D01*
X145804505Y-100288335D01*
X145706665Y-100190495D01*
X145706662Y-100190493D01*
X145586835Y-100121311D01*
X145453183Y-100085500D01*
X145314817Y-100085500D01*
X145181164Y-100121311D01*
X145061337Y-100190493D01*
X144963493Y-100288337D01*
X144894311Y-100408164D01*
X144858500Y-100541817D01*
X144858500Y-100680182D01*
X144894311Y-100813835D01*
X144933089Y-100881000D01*
X144947095Y-100946894D01*
X144919695Y-101008435D01*
X144861354Y-101042118D01*
X144838692Y-101044500D01*
X140149308Y-101044500D01*
X140085239Y-101023683D01*
X140045643Y-100969183D01*
X140045643Y-100901817D01*
X140054911Y-100881000D01*
X140081809Y-100834411D01*
X140093688Y-100813836D01*
X140129500Y-100680183D01*
X140129500Y-100541817D01*
X140093688Y-100408164D01*
X140024505Y-100288335D01*
X139926665Y-100190495D01*
X139926662Y-100190493D01*
X139806835Y-100121311D01*
X139673183Y-100085500D01*
X139534817Y-100085500D01*
X139401164Y-100121311D01*
X139281337Y-100190493D01*
X139183493Y-100288337D01*
X139114310Y-100408166D01*
X139112977Y-100411385D01*
X139111358Y-100413279D01*
X139110740Y-100414351D01*
X139110541Y-100414236D01*
X139069221Y-100462605D01*
X139003715Y-100478325D01*
X138941480Y-100452539D01*
X138906287Y-100395097D01*
X138905381Y-100390970D01*
X138895658Y-100342087D01*
X138839084Y-100205505D01*
X138829053Y-100190493D01*
X138756952Y-100082586D01*
X138756951Y-100082584D01*
X138652416Y-99978049D01*
X138605948Y-99947000D01*
X138529496Y-99895916D01*
X138529491Y-99895914D01*
X138392915Y-99839343D01*
X138392916Y-99839343D01*
X138392913Y-99839342D01*
X138247918Y-99810500D01*
X138100082Y-99810500D01*
X137955087Y-99839342D01*
X137955085Y-99839342D01*
X137955084Y-99839343D01*
X137818508Y-99895914D01*
X137818503Y-99895916D01*
X137695586Y-99978047D01*
X137591047Y-100082586D01*
X137508916Y-100205503D01*
X137508914Y-100205508D01*
X137452343Y-100342084D01*
X137452342Y-100342087D01*
X137423500Y-100487082D01*
X129105198Y-100487082D01*
X129105198Y-99014500D01*
X129126015Y-98950431D01*
X129180515Y-98910835D01*
X129214198Y-98905500D01*
X141043180Y-98905500D01*
X141107249Y-98926317D01*
X141120254Y-98937424D01*
X141155335Y-98972505D01*
X141275164Y-99041688D01*
X141408817Y-99077500D01*
X141547183Y-99077500D01*
X141680836Y-99041688D01*
X141800665Y-98972505D01*
X141898505Y-98874665D01*
X141967688Y-98754836D01*
X142003500Y-98621183D01*
X142003500Y-98546308D01*
X147440242Y-98546308D01*
X147440242Y-98684673D01*
X147476053Y-98818326D01*
X147541030Y-98930869D01*
X147545237Y-98938156D01*
X147565723Y-98958642D01*
X147596305Y-99018664D01*
X147585767Y-99085200D01*
X147583045Y-99090213D01*
X147559378Y-99131207D01*
X147559377Y-99131209D01*
X147523566Y-99264860D01*
X147523566Y-99403225D01*
X147559377Y-99536878D01*
X147559378Y-99536879D01*
X147628561Y-99656708D01*
X147726401Y-99754548D01*
X147846230Y-99823731D01*
X147979883Y-99859543D01*
X148118249Y-99859543D01*
X148251902Y-99823731D01*
X148371731Y-99754548D01*
X148469571Y-99656708D01*
X148538754Y-99536879D01*
X148574566Y-99403226D01*
X148574566Y-99264860D01*
X148538754Y-99131207D01*
X148469571Y-99011378D01*
X148449083Y-98990890D01*
X148418502Y-98930869D01*
X148429040Y-98864333D01*
X148431764Y-98859317D01*
X148455430Y-98818327D01*
X148491242Y-98684674D01*
X148491242Y-98546308D01*
X148455430Y-98412655D01*
X148386247Y-98292826D01*
X148288407Y-98194986D01*
X148288404Y-98194984D01*
X148168577Y-98125802D01*
X148034925Y-98089991D01*
X147896559Y-98089991D01*
X147762906Y-98125802D01*
X147643079Y-98194984D01*
X147545235Y-98292828D01*
X147476053Y-98412655D01*
X147440242Y-98546308D01*
X142003500Y-98546308D01*
X142003500Y-98482817D01*
X141967688Y-98349164D01*
X141898505Y-98229335D01*
X141800665Y-98131495D01*
X141797305Y-98129555D01*
X141680835Y-98062311D01*
X141547183Y-98026500D01*
X141408817Y-98026500D01*
X141275164Y-98062311D01*
X141155337Y-98131493D01*
X141124254Y-98162576D01*
X141064230Y-98193158D01*
X141047180Y-98194500D01*
X138591869Y-98194500D01*
X138527800Y-98173683D01*
X138488204Y-98119183D01*
X138488204Y-98051817D01*
X138527800Y-97997317D01*
X138531312Y-97994870D01*
X138540020Y-97989051D01*
X138652416Y-97913951D01*
X138756951Y-97809416D01*
X138839084Y-97686495D01*
X138895658Y-97549913D01*
X138924500Y-97404918D01*
X138924500Y-96457082D01*
X146063500Y-96457082D01*
X146063500Y-97404918D01*
X146092342Y-97549913D01*
X146092343Y-97549915D01*
X146148914Y-97686491D01*
X146148916Y-97686496D01*
X146166348Y-97712584D01*
X146231049Y-97809416D01*
X146335584Y-97913951D01*
X146397044Y-97955017D01*
X146458503Y-97996083D01*
X146458504Y-97996083D01*
X146458505Y-97996084D01*
X146595087Y-98052658D01*
X146740082Y-98081500D01*
X146740086Y-98081500D01*
X146887914Y-98081500D01*
X146887918Y-98081500D01*
X147032913Y-98052658D01*
X147169495Y-97996084D01*
X147292416Y-97913951D01*
X147396951Y-97809416D01*
X147479084Y-97686495D01*
X147535658Y-97549913D01*
X147564500Y-97404918D01*
X147564500Y-96457082D01*
X147535658Y-96312087D01*
X147479084Y-96175505D01*
X147396951Y-96052584D01*
X147292416Y-95948049D01*
X147291585Y-95947493D01*
X147169496Y-95865916D01*
X147169491Y-95865914D01*
X147032915Y-95809343D01*
X147032916Y-95809343D01*
X147032913Y-95809342D01*
X146887918Y-95780500D01*
X146740082Y-95780500D01*
X146595087Y-95809342D01*
X146595085Y-95809342D01*
X146595084Y-95809343D01*
X146458508Y-95865914D01*
X146458503Y-95865916D01*
X146335586Y-95948047D01*
X146231047Y-96052586D01*
X146148916Y-96175503D01*
X146148914Y-96175508D01*
X146092343Y-96312084D01*
X146092342Y-96312087D01*
X146063500Y-96457082D01*
X138924500Y-96457082D01*
X138895658Y-96312087D01*
X138839084Y-96175505D01*
X138756951Y-96052584D01*
X138652416Y-95948049D01*
X138651585Y-95947493D01*
X138529496Y-95865916D01*
X138529491Y-95865914D01*
X138392915Y-95809343D01*
X138392916Y-95809343D01*
X138392913Y-95809342D01*
X138247918Y-95780500D01*
X138100082Y-95780500D01*
X137955087Y-95809342D01*
X137955085Y-95809342D01*
X137955084Y-95809343D01*
X137818508Y-95865914D01*
X137818503Y-95865916D01*
X137695586Y-95948047D01*
X137591047Y-96052586D01*
X137508916Y-96175503D01*
X137508914Y-96175508D01*
X137452343Y-96312084D01*
X137452342Y-96312087D01*
X137423500Y-96457082D01*
X137423500Y-97404918D01*
X137452342Y-97549913D01*
X137452343Y-97549915D01*
X137508914Y-97686491D01*
X137508916Y-97686496D01*
X137526348Y-97712584D01*
X137591049Y-97809416D01*
X137695584Y-97913951D01*
X137787268Y-97975212D01*
X137816688Y-97994870D01*
X137858394Y-98047773D01*
X137861039Y-98115087D01*
X137823612Y-98171100D01*
X137760410Y-98194416D01*
X137756131Y-98194500D01*
X129214198Y-98194500D01*
X129150129Y-98173683D01*
X129110533Y-98119183D01*
X129105198Y-98085500D01*
X129105198Y-96954225D01*
X129107293Y-96932959D01*
X129116499Y-96886677D01*
X129116500Y-96886674D01*
X129116500Y-95137326D01*
X129107292Y-95091034D01*
X129105198Y-95069770D01*
X129105198Y-94722000D01*
X129126015Y-94657931D01*
X129180515Y-94618335D01*
X129214198Y-94613000D01*
X155341923Y-94613000D01*
X155405992Y-94633817D01*
G37*
%TD.AperFunction*%
%TA.AperFunction,Conductor*%
G36*
X131947595Y-111631317D02*
G01*
X131960601Y-111642425D01*
X133561601Y-113243425D01*
X133592184Y-113303449D01*
X133581646Y-113369985D01*
X133534011Y-113417620D01*
X133484526Y-113429500D01*
X129214198Y-113429500D01*
X129150129Y-113408683D01*
X129110533Y-113354183D01*
X129105198Y-113320500D01*
X129105198Y-111719500D01*
X129126015Y-111655431D01*
X129180515Y-111615835D01*
X129214198Y-111610500D01*
X131883526Y-111610500D01*
X131947595Y-111631317D01*
G37*
%TD.AperFunction*%
%TD*%
D20*
X125476000Y-94232000D02*
X158496000Y-94232000D01*
X158496000Y-136142000D01*
X125476000Y-136142000D01*
X125476000Y-94232000D01*
M02*
