%TF.GenerationSoftware,KiCad,Pcbnew,9.0.0*%
%TF.CreationDate,2025-11-24T16:37:30+00:00*%
%TF.ProjectId,OE PyBoard,4f452050-7942-46f6-9172-642e6b696361,rev?*%
%TF.SameCoordinates,Original*%
%TF.FileFunction,Copper,L3,Inr*%
%TF.FilePolarity,Positive*%
%FSLAX46Y46*%
G04 Gerber Fmt 4.6, Leading zero omitted, Abs format (unit mm)*
G04 Created by KiCad (PCBNEW 9.0.0) date 2025-11-24 16:37:30*
%MOMM*%
%LPD*%
G01*
G04 APERTURE LIST*
%TA.AperFunction,HeatsinkPad*%
%ADD10O,1.000000X2.100000*%
%TD*%
%TA.AperFunction,HeatsinkPad*%
%ADD11O,1.000000X1.800000*%
%TD*%
%TA.AperFunction,ComponentPad*%
%ADD12R,1.700000X1.700000*%
%TD*%
%TA.AperFunction,ComponentPad*%
%ADD13C,1.700000*%
%TD*%
%TA.AperFunction,ViaPad*%
%ADD14C,0.550000*%
%TD*%
%TA.AperFunction,Conductor*%
%ADD15C,0.220000*%
%TD*%
%TA.AperFunction,Conductor*%
%ADD16C,0.230000*%
%TD*%
%TA.AperFunction,Conductor*%
%ADD17C,0.210000*%
%TD*%
%TA.AperFunction,Conductor*%
%ADD18C,0.450000*%
%TD*%
%TA.AperFunction,Conductor*%
%ADD19C,0.250000*%
%TD*%
%TA.AperFunction,Profile*%
%ADD20C,0.230000*%
%TD*%
G04 APERTURE END LIST*
D10*
%TO.N,Net-(J3-SHIELD)*%
%TO.C,J3*%
X146814000Y-101111000D03*
D11*
X146814000Y-96931000D03*
D10*
X138174000Y-101111000D03*
D11*
X138174000Y-96931000D03*
%TD*%
D12*
%TO.N,/PC6-Y1*%
%TO.C,J6*%
X128016000Y-96012000D03*
D13*
%TO.N,/PC7-Y2*%
X128016000Y-98552000D03*
%TO.N,/PB8-Y3*%
X128016000Y-101092000D03*
%TO.N,/PB9-Y4*%
X128016000Y-103632000D03*
%TO.N,/PB12-Y5*%
X128016000Y-106172000D03*
%TO.N,/PB13-Y6*%
X128016000Y-108712000D03*
%TO.N,/PB14-Y7*%
X128016000Y-111252000D03*
%TO.N,/PB15-Y8*%
X128016000Y-113792000D03*
%TO.N,/PB6-SCL-X9*%
X128016000Y-116332000D03*
%TO.N,/PB7-SDA-X10*%
X128016000Y-118872000D03*
%TO.N,/PC4-X11*%
X128016000Y-121412000D03*
%TO.N,/PC5-X12*%
X128016000Y-123952000D03*
%TO.N,/RST-SW*%
X128016000Y-126492000D03*
%TO.N,GND*%
X128016000Y-129032000D03*
%TO.N,+3V3*%
X128016000Y-131572000D03*
%TO.N,V+*%
X128016000Y-134112000D03*
%TD*%
D12*
%TO.N,/BOOT0*%
%TO.C,JP1*%
X150469600Y-110002400D03*
D13*
%TO.N,+3V3*%
X150469600Y-112542400D03*
%TD*%
D12*
%TO.N,V+*%
%TO.C,J7*%
X155956000Y-96012000D03*
D13*
%TO.N,+3V3*%
X155956000Y-98552000D03*
%TO.N,GND*%
X155956000Y-101092000D03*
%TO.N,/RST-SW*%
X155956000Y-103632000D03*
%TO.N,/PB1-Y12*%
X155956000Y-106172000D03*
%TO.N,/PB0-Y11*%
X155956000Y-108712000D03*
%TO.N,/PB11-Y10*%
X155956000Y-111252000D03*
%TO.N,/PB10-Y9*%
X155956000Y-113792000D03*
%TO.N,/PA7-X8*%
X155956000Y-116332000D03*
%TO.N,/PA6-X7*%
X155956000Y-118872000D03*
%TO.N,/PA5-X6*%
X155956000Y-121412000D03*
%TO.N,/PA4-X5*%
X155956000Y-123952000D03*
%TO.N,/PA3-X4*%
X155956000Y-126492000D03*
%TO.N,/PA2-X3*%
X155956000Y-129032000D03*
%TO.N,/PA1-X2*%
X155956000Y-131572000D03*
%TO.N,/PA0-X1*%
X155956000Y-134112000D03*
%TD*%
D14*
%TO.N,/PB12-Y5*%
X146202400Y-109423200D03*
%TO.N,/PB14-Y7*%
X144471660Y-111529424D03*
%TO.N,/PB1-Y12*%
X145542000Y-105664000D03*
X145871000Y-120267000D03*
%TO.N,/PB9-Y4*%
X135450000Y-106100000D03*
X137637104Y-125007000D03*
%TO.N,/PA0-X1*%
X147173400Y-130006015D03*
%TO.N,/PB13-Y6*%
X144830800Y-110871000D03*
%TO.N,/PB7-SDA-X10*%
X134366000Y-123507000D03*
%TO.N,/PB11-Y10*%
X154559000Y-117856000D03*
X149315961Y-119320493D03*
%TO.N,/PA1-X2*%
X147675600Y-129387600D03*
%TO.N,/PC4-X11*%
X146177000Y-122807000D03*
%TO.N,/PC6-Y1*%
X143764000Y-115314000D03*
%TO.N,/PB15-Y8*%
X143764000Y-118489000D03*
%TO.N,/PA2-X3*%
X146862800Y-128752600D03*
%TO.N,/PB0-Y11*%
X154432000Y-119126000D03*
X146081750Y-121124250D03*
%TO.N,/VDDA*%
X147116800Y-104902000D03*
X146583400Y-130886200D03*
%TO.N,/PB6-SCL-X9*%
X132885431Y-121061573D03*
%TO.N,/PC5-X12*%
X144975000Y-124203025D03*
%TO.N,/RST-SW*%
X154555563Y-106807000D03*
X139827000Y-108585000D03*
X140589000Y-126111000D03*
X133575000Y-108700000D03*
%TO.N,/PB8-Y3*%
X136339022Y-102889106D03*
X138354428Y-124788025D03*
%TO.N,/PC7-Y2*%
X141478000Y-98552000D03*
X142240000Y-115187000D03*
%TO.N,/PB10-Y9*%
X149273885Y-120228716D03*
X149860000Y-114046000D03*
%TO.N,GND*%
X131706510Y-121062966D03*
X141478000Y-96647000D03*
X143875000Y-106850000D03*
X139573000Y-123317000D03*
X129540000Y-112014000D03*
X139600000Y-125175000D03*
X144780000Y-108686600D03*
X144575000Y-118850000D03*
X151700000Y-115500000D03*
X135350000Y-110286000D03*
X154500000Y-127600000D03*
X147370800Y-134518400D03*
X144018000Y-114147600D03*
X139827000Y-103124000D03*
X130246000Y-128250000D03*
X149961600Y-102717600D03*
X143175000Y-107550000D03*
X129425000Y-107625000D03*
X129540000Y-104902000D03*
X145900000Y-125025000D03*
X151275000Y-126925000D03*
X145973800Y-103200200D03*
X143950000Y-123300000D03*
X146177000Y-118872000D03*
X132125000Y-112050000D03*
X140843000Y-107823000D03*
X153162000Y-112649000D03*
X153873200Y-107696000D03*
X151393912Y-104421942D03*
X143611600Y-112039400D03*
X129540000Y-117983000D03*
X131815548Y-124458000D03*
X151765000Y-124942600D03*
X147675600Y-103657400D03*
X132050000Y-101250000D03*
X154672166Y-123624277D03*
X153150000Y-116650000D03*
X139725000Y-121725000D03*
X141925000Y-125175000D03*
X135636000Y-114427000D03*
X138430000Y-107315000D03*
X146405600Y-110998000D03*
X135255000Y-116459000D03*
X143459200Y-98602800D03*
X144175000Y-120225000D03*
X150774681Y-122263533D03*
X141700000Y-120225000D03*
X154482800Y-125577600D03*
X132000000Y-134475000D03*
X148996000Y-100000000D03*
X135001000Y-119634000D03*
X144256583Y-95235447D03*
X130950000Y-99650000D03*
X146354800Y-108229400D03*
X129794000Y-125250000D03*
X143950000Y-121625000D03*
X145161000Y-132613400D03*
X134493000Y-125222000D03*
X148700000Y-95500000D03*
X129050000Y-102325000D03*
X130200400Y-132232400D03*
X148082000Y-107264200D03*
X132025000Y-106675000D03*
X141986000Y-129284000D03*
X139827000Y-105410000D03*
X137972800Y-125704600D03*
X136375000Y-97325000D03*
X138404600Y-131165600D03*
X130048000Y-114681000D03*
X137033000Y-128522000D03*
X132125000Y-97850000D03*
X138850000Y-134475000D03*
X154432000Y-134620000D03*
X139575000Y-120225000D03*
X151257000Y-131064000D03*
X135600000Y-105125000D03*
X141700000Y-123300000D03*
%TO.N,+3V3*%
X134848600Y-127506000D03*
X136294720Y-112312720D03*
X149860000Y-125855000D03*
X134945832Y-118616000D03*
X151842000Y-120142000D03*
X134442200Y-133604000D03*
X152400000Y-102743000D03*
X141224000Y-111885000D03*
X152400000Y-114808000D03*
X136334500Y-117475000D03*
X152374600Y-102031800D03*
X146825000Y-133361000D03*
X136334500Y-115187000D03*
%TO.N,VBUS*%
X148049066Y-98153134D03*
X148049066Y-99334043D03*
%TO.N,/BOOT0*%
X138154063Y-123469592D03*
X138277600Y-110159800D03*
%TO.N,/PA13-RED*%
X148183600Y-117449600D03*
X148971000Y-128320000D03*
X139236000Y-117678200D03*
%TO.N,/PA14-GRN*%
X142800000Y-119049000D03*
X138526000Y-119049000D03*
X147701000Y-127635000D03*
X143675000Y-125425000D03*
%TO.N,/PA15-YEL*%
X152019000Y-126525000D03*
X151689988Y-118547201D03*
X151625000Y-122250000D03*
X138430000Y-119888000D03*
%TO.N,/PB4-BLU*%
X152675000Y-121750000D03*
X153200000Y-126525000D03*
X138500000Y-121225000D03*
%TO.N,/PB3-SW1*%
X134316000Y-120788666D03*
X135589234Y-102871150D03*
%TD*%
D15*
%TO.N,/PB12-Y5*%
X132410200Y-109423200D02*
X129157000Y-106170000D01*
X146202400Y-109423200D02*
X132410200Y-109423200D01*
X129157000Y-106170000D02*
X128016000Y-106170000D01*
%TO.N,/PB14-Y7*%
X144234236Y-111292000D02*
X128058000Y-111292000D01*
X128058000Y-111292000D02*
X128016000Y-111250000D01*
X144471660Y-111529424D02*
X144234236Y-111292000D01*
D16*
%TO.N,/PB1-Y12*%
X155450000Y-105664000D02*
X145542000Y-105664000D01*
X155956000Y-106170000D02*
X155450000Y-105664000D01*
D15*
%TO.N,/PB9-Y4*%
X135450000Y-106100000D02*
X133750000Y-104400000D01*
X133750000Y-104400000D02*
X133739000Y-104400000D01*
X132969000Y-103630000D02*
X128016000Y-103630000D01*
X133739000Y-104400000D02*
X132969000Y-103630000D01*
%TO.N,/PA0-X1*%
X152400000Y-130022600D02*
X155956000Y-133578600D01*
X155956000Y-133578600D02*
X155956000Y-134110000D01*
X147189985Y-130022600D02*
X152400000Y-130022600D01*
X147173400Y-130006015D02*
X147189985Y-130022600D01*
%TO.N,/PB13-Y6*%
X130554000Y-108710000D02*
X128016000Y-108710000D01*
X132715000Y-110871000D02*
X130554000Y-108710000D01*
X144830800Y-110871000D02*
X132715000Y-110871000D01*
D16*
%TO.N,/PB11-Y10*%
X153094507Y-119320493D02*
X149315961Y-119320493D01*
X154559000Y-117856000D02*
X153094507Y-119320493D01*
D15*
%TO.N,/PA1-X2*%
X153773600Y-129387600D02*
X155956000Y-131570000D01*
X147675600Y-129387600D02*
X153773600Y-129387600D01*
X155956000Y-131570000D02*
X155956000Y-131572000D01*
%TO.N,/PC4-X11*%
X144476000Y-122426000D02*
X144857000Y-122807000D01*
X144857000Y-122807000D02*
X146177000Y-122807000D01*
X128016000Y-121410000D02*
X129032000Y-122426000D01*
X129032000Y-122426000D02*
X144476000Y-122426000D01*
%TO.N,/PB15-Y8*%
X143764000Y-118489000D02*
X143738000Y-118463000D01*
X143738000Y-118463000D02*
X138402000Y-118463000D01*
X138402000Y-118463000D02*
X133729000Y-113790000D01*
X133729000Y-113790000D02*
X128016000Y-113790000D01*
%TO.N,/PA2-X3*%
X146862800Y-128752600D02*
X147878800Y-128752600D01*
X148031200Y-128905000D02*
X155829000Y-128905000D01*
D16*
X155632647Y-129353353D02*
X155956000Y-129030000D01*
D15*
X155829000Y-128905000D02*
X155956000Y-129032000D01*
X147878800Y-128752600D02*
X148031200Y-128905000D01*
D16*
%TO.N,/PB0-Y11*%
X154432000Y-119126000D02*
X152654000Y-120904000D01*
X146302000Y-120904000D02*
X146081750Y-121124250D01*
X152654000Y-120904000D02*
X146302000Y-120904000D01*
D15*
%TO.N,/PB6-SCL-X9*%
X132885431Y-121061573D02*
X132886039Y-121060965D01*
X132886039Y-121060965D02*
X132886039Y-117519039D01*
X131732273Y-116365273D02*
X128016000Y-116365273D01*
X132886039Y-117519039D02*
X131732273Y-116365273D01*
%TO.N,/PC5-X12*%
X132011085Y-123825000D02*
X128141000Y-123825000D01*
X144975000Y-124203025D02*
X132389110Y-124203025D01*
X132389110Y-124203025D02*
X132011085Y-123825000D01*
%TO.N,/RST-SW*%
X133575000Y-108700000D02*
X133587000Y-108712000D01*
X140210000Y-126490000D02*
X128016000Y-126490000D01*
D17*
X153998563Y-106250000D02*
X154555563Y-106807000D01*
D15*
X143129000Y-108585000D02*
X145464000Y-106250000D01*
X145464000Y-106250000D02*
X147369000Y-106250000D01*
X133587000Y-108712000D02*
X139700000Y-108712000D01*
X139700000Y-108712000D02*
X139827000Y-108585000D01*
D17*
X147369000Y-106250000D02*
X153998563Y-106250000D01*
D15*
X139827000Y-108585000D02*
X143129000Y-108585000D01*
X140589000Y-126111000D02*
X140210000Y-126490000D01*
%TO.N,/PB8-Y3*%
X136339022Y-102889106D02*
X136339022Y-100789022D01*
X136339022Y-100789022D02*
X135925000Y-100375000D01*
X128733000Y-100375000D02*
X128016000Y-101092000D01*
X135925000Y-100375000D02*
X128733000Y-100375000D01*
D17*
%TO.N,/PC7-Y2*%
X141478000Y-98552000D02*
X141476000Y-98550000D01*
X141476000Y-98550000D02*
X128016000Y-98550000D01*
D15*
%TO.N,/PB10-Y9*%
X149860000Y-114046000D02*
X155305667Y-114046000D01*
%TO.N,+3V3*%
X140790000Y-112319000D02*
X141224000Y-111885000D01*
D18*
X130050000Y-133604000D02*
X128016000Y-131570000D01*
D15*
X136369720Y-112312720D02*
X136376000Y-112319000D01*
X136294720Y-112312720D02*
X136369720Y-112312720D01*
D16*
X134945832Y-117974668D02*
X134945832Y-118616000D01*
X135445500Y-117475000D02*
X134945832Y-117974668D01*
D15*
X136376000Y-112319000D02*
X140790000Y-112319000D01*
D18*
X146582000Y-133604000D02*
X130050000Y-133604000D01*
D16*
X136334500Y-117475000D02*
X135445500Y-117475000D01*
D18*
X146825000Y-133361000D02*
X146582000Y-133604000D01*
D19*
%TO.N,Net-(J3-SHIELD)*%
X138377000Y-101420000D02*
X146615000Y-101420000D01*
D15*
%TO.N,/BOOT0*%
X150312200Y-110159800D02*
X150469600Y-110002400D01*
X138277600Y-110159800D02*
X150312200Y-110159800D01*
%TO.N,/PA13-RED*%
X147730200Y-117903000D02*
X148183600Y-117449600D01*
X139236000Y-117678200D02*
X139460800Y-117903000D01*
X139460800Y-117903000D02*
X147730200Y-117903000D01*
%TO.N,/PA14-GRN*%
X138572000Y-119095000D02*
X138526000Y-119049000D01*
X142800000Y-119049000D02*
X142754000Y-119095000D01*
X142754000Y-119095000D02*
X138572000Y-119095000D01*
%TO.N,/PA15-YEL*%
X144519347Y-119634000D02*
X148080000Y-119634000D01*
X148080000Y-119634000D02*
X149166799Y-118547201D01*
X149166799Y-118547201D02*
X151689988Y-118547201D01*
X144032887Y-119635000D02*
X144518347Y-119635000D01*
X144031887Y-119634000D02*
X144032887Y-119635000D01*
X144518347Y-119635000D02*
X144519347Y-119634000D01*
X138430000Y-119888000D02*
X138684000Y-119634000D01*
X138684000Y-119634000D02*
X144031887Y-119634000D01*
%TO.N,/PB4-BLU*%
X151875000Y-121575000D02*
X150400000Y-121575000D01*
X145835250Y-121710250D02*
X144975000Y-120850000D01*
X152675000Y-121750000D02*
X152050000Y-121750000D01*
X138875000Y-120850000D02*
X138500000Y-121225000D01*
X144975000Y-120850000D02*
X138875000Y-120850000D01*
X150400000Y-121575000D02*
X150264750Y-121710250D01*
X152050000Y-121750000D02*
X151875000Y-121575000D01*
X150264750Y-121710250D02*
X145835250Y-121710250D01*
%TD*%
%TA.AperFunction,Conductor*%
%TO.N,GND*%
G36*
X154880485Y-119527199D02*
G01*
X154928120Y-119574834D01*
X154940000Y-119624319D01*
X154940000Y-120960371D01*
X154934665Y-120994054D01*
X154882598Y-121154295D01*
X154855500Y-121325387D01*
X154855500Y-121498612D01*
X154882598Y-121669704D01*
X154934665Y-121829946D01*
X154940000Y-121863629D01*
X154940000Y-123500371D01*
X154934665Y-123534054D01*
X154882598Y-123694295D01*
X154855500Y-123865387D01*
X154855500Y-124038612D01*
X154882598Y-124209704D01*
X154934665Y-124369946D01*
X154940000Y-124403629D01*
X154940000Y-126040371D01*
X154934665Y-126074054D01*
X154882598Y-126234295D01*
X154855500Y-126405387D01*
X154855500Y-126578612D01*
X154882598Y-126749704D01*
X154934665Y-126909946D01*
X154940000Y-126943629D01*
X154940000Y-128435500D01*
X154919183Y-128499569D01*
X154864683Y-128539165D01*
X154831000Y-128544500D01*
X149596934Y-128544500D01*
X149532865Y-128523683D01*
X149493269Y-128469183D01*
X149491649Y-128407287D01*
X149496500Y-128389183D01*
X149496500Y-128250817D01*
X149460688Y-128117164D01*
X149391506Y-127997337D01*
X149391505Y-127997335D01*
X149293665Y-127899495D01*
X149293662Y-127899493D01*
X149173835Y-127830311D01*
X149040183Y-127794500D01*
X148901817Y-127794500D01*
X148768164Y-127830311D01*
X148648337Y-127899493D01*
X148550493Y-127997337D01*
X148481311Y-128117164D01*
X148445500Y-128250817D01*
X148445500Y-128389183D01*
X148450351Y-128407287D01*
X148448731Y-128438213D01*
X148448731Y-128469183D01*
X148446982Y-128471589D01*
X148446827Y-128474561D01*
X148427338Y-128498627D01*
X148409135Y-128523683D01*
X148406304Y-128524602D01*
X148404433Y-128526914D01*
X148345066Y-128544500D01*
X148225674Y-128544500D01*
X148161605Y-128523683D01*
X148148600Y-128512575D01*
X148100154Y-128464130D01*
X148100152Y-128464128D01*
X148017948Y-128416667D01*
X147926261Y-128392100D01*
X147290620Y-128392100D01*
X147226551Y-128371283D01*
X147213547Y-128360176D01*
X147185465Y-128332095D01*
X147065635Y-128262911D01*
X146931983Y-128227100D01*
X146793617Y-128227100D01*
X146659964Y-128262911D01*
X146540137Y-128332093D01*
X146442293Y-128429937D01*
X146373111Y-128549764D01*
X146337300Y-128683417D01*
X146337300Y-128821782D01*
X146373111Y-128955435D01*
X146442293Y-129075262D01*
X146442295Y-129075265D01*
X146540135Y-129173105D01*
X146659964Y-129242288D01*
X146793617Y-129278100D01*
X146931983Y-129278100D01*
X147012890Y-129256421D01*
X147043816Y-129258042D01*
X147074783Y-129258042D01*
X147077190Y-129259791D01*
X147080162Y-129259947D01*
X147104225Y-129279432D01*
X147129283Y-129297638D01*
X147130202Y-129300468D01*
X147132515Y-129302341D01*
X147150100Y-129361707D01*
X147150100Y-129384582D01*
X147129283Y-129448651D01*
X147074783Y-129488247D01*
X147069311Y-129489868D01*
X146970564Y-129516326D01*
X146850737Y-129585508D01*
X146752893Y-129683352D01*
X146683711Y-129803179D01*
X146647900Y-129936832D01*
X146647900Y-130075197D01*
X146683711Y-130208848D01*
X146684182Y-130209985D01*
X146684251Y-130210863D01*
X146685561Y-130215752D01*
X146684655Y-130215994D01*
X146689469Y-130277143D01*
X146654272Y-130334582D01*
X146592035Y-130360364D01*
X146583480Y-130360700D01*
X146514217Y-130360700D01*
X146380564Y-130396511D01*
X146260737Y-130465693D01*
X146162893Y-130563537D01*
X146093711Y-130683364D01*
X146057900Y-130817017D01*
X146057900Y-130955382D01*
X146093711Y-131089035D01*
X146131250Y-131154054D01*
X146162895Y-131208865D01*
X146260735Y-131306705D01*
X146380564Y-131375888D01*
X146514217Y-131411700D01*
X146652583Y-131411700D01*
X146786236Y-131375888D01*
X146906065Y-131306705D01*
X147003905Y-131208865D01*
X147073088Y-131089036D01*
X147108900Y-130955383D01*
X147108900Y-130817017D01*
X147073088Y-130683364D01*
X147073085Y-130683358D01*
X147072618Y-130682230D01*
X147072548Y-130681351D01*
X147071239Y-130676463D01*
X147072144Y-130676220D01*
X147067331Y-130615072D01*
X147102528Y-130557633D01*
X147164765Y-130531851D01*
X147173320Y-130531515D01*
X147242583Y-130531515D01*
X147376236Y-130495703D01*
X147496065Y-130426520D01*
X147507561Y-130415023D01*
X147567583Y-130384442D01*
X147584634Y-130383100D01*
X152205526Y-130383100D01*
X152269595Y-130403917D01*
X152282601Y-130415025D01*
X154908075Y-133040499D01*
X154938658Y-133100523D01*
X154940000Y-133117574D01*
X154940000Y-133660371D01*
X154934665Y-133694054D01*
X154882598Y-133854295D01*
X154855500Y-134025387D01*
X154855500Y-134198612D01*
X154882598Y-134369704D01*
X154934665Y-134529946D01*
X154940000Y-134563629D01*
X154940000Y-135398000D01*
X154919183Y-135462069D01*
X154864683Y-135501665D01*
X154831000Y-135507000D01*
X128633000Y-135507000D01*
X128568931Y-135486183D01*
X128529335Y-135431683D01*
X128524000Y-135398000D01*
X128524000Y-135155076D01*
X128529936Y-135136803D01*
X128530643Y-135117606D01*
X128539375Y-135107754D01*
X128544817Y-135091007D01*
X128572216Y-135064598D01*
X128577663Y-135060938D01*
X128592788Y-135053232D01*
X128637635Y-135020648D01*
X128639312Y-135019522D01*
X128669869Y-135010821D01*
X128700096Y-135001000D01*
X129105197Y-135001000D01*
X129105198Y-135001000D01*
X129105198Y-134278546D01*
X129106540Y-134261494D01*
X129116500Y-134198611D01*
X129116500Y-134025389D01*
X129106540Y-133962503D01*
X129105198Y-133945452D01*
X129105198Y-133594807D01*
X129126015Y-133530738D01*
X129180515Y-133491142D01*
X129247881Y-133491142D01*
X129291273Y-133517732D01*
X129758037Y-133984496D01*
X129866461Y-134047094D01*
X129866463Y-134047094D01*
X129866464Y-134047095D01*
X129987399Y-134079500D01*
X134185583Y-134079500D01*
X134232319Y-134092023D01*
X134232763Y-134090954D01*
X134239360Y-134093685D01*
X134239364Y-134093688D01*
X134373017Y-134129500D01*
X134511383Y-134129500D01*
X134645036Y-134093688D01*
X134645042Y-134093684D01*
X134651637Y-134090954D01*
X134652080Y-134092023D01*
X134698817Y-134079500D01*
X146644599Y-134079500D01*
X146644601Y-134079500D01*
X146765536Y-134047095D01*
X146873964Y-133984495D01*
X146979773Y-133878684D01*
X147021677Y-133854491D01*
X147021235Y-133853422D01*
X147027831Y-133850689D01*
X147027836Y-133850688D01*
X147147665Y-133781505D01*
X147245505Y-133683665D01*
X147314688Y-133563836D01*
X147350500Y-133430183D01*
X147350500Y-133291817D01*
X147314688Y-133158164D01*
X147245505Y-133038335D01*
X147147665Y-132940495D01*
X147147662Y-132940493D01*
X147027835Y-132871311D01*
X146894183Y-132835500D01*
X146755817Y-132835500D01*
X146622164Y-132871311D01*
X146502337Y-132940493D01*
X146404493Y-133038337D01*
X146383904Y-133074000D01*
X146333842Y-133119076D01*
X146289507Y-133128500D01*
X142349000Y-133128500D01*
X142284931Y-133107683D01*
X142245335Y-133053183D01*
X142240000Y-133019500D01*
X142240000Y-130300001D01*
X142240000Y-130300000D01*
X139192000Y-130300000D01*
X139192000Y-130300001D01*
X139192000Y-133019500D01*
X139171183Y-133083569D01*
X139116683Y-133123165D01*
X139083000Y-133128500D01*
X134698817Y-133128500D01*
X134652080Y-133115976D01*
X134651637Y-133117046D01*
X134645036Y-133114312D01*
X134511383Y-133078500D01*
X134373017Y-133078500D01*
X134239363Y-133114312D01*
X134232763Y-133117046D01*
X134232319Y-133115976D01*
X134185583Y-133128500D01*
X130292109Y-133128500D01*
X130228040Y-133107683D01*
X130215034Y-133096575D01*
X129137123Y-132018664D01*
X129133130Y-132010827D01*
X129126015Y-132005658D01*
X129118127Y-131981382D01*
X129106540Y-131958640D01*
X129105198Y-131941589D01*
X129105198Y-131738546D01*
X129106540Y-131721494D01*
X129116500Y-131658611D01*
X129116500Y-131485389D01*
X129106540Y-131422503D01*
X129105198Y-131405452D01*
X129105198Y-130429001D01*
X129105198Y-130429000D01*
X128633000Y-130429000D01*
X128568931Y-130408183D01*
X128529335Y-130353683D01*
X128524000Y-130320000D01*
X128524000Y-130074515D01*
X128544817Y-130010446D01*
X128583516Y-129977395D01*
X128592517Y-129972808D01*
X128592527Y-129972802D01*
X128701124Y-129893902D01*
X128701124Y-129893901D01*
X128524000Y-129716776D01*
X128524000Y-129363223D01*
X128877901Y-129717124D01*
X128877902Y-129717124D01*
X128956801Y-129608529D01*
X129035411Y-129454248D01*
X129088913Y-129289588D01*
X129116000Y-129118572D01*
X129116000Y-128945427D01*
X129088913Y-128774411D01*
X129035411Y-128609751D01*
X128956802Y-128455474D01*
X128877901Y-128346874D01*
X128524000Y-128700775D01*
X128524000Y-128347220D01*
X128701124Y-128170096D01*
X128592521Y-128091194D01*
X128583510Y-128086602D01*
X128535878Y-128038965D01*
X128524000Y-127989485D01*
X128524000Y-127744000D01*
X128544817Y-127679931D01*
X128599317Y-127640335D01*
X128633000Y-127635000D01*
X129105197Y-127635000D01*
X129105198Y-127635000D01*
X129105198Y-126959500D01*
X129126015Y-126895431D01*
X129180515Y-126855835D01*
X129214198Y-126850500D01*
X134526165Y-126850500D01*
X134590234Y-126871317D01*
X134629830Y-126925817D01*
X134629830Y-126993183D01*
X134590234Y-127047683D01*
X134580664Y-127053897D01*
X134525938Y-127085492D01*
X134428093Y-127183337D01*
X134358911Y-127303164D01*
X134323100Y-127436817D01*
X134323100Y-127575182D01*
X134358911Y-127708835D01*
X134408370Y-127794500D01*
X134428095Y-127828665D01*
X134525935Y-127926505D01*
X134645764Y-127995688D01*
X134779417Y-128031500D01*
X134917783Y-128031500D01*
X135051436Y-127995688D01*
X135171265Y-127926505D01*
X135269105Y-127828665D01*
X135338288Y-127708836D01*
X135374100Y-127575183D01*
X135374100Y-127565817D01*
X147175500Y-127565817D01*
X147175500Y-127704183D01*
X147176747Y-127708836D01*
X147211311Y-127837835D01*
X147262505Y-127926505D01*
X147280495Y-127957665D01*
X147378335Y-128055505D01*
X147498164Y-128124688D01*
X147631817Y-128160500D01*
X147770183Y-128160500D01*
X147903836Y-128124688D01*
X148023665Y-128055505D01*
X148121505Y-127957665D01*
X148190688Y-127837836D01*
X148226500Y-127704183D01*
X148226500Y-127565817D01*
X148190688Y-127432164D01*
X148121505Y-127312335D01*
X148023665Y-127214495D01*
X147969698Y-127183337D01*
X147903835Y-127145311D01*
X147770183Y-127109500D01*
X147631817Y-127109500D01*
X147498164Y-127145311D01*
X147378337Y-127214493D01*
X147280493Y-127312337D01*
X147211311Y-127432164D01*
X147175500Y-127565817D01*
X135374100Y-127565817D01*
X135374100Y-127436817D01*
X135338288Y-127303164D01*
X135269105Y-127183335D01*
X135171265Y-127085495D01*
X135171262Y-127085493D01*
X135171261Y-127085492D01*
X135116536Y-127053897D01*
X135071459Y-127003835D01*
X135064417Y-126936838D01*
X135098099Y-126878498D01*
X135159641Y-126851097D01*
X135171035Y-126850500D01*
X140257461Y-126850500D01*
X140349148Y-126825933D01*
X140431352Y-126778472D01*
X140488175Y-126721649D01*
X140541400Y-126668425D01*
X140601423Y-126637842D01*
X140618474Y-126636500D01*
X140658183Y-126636500D01*
X140791836Y-126600688D01*
X140911665Y-126531505D01*
X140987353Y-126455817D01*
X151493500Y-126455817D01*
X151493500Y-126594182D01*
X151529311Y-126727835D01*
X151585948Y-126825933D01*
X151598495Y-126847665D01*
X151696335Y-126945505D01*
X151816164Y-127014688D01*
X151949817Y-127050500D01*
X152088183Y-127050500D01*
X152221836Y-127014688D01*
X152341665Y-126945505D01*
X152439505Y-126847665D01*
X152508688Y-126727836D01*
X152508689Y-126727829D01*
X152508796Y-126727575D01*
X152508927Y-126727420D01*
X152512260Y-126721649D01*
X152513329Y-126722266D01*
X152552546Y-126676348D01*
X152618050Y-126660621D01*
X152680288Y-126686399D01*
X152706147Y-126721991D01*
X152706740Y-126721649D01*
X152709996Y-126727289D01*
X152710204Y-126727575D01*
X152710312Y-126727836D01*
X152766947Y-126825932D01*
X152779495Y-126847665D01*
X152877335Y-126945505D01*
X152997164Y-127014688D01*
X153130817Y-127050500D01*
X153269183Y-127050500D01*
X153402836Y-127014688D01*
X153522665Y-126945505D01*
X153620505Y-126847665D01*
X153689688Y-126727836D01*
X153725500Y-126594183D01*
X153725500Y-126455817D01*
X153689688Y-126322164D01*
X153620505Y-126202335D01*
X153522665Y-126104495D01*
X153522662Y-126104493D01*
X153402835Y-126035311D01*
X153269183Y-125999500D01*
X153130817Y-125999500D01*
X152997164Y-126035311D01*
X152877337Y-126104493D01*
X152779493Y-126202337D01*
X152710312Y-126322163D01*
X152710202Y-126322430D01*
X152710067Y-126322587D01*
X152706740Y-126328351D01*
X152705671Y-126327734D01*
X152666449Y-126373654D01*
X152600945Y-126389378D01*
X152538708Y-126363596D01*
X152512851Y-126328009D01*
X152512260Y-126328351D01*
X152509009Y-126322721D01*
X152508798Y-126322430D01*
X152508689Y-126322167D01*
X152508688Y-126322164D01*
X152439505Y-126202335D01*
X152341665Y-126104495D01*
X152341662Y-126104493D01*
X152221835Y-126035311D01*
X152088183Y-125999500D01*
X151949817Y-125999500D01*
X151816164Y-126035311D01*
X151696337Y-126104493D01*
X151598493Y-126202337D01*
X151529311Y-126322164D01*
X151493500Y-126455817D01*
X140987353Y-126455817D01*
X141009505Y-126433665D01*
X141078688Y-126313836D01*
X141114500Y-126180183D01*
X141114500Y-126041817D01*
X141078688Y-125908164D01*
X141009505Y-125788335D01*
X140911665Y-125690495D01*
X140911662Y-125690493D01*
X140791835Y-125621311D01*
X140658183Y-125585500D01*
X140519817Y-125585500D01*
X140386164Y-125621311D01*
X140266337Y-125690493D01*
X140168493Y-125788337D01*
X140099311Y-125908164D01*
X140087968Y-125950500D01*
X140063888Y-126040371D01*
X140061653Y-126048711D01*
X140024963Y-126105209D01*
X139962072Y-126129351D01*
X139956367Y-126129500D01*
X129214198Y-126129500D01*
X129150129Y-126108683D01*
X129110533Y-126054183D01*
X129105198Y-126020500D01*
X129105198Y-124294500D01*
X129126015Y-124230431D01*
X129180515Y-124190835D01*
X129214198Y-124185500D01*
X131816611Y-124185500D01*
X131880680Y-124206317D01*
X131893686Y-124217425D01*
X132167758Y-124491497D01*
X132249962Y-124538958D01*
X132341649Y-124563525D01*
X132436571Y-124563525D01*
X137097555Y-124563525D01*
X137161624Y-124584342D01*
X137201220Y-124638842D01*
X137201220Y-124706208D01*
X137191952Y-124727025D01*
X137147415Y-124804164D01*
X137111604Y-124937817D01*
X137111604Y-125076182D01*
X137147415Y-125209835D01*
X137216597Y-125329662D01*
X137216599Y-125329665D01*
X137314439Y-125427505D01*
X137434268Y-125496688D01*
X137567921Y-125532500D01*
X137706287Y-125532500D01*
X137839940Y-125496688D01*
X137959769Y-125427505D01*
X138031457Y-125355817D01*
X143149500Y-125355817D01*
X143149500Y-125494182D01*
X143185311Y-125627835D01*
X143199601Y-125652586D01*
X143254495Y-125747665D01*
X143352335Y-125845505D01*
X143472164Y-125914688D01*
X143605817Y-125950500D01*
X143744183Y-125950500D01*
X143877836Y-125914688D01*
X143997665Y-125845505D01*
X144057353Y-125785817D01*
X149334500Y-125785817D01*
X149334500Y-125924182D01*
X149370311Y-126057835D01*
X149411601Y-126129351D01*
X149439495Y-126177665D01*
X149537335Y-126275505D01*
X149657164Y-126344688D01*
X149790817Y-126380500D01*
X149929183Y-126380500D01*
X150062836Y-126344688D01*
X150182665Y-126275505D01*
X150280505Y-126177665D01*
X150349688Y-126057836D01*
X150385500Y-125924183D01*
X150385500Y-125785817D01*
X150349688Y-125652164D01*
X150280505Y-125532335D01*
X150182665Y-125434495D01*
X150170558Y-125427505D01*
X150062835Y-125365311D01*
X149929183Y-125329500D01*
X149790817Y-125329500D01*
X149657164Y-125365311D01*
X149537337Y-125434493D01*
X149439493Y-125532337D01*
X149370311Y-125652164D01*
X149334500Y-125785817D01*
X144057353Y-125785817D01*
X144095505Y-125747665D01*
X144164688Y-125627836D01*
X144200500Y-125494183D01*
X144200500Y-125355817D01*
X144164688Y-125222164D01*
X144095505Y-125102335D01*
X143997665Y-125004495D01*
X143997662Y-125004493D01*
X143877835Y-124935311D01*
X143744183Y-124899500D01*
X143605817Y-124899500D01*
X143472164Y-124935311D01*
X143352337Y-125004493D01*
X143254493Y-125102337D01*
X143185311Y-125222164D01*
X143149500Y-125355817D01*
X138031457Y-125355817D01*
X138057609Y-125329665D01*
X138057611Y-125329662D01*
X138061957Y-125323999D01*
X138064637Y-125326056D01*
X138104362Y-125290246D01*
X138171354Y-125283166D01*
X138176934Y-125284503D01*
X138285245Y-125313525D01*
X138285247Y-125313525D01*
X138423611Y-125313525D01*
X138557264Y-125277713D01*
X138677093Y-125208530D01*
X138774933Y-125110690D01*
X138844116Y-124990861D01*
X138879928Y-124857208D01*
X138879928Y-124718842D01*
X138875077Y-124700737D01*
X138878601Y-124633464D01*
X138920995Y-124581111D01*
X138980362Y-124563525D01*
X144547180Y-124563525D01*
X144611249Y-124584342D01*
X144624253Y-124595449D01*
X144652334Y-124623529D01*
X144652335Y-124623530D01*
X144772164Y-124692713D01*
X144905817Y-124728525D01*
X145044183Y-124728525D01*
X145177836Y-124692713D01*
X145297665Y-124623530D01*
X145395505Y-124525690D01*
X145464688Y-124405861D01*
X145500500Y-124272208D01*
X145500500Y-124133842D01*
X145464688Y-124000189D01*
X145395505Y-123880360D01*
X145297665Y-123782520D01*
X145297662Y-123782518D01*
X145177835Y-123713336D01*
X145044183Y-123677525D01*
X144905817Y-123677525D01*
X144772164Y-123713336D01*
X144652334Y-123782520D01*
X144624253Y-123810601D01*
X144564230Y-123841183D01*
X144547180Y-123842525D01*
X138734339Y-123842525D01*
X138670270Y-123821708D01*
X138630674Y-123767208D01*
X138630674Y-123699842D01*
X138639943Y-123679024D01*
X138640808Y-123677525D01*
X138643751Y-123672428D01*
X138679563Y-123538775D01*
X138679563Y-123400409D01*
X138643751Y-123266756D01*
X138574568Y-123146927D01*
X138476728Y-123049087D01*
X138374206Y-122989896D01*
X138329131Y-122939835D01*
X138322089Y-122872838D01*
X138355771Y-122814498D01*
X138417313Y-122787097D01*
X138428707Y-122786500D01*
X144281526Y-122786500D01*
X144345595Y-122807317D01*
X144358601Y-122818425D01*
X144568528Y-123028352D01*
X144568527Y-123028352D01*
X144626669Y-123086493D01*
X144635648Y-123095472D01*
X144717852Y-123142933D01*
X144809539Y-123167500D01*
X145749180Y-123167500D01*
X145813249Y-123188317D01*
X145826253Y-123199424D01*
X145854334Y-123227504D01*
X145854335Y-123227505D01*
X145974164Y-123296688D01*
X146107817Y-123332500D01*
X146246183Y-123332500D01*
X146379836Y-123296688D01*
X146499665Y-123227505D01*
X146597505Y-123129665D01*
X146666688Y-123009836D01*
X146702500Y-122876183D01*
X146702500Y-122737817D01*
X146666688Y-122604164D01*
X146597505Y-122484335D01*
X146499665Y-122386495D01*
X146383077Y-122319183D01*
X146379835Y-122317311D01*
X146281373Y-122290929D01*
X146259378Y-122285035D01*
X146202881Y-122248346D01*
X146178739Y-122185455D01*
X146196175Y-122120385D01*
X146248528Y-122077990D01*
X146287590Y-122070750D01*
X150312211Y-122070750D01*
X150403898Y-122046183D01*
X150486102Y-121998722D01*
X150517400Y-121967424D01*
X150577424Y-121936842D01*
X150594474Y-121935500D01*
X151023181Y-121935500D01*
X151087250Y-121956317D01*
X151126846Y-122010817D01*
X151128466Y-122072710D01*
X151111099Y-122137528D01*
X151099500Y-122180817D01*
X151099500Y-122319182D01*
X151135311Y-122452835D01*
X151153499Y-122484337D01*
X151204495Y-122572665D01*
X151302335Y-122670505D01*
X151422164Y-122739688D01*
X151555817Y-122775500D01*
X151694183Y-122775500D01*
X151827836Y-122739688D01*
X151947665Y-122670505D01*
X152045505Y-122572665D01*
X152114688Y-122452836D01*
X152150500Y-122319183D01*
X152150500Y-122231819D01*
X152171317Y-122167750D01*
X152225817Y-122128154D01*
X152293183Y-122128154D01*
X152336572Y-122154742D01*
X152352335Y-122170505D01*
X152472164Y-122239688D01*
X152605817Y-122275500D01*
X152744183Y-122275500D01*
X152877836Y-122239688D01*
X152997665Y-122170505D01*
X153095505Y-122072665D01*
X153164688Y-121952836D01*
X153200500Y-121819183D01*
X153200500Y-121680817D01*
X153164688Y-121547164D01*
X153095505Y-121427335D01*
X152997665Y-121329495D01*
X152993492Y-121327086D01*
X152960755Y-121308185D01*
X152915679Y-121258122D01*
X152908637Y-121191126D01*
X152938177Y-121136717D01*
X154391470Y-119683425D01*
X154451494Y-119652842D01*
X154468545Y-119651500D01*
X154501183Y-119651500D01*
X154634836Y-119615688D01*
X154754665Y-119546505D01*
X154754669Y-119546500D01*
X154760330Y-119542158D01*
X154761335Y-119543468D01*
X154813949Y-119516661D01*
X154880485Y-119527199D01*
G37*
%TD.AperFunction*%
%TA.AperFunction,Conductor*%
G36*
X133598595Y-114171317D02*
G01*
X133611601Y-114182425D01*
X136221222Y-116792046D01*
X136251805Y-116852070D01*
X136241267Y-116918606D01*
X136193632Y-116966241D01*
X136172360Y-116974406D01*
X136131667Y-116985310D01*
X136131665Y-116985311D01*
X136011837Y-117054493D01*
X136011835Y-117054494D01*
X136011835Y-117054495D01*
X135988753Y-117077576D01*
X135928732Y-117108158D01*
X135911681Y-117109500D01*
X135397380Y-117109500D01*
X135304422Y-117134407D01*
X135221080Y-117182525D01*
X134721410Y-117682195D01*
X134721409Y-117682194D01*
X134653358Y-117750246D01*
X134605239Y-117833590D01*
X134580332Y-117926549D01*
X134580332Y-118193180D01*
X134559515Y-118257249D01*
X134548408Y-118270253D01*
X134525327Y-118293334D01*
X134456143Y-118413164D01*
X134429152Y-118513900D01*
X134420332Y-118546817D01*
X134420332Y-118685183D01*
X134429927Y-118720994D01*
X134456143Y-118818835D01*
X134525325Y-118938662D01*
X134525327Y-118938665D01*
X134623167Y-119036505D01*
X134742996Y-119105688D01*
X134876649Y-119141500D01*
X135015015Y-119141500D01*
X135148668Y-119105688D01*
X135268497Y-119036505D01*
X135366337Y-118938665D01*
X135435520Y-118818836D01*
X135471332Y-118685183D01*
X135471332Y-118546817D01*
X135435520Y-118413164D01*
X135366337Y-118293335D01*
X135359166Y-118286164D01*
X135343256Y-118270253D01*
X135339264Y-118262418D01*
X135332149Y-118257249D01*
X135324260Y-118232969D01*
X135312674Y-118210229D01*
X135311332Y-118193180D01*
X135311332Y-118171213D01*
X135332149Y-118107144D01*
X135343257Y-118094138D01*
X135564970Y-117872425D01*
X135624994Y-117841842D01*
X135642045Y-117840500D01*
X135911681Y-117840500D01*
X135975750Y-117861317D01*
X135988749Y-117872419D01*
X136011835Y-117895505D01*
X136131664Y-117964688D01*
X136265317Y-118000500D01*
X136403683Y-118000500D01*
X136537336Y-117964688D01*
X136657165Y-117895505D01*
X136755005Y-117797665D01*
X136824188Y-117677836D01*
X136835092Y-117637140D01*
X136871782Y-117580644D01*
X136934673Y-117556501D01*
X136999743Y-117573937D01*
X137017453Y-117588277D01*
X138064660Y-118635484D01*
X138095243Y-118695508D01*
X138084705Y-118762044D01*
X138081982Y-118767058D01*
X138036312Y-118846161D01*
X138036312Y-118846163D01*
X138000500Y-118979817D01*
X138000500Y-119118182D01*
X138036311Y-119251835D01*
X138099425Y-119361152D01*
X138113431Y-119427046D01*
X138086030Y-119488588D01*
X138082103Y-119492726D01*
X138009494Y-119565334D01*
X137940311Y-119685164D01*
X137913092Y-119786750D01*
X137904500Y-119818817D01*
X137904500Y-119957183D01*
X137914095Y-119992994D01*
X137940311Y-120090835D01*
X137940312Y-120090836D01*
X138009495Y-120210665D01*
X138107335Y-120308505D01*
X138227164Y-120377688D01*
X138360817Y-120413500D01*
X138499184Y-120413500D01*
X138511827Y-120410112D01*
X138519462Y-120408066D01*
X138525360Y-120408374D01*
X138530624Y-120405693D01*
X138558527Y-120410112D01*
X138586735Y-120411590D01*
X138591325Y-120415306D01*
X138597160Y-120416231D01*
X138617135Y-120436206D01*
X138639089Y-120453983D01*
X138640618Y-120459689D01*
X138644795Y-120463866D01*
X138649213Y-120491765D01*
X138656526Y-120519053D01*
X138654409Y-120524568D01*
X138655333Y-120530402D01*
X138642507Y-120555574D01*
X138632385Y-120581945D01*
X138624750Y-120590426D01*
X138547601Y-120667575D01*
X138487577Y-120698158D01*
X138470526Y-120699500D01*
X138430817Y-120699500D01*
X138297164Y-120735311D01*
X138177337Y-120804493D01*
X138079493Y-120902337D01*
X138010311Y-121022164D01*
X137986420Y-121111331D01*
X137974500Y-121155817D01*
X137974500Y-121294183D01*
X137982861Y-121325387D01*
X138010311Y-121427835D01*
X138079493Y-121547662D01*
X138079495Y-121547665D01*
X138177335Y-121645505D01*
X138297164Y-121714688D01*
X138430817Y-121750500D01*
X138569183Y-121750500D01*
X138702836Y-121714688D01*
X138822665Y-121645505D01*
X138920505Y-121547665D01*
X138989688Y-121427836D01*
X139025500Y-121294183D01*
X139025500Y-121294181D01*
X139026275Y-121291289D01*
X139062965Y-121234791D01*
X139125856Y-121210649D01*
X139131561Y-121210500D01*
X144780526Y-121210500D01*
X144844595Y-121231317D01*
X144857601Y-121242425D01*
X145546778Y-121931602D01*
X145546777Y-121931602D01*
X145582600Y-121967424D01*
X145613898Y-121998722D01*
X145696102Y-122046183D01*
X145787789Y-122070750D01*
X146066410Y-122070750D01*
X146130479Y-122091567D01*
X146170075Y-122146067D01*
X146170075Y-122213433D01*
X146130479Y-122267933D01*
X146094621Y-122285035D01*
X146077691Y-122289572D01*
X145974164Y-122317311D01*
X145854334Y-122386495D01*
X145826253Y-122414576D01*
X145766230Y-122445158D01*
X145749180Y-122446500D01*
X145051474Y-122446500D01*
X144987405Y-122425683D01*
X144974399Y-122414575D01*
X144841324Y-122281500D01*
X144697352Y-122137528D01*
X144615148Y-122090067D01*
X144523461Y-122065500D01*
X129226474Y-122065500D01*
X129218109Y-122062782D01*
X129209423Y-122064158D01*
X129186680Y-122052570D01*
X129162405Y-122044683D01*
X129149399Y-122033575D01*
X129137123Y-122021299D01*
X129106540Y-121961275D01*
X129105198Y-121944224D01*
X129105198Y-121578546D01*
X129106540Y-121561494D01*
X129108161Y-121551261D01*
X129116500Y-121498611D01*
X129116500Y-121325389D01*
X129106540Y-121262503D01*
X129105198Y-121245452D01*
X129105198Y-119038546D01*
X129106540Y-119021494D01*
X129107744Y-119013893D01*
X129116500Y-118958611D01*
X129116500Y-118785389D01*
X129106540Y-118722503D01*
X129105198Y-118705452D01*
X129105198Y-116834773D01*
X129126015Y-116770704D01*
X129180515Y-116731108D01*
X129214198Y-116725773D01*
X131537799Y-116725773D01*
X131601868Y-116746590D01*
X131614874Y-116757698D01*
X132493614Y-117636438D01*
X132524197Y-117696462D01*
X132525539Y-117713513D01*
X132525539Y-120633145D01*
X132504722Y-120697214D01*
X132493615Y-120710218D01*
X132464926Y-120738907D01*
X132395742Y-120858737D01*
X132359931Y-120992390D01*
X132359931Y-121130755D01*
X132395742Y-121264408D01*
X132430950Y-121325390D01*
X132464926Y-121384238D01*
X132562766Y-121482078D01*
X132682595Y-121551261D01*
X132816248Y-121587073D01*
X132954614Y-121587073D01*
X133088267Y-121551261D01*
X133208096Y-121482078D01*
X133305936Y-121384238D01*
X133375119Y-121264409D01*
X133410931Y-121130756D01*
X133410931Y-120992390D01*
X133375119Y-120858737D01*
X133343801Y-120804493D01*
X133325872Y-120773438D01*
X133325871Y-120773437D01*
X133305936Y-120738908D01*
X133286511Y-120719483D01*
X133790500Y-120719483D01*
X133790500Y-120857848D01*
X133826311Y-120991501D01*
X133895493Y-121111328D01*
X133895495Y-121111331D01*
X133993335Y-121209171D01*
X134113164Y-121278354D01*
X134246817Y-121314166D01*
X134385183Y-121314166D01*
X134518836Y-121278354D01*
X134638665Y-121209171D01*
X134736505Y-121111331D01*
X134805688Y-120991502D01*
X134841500Y-120857849D01*
X134841500Y-120719483D01*
X134805688Y-120585830D01*
X134736505Y-120466001D01*
X134638665Y-120368161D01*
X134601696Y-120346817D01*
X134518835Y-120298977D01*
X134385183Y-120263166D01*
X134246817Y-120263166D01*
X134113164Y-120298977D01*
X133993337Y-120368159D01*
X133895493Y-120466003D01*
X133826311Y-120585830D01*
X133790500Y-120719483D01*
X133286511Y-120719483D01*
X133273751Y-120706723D01*
X133269644Y-120701466D01*
X133260292Y-120675770D01*
X133247881Y-120651411D01*
X133246902Y-120638979D01*
X133246605Y-120638162D01*
X133246787Y-120637524D01*
X133246539Y-120634361D01*
X133246539Y-117471578D01*
X133237321Y-117437177D01*
X133221972Y-117379891D01*
X133221971Y-117379890D01*
X133221972Y-117379890D01*
X133201510Y-117344450D01*
X133174511Y-117297687D01*
X133157205Y-117280381D01*
X133107391Y-117230566D01*
X133107391Y-117230567D01*
X131953625Y-116076801D01*
X131871421Y-116029340D01*
X131779734Y-116004773D01*
X129214198Y-116004773D01*
X129150129Y-115983956D01*
X129110533Y-115929456D01*
X129105198Y-115895773D01*
X129105198Y-114259500D01*
X129126015Y-114195431D01*
X129180515Y-114155835D01*
X129214198Y-114150500D01*
X133534526Y-114150500D01*
X133598595Y-114171317D01*
G37*
%TD.AperFunction*%
%TA.AperFunction,Conductor*%
G36*
X143984913Y-119995432D02*
G01*
X143985422Y-119995498D01*
X143985426Y-119995500D01*
X143985430Y-119995500D01*
X144565804Y-119995500D01*
X144565808Y-119995500D01*
X144565811Y-119995498D01*
X144566321Y-119995432D01*
X144580548Y-119994500D01*
X145257927Y-119994500D01*
X145321996Y-120015317D01*
X145361592Y-120069817D01*
X145363213Y-120131711D01*
X145345500Y-120197817D01*
X145345500Y-120336183D01*
X145377287Y-120454818D01*
X145373761Y-120522091D01*
X145331366Y-120574444D01*
X145266296Y-120591879D01*
X145203404Y-120567736D01*
X145197416Y-120562345D01*
X145196355Y-120561531D01*
X145196352Y-120561528D01*
X145114148Y-120514067D01*
X145022461Y-120489500D01*
X138922461Y-120489500D01*
X138834819Y-120489500D01*
X138770750Y-120468683D01*
X138731154Y-120414183D01*
X138731154Y-120346817D01*
X138757742Y-120303427D01*
X138850505Y-120210665D01*
X138919688Y-120090836D01*
X138923854Y-120075287D01*
X138960544Y-120018791D01*
X139023436Y-119994649D01*
X139029140Y-119994500D01*
X143970686Y-119994500D01*
X143984913Y-119995432D01*
G37*
%TD.AperFunction*%
%TA.AperFunction,Conductor*%
G36*
X153814524Y-106608217D02*
G01*
X153823211Y-106606842D01*
X153845953Y-106618429D01*
X153870229Y-106626317D01*
X153883235Y-106637425D01*
X153998138Y-106752328D01*
X154028721Y-106812352D01*
X154030063Y-106829403D01*
X154030063Y-106876182D01*
X154065874Y-107009835D01*
X154065875Y-107009836D01*
X154135058Y-107129665D01*
X154232898Y-107227505D01*
X154352727Y-107296688D01*
X154486380Y-107332500D01*
X154624746Y-107332500D01*
X154758399Y-107296688D01*
X154776499Y-107286237D01*
X154842393Y-107272231D01*
X154903934Y-107299631D01*
X154937618Y-107357971D01*
X154940000Y-107380634D01*
X154940000Y-108260371D01*
X154934665Y-108294054D01*
X154882598Y-108454295D01*
X154855500Y-108625387D01*
X154855500Y-108798612D01*
X154882598Y-108969704D01*
X154934665Y-109129946D01*
X154940000Y-109163629D01*
X154940000Y-110800371D01*
X154934665Y-110834054D01*
X154882598Y-110994295D01*
X154855500Y-111165387D01*
X154855500Y-111338612D01*
X154882598Y-111509704D01*
X154934665Y-111669946D01*
X154940000Y-111703629D01*
X154940000Y-113340371D01*
X154934665Y-113374054D01*
X154882598Y-113534294D01*
X154873213Y-113593552D01*
X154842629Y-113653575D01*
X154782606Y-113684158D01*
X154765555Y-113685500D01*
X151103455Y-113685500D01*
X151039386Y-113664683D01*
X150999790Y-113610183D01*
X150999790Y-113542817D01*
X151039386Y-113488317D01*
X151046274Y-113483714D01*
X151046384Y-113483633D01*
X151046388Y-113483632D01*
X151186528Y-113381814D01*
X151309014Y-113259328D01*
X151410832Y-113119188D01*
X151489473Y-112964845D01*
X151543002Y-112800101D01*
X151570100Y-112629011D01*
X151570100Y-112455789D01*
X151543002Y-112284699D01*
X151489473Y-112119955D01*
X151438091Y-112019112D01*
X151410836Y-111965619D01*
X151410834Y-111965616D01*
X151410832Y-111965612D01*
X151309014Y-111825472D01*
X151186528Y-111702986D01*
X151046388Y-111601168D01*
X151046385Y-111601166D01*
X151046383Y-111601165D01*
X151046380Y-111601163D01*
X150892043Y-111522526D01*
X150727304Y-111468998D01*
X150727305Y-111468998D01*
X150556212Y-111441900D01*
X150556211Y-111441900D01*
X150382989Y-111441900D01*
X150382987Y-111441900D01*
X150211895Y-111468998D01*
X150047156Y-111522526D01*
X149892819Y-111601163D01*
X149892816Y-111601165D01*
X149752674Y-111702984D01*
X149630184Y-111825474D01*
X149528365Y-111965616D01*
X149528363Y-111965619D01*
X149449726Y-112119956D01*
X149396198Y-112284695D01*
X149369100Y-112455787D01*
X149369100Y-112629012D01*
X149396198Y-112800104D01*
X149449726Y-112964843D01*
X149528363Y-113119180D01*
X149528365Y-113119183D01*
X149528368Y-113119188D01*
X149630186Y-113259328D01*
X149736615Y-113365757D01*
X149767197Y-113425779D01*
X149756659Y-113492315D01*
X149709024Y-113539950D01*
X149687751Y-113548116D01*
X149657163Y-113556312D01*
X149537337Y-113625493D01*
X149439493Y-113723337D01*
X149370311Y-113843164D01*
X149334500Y-113976817D01*
X149334500Y-114115182D01*
X149370311Y-114248835D01*
X149439493Y-114368662D01*
X149439495Y-114368665D01*
X149537335Y-114466505D01*
X149657164Y-114535688D01*
X149790817Y-114571500D01*
X149929183Y-114571500D01*
X150062836Y-114535688D01*
X150182665Y-114466505D01*
X150196706Y-114452464D01*
X150210747Y-114438424D01*
X150270770Y-114407842D01*
X150287820Y-114406500D01*
X151836217Y-114406500D01*
X151900286Y-114427317D01*
X151939882Y-114481817D01*
X151939882Y-114549183D01*
X151930614Y-114570000D01*
X151910311Y-114605164D01*
X151874500Y-114738817D01*
X151874500Y-114877182D01*
X151910311Y-115010835D01*
X151979493Y-115130662D01*
X151979495Y-115130665D01*
X152077335Y-115228505D01*
X152197164Y-115297688D01*
X152330817Y-115333500D01*
X152469183Y-115333500D01*
X152602836Y-115297688D01*
X152722665Y-115228505D01*
X152820505Y-115130665D01*
X152889688Y-115010836D01*
X152925500Y-114877183D01*
X152925500Y-114738817D01*
X152889688Y-114605164D01*
X152869385Y-114569999D01*
X152855380Y-114504106D01*
X152882780Y-114442565D01*
X152941121Y-114408882D01*
X152963783Y-114406500D01*
X154831000Y-114406500D01*
X154895069Y-114427317D01*
X154934665Y-114481817D01*
X154940000Y-114515500D01*
X154940000Y-115880371D01*
X154934665Y-115914054D01*
X154882598Y-116074295D01*
X154855500Y-116245387D01*
X154855500Y-116418612D01*
X154882598Y-116589704D01*
X154934665Y-116749946D01*
X154940000Y-116783629D01*
X154940000Y-117280381D01*
X154919183Y-117344450D01*
X154864683Y-117384046D01*
X154797317Y-117384046D01*
X154776501Y-117374778D01*
X154761837Y-117366312D01*
X154628183Y-117330500D01*
X154489817Y-117330500D01*
X154356164Y-117366311D01*
X154236337Y-117435493D01*
X154138493Y-117533337D01*
X154069311Y-117653164D01*
X154033500Y-117786817D01*
X154033500Y-117819455D01*
X154012683Y-117883524D01*
X154001575Y-117896530D01*
X152975037Y-118923068D01*
X152915013Y-118953651D01*
X152897962Y-118954993D01*
X152250138Y-118954993D01*
X152186069Y-118934176D01*
X152146473Y-118879676D01*
X152146473Y-118812310D01*
X152155741Y-118791493D01*
X152159265Y-118785390D01*
X152179676Y-118750037D01*
X152215488Y-118616384D01*
X152215488Y-118478018D01*
X152179676Y-118344365D01*
X152110493Y-118224536D01*
X152012653Y-118126696D01*
X151978788Y-118107144D01*
X151892823Y-118057512D01*
X151759171Y-118021701D01*
X151620805Y-118021701D01*
X151487152Y-118057512D01*
X151367322Y-118126696D01*
X151339241Y-118154777D01*
X151279218Y-118185359D01*
X151262168Y-118186701D01*
X149119338Y-118186701D01*
X149027650Y-118211268D01*
X148945448Y-118258728D01*
X147962601Y-119241575D01*
X147902577Y-119272158D01*
X147885526Y-119273500D01*
X144566808Y-119273500D01*
X144471886Y-119273500D01*
X144471882Y-119273501D01*
X144471373Y-119273568D01*
X144457146Y-119274500D01*
X144094088Y-119274500D01*
X144079861Y-119273568D01*
X144079351Y-119273501D01*
X144079348Y-119273500D01*
X144079344Y-119273500D01*
X143425934Y-119273500D01*
X143361865Y-119252683D01*
X143322269Y-119198183D01*
X143317159Y-119157498D01*
X143317852Y-119146724D01*
X143325500Y-119118183D01*
X143325500Y-119027914D01*
X143325725Y-119024419D01*
X143336937Y-118996218D01*
X143346317Y-118967352D01*
X143349267Y-118965208D01*
X143350615Y-118961820D01*
X143376262Y-118945595D01*
X143400817Y-118927756D01*
X143404463Y-118927756D01*
X143407546Y-118925806D01*
X143437835Y-118927756D01*
X143468183Y-118927756D01*
X143473313Y-118930040D01*
X143474772Y-118930134D01*
X143476216Y-118931332D01*
X143488997Y-118937023D01*
X143561164Y-118978688D01*
X143694817Y-119014500D01*
X143833183Y-119014500D01*
X143966836Y-118978688D01*
X144086665Y-118909505D01*
X144184505Y-118811665D01*
X144253688Y-118691836D01*
X144289500Y-118558183D01*
X144289500Y-118419817D01*
X144289500Y-118419814D01*
X144284381Y-118400709D01*
X144287908Y-118333436D01*
X144330303Y-118281084D01*
X144389667Y-118263500D01*
X147777661Y-118263500D01*
X147869348Y-118238933D01*
X147951552Y-118191472D01*
X148085512Y-118057512D01*
X148136000Y-118007025D01*
X148196023Y-117976442D01*
X148213074Y-117975100D01*
X148252783Y-117975100D01*
X148386436Y-117939288D01*
X148506265Y-117870105D01*
X148604105Y-117772265D01*
X148673288Y-117652436D01*
X148709100Y-117518783D01*
X148709100Y-117380417D01*
X148673288Y-117246764D01*
X148604105Y-117126935D01*
X148506265Y-117029095D01*
X148506262Y-117029093D01*
X148386435Y-116959911D01*
X148252783Y-116924100D01*
X148114417Y-116924100D01*
X147980764Y-116959911D01*
X147860937Y-117029093D01*
X147763093Y-117126937D01*
X147693911Y-117246764D01*
X147658100Y-117380417D01*
X147658100Y-117420126D01*
X147655382Y-117428490D01*
X147656758Y-117437177D01*
X147645170Y-117459919D01*
X147637283Y-117484195D01*
X147626175Y-117497201D01*
X147612801Y-117510575D01*
X147552777Y-117541158D01*
X147535726Y-117542500D01*
X139826328Y-117542500D01*
X139762259Y-117521683D01*
X139730196Y-117481010D01*
X139729260Y-117481551D01*
X139702670Y-117435495D01*
X139656505Y-117355535D01*
X139558665Y-117257695D01*
X139539732Y-117246764D01*
X139438835Y-117188511D01*
X139305183Y-117152700D01*
X139166817Y-117152700D01*
X139033164Y-117188511D01*
X138913337Y-117257693D01*
X138815493Y-117355537D01*
X138746311Y-117475364D01*
X138718102Y-117580644D01*
X138710500Y-117609017D01*
X138710500Y-117747383D01*
X138735810Y-117841842D01*
X138746312Y-117881036D01*
X138746312Y-117881038D01*
X138779777Y-117939001D01*
X138782198Y-117950393D01*
X138789045Y-117959817D01*
X138789045Y-117982603D01*
X138793783Y-118004894D01*
X138789045Y-118015535D01*
X138789045Y-118027183D01*
X138775650Y-118045619D01*
X138766382Y-118066436D01*
X138756295Y-118072259D01*
X138749449Y-118081683D01*
X138727775Y-118088725D01*
X138708042Y-118100118D01*
X138685380Y-118102500D01*
X138596474Y-118102500D01*
X138532405Y-118081683D01*
X138519399Y-118070575D01*
X136345811Y-115896987D01*
X136315228Y-115836963D01*
X136325766Y-115770427D01*
X136373401Y-115722792D01*
X136397075Y-115715443D01*
X136396782Y-115714349D01*
X136403683Y-115712500D01*
X136537336Y-115676688D01*
X136657165Y-115607505D01*
X136755005Y-115509665D01*
X136824188Y-115389836D01*
X136860000Y-115256183D01*
X136860000Y-115117817D01*
X141714500Y-115117817D01*
X141714500Y-115256182D01*
X141750311Y-115389835D01*
X141809634Y-115492586D01*
X141819495Y-115509665D01*
X141917335Y-115607505D01*
X142037164Y-115676688D01*
X142170817Y-115712500D01*
X142309183Y-115712500D01*
X142442836Y-115676688D01*
X142562665Y-115607505D01*
X142660505Y-115509665D01*
X142729688Y-115389836D01*
X142765500Y-115256183D01*
X142765500Y-115244817D01*
X143238500Y-115244817D01*
X143238500Y-115383183D01*
X143240283Y-115389836D01*
X143274311Y-115516835D01*
X143326660Y-115607506D01*
X143343495Y-115636665D01*
X143441335Y-115734505D01*
X143561164Y-115803688D01*
X143694817Y-115839500D01*
X143833183Y-115839500D01*
X143966836Y-115803688D01*
X144086665Y-115734505D01*
X144184505Y-115636665D01*
X144253688Y-115516836D01*
X144289500Y-115383183D01*
X144289500Y-115244817D01*
X144253688Y-115111164D01*
X144184505Y-114991335D01*
X144086665Y-114893495D01*
X144036162Y-114864337D01*
X143966835Y-114824311D01*
X143833183Y-114788500D01*
X143694817Y-114788500D01*
X143561164Y-114824311D01*
X143441337Y-114893493D01*
X143343493Y-114991337D01*
X143274311Y-115111164D01*
X143251318Y-115196979D01*
X143238500Y-115244817D01*
X142765500Y-115244817D01*
X142765500Y-115117817D01*
X142729688Y-114984164D01*
X142660505Y-114864335D01*
X142562665Y-114766495D01*
X142562662Y-114766493D01*
X142442835Y-114697311D01*
X142309183Y-114661500D01*
X142170817Y-114661500D01*
X142037164Y-114697311D01*
X141917337Y-114766493D01*
X141819493Y-114864337D01*
X141750311Y-114984164D01*
X141714500Y-115117817D01*
X136860000Y-115117817D01*
X136824188Y-114984164D01*
X136755005Y-114864335D01*
X136657165Y-114766495D01*
X136657162Y-114766493D01*
X136537335Y-114697311D01*
X136403683Y-114661500D01*
X136265317Y-114661500D01*
X136131664Y-114697311D01*
X136011837Y-114766493D01*
X135913993Y-114864337D01*
X135844811Y-114984164D01*
X135807151Y-115124718D01*
X135804355Y-115123968D01*
X135780627Y-115173671D01*
X135721414Y-115205795D01*
X135654627Y-115196979D01*
X135624512Y-115175688D01*
X134817486Y-114368662D01*
X133950352Y-113501528D01*
X133868148Y-113454067D01*
X133776461Y-113429500D01*
X129214198Y-113429500D01*
X129150129Y-113408683D01*
X129110533Y-113354183D01*
X129105198Y-113320500D01*
X129105198Y-111761500D01*
X129126015Y-111697431D01*
X129180515Y-111657835D01*
X129214198Y-111652500D01*
X135980460Y-111652500D01*
X136044529Y-111673317D01*
X136084125Y-111727817D01*
X136084125Y-111795183D01*
X136044529Y-111849683D01*
X136034960Y-111855897D01*
X135972057Y-111892213D01*
X135874213Y-111990057D01*
X135805031Y-112109884D01*
X135778832Y-112207665D01*
X135769220Y-112243537D01*
X135769220Y-112381903D01*
X135777242Y-112411842D01*
X135805031Y-112515555D01*
X135874213Y-112635382D01*
X135874215Y-112635385D01*
X135972055Y-112733225D01*
X136091884Y-112802408D01*
X136225537Y-112838220D01*
X136363903Y-112838220D01*
X136497556Y-112802408D01*
X136617385Y-112733225D01*
X136639186Y-112711423D01*
X136699208Y-112680842D01*
X136716259Y-112679500D01*
X140837461Y-112679500D01*
X140929148Y-112654933D01*
X141011352Y-112607472D01*
X141103269Y-112515555D01*
X141176400Y-112442425D01*
X141236423Y-112411842D01*
X141253474Y-112410500D01*
X141293183Y-112410500D01*
X141426836Y-112374688D01*
X141546665Y-112305505D01*
X141644505Y-112207665D01*
X141713688Y-112087836D01*
X141749500Y-111954183D01*
X141749500Y-111815817D01*
X141742505Y-111789711D01*
X141746031Y-111722437D01*
X141788426Y-111670085D01*
X141847791Y-111652500D01*
X143876962Y-111652500D01*
X143941031Y-111673317D01*
X143979101Y-111725716D01*
X143979238Y-111725660D01*
X143979474Y-111726230D01*
X143980627Y-111727817D01*
X143981871Y-111732018D01*
X143981971Y-111732258D01*
X143981972Y-111732260D01*
X144051155Y-111852089D01*
X144148995Y-111949929D01*
X144268824Y-112019112D01*
X144402477Y-112054924D01*
X144540843Y-112054924D01*
X144674496Y-112019112D01*
X144794325Y-111949929D01*
X144892165Y-111852089D01*
X144961348Y-111732260D01*
X144997160Y-111598607D01*
X144997160Y-111460241D01*
X144997157Y-111460233D01*
X144997063Y-111459513D01*
X144997160Y-111458989D01*
X144997160Y-111453097D01*
X144998251Y-111453097D01*
X145009332Y-111393274D01*
X145050628Y-111350877D01*
X145153465Y-111291505D01*
X145251305Y-111193665D01*
X145320488Y-111073836D01*
X145356300Y-110940183D01*
X145356300Y-110801817D01*
X145341190Y-110745425D01*
X145318639Y-110661263D01*
X145320853Y-110660669D01*
X145316383Y-110603851D01*
X145351584Y-110546414D01*
X145413822Y-110520636D01*
X145422371Y-110520300D01*
X149260100Y-110520300D01*
X149324169Y-110541117D01*
X149363765Y-110595617D01*
X149369100Y-110629300D01*
X149369100Y-110877074D01*
X149383634Y-110950140D01*
X149438999Y-111033001D01*
X149521860Y-111088366D01*
X149594926Y-111102900D01*
X149594930Y-111102900D01*
X151344270Y-111102900D01*
X151344274Y-111102900D01*
X151417340Y-111088366D01*
X151500201Y-111033001D01*
X151555566Y-110950140D01*
X151570100Y-110877074D01*
X151570100Y-109127726D01*
X151555566Y-109054660D01*
X151500201Y-108971799D01*
X151417340Y-108916434D01*
X151344274Y-108901900D01*
X149594926Y-108901900D01*
X149521860Y-108916434D01*
X149438999Y-108971799D01*
X149383634Y-109054660D01*
X149369100Y-109127726D01*
X149369100Y-109127729D01*
X149369100Y-109690300D01*
X149348283Y-109754369D01*
X149293783Y-109793965D01*
X149260100Y-109799300D01*
X146780848Y-109799300D01*
X146716779Y-109778483D01*
X146677183Y-109723983D01*
X146677183Y-109656617D01*
X146686450Y-109635801D01*
X146692088Y-109626036D01*
X146727900Y-109492383D01*
X146727900Y-109354017D01*
X146692088Y-109220364D01*
X146622905Y-109100535D01*
X146525065Y-109002695D01*
X146498544Y-108987383D01*
X146405235Y-108933511D01*
X146271583Y-108897700D01*
X146133217Y-108897700D01*
X145999564Y-108933511D01*
X145879734Y-109002695D01*
X145851653Y-109030776D01*
X145791630Y-109061358D01*
X145774580Y-109062700D01*
X143424273Y-109062700D01*
X143360204Y-109041883D01*
X143320608Y-108987383D01*
X143320608Y-108920017D01*
X143347198Y-108876625D01*
X143350349Y-108873473D01*
X143350352Y-108873472D01*
X145581399Y-106642425D01*
X145641423Y-106611842D01*
X145658474Y-106610500D01*
X147416461Y-106610500D01*
X147421261Y-106609213D01*
X147449471Y-106605500D01*
X153806160Y-106605500D01*
X153814524Y-106608217D01*
G37*
%TD.AperFunction*%
%TA.AperFunction,Conductor*%
G36*
X137710230Y-109787299D02*
G01*
X137721813Y-109786082D01*
X137741546Y-109797474D01*
X137763221Y-109804517D01*
X137770067Y-109813940D01*
X137780154Y-109819764D01*
X137789422Y-109840581D01*
X137802817Y-109859017D01*
X137802817Y-109870663D01*
X137807555Y-109881305D01*
X137802817Y-109903597D01*
X137802817Y-109926383D01*
X137793550Y-109947199D01*
X137787911Y-109956965D01*
X137752100Y-110090617D01*
X137752100Y-110228982D01*
X137789761Y-110369537D01*
X137787546Y-110370130D01*
X137792017Y-110426949D01*
X137756816Y-110484386D01*
X137694578Y-110510164D01*
X137686029Y-110510500D01*
X132909474Y-110510500D01*
X132845405Y-110489683D01*
X132832399Y-110478575D01*
X132323599Y-109969775D01*
X132293016Y-109909751D01*
X132303554Y-109843215D01*
X132351189Y-109795580D01*
X132400674Y-109783700D01*
X137699152Y-109783700D01*
X137710230Y-109787299D01*
G37*
%TD.AperFunction*%
%TA.AperFunction,Conductor*%
G36*
X155405992Y-94633817D02*
G01*
X155445588Y-94688317D01*
X155450915Y-94720646D01*
X155451915Y-94801146D01*
X155431895Y-94865468D01*
X155377891Y-94905739D01*
X155342923Y-94911500D01*
X155081326Y-94911500D01*
X155008260Y-94926034D01*
X154925399Y-94981399D01*
X154870034Y-95064260D01*
X154855500Y-95137326D01*
X154855500Y-96886674D01*
X154870034Y-96959740D01*
X154925399Y-97042601D01*
X155008260Y-97097966D01*
X155081326Y-97112500D01*
X155081330Y-97112500D01*
X155372972Y-97112500D01*
X155437041Y-97133317D01*
X155476637Y-97187817D01*
X155481964Y-97220146D01*
X155485298Y-97488560D01*
X155465278Y-97552882D01*
X155425793Y-97587033D01*
X155379211Y-97610768D01*
X155239074Y-97712584D01*
X155116584Y-97835074D01*
X155014765Y-97975216D01*
X155014763Y-97975219D01*
X155011329Y-97981959D01*
X155011284Y-97982048D01*
X154980738Y-98042000D01*
X154940000Y-98042000D01*
X154940000Y-98121953D01*
X154936127Y-98129555D01*
X154932205Y-98141623D01*
X154932203Y-98141629D01*
X154882598Y-98294295D01*
X154855500Y-98465387D01*
X154855500Y-98638612D01*
X154882598Y-98809704D01*
X154934665Y-98969946D01*
X154940000Y-99003629D01*
X154940000Y-99947000D01*
X154940001Y-99947000D01*
X155326215Y-99947000D01*
X155390284Y-99967817D01*
X155429880Y-100022317D01*
X155429880Y-100089683D01*
X155390284Y-100144183D01*
X155382950Y-100148687D01*
X155383120Y-100148963D01*
X155379475Y-100151195D01*
X155270874Y-100230096D01*
X155522481Y-100481703D01*
X155526872Y-100835271D01*
X155525269Y-100838047D01*
X155094096Y-100406874D01*
X155015193Y-100515478D01*
X154936588Y-100669751D01*
X154883086Y-100834411D01*
X154856000Y-101005427D01*
X154856000Y-101178572D01*
X154883086Y-101349588D01*
X154936588Y-101514248D01*
X155015196Y-101668524D01*
X155094096Y-101777124D01*
X155525268Y-101345950D01*
X155533391Y-101360019D01*
X155537457Y-101687317D01*
X155270874Y-101953901D01*
X155382940Y-102035321D01*
X155381716Y-102037005D01*
X155420393Y-102082310D01*
X155425664Y-102149469D01*
X155390453Y-102206900D01*
X155328209Y-102232666D01*
X155319681Y-102233000D01*
X154940000Y-102233000D01*
X154940000Y-102233001D01*
X154940000Y-103180371D01*
X154934665Y-103214054D01*
X154882598Y-103374295D01*
X154855500Y-103545387D01*
X154855500Y-103718612D01*
X154882598Y-103889704D01*
X154934665Y-104049946D01*
X154940000Y-104083629D01*
X154940000Y-105189500D01*
X154919183Y-105253569D01*
X154864683Y-105293165D01*
X154831000Y-105298500D01*
X147683470Y-105298500D01*
X147619401Y-105277683D01*
X147579805Y-105223183D01*
X147579805Y-105155817D01*
X147589073Y-105135001D01*
X147606487Y-105104838D01*
X147606487Y-105104837D01*
X147606488Y-105104836D01*
X147642300Y-104971183D01*
X147642300Y-104832817D01*
X147606488Y-104699164D01*
X147537305Y-104579335D01*
X147439465Y-104481495D01*
X147439462Y-104481493D01*
X147319635Y-104412311D01*
X147185983Y-104376500D01*
X147047617Y-104376500D01*
X146913964Y-104412311D01*
X146794137Y-104481493D01*
X146696293Y-104579337D01*
X146627111Y-104699164D01*
X146591300Y-104832817D01*
X146591300Y-104971182D01*
X146627112Y-105104836D01*
X146627112Y-105104838D01*
X146644527Y-105135001D01*
X146658533Y-105200894D01*
X146631132Y-105262436D01*
X146572792Y-105296118D01*
X146550130Y-105298500D01*
X145964819Y-105298500D01*
X145900750Y-105277683D01*
X145887750Y-105266580D01*
X145864665Y-105243495D01*
X145864662Y-105243493D01*
X145744835Y-105174311D01*
X145611183Y-105138500D01*
X145472817Y-105138500D01*
X145339164Y-105174311D01*
X145219337Y-105243493D01*
X145121493Y-105341337D01*
X145052311Y-105461164D01*
X145021944Y-105574500D01*
X145016500Y-105594817D01*
X145016500Y-105733183D01*
X145028331Y-105777337D01*
X145052312Y-105866836D01*
X145052312Y-105866838D01*
X145114819Y-105975104D01*
X145128825Y-106040997D01*
X145101424Y-106102539D01*
X145097497Y-106106678D01*
X143011601Y-108192575D01*
X142951577Y-108223158D01*
X142934526Y-108224500D01*
X140254820Y-108224500D01*
X140190751Y-108203683D01*
X140177747Y-108192576D01*
X140149665Y-108164495D01*
X140029835Y-108095311D01*
X139896183Y-108059500D01*
X139757817Y-108059500D01*
X139624164Y-108095311D01*
X139504337Y-108164493D01*
X139406493Y-108262337D01*
X139386481Y-108297000D01*
X139336418Y-108342077D01*
X139292084Y-108351500D01*
X134014820Y-108351500D01*
X133950751Y-108330683D01*
X133937746Y-108319575D01*
X133897665Y-108279495D01*
X133777835Y-108210311D01*
X133644183Y-108174500D01*
X133505817Y-108174500D01*
X133372164Y-108210311D01*
X133252337Y-108279493D01*
X133154493Y-108377337D01*
X133085311Y-108497164D01*
X133050955Y-108625387D01*
X133049500Y-108630817D01*
X133049500Y-108769183D01*
X133077444Y-108873472D01*
X133085312Y-108902836D01*
X133088046Y-108909437D01*
X133085602Y-108910449D01*
X133097219Y-108965088D01*
X133069823Y-109026631D01*
X133011484Y-109060317D01*
X132988816Y-109062700D01*
X132604674Y-109062700D01*
X132540605Y-109041883D01*
X132527599Y-109030775D01*
X131309885Y-107813061D01*
X129378352Y-105881528D01*
X129296148Y-105834067D01*
X129204458Y-105809499D01*
X129199967Y-105808908D01*
X129139165Y-105779904D01*
X129107023Y-105720701D01*
X129105198Y-105700841D01*
X129105198Y-104099500D01*
X129126015Y-104035431D01*
X129180515Y-103995835D01*
X129214198Y-103990500D01*
X132774526Y-103990500D01*
X132838595Y-104011317D01*
X132851601Y-104022425D01*
X133517648Y-104688472D01*
X133517650Y-104688473D01*
X133517651Y-104688474D01*
X133531244Y-104696322D01*
X133553820Y-104713644D01*
X134892575Y-106052399D01*
X134923158Y-106112423D01*
X134924500Y-106129474D01*
X134924500Y-106169182D01*
X134960311Y-106302835D01*
X135029493Y-106422662D01*
X135029495Y-106422665D01*
X135127335Y-106520505D01*
X135247164Y-106589688D01*
X135380817Y-106625500D01*
X135519183Y-106625500D01*
X135652836Y-106589688D01*
X135772665Y-106520505D01*
X135870505Y-106422665D01*
X135939688Y-106302836D01*
X135975500Y-106169183D01*
X135975500Y-106030817D01*
X135939688Y-105897164D01*
X135870505Y-105777335D01*
X135772665Y-105679495D01*
X135772662Y-105679493D01*
X135652835Y-105610311D01*
X135519183Y-105574500D01*
X135479474Y-105574500D01*
X135415405Y-105553683D01*
X135402399Y-105542575D01*
X134692641Y-104832817D01*
X133971352Y-104111528D01*
X133957751Y-104103675D01*
X133935179Y-104086355D01*
X133567435Y-103718611D01*
X133190352Y-103341528D01*
X133108148Y-103294067D01*
X133016461Y-103269500D01*
X129214198Y-103269500D01*
X129150129Y-103248683D01*
X129110533Y-103194183D01*
X129105198Y-103160500D01*
X129105198Y-101258546D01*
X129106540Y-101241494D01*
X129116500Y-101178611D01*
X129116500Y-101005389D01*
X129106540Y-100942503D01*
X129105198Y-100925452D01*
X129105198Y-100844500D01*
X129126015Y-100780431D01*
X129180515Y-100740835D01*
X129214198Y-100735500D01*
X135730526Y-100735500D01*
X135794595Y-100756317D01*
X135807601Y-100767425D01*
X135946597Y-100906421D01*
X135977180Y-100966445D01*
X135978522Y-100983496D01*
X135978522Y-102300316D01*
X135957705Y-102364385D01*
X135903205Y-102403981D01*
X135835839Y-102403981D01*
X135815023Y-102394713D01*
X135792071Y-102381462D01*
X135658417Y-102345650D01*
X135520051Y-102345650D01*
X135386398Y-102381461D01*
X135266571Y-102450643D01*
X135168727Y-102548487D01*
X135099545Y-102668314D01*
X135063734Y-102801967D01*
X135063734Y-102940332D01*
X135099545Y-103073985D01*
X135151230Y-103163506D01*
X135168729Y-103193815D01*
X135266569Y-103291655D01*
X135386398Y-103360838D01*
X135520051Y-103396650D01*
X135658417Y-103396650D01*
X135792070Y-103360838D01*
X135895081Y-103301364D01*
X135960972Y-103287359D01*
X136009724Y-103306809D01*
X136010170Y-103306039D01*
X136015487Y-103309109D01*
X136015936Y-103309288D01*
X136016356Y-103309611D01*
X136071637Y-103341527D01*
X136136186Y-103378794D01*
X136269839Y-103414606D01*
X136408205Y-103414606D01*
X136541858Y-103378794D01*
X136661687Y-103309611D01*
X136759527Y-103211771D01*
X136828710Y-103091942D01*
X136864522Y-102958289D01*
X136864522Y-102819923D01*
X136828710Y-102686270D01*
X136759527Y-102566441D01*
X136759526Y-102566440D01*
X136731446Y-102538359D01*
X136700864Y-102478336D01*
X136699522Y-102461286D01*
X136699522Y-100741561D01*
X136697898Y-100735500D01*
X136674955Y-100649874D01*
X136674954Y-100649873D01*
X136674955Y-100649873D01*
X136641541Y-100592000D01*
X136627494Y-100567670D01*
X136601641Y-100541817D01*
X136560374Y-100500549D01*
X136560374Y-100500550D01*
X136546906Y-100487082D01*
X137423500Y-100487082D01*
X137423500Y-101734918D01*
X137452342Y-101879913D01*
X137452343Y-101879915D01*
X137508914Y-102016491D01*
X137508916Y-102016496D01*
X137521495Y-102035321D01*
X137591049Y-102139416D01*
X137695584Y-102243951D01*
X137757044Y-102285017D01*
X137818503Y-102326083D01*
X137818504Y-102326083D01*
X137818505Y-102326084D01*
X137955087Y-102382658D01*
X138100082Y-102411500D01*
X138100086Y-102411500D01*
X138247914Y-102411500D01*
X138247918Y-102411500D01*
X138392913Y-102382658D01*
X138529495Y-102326084D01*
X138652416Y-102243951D01*
X138756951Y-102139416D01*
X138839084Y-102016495D01*
X138895658Y-101879913D01*
X138895660Y-101879899D01*
X138897213Y-101874786D01*
X138899362Y-101875438D01*
X138927918Y-101824455D01*
X138989097Y-101796255D01*
X139001903Y-101795500D01*
X145986097Y-101795500D01*
X146050166Y-101816317D01*
X146089762Y-101870817D01*
X146090865Y-101875045D01*
X146092343Y-101879915D01*
X146148914Y-102016491D01*
X146148916Y-102016496D01*
X146161495Y-102035321D01*
X146231049Y-102139416D01*
X146335584Y-102243951D01*
X146397044Y-102285017D01*
X146458503Y-102326083D01*
X146458504Y-102326083D01*
X146458505Y-102326084D01*
X146595087Y-102382658D01*
X146740082Y-102411500D01*
X146740086Y-102411500D01*
X146887914Y-102411500D01*
X146887918Y-102411500D01*
X147032913Y-102382658D01*
X147169495Y-102326084D01*
X147292416Y-102243951D01*
X147396951Y-102139416D01*
X147479084Y-102016495D01*
X147501401Y-101962617D01*
X151849100Y-101962617D01*
X151849100Y-102100982D01*
X151884911Y-102234635D01*
X151954344Y-102354897D01*
X151968350Y-102420791D01*
X151954344Y-102463896D01*
X151910312Y-102540161D01*
X151910312Y-102540163D01*
X151874500Y-102673817D01*
X151874500Y-102812182D01*
X151910311Y-102945835D01*
X151973460Y-103055212D01*
X151979495Y-103065665D01*
X152077335Y-103163505D01*
X152197164Y-103232688D01*
X152330817Y-103268500D01*
X152469183Y-103268500D01*
X152602836Y-103232688D01*
X152722665Y-103163505D01*
X152820505Y-103065665D01*
X152889688Y-102945836D01*
X152925500Y-102812183D01*
X152925500Y-102673817D01*
X152889688Y-102540164D01*
X152820505Y-102420335D01*
X152820504Y-102420334D01*
X152820255Y-102419902D01*
X152806249Y-102354008D01*
X152820255Y-102310903D01*
X152864288Y-102234636D01*
X152900100Y-102100983D01*
X152900100Y-101962617D01*
X152864288Y-101828964D01*
X152795105Y-101709135D01*
X152697265Y-101611295D01*
X152663845Y-101592000D01*
X152577435Y-101542111D01*
X152443783Y-101506300D01*
X152305417Y-101506300D01*
X152171764Y-101542111D01*
X152051937Y-101611293D01*
X151954093Y-101709137D01*
X151884911Y-101828964D01*
X151849100Y-101962617D01*
X147501401Y-101962617D01*
X147535658Y-101879913D01*
X147564500Y-101734918D01*
X147564500Y-100487082D01*
X147535658Y-100342087D01*
X147479084Y-100205505D01*
X147469053Y-100190493D01*
X147399586Y-100086528D01*
X147396951Y-100082584D01*
X147292416Y-99978049D01*
X147245948Y-99947000D01*
X147169496Y-99895916D01*
X147169491Y-99895914D01*
X147032915Y-99839343D01*
X147032916Y-99839343D01*
X147032913Y-99839342D01*
X146887918Y-99810500D01*
X146740082Y-99810500D01*
X146595087Y-99839342D01*
X146595085Y-99839342D01*
X146595084Y-99839343D01*
X146458508Y-99895914D01*
X146458503Y-99895916D01*
X146335586Y-99978047D01*
X146231047Y-100082586D01*
X146148916Y-100205503D01*
X146148914Y-100205508D01*
X146092343Y-100342084D01*
X146092339Y-100342096D01*
X146082626Y-100390928D01*
X146049710Y-100449704D01*
X145988532Y-100477907D01*
X145922461Y-100464764D01*
X145876733Y-100415295D01*
X145875019Y-100411376D01*
X145873689Y-100408167D01*
X145873688Y-100408166D01*
X145873688Y-100408164D01*
X145804505Y-100288335D01*
X145706665Y-100190495D01*
X145706662Y-100190493D01*
X145586835Y-100121311D01*
X145453183Y-100085500D01*
X145314817Y-100085500D01*
X145181164Y-100121311D01*
X145061337Y-100190493D01*
X144963493Y-100288337D01*
X144894311Y-100408164D01*
X144858500Y-100541817D01*
X144858500Y-100680182D01*
X144894311Y-100813835D01*
X144933089Y-100881000D01*
X144947095Y-100946894D01*
X144919695Y-101008435D01*
X144861354Y-101042118D01*
X144838692Y-101044500D01*
X140149308Y-101044500D01*
X140085239Y-101023683D01*
X140045643Y-100969183D01*
X140045643Y-100901817D01*
X140054911Y-100881000D01*
X140081809Y-100834411D01*
X140093688Y-100813836D01*
X140129500Y-100680183D01*
X140129500Y-100541817D01*
X140093688Y-100408164D01*
X140024505Y-100288335D01*
X139926665Y-100190495D01*
X139926662Y-100190493D01*
X139806835Y-100121311D01*
X139673183Y-100085500D01*
X139534817Y-100085500D01*
X139401164Y-100121311D01*
X139281337Y-100190493D01*
X139183493Y-100288337D01*
X139114310Y-100408166D01*
X139112977Y-100411385D01*
X139111358Y-100413279D01*
X139110740Y-100414351D01*
X139110541Y-100414236D01*
X139069221Y-100462605D01*
X139003715Y-100478325D01*
X138941480Y-100452539D01*
X138906287Y-100395097D01*
X138905381Y-100390970D01*
X138895658Y-100342087D01*
X138839084Y-100205505D01*
X138829053Y-100190493D01*
X138759586Y-100086528D01*
X138756951Y-100082584D01*
X138652416Y-99978049D01*
X138605948Y-99947000D01*
X138529496Y-99895916D01*
X138529491Y-99895914D01*
X138392915Y-99839343D01*
X138392916Y-99839343D01*
X138392913Y-99839342D01*
X138247918Y-99810500D01*
X138100082Y-99810500D01*
X137955087Y-99839342D01*
X137955085Y-99839342D01*
X137955084Y-99839343D01*
X137818508Y-99895914D01*
X137818503Y-99895916D01*
X137695586Y-99978047D01*
X137591047Y-100082586D01*
X137508916Y-100205503D01*
X137508914Y-100205508D01*
X137452343Y-100342084D01*
X137452342Y-100342087D01*
X137423500Y-100487082D01*
X136546906Y-100487082D01*
X136146352Y-100086528D01*
X136064148Y-100039067D01*
X135972461Y-100014500D01*
X129214198Y-100014500D01*
X129150129Y-99993683D01*
X129110533Y-99939183D01*
X129105198Y-99905500D01*
X129105198Y-99014500D01*
X129126015Y-98950431D01*
X129180515Y-98910835D01*
X129214198Y-98905500D01*
X141043180Y-98905500D01*
X141107249Y-98926317D01*
X141120254Y-98937424D01*
X141155335Y-98972505D01*
X141275164Y-99041688D01*
X141408817Y-99077500D01*
X141547183Y-99077500D01*
X141680836Y-99041688D01*
X141800665Y-98972505D01*
X141898505Y-98874665D01*
X141967688Y-98754836D01*
X142003500Y-98621183D01*
X142003500Y-98482817D01*
X141967688Y-98349164D01*
X141898505Y-98229335D01*
X141800665Y-98131495D01*
X141779340Y-98119183D01*
X141718317Y-98083951D01*
X147523566Y-98083951D01*
X147523566Y-98222317D01*
X147525447Y-98229337D01*
X147559377Y-98355969D01*
X147622551Y-98465389D01*
X147628561Y-98475799D01*
X147726401Y-98573639D01*
X147846230Y-98642822D01*
X147846233Y-98642823D01*
X147846380Y-98642884D01*
X147846468Y-98642959D01*
X147852417Y-98646394D01*
X147851780Y-98647496D01*
X147897606Y-98686633D01*
X147913334Y-98752138D01*
X147887556Y-98814376D01*
X147852061Y-98840167D01*
X147852417Y-98840783D01*
X147846567Y-98844160D01*
X147846393Y-98844287D01*
X147846233Y-98844353D01*
X147726403Y-98913536D01*
X147628559Y-99011380D01*
X147559377Y-99131207D01*
X147523566Y-99264860D01*
X147523566Y-99403225D01*
X147559377Y-99536878D01*
X147559378Y-99536879D01*
X147628561Y-99656708D01*
X147726401Y-99754548D01*
X147846230Y-99823731D01*
X147979883Y-99859543D01*
X148118249Y-99859543D01*
X148251902Y-99823731D01*
X148371731Y-99754548D01*
X148469571Y-99656708D01*
X148538754Y-99536879D01*
X148574566Y-99403226D01*
X148574566Y-99264860D01*
X148538754Y-99131207D01*
X148469571Y-99011378D01*
X148371731Y-98913538D01*
X148367049Y-98910835D01*
X148251900Y-98844354D01*
X148251743Y-98844289D01*
X148251649Y-98844209D01*
X148245715Y-98840783D01*
X148246350Y-98839682D01*
X148200520Y-98800536D01*
X148184797Y-98735030D01*
X148210580Y-98672794D01*
X148246071Y-98647011D01*
X148245715Y-98646394D01*
X148251593Y-98643000D01*
X148251756Y-98642882D01*
X148251894Y-98642824D01*
X148251902Y-98642822D01*
X148371731Y-98573639D01*
X148469571Y-98475799D01*
X148538754Y-98355970D01*
X148574566Y-98222317D01*
X148574566Y-98083951D01*
X148538754Y-97950298D01*
X148469571Y-97830469D01*
X148371731Y-97732629D01*
X148371728Y-97732627D01*
X148251901Y-97663445D01*
X148118249Y-97627634D01*
X147979883Y-97627634D01*
X147846230Y-97663445D01*
X147726400Y-97732628D01*
X147666418Y-97792611D01*
X147666415Y-97792614D01*
X147628561Y-97830469D01*
X147559378Y-97950298D01*
X147559198Y-97950966D01*
X147559198Y-97950968D01*
X147547109Y-97996085D01*
X147523566Y-98083951D01*
X141718317Y-98083951D01*
X141680835Y-98062311D01*
X141547183Y-98026500D01*
X141408817Y-98026500D01*
X141275164Y-98062311D01*
X141155337Y-98131493D01*
X141124254Y-98162576D01*
X141064230Y-98193158D01*
X141047180Y-98194500D01*
X138591869Y-98194500D01*
X138527800Y-98173683D01*
X138488204Y-98119183D01*
X138488204Y-98051817D01*
X138527800Y-97997317D01*
X138531312Y-97994870D01*
X138540020Y-97989051D01*
X138652416Y-97913951D01*
X138756951Y-97809416D01*
X138839084Y-97686495D01*
X138895658Y-97549913D01*
X138924500Y-97404918D01*
X138924500Y-96457082D01*
X146063500Y-96457082D01*
X146063500Y-97404918D01*
X146092342Y-97549913D01*
X146092343Y-97549915D01*
X146148914Y-97686491D01*
X146148916Y-97686496D01*
X146219820Y-97792611D01*
X146231049Y-97809416D01*
X146335584Y-97913951D01*
X146389981Y-97950298D01*
X146458503Y-97996083D01*
X146458504Y-97996083D01*
X146458505Y-97996084D01*
X146595087Y-98052658D01*
X146740082Y-98081500D01*
X146740086Y-98081500D01*
X146887914Y-98081500D01*
X146887918Y-98081500D01*
X147032913Y-98052658D01*
X147169495Y-97996084D01*
X147292416Y-97913951D01*
X147396951Y-97809416D01*
X147479084Y-97686495D01*
X147535658Y-97549913D01*
X147564500Y-97404918D01*
X147564500Y-96457082D01*
X147535658Y-96312087D01*
X147479084Y-96175505D01*
X147396951Y-96052584D01*
X147292416Y-95948049D01*
X147291585Y-95947493D01*
X147169496Y-95865916D01*
X147169491Y-95865914D01*
X147032915Y-95809343D01*
X147032916Y-95809343D01*
X147032913Y-95809342D01*
X146887918Y-95780500D01*
X146740082Y-95780500D01*
X146595087Y-95809342D01*
X146595085Y-95809342D01*
X146595084Y-95809343D01*
X146458508Y-95865914D01*
X146458503Y-95865916D01*
X146335586Y-95948047D01*
X146231047Y-96052586D01*
X146148916Y-96175503D01*
X146148914Y-96175508D01*
X146092343Y-96312084D01*
X146092342Y-96312087D01*
X146063500Y-96457082D01*
X138924500Y-96457082D01*
X138895658Y-96312087D01*
X138839084Y-96175505D01*
X138756951Y-96052584D01*
X138652416Y-95948049D01*
X138651585Y-95947493D01*
X138529496Y-95865916D01*
X138529491Y-95865914D01*
X138392915Y-95809343D01*
X138392916Y-95809343D01*
X138392913Y-95809342D01*
X138247918Y-95780500D01*
X138100082Y-95780500D01*
X137955087Y-95809342D01*
X137955085Y-95809342D01*
X137955084Y-95809343D01*
X137818508Y-95865914D01*
X137818503Y-95865916D01*
X137695586Y-95948047D01*
X137591047Y-96052586D01*
X137508916Y-96175503D01*
X137508914Y-96175508D01*
X137452343Y-96312084D01*
X137452342Y-96312087D01*
X137423500Y-96457082D01*
X137423500Y-97404918D01*
X137452342Y-97549913D01*
X137452343Y-97549915D01*
X137508914Y-97686491D01*
X137508916Y-97686496D01*
X137579820Y-97792611D01*
X137591049Y-97809416D01*
X137695584Y-97913951D01*
X137749981Y-97950298D01*
X137816688Y-97994870D01*
X137858394Y-98047773D01*
X137861039Y-98115087D01*
X137823612Y-98171100D01*
X137760410Y-98194416D01*
X137756131Y-98194500D01*
X129214198Y-98194500D01*
X129150129Y-98173683D01*
X129110533Y-98119183D01*
X129105198Y-98085500D01*
X129105198Y-96954225D01*
X129107293Y-96932959D01*
X129116499Y-96886677D01*
X129116500Y-96886674D01*
X129116500Y-95137326D01*
X129107292Y-95091034D01*
X129105198Y-95069770D01*
X129105198Y-94722000D01*
X129126015Y-94657931D01*
X129180515Y-94618335D01*
X129214198Y-94613000D01*
X155341923Y-94613000D01*
X155405992Y-94633817D01*
G37*
%TD.AperFunction*%
%TA.AperFunction,Conductor*%
G36*
X129291273Y-106814097D02*
G01*
X130640601Y-108163425D01*
X130671184Y-108223449D01*
X130660646Y-108289985D01*
X130613011Y-108337620D01*
X130563526Y-108349500D01*
X129214198Y-108349500D01*
X129150129Y-108328683D01*
X129110533Y-108274183D01*
X129105198Y-108240500D01*
X129105198Y-106891172D01*
X129126015Y-106827103D01*
X129180515Y-106787507D01*
X129247881Y-106787507D01*
X129291273Y-106814097D01*
G37*
%TD.AperFunction*%
%TD*%
D20*
X125476000Y-94232000D02*
X158496000Y-94232000D01*
X158496000Y-136142000D01*
X125476000Y-136142000D01*
X125476000Y-94232000D01*
M02*
