%TF.GenerationSoftware,KiCad,Pcbnew,9.0.0*%
%TF.CreationDate,2025-09-12T19:21:48+01:00*%
%TF.ProjectId,OE PyBoard,4f452050-7942-46f6-9172-642e6b696361,rev?*%
%TF.SameCoordinates,Original*%
%TF.FileFunction,AssemblyDrawing,Bot*%
%FSLAX46Y46*%
G04 Gerber Fmt 4.6, Leading zero omitted, Abs format (unit mm)*
G04 Created by KiCad (PCBNEW 9.0.0) date 2025-09-12 19:21:48*
%MOMM*%
%LPD*%
G01*
G04 APERTURE LIST*
%ADD10C,0.150000*%
%ADD11C,0.100000*%
%TA.AperFunction,Profile*%
%ADD12C,0.230000*%
%TD*%
G04 APERTURE END LIST*
D10*
X143319333Y-118220019D02*
X143652666Y-117743828D01*
X143890761Y-118220019D02*
X143890761Y-117220019D01*
X143890761Y-117220019D02*
X143509809Y-117220019D01*
X143509809Y-117220019D02*
X143414571Y-117267638D01*
X143414571Y-117267638D02*
X143366952Y-117315257D01*
X143366952Y-117315257D02*
X143319333Y-117410495D01*
X143319333Y-117410495D02*
X143319333Y-117553352D01*
X143319333Y-117553352D02*
X143366952Y-117648590D01*
X143366952Y-117648590D02*
X143414571Y-117696209D01*
X143414571Y-117696209D02*
X143509809Y-117743828D01*
X143509809Y-117743828D02*
X143890761Y-117743828D01*
X142890761Y-117696209D02*
X142557428Y-117696209D01*
X142414571Y-118220019D02*
X142890761Y-118220019D01*
X142890761Y-118220019D02*
X142890761Y-117220019D01*
X142890761Y-117220019D02*
X142414571Y-117220019D01*
X141652666Y-117696209D02*
X141985999Y-117696209D01*
X141985999Y-118220019D02*
X141985999Y-117220019D01*
X141985999Y-117220019D02*
X141509809Y-117220019D01*
X140985999Y-117220019D02*
X140985999Y-117458114D01*
X141224094Y-117362876D02*
X140985999Y-117458114D01*
X140985999Y-117458114D02*
X140747904Y-117362876D01*
X141128856Y-117648590D02*
X140985999Y-117458114D01*
X140985999Y-117458114D02*
X140843142Y-117648590D01*
X140224094Y-117220019D02*
X140224094Y-117458114D01*
X140462189Y-117362876D02*
X140224094Y-117458114D01*
X140224094Y-117458114D02*
X139985999Y-117362876D01*
X140366951Y-117648590D02*
X140224094Y-117458114D01*
X140224094Y-117458114D02*
X140081237Y-117648590D01*
D11*
X145129000Y-106653000D02*
X153829000Y-112803000D01*
X145129000Y-112803000D02*
X153829000Y-106653000D01*
D12*
X125476000Y-94232000D02*
X158496000Y-94232000D01*
X158496000Y-136142000D01*
X125476000Y-136142000D01*
X125476000Y-94232000D01*
M02*
