%TF.GenerationSoftware,KiCad,Pcbnew,9.0.0*%
%TF.CreationDate,2025-11-24T16:34:34+00:00*%
%TF.ProjectId,OE PyBoard,4f452050-7942-46f6-9172-642e6b696361,rev?*%
%TF.SameCoordinates,Original*%
%TF.FileFunction,Soldermask,Bot*%
%TF.FilePolarity,Negative*%
%FSLAX46Y46*%
G04 Gerber Fmt 4.6, Leading zero omitted, Abs format (unit mm)*
G04 Created by KiCad (PCBNEW 9.0.0) date 2025-11-24 16:34:34*
%MOMM*%
%LPD*%
G01*
G04 APERTURE LIST*
G04 Aperture macros list*
%AMFreePoly0*
4,1,23,0.500000,-0.750000,0.000000,-0.750000,0.000000,-0.745722,-0.065263,-0.745722,-0.191342,-0.711940,-0.304381,-0.646677,-0.396677,-0.554381,-0.461940,-0.441342,-0.495722,-0.315263,-0.495722,-0.250000,-0.500000,-0.250000,-0.500000,0.250000,-0.495722,0.250000,-0.495722,0.315263,-0.461940,0.441342,-0.396677,0.554381,-0.304381,0.646677,-0.191342,0.711940,-0.065263,0.745722,0.000000,0.745722,
0.000000,0.750000,0.500000,0.750000,0.500000,-0.750000,0.500000,-0.750000,$1*%
%AMFreePoly1*
4,1,23,0.000000,0.745722,0.065263,0.745722,0.191342,0.711940,0.304381,0.646677,0.396677,0.554381,0.461940,0.441342,0.495722,0.315263,0.495722,0.250000,0.500000,0.250000,0.500000,-0.250000,0.495722,-0.250000,0.495722,-0.315263,0.461940,-0.441342,0.396677,-0.554381,0.304381,-0.646677,0.191342,-0.711940,0.065263,-0.745722,0.000000,-0.745722,0.000000,-0.750000,-0.500000,-0.750000,
-0.500000,0.750000,0.000000,0.750000,0.000000,0.745722,0.000000,0.745722,$1*%
G04 Aperture macros list end*
%ADD10C,0.100000*%
%ADD11C,0.650000*%
%ADD12O,1.000000X2.100000*%
%ADD13O,1.000000X1.800000*%
%ADD14R,1.700000X1.700000*%
%ADD15C,1.700000*%
%ADD16FreePoly0,0.000000*%
%ADD17FreePoly1,0.000000*%
%TA.AperFunction,Profile*%
%ADD18C,0.230000*%
%TD*%
G04 APERTURE END LIST*
%TO.C,JP2*%
D10*
X150980000Y-98489200D02*
X151280000Y-98489200D01*
X151280000Y-96989200D01*
X150980000Y-96989200D01*
X150980000Y-98489200D01*
G36*
X150980000Y-98489200D02*
G01*
X151280000Y-98489200D01*
X151280000Y-96989200D01*
X150980000Y-96989200D01*
X150980000Y-98489200D01*
G37*
%TD*%
D11*
%TO.C,J3*%
X145384000Y-100611000D03*
X139604000Y-100611000D03*
D12*
X146814000Y-101111000D03*
D13*
X146814000Y-96931000D03*
D12*
X138174000Y-101111000D03*
D13*
X138174000Y-96931000D03*
%TD*%
D14*
%TO.C,J6*%
X128016000Y-96012000D03*
D15*
X128016000Y-98552000D03*
X128016000Y-101092000D03*
X128016000Y-103632000D03*
X128016000Y-106172000D03*
X128016000Y-108712000D03*
X128016000Y-111252000D03*
X128016000Y-113792000D03*
X128016000Y-116332000D03*
X128016000Y-118872000D03*
X128016000Y-121412000D03*
X128016000Y-123952000D03*
X128016000Y-126492000D03*
X128016000Y-129032000D03*
X128016000Y-131572000D03*
X128016000Y-134112000D03*
%TD*%
D14*
%TO.C,JP1*%
X150469600Y-110002400D03*
D15*
X150469600Y-112542400D03*
%TD*%
D14*
%TO.C,J7*%
X155956000Y-96012000D03*
D15*
X155956000Y-98552000D03*
X155956000Y-101092000D03*
X155956000Y-103632000D03*
X155956000Y-106172000D03*
X155956000Y-108712000D03*
X155956000Y-111252000D03*
X155956000Y-113792000D03*
X155956000Y-116332000D03*
X155956000Y-118872000D03*
X155956000Y-121412000D03*
X155956000Y-123952000D03*
X155956000Y-126492000D03*
X155956000Y-129032000D03*
X155956000Y-131572000D03*
X155956000Y-134112000D03*
%TD*%
D16*
%TO.C,JP2*%
X150480000Y-97739200D03*
D17*
X151780000Y-97739200D03*
%TD*%
D18*
X125476000Y-94232000D02*
X158496000Y-94232000D01*
X158496000Y-136142000D01*
X125476000Y-136142000D01*
X125476000Y-94232000D01*
M02*
