M48
; DRILL file {KiCad 9.0.0} date 2025-09-12T19:12:51+0100
; FORMAT={-:-/ absolute / inch / decimal}
; #@! TF.CreationDate,2025-09-12T19:12:51+01:00
; #@! TF.GenerationSoftware,Kicad,Pcbnew,9.0.0
; #@! TF.FileFunction,Plated,1,4,PTH
FMAT,2
INCH
; #@! TA.AperFunction,Plated,PTH,ViaDrill
T1C0.0087
; #@! TA.AperFunction,Plated,PTH,ComponentDrill
T2C0.0236
; #@! TA.AperFunction,Plated,PTH,ComponentDrill
T3C0.0394
%
G90
G05
T1
X5.1Y-4.13
X5.1Y-4.41
X5.1Y-4.645
X5.102Y-3.846
X5.105Y-4.03
X5.11Y-4.9311
X5.12Y-4.515
X5.126Y-5.206
X5.126Y-5.298
X5.1278Y-5.0492
X5.16Y-3.745
X5.1672Y-5.1181
X5.1853Y-4.7663
X5.1896Y-4.8999
X5.2Y-3.96
X5.2Y-4.25
X5.225Y-4.45
X5.2317Y-4.7662
X5.278Y-3.814
X5.288Y-4.7555
X5.29Y-4.7849
X5.29Y-4.8625
X5.295Y-4.93
X5.305Y-3.96
X5.3128Y-4.28
X5.3128Y-4.6699
X5.315Y-4.71
X5.325Y-4.235
X5.325Y-4.585
X5.3317Y-4.1766
X5.34Y-4.0137
X5.34Y-4.505
X5.342Y-4.0543
X5.355Y-5.0199
X5.364Y-4.3701
X5.3659Y-4.4218
X5.3675Y-4.5349
X5.3675Y-4.625
X5.3677Y-3.9907
X5.368Y-5.2499
X5.395Y-5.0599
X5.412Y-5.154
X5.43Y-4.855
X5.434Y-4.9129
X5.445Y-4.95
X5.45Y-4.225
X5.45Y-4.72
X5.4538Y-4.687
X5.4655Y-5.1551
X5.4794Y-4.3532
X5.495Y-4.855
X5.498Y-5.29
X5.505Y-4.06
X5.505Y-4.15
X5.505Y-4.275
X5.505Y-4.77
X5.535Y-4.965
X5.545Y-4.245
X5.56Y-4.365
X5.56Y-4.4049
X5.57Y-3.805
X5.57Y-3.88
X5.57Y-4.755
X5.59Y-5.0899
X5.6Y-4.5349
X5.612Y-5.2189
X5.62Y-4.95
X5.636Y-4.162
X5.6396Y-4.2323
X5.648Y-3.882
X5.655Y-4.405
X5.66Y-4.5399
X5.66Y-4.6649
X5.67Y-4.3299
X5.67Y-4.4699
X5.67Y-4.5099
X5.6794Y-3.7494
X5.6801Y-4.687
X5.6977Y-4.2799
X5.705Y-4.31
X5.705Y-4.71
X5.705Y-5.22
X5.71Y-4.76
X5.72Y-4.89
X5.73Y-4.16
X5.743Y-4.7349
X5.7512Y-4.7687
X5.755Y-4.68
X5.755Y-4.8349
X5.755Y-4.8949
X5.7581Y-5.193
X5.76Y-4.938
X5.77Y-5.1299
X5.77Y-5.1649
X5.775Y-4.065
X5.775Y-5.055
X5.7776Y-5.0925
X5.7805Y-5.2504
X5.802Y-5.296
X5.815Y-4.99
X5.815Y-5.025
X5.815Y-5.085
X5.82Y-4.1539
X5.8254Y-3.8825
X5.8287Y-3.9108
X5.866Y-3.937
X5.874Y-3.756
X5.8769Y-4.7334
X5.8779Y-4.4425
X5.8786Y-4.6977
X5.895Y-4.81
X5.9Y-4.49
X5.9Y-4.9549
X5.904Y-4.044
X5.936Y-4.8135
X5.9365Y-4.9493
X5.9557Y-4.997
X5.9604Y-4.1111
X5.972Y-4.6672
X5.9724Y-4.5472
X5.978Y-4.73
X5.985Y-4.9813
X5.9996Y-4.798
X6.02Y-4.215
X6.0276Y-4.626
X6.03Y-4.435
X6.0315Y-4.9813
X6.054Y-4.08
X6.08Y-4.69
X6.08Y-5.3
X6.082Y-4.856
X6.082Y-4.944
X6.0827Y-5.0236
X6.0849Y-4.205
X6.085Y-4.64
X6.088Y-5.136
T3
X5.04Y-3.78
X5.04Y-3.88
X5.04Y-3.98
X5.04Y-4.08
X5.04Y-4.18
X5.04Y-4.28
X5.04Y-4.38
X5.04Y-4.48
X5.04Y-4.58
X5.04Y-4.68
X5.04Y-4.78
X5.04Y-4.88
X5.04Y-4.98
X5.04Y-5.08
X5.04Y-5.18
X5.04Y-5.28
X5.7844Y-4.2708
X5.7844Y-4.3708
X5.8844Y-4.2708
X5.8844Y-4.3708
X5.9844Y-4.2708
X5.9844Y-4.3708
X6.14Y-3.78
X6.14Y-3.88
X6.14Y-3.98
X6.14Y-4.08
X6.14Y-4.18
X6.14Y-4.28
X6.14Y-4.38
X6.14Y-4.48
X6.14Y-4.58
X6.14Y-4.68
X6.14Y-4.78
X6.14Y-4.88
X6.14Y-4.98
X6.14Y-5.08
X6.14Y-5.18
X6.14Y-5.28
T2
G00X5.4399Y-3.8319
M15
G01X5.4399Y-3.8004
M16
G05
G00X5.4399Y-4.0024
M15
G01X5.4399Y-3.9591
M16
G05
G00X5.7801Y-3.8319
M15
G01X5.7801Y-3.8004
M16
G05
G00X5.7801Y-4.0024
M15
G01X5.7801Y-3.9591
M16
G05
M30
