%TF.GenerationSoftware,KiCad,Pcbnew,9.0.0*%
%TF.CreationDate,2025-09-12T19:12:51+01:00*%
%TF.ProjectId,OE PyBoard,4f452050-7942-46f6-9172-642e6b696361,rev?*%
%TF.SameCoordinates,Original*%
%TF.FileFunction,Drillmap*%
%TF.FilePolarity,Positive*%
%FSLAX45Y45*%
G04 Gerber Fmt 4.5, Leading zero omitted, Abs format (unit mm)*
G04 Created by KiCad (PCBNEW 9.0.0) date 2025-09-12 19:12:51*
%MOMM*%
%LPD*%
G01*
G04 APERTURE LIST*
%ADD10C,0.230000*%
%ADD11C,0.200000*%
%ADD12C,0.100000*%
G04 APERTURE END LIST*
D10*
X12547600Y-9423200D02*
X15849600Y-9423200D01*
X15849600Y-13614200D01*
X12547600Y-13614200D01*
X12547600Y-9423200D01*
D11*
D12*
X12943000Y-10479200D02*
X12965000Y-10501200D01*
X12965000Y-10479200D02*
X12943000Y-10501200D01*
X12943000Y-11190400D02*
X12965000Y-11212400D01*
X12965000Y-11190400D02*
X12943000Y-11212400D01*
X12943000Y-11787300D02*
X12965000Y-11809300D01*
X12965000Y-11787300D02*
X12943000Y-11809300D01*
X12948080Y-9757840D02*
X12970080Y-9779840D01*
X12970080Y-9757840D02*
X12948080Y-9779840D01*
X12955700Y-10225200D02*
X12977700Y-10247200D01*
X12977700Y-10225200D02*
X12955700Y-10247200D01*
X12968400Y-12514000D02*
X12990400Y-12536000D01*
X12990400Y-12514000D02*
X12968400Y-12536000D01*
X12993800Y-11457100D02*
X13015800Y-11479100D01*
X13015800Y-11457100D02*
X12993800Y-11479100D01*
X13009040Y-13212240D02*
X13031040Y-13234240D01*
X13031040Y-13212240D02*
X13009040Y-13234240D01*
X13009040Y-13445920D02*
X13031040Y-13467920D01*
X13031040Y-13445920D02*
X13009040Y-13467920D01*
X13013600Y-12814000D02*
X13035600Y-12836000D01*
X13035600Y-12814000D02*
X13013600Y-12836000D01*
X13095400Y-9501300D02*
X13117400Y-9523300D01*
X13117400Y-9501300D02*
X13095400Y-9523300D01*
X13113600Y-12989000D02*
X13135600Y-13011000D01*
X13135600Y-12989000D02*
X13113600Y-13011000D01*
X13159651Y-12095297D02*
X13181651Y-12117297D01*
X13181651Y-12095297D02*
X13159651Y-12117297D01*
X13170555Y-12434800D02*
X13192555Y-12456800D01*
X13192555Y-12434800D02*
X13170555Y-12456800D01*
X13197000Y-10047400D02*
X13219000Y-10069400D01*
X13219000Y-10047400D02*
X13197000Y-10069400D01*
X13197000Y-10784000D02*
X13219000Y-10806000D01*
X13219000Y-10784000D02*
X13197000Y-10806000D01*
X13260500Y-11292000D02*
X13282500Y-11314000D01*
X13282500Y-11292000D02*
X13260500Y-11314000D01*
X13277543Y-12095157D02*
X13299543Y-12117157D01*
X13299543Y-12095157D02*
X13277543Y-12117157D01*
X13395120Y-9676560D02*
X13417120Y-9698560D01*
X13417120Y-9676560D02*
X13395120Y-9698560D01*
X13420600Y-12067867D02*
X13442600Y-12089867D01*
X13442600Y-12067867D02*
X13420600Y-12089867D01*
X13425600Y-12142700D02*
X13447600Y-12164700D01*
X13447600Y-12142700D02*
X13425600Y-12164700D01*
X13425600Y-12339700D02*
X13447600Y-12361700D01*
X13447600Y-12339700D02*
X13425600Y-12361700D01*
X13438300Y-12511200D02*
X13460300Y-12533200D01*
X13460300Y-12511200D02*
X13438300Y-12533200D01*
X13463700Y-10047400D02*
X13485700Y-10069400D01*
X13485700Y-10047400D02*
X13463700Y-10069400D01*
X13483583Y-10860200D02*
X13505583Y-10882200D01*
X13505583Y-10860200D02*
X13483583Y-10882200D01*
X13483583Y-11850600D02*
X13505583Y-11872600D01*
X13505583Y-11850600D02*
X13483583Y-11872600D01*
X13489100Y-11952400D02*
X13511100Y-11974400D01*
X13511100Y-11952400D02*
X13489100Y-11974400D01*
X13514500Y-10745900D02*
X13536500Y-10767900D01*
X13536500Y-10745900D02*
X13514500Y-10767900D01*
X13514500Y-11634900D02*
X13536500Y-11656900D01*
X13536500Y-11634900D02*
X13514500Y-11656900D01*
X13531400Y-10597500D02*
X13553400Y-10619500D01*
X13553400Y-10597500D02*
X13531400Y-10619500D01*
X13552600Y-10183911D02*
X13574600Y-10205911D01*
X13574600Y-10183911D02*
X13552600Y-10205911D01*
X13552600Y-11431700D02*
X13574600Y-11453700D01*
X13574600Y-11431700D02*
X13552600Y-11453700D01*
X13557580Y-10287007D02*
X13579580Y-10309007D01*
X13579580Y-10287007D02*
X13557580Y-10309007D01*
X13590700Y-12739600D02*
X13612700Y-12761600D01*
X13612700Y-12739600D02*
X13590700Y-12761600D01*
X13613600Y-11089000D02*
X13635600Y-11111000D01*
X13635600Y-11089000D02*
X13613600Y-11111000D01*
X13618472Y-11220272D02*
X13640472Y-11242272D01*
X13640472Y-11220272D02*
X13618472Y-11242272D01*
X13622450Y-11507700D02*
X13644450Y-11529700D01*
X13644450Y-11507700D02*
X13622450Y-11529700D01*
X13622450Y-11736500D02*
X13644450Y-11758500D01*
X13644450Y-11736500D02*
X13622450Y-11758500D01*
X13622902Y-10125411D02*
X13644902Y-10147411D01*
X13644902Y-10125411D02*
X13622902Y-10147411D01*
X13623720Y-13323800D02*
X13645720Y-13345800D01*
X13645720Y-13323800D02*
X13623720Y-13345800D01*
X13692300Y-12841200D02*
X13714300Y-12863200D01*
X13714300Y-12841200D02*
X13692300Y-12863200D01*
X13735480Y-13080160D02*
X13757480Y-13102160D01*
X13757480Y-13080160D02*
X13735480Y-13102160D01*
X13781200Y-12320700D02*
X13803200Y-12342700D01*
X13803200Y-12320700D02*
X13781200Y-12342700D01*
X13791360Y-12467802D02*
X13813360Y-12489802D01*
X13813360Y-12467802D02*
X13791360Y-12489802D01*
X13819300Y-12562000D02*
X13841300Y-12584000D01*
X13841300Y-12562000D02*
X13819300Y-12584000D01*
X13832000Y-10720500D02*
X13854000Y-10742500D01*
X13854000Y-10720500D02*
X13832000Y-10742500D01*
X13832000Y-11977800D02*
X13854000Y-11999800D01*
X13854000Y-11977800D02*
X13832000Y-11999800D01*
X13841600Y-11893900D02*
X13863600Y-11915900D01*
X13863600Y-11893900D02*
X13841600Y-11915900D01*
X13871380Y-13083066D02*
X13893380Y-13105066D01*
X13893380Y-13083066D02*
X13871380Y-13105066D01*
X13906600Y-11046080D02*
X13928600Y-11068080D01*
X13928600Y-11046080D02*
X13906600Y-11068080D01*
X13946300Y-12320700D02*
X13968300Y-12342700D01*
X13968300Y-12320700D02*
X13946300Y-12342700D01*
X13953920Y-13425600D02*
X13975920Y-13447600D01*
X13975920Y-13425600D02*
X13953920Y-13447600D01*
X13971700Y-10301400D02*
X13993700Y-10323400D01*
X13993700Y-10301400D02*
X13971700Y-10323400D01*
X13971700Y-10530000D02*
X13993700Y-10552000D01*
X13993700Y-10530000D02*
X13971700Y-10552000D01*
X13971700Y-10847500D02*
X13993700Y-10869500D01*
X13993700Y-10847500D02*
X13971700Y-10869500D01*
X13971700Y-12104800D02*
X13993700Y-12126800D01*
X13993700Y-12104800D02*
X13971700Y-12126800D01*
X14047900Y-12600100D02*
X14069900Y-12622100D01*
X14069900Y-12600100D02*
X14047900Y-12622100D01*
X14073300Y-10771300D02*
X14095300Y-10793300D01*
X14095300Y-10771300D02*
X14073300Y-10793300D01*
X14111400Y-11076100D02*
X14133400Y-11098100D01*
X14133400Y-11076100D02*
X14111400Y-11098100D01*
X14111400Y-11177500D02*
X14133400Y-11199500D01*
X14133400Y-11177500D02*
X14111400Y-11199500D01*
X14136800Y-9653700D02*
X14158800Y-9675700D01*
X14158800Y-9653700D02*
X14136800Y-9675700D01*
X14136800Y-9844200D02*
X14158800Y-9866200D01*
X14158800Y-9844200D02*
X14136800Y-9866200D01*
X14136800Y-12066700D02*
X14158800Y-12088700D01*
X14158800Y-12066700D02*
X14136800Y-12088700D01*
X14187600Y-12917400D02*
X14209600Y-12939400D01*
X14209600Y-12917400D02*
X14187600Y-12939400D01*
X14213000Y-11507700D02*
X14235000Y-11529700D01*
X14235000Y-11507700D02*
X14213000Y-11529700D01*
X14243480Y-13244978D02*
X14265480Y-13266978D01*
X14265480Y-13244978D02*
X14243480Y-13266978D01*
X14263800Y-12562000D02*
X14285800Y-12584000D01*
X14285800Y-12562000D02*
X14263800Y-12584000D01*
X14304440Y-10560480D02*
X14326440Y-10582480D01*
X14326440Y-10560480D02*
X14304440Y-10582480D01*
X14313545Y-10739000D02*
X14335545Y-10761000D01*
X14335545Y-10739000D02*
X14313545Y-10761000D01*
X14334920Y-9849280D02*
X14356920Y-9871280D01*
X14356920Y-9849280D02*
X14334920Y-9871280D01*
X14352700Y-11177700D02*
X14374700Y-11199700D01*
X14374700Y-11177700D02*
X14352700Y-11199700D01*
X14365400Y-11520400D02*
X14387400Y-11542400D01*
X14387400Y-11520400D02*
X14365400Y-11542400D01*
X14365400Y-11837900D02*
X14387400Y-11859900D01*
X14387400Y-11837900D02*
X14365400Y-11859900D01*
X14390800Y-10987000D02*
X14412800Y-11009000D01*
X14412800Y-10987000D02*
X14390800Y-11009000D01*
X14390800Y-11342600D02*
X14412800Y-11364600D01*
X14412800Y-11342600D02*
X14390800Y-11364600D01*
X14390800Y-11444200D02*
X14412800Y-11466200D01*
X14412800Y-11444200D02*
X14390800Y-11466200D01*
X14414658Y-9512545D02*
X14436658Y-9534545D01*
X14436658Y-9512545D02*
X14414658Y-9534545D01*
X14416562Y-11893900D02*
X14438562Y-11915900D01*
X14438562Y-11893900D02*
X14416562Y-11915900D01*
X14461064Y-10860038D02*
X14483064Y-10882038D01*
X14483064Y-10860038D02*
X14461064Y-10882038D01*
X14479700Y-10936400D02*
X14501700Y-10958400D01*
X14501700Y-10936400D02*
X14479700Y-10958400D01*
X14479700Y-11952400D02*
X14501700Y-11974400D01*
X14501700Y-11952400D02*
X14479700Y-11974400D01*
X14479700Y-13247800D02*
X14501700Y-13269800D01*
X14501700Y-13247800D02*
X14479700Y-13269800D01*
X14492400Y-12079400D02*
X14514400Y-12101400D01*
X14514400Y-12079400D02*
X14492400Y-12101400D01*
X14517800Y-12409600D02*
X14539800Y-12431600D01*
X14539800Y-12409600D02*
X14517800Y-12431600D01*
X14543200Y-10555400D02*
X14565200Y-10577400D01*
X14565200Y-10555400D02*
X14543200Y-10577400D01*
X14576100Y-12015700D02*
X14598100Y-12037700D01*
X14598100Y-12015700D02*
X14576100Y-12037700D01*
X14597175Y-12101425D02*
X14619175Y-12123425D01*
X14619175Y-12101425D02*
X14597175Y-12123425D01*
X14606700Y-11876200D02*
X14628700Y-11898200D01*
X14628700Y-11876200D02*
X14606700Y-11898200D01*
X14606700Y-12269700D02*
X14628700Y-12291700D01*
X14628700Y-12269700D02*
X14606700Y-12291700D01*
X14606700Y-12422100D02*
X14628700Y-12444100D01*
X14628700Y-12422100D02*
X14606700Y-12444100D01*
X14614548Y-13179248D02*
X14636548Y-13201248D01*
X14636548Y-13179248D02*
X14614548Y-13201248D01*
X14619400Y-12531453D02*
X14641400Y-12553453D01*
X14641400Y-12531453D02*
X14619400Y-12553453D01*
X14644800Y-13019000D02*
X14666800Y-13041000D01*
X14666800Y-13019000D02*
X14644800Y-13041000D01*
X14644800Y-13107900D02*
X14666800Y-13129900D01*
X14666800Y-13107900D02*
X14644800Y-13129900D01*
X14657500Y-10314100D02*
X14679500Y-10336100D01*
X14679500Y-10314100D02*
X14657500Y-10336100D01*
X14657500Y-12828700D02*
X14679500Y-12850700D01*
X14679500Y-12828700D02*
X14657500Y-12850700D01*
X14664000Y-12924000D02*
X14686000Y-12946000D01*
X14686000Y-12924000D02*
X14664000Y-12946000D01*
X14671500Y-13325100D02*
X14693500Y-13347100D01*
X14693500Y-13325100D02*
X14671500Y-13347100D01*
X14726080Y-13440840D02*
X14748080Y-13462840D01*
X14748080Y-13440840D02*
X14726080Y-13462840D01*
X14759100Y-12663600D02*
X14781100Y-12685600D01*
X14781100Y-12663600D02*
X14759100Y-12685600D01*
X14759100Y-12752500D02*
X14781100Y-12774500D01*
X14781100Y-12752500D02*
X14759100Y-12774500D01*
X14759100Y-12904900D02*
X14781100Y-12926900D01*
X14781100Y-12904900D02*
X14759100Y-12926900D01*
X14771800Y-10539900D02*
X14793800Y-10561900D01*
X14793800Y-10539900D02*
X14771800Y-10561900D01*
X14785574Y-9850549D02*
X14807574Y-9872549D01*
X14807574Y-9850549D02*
X14785574Y-9872549D01*
X14793907Y-9922404D02*
X14815907Y-9944404D01*
X14815907Y-9922404D02*
X14793907Y-9944404D01*
X14888600Y-9989000D02*
X14910600Y-10011000D01*
X14910600Y-9989000D02*
X14888600Y-10011000D01*
X14908960Y-9529240D02*
X14930960Y-9551240D01*
X14930960Y-9529240D02*
X14908960Y-9551240D01*
X14916388Y-12011872D02*
X14938388Y-12033872D01*
X14938388Y-12011872D02*
X14916388Y-12033872D01*
X14918923Y-11272999D02*
X14940923Y-11294999D01*
X14940923Y-11272999D02*
X14918923Y-11294999D01*
X14920596Y-11921049D02*
X14942596Y-11943049D01*
X14942596Y-11921049D02*
X14920596Y-11943049D01*
X14962300Y-12206400D02*
X14984300Y-12228400D01*
X14984300Y-12206400D02*
X14962300Y-12228400D01*
X14975000Y-11393600D02*
X14997000Y-11415600D01*
X14997000Y-11393600D02*
X14975000Y-11415600D01*
X14975000Y-12574500D02*
X14997000Y-12596500D01*
X14997000Y-12574500D02*
X14975000Y-12596500D01*
X14985160Y-10260760D02*
X15007160Y-10282760D01*
X15007160Y-10260760D02*
X14985160Y-10282760D01*
X15066468Y-12215353D02*
X15088468Y-12237353D01*
X15088468Y-12215353D02*
X15066468Y-12237353D01*
X15067634Y-12560134D02*
X15089634Y-12582134D01*
X15089634Y-12560134D02*
X15067634Y-12582134D01*
X15116500Y-12681500D02*
X15138500Y-12703500D01*
X15138500Y-12681500D02*
X15116500Y-12703500D01*
X15128391Y-10431194D02*
X15150391Y-10453194D01*
X15150391Y-10431194D02*
X15128391Y-10453194D01*
X15157999Y-11843720D02*
X15179999Y-11865720D01*
X15179999Y-11843720D02*
X15157999Y-11865720D01*
X15159000Y-11539000D02*
X15181000Y-11561000D01*
X15181000Y-11539000D02*
X15159000Y-11561000D01*
X15173200Y-12003200D02*
X15195200Y-12025200D01*
X15195200Y-12003200D02*
X15173200Y-12025200D01*
X15190900Y-12641500D02*
X15212900Y-12663500D01*
X15212900Y-12641500D02*
X15190900Y-12663500D01*
X15228000Y-12175976D02*
X15250000Y-12197976D01*
X15250000Y-12175976D02*
X15228000Y-12197976D01*
X15279800Y-10695100D02*
X15301800Y-10717100D01*
X15301800Y-10695100D02*
X15279800Y-10717100D01*
X15299000Y-11739040D02*
X15321000Y-11761040D01*
X15321000Y-11739040D02*
X15299000Y-11761040D01*
X15305200Y-11253900D02*
X15327200Y-11275900D01*
X15327200Y-11253900D02*
X15305200Y-11275900D01*
X15309000Y-12641500D02*
X15331000Y-12663500D01*
X15331000Y-12641500D02*
X15309000Y-12663500D01*
X15366160Y-10352200D02*
X15388160Y-10374200D01*
X15388160Y-10352200D02*
X15366160Y-10374200D01*
X15432200Y-11901600D02*
X15454200Y-11923600D01*
X15454200Y-11901600D02*
X15432200Y-11923600D01*
X15432200Y-13451000D02*
X15454200Y-13473000D01*
X15454200Y-13451000D02*
X15432200Y-13473000D01*
X15437280Y-12323240D02*
X15459280Y-12345240D01*
X15459280Y-12323240D02*
X15437280Y-12345240D01*
X15437280Y-12546760D02*
X15459280Y-12568760D01*
X15459280Y-12546760D02*
X15437280Y-12568760D01*
X15439000Y-12749000D02*
X15461000Y-12771000D01*
X15461000Y-12749000D02*
X15439000Y-12771000D01*
X15444556Y-10669700D02*
X15466556Y-10691700D01*
X15466556Y-10669700D02*
X15444556Y-10691700D01*
X15444900Y-11774600D02*
X15466900Y-11796600D01*
X15466900Y-11774600D02*
X15444900Y-11796600D01*
X15452520Y-13034440D02*
X15474520Y-13056440D01*
X15474520Y-13034440D02*
X15452520Y-13056440D01*
X13847400Y-9693100D02*
G75*
G02*
X13787400Y-9693100I-30000J0D01*
G01*
X13787400Y-9693100D02*
G75*
G02*
X13847400Y-9693100I30000J0D01*
G01*
X13847400Y-9733100D02*
X13847400Y-9653100D01*
X13787400Y-9653100D02*
G75*
G02*
X13847400Y-9653100I30000J0D01*
G01*
X13787400Y-9653100D02*
X13787400Y-9733100D01*
X13787400Y-9733100D02*
G75*
G03*
X13847400Y-9733100I30000J0D01*
G01*
X13847400Y-10111100D02*
G75*
G02*
X13787400Y-10111100I-30000J0D01*
G01*
X13787400Y-10111100D02*
G75*
G02*
X13847400Y-10111100I30000J0D01*
G01*
X13847400Y-10166100D02*
X13847400Y-10056100D01*
X13787400Y-10056100D02*
G75*
G02*
X13847400Y-10056100I30000J0D01*
G01*
X13787400Y-10056100D02*
X13787400Y-10166100D01*
X13787400Y-10166100D02*
G75*
G03*
X13847400Y-10166100I30000J0D01*
G01*
X14711400Y-9693100D02*
G75*
G02*
X14651400Y-9693100I-30000J0D01*
G01*
X14651400Y-9693100D02*
G75*
G02*
X14711400Y-9693100I30000J0D01*
G01*
X14711400Y-9733100D02*
X14711400Y-9653100D01*
X14651400Y-9653100D02*
G75*
G02*
X14711400Y-9653100I30000J0D01*
G01*
X14651400Y-9653100D02*
X14651400Y-9733100D01*
X14651400Y-9733100D02*
G75*
G03*
X14711400Y-9733100I30000J0D01*
G01*
X14711400Y-10111100D02*
G75*
G02*
X14651400Y-10111100I-30000J0D01*
G01*
X14651400Y-10111100D02*
G75*
G02*
X14711400Y-10111100I30000J0D01*
G01*
X14711400Y-10166100D02*
X14711400Y-10056100D01*
X14651400Y-10056100D02*
G75*
G02*
X14711400Y-10056100I30000J0D01*
G01*
X14651400Y-10056100D02*
X14651400Y-10166100D01*
X14651400Y-10166100D02*
G75*
G03*
X14711400Y-10166100I30000J0D01*
G01*
X12801600Y-9551200D02*
X12801600Y-9651200D01*
X12751600Y-9601200D02*
X12851600Y-9601200D01*
X12801600Y-9805200D02*
X12801600Y-9905200D01*
X12751600Y-9855200D02*
X12851600Y-9855200D01*
X12801600Y-10059200D02*
X12801600Y-10159200D01*
X12751600Y-10109200D02*
X12851600Y-10109200D01*
X12801600Y-10313200D02*
X12801600Y-10413200D01*
X12751600Y-10363200D02*
X12851600Y-10363200D01*
X12801600Y-10567200D02*
X12801600Y-10667200D01*
X12751600Y-10617200D02*
X12851600Y-10617200D01*
X12801600Y-10821200D02*
X12801600Y-10921200D01*
X12751600Y-10871200D02*
X12851600Y-10871200D01*
X12801600Y-11075200D02*
X12801600Y-11175200D01*
X12751600Y-11125200D02*
X12851600Y-11125200D01*
X12801600Y-11329200D02*
X12801600Y-11429200D01*
X12751600Y-11379200D02*
X12851600Y-11379200D01*
X12801600Y-11583200D02*
X12801600Y-11683200D01*
X12751600Y-11633200D02*
X12851600Y-11633200D01*
X12801600Y-11837200D02*
X12801600Y-11937200D01*
X12751600Y-11887200D02*
X12851600Y-11887200D01*
X12801600Y-12091200D02*
X12801600Y-12191200D01*
X12751600Y-12141200D02*
X12851600Y-12141200D01*
X12801600Y-12345200D02*
X12801600Y-12445200D01*
X12751600Y-12395200D02*
X12851600Y-12395200D01*
X12801600Y-12599200D02*
X12801600Y-12699200D01*
X12751600Y-12649200D02*
X12851600Y-12649200D01*
X12801600Y-12853200D02*
X12801600Y-12953200D01*
X12751600Y-12903200D02*
X12851600Y-12903200D01*
X12801600Y-13107200D02*
X12801600Y-13207200D01*
X12751600Y-13157200D02*
X12851600Y-13157200D01*
X12801600Y-13361200D02*
X12801600Y-13461200D01*
X12751600Y-13411200D02*
X12851600Y-13411200D01*
X14692400Y-10797800D02*
X14692400Y-10897800D01*
X14642400Y-10847800D02*
X14742400Y-10847800D01*
X14692400Y-11051800D02*
X14692400Y-11151800D01*
X14642400Y-11101800D02*
X14742400Y-11101800D01*
X14946400Y-10797800D02*
X14946400Y-10897800D01*
X14896400Y-10847800D02*
X14996400Y-10847800D01*
X14946400Y-11051800D02*
X14946400Y-11151800D01*
X14896400Y-11101800D02*
X14996400Y-11101800D01*
X15200400Y-10797800D02*
X15200400Y-10897800D01*
X15150400Y-10847800D02*
X15250400Y-10847800D01*
X15200400Y-11051800D02*
X15200400Y-11151800D01*
X15150400Y-11101800D02*
X15250400Y-11101800D01*
X15595600Y-9551200D02*
X15595600Y-9651200D01*
X15545600Y-9601200D02*
X15645600Y-9601200D01*
X15595600Y-9805200D02*
X15595600Y-9905200D01*
X15545600Y-9855200D02*
X15645600Y-9855200D01*
X15595600Y-10059200D02*
X15595600Y-10159200D01*
X15545600Y-10109200D02*
X15645600Y-10109200D01*
X15595600Y-10313200D02*
X15595600Y-10413200D01*
X15545600Y-10363200D02*
X15645600Y-10363200D01*
X15595600Y-10567200D02*
X15595600Y-10667200D01*
X15545600Y-10617200D02*
X15645600Y-10617200D01*
X15595600Y-10821200D02*
X15595600Y-10921200D01*
X15545600Y-10871200D02*
X15645600Y-10871200D01*
X15595600Y-11075200D02*
X15595600Y-11175200D01*
X15545600Y-11125200D02*
X15645600Y-11125200D01*
X15595600Y-11329200D02*
X15595600Y-11429200D01*
X15545600Y-11379200D02*
X15645600Y-11379200D01*
X15595600Y-11583200D02*
X15595600Y-11683200D01*
X15545600Y-11633200D02*
X15645600Y-11633200D01*
X15595600Y-11837200D02*
X15595600Y-11937200D01*
X15545600Y-11887200D02*
X15645600Y-11887200D01*
X15595600Y-12091200D02*
X15595600Y-12191200D01*
X15545600Y-12141200D02*
X15645600Y-12141200D01*
X15595600Y-12345200D02*
X15595600Y-12445200D01*
X15545600Y-12395200D02*
X15645600Y-12395200D01*
X15595600Y-12599200D02*
X15595600Y-12699200D01*
X15545600Y-12649200D02*
X15645600Y-12649200D01*
X15595600Y-12853200D02*
X15595600Y-12953200D01*
X15545600Y-12903200D02*
X15645600Y-12903200D01*
X15595600Y-13107200D02*
X15595600Y-13207200D01*
X15545600Y-13157200D02*
X15645600Y-13157200D01*
X15595600Y-13361200D02*
X15595600Y-13461200D01*
X15545600Y-13411200D02*
X15645600Y-13411200D01*
D11*
X12796877Y-13937184D02*
X12796877Y-13737184D01*
X12796877Y-13737184D02*
X12844496Y-13737184D01*
X12844496Y-13737184D02*
X12873067Y-13746708D01*
X12873067Y-13746708D02*
X12892115Y-13765755D01*
X12892115Y-13765755D02*
X12901639Y-13784803D01*
X12901639Y-13784803D02*
X12911162Y-13822898D01*
X12911162Y-13822898D02*
X12911162Y-13851469D01*
X12911162Y-13851469D02*
X12901639Y-13889565D01*
X12901639Y-13889565D02*
X12892115Y-13908612D01*
X12892115Y-13908612D02*
X12873067Y-13927660D01*
X12873067Y-13927660D02*
X12844496Y-13937184D01*
X12844496Y-13937184D02*
X12796877Y-13937184D01*
X12996877Y-13937184D02*
X12996877Y-13803850D01*
X12996877Y-13841946D02*
X13006401Y-13822898D01*
X13006401Y-13822898D02*
X13015924Y-13813374D01*
X13015924Y-13813374D02*
X13034972Y-13803850D01*
X13034972Y-13803850D02*
X13054020Y-13803850D01*
X13120686Y-13937184D02*
X13120686Y-13803850D01*
X13120686Y-13737184D02*
X13111162Y-13746708D01*
X13111162Y-13746708D02*
X13120686Y-13756231D01*
X13120686Y-13756231D02*
X13130210Y-13746708D01*
X13130210Y-13746708D02*
X13120686Y-13737184D01*
X13120686Y-13737184D02*
X13120686Y-13756231D01*
X13244496Y-13937184D02*
X13225448Y-13927660D01*
X13225448Y-13927660D02*
X13215924Y-13908612D01*
X13215924Y-13908612D02*
X13215924Y-13737184D01*
X13349258Y-13937184D02*
X13330210Y-13927660D01*
X13330210Y-13927660D02*
X13320686Y-13908612D01*
X13320686Y-13908612D02*
X13320686Y-13737184D01*
X13577829Y-13937184D02*
X13577829Y-13737184D01*
X13577829Y-13737184D02*
X13644496Y-13880041D01*
X13644496Y-13880041D02*
X13711162Y-13737184D01*
X13711162Y-13737184D02*
X13711162Y-13937184D01*
X13892115Y-13937184D02*
X13892115Y-13832422D01*
X13892115Y-13832422D02*
X13882591Y-13813374D01*
X13882591Y-13813374D02*
X13863543Y-13803850D01*
X13863543Y-13803850D02*
X13825448Y-13803850D01*
X13825448Y-13803850D02*
X13806401Y-13813374D01*
X13892115Y-13927660D02*
X13873067Y-13937184D01*
X13873067Y-13937184D02*
X13825448Y-13937184D01*
X13825448Y-13937184D02*
X13806401Y-13927660D01*
X13806401Y-13927660D02*
X13796877Y-13908612D01*
X13796877Y-13908612D02*
X13796877Y-13889565D01*
X13796877Y-13889565D02*
X13806401Y-13870517D01*
X13806401Y-13870517D02*
X13825448Y-13860993D01*
X13825448Y-13860993D02*
X13873067Y-13860993D01*
X13873067Y-13860993D02*
X13892115Y-13851469D01*
X13987353Y-13803850D02*
X13987353Y-14003850D01*
X13987353Y-13813374D02*
X14006401Y-13803850D01*
X14006401Y-13803850D02*
X14044496Y-13803850D01*
X14044496Y-13803850D02*
X14063543Y-13813374D01*
X14063543Y-13813374D02*
X14073067Y-13822898D01*
X14073067Y-13822898D02*
X14082591Y-13841946D01*
X14082591Y-13841946D02*
X14082591Y-13899088D01*
X14082591Y-13899088D02*
X14073067Y-13918136D01*
X14073067Y-13918136D02*
X14063543Y-13927660D01*
X14063543Y-13927660D02*
X14044496Y-13937184D01*
X14044496Y-13937184D02*
X14006401Y-13937184D01*
X14006401Y-13937184D02*
X13987353Y-13927660D01*
X14168305Y-13918136D02*
X14177829Y-13927660D01*
X14177829Y-13927660D02*
X14168305Y-13937184D01*
X14168305Y-13937184D02*
X14158782Y-13927660D01*
X14158782Y-13927660D02*
X14168305Y-13918136D01*
X14168305Y-13918136D02*
X14168305Y-13937184D01*
X14168305Y-13813374D02*
X14177829Y-13822898D01*
X14177829Y-13822898D02*
X14168305Y-13832422D01*
X14168305Y-13832422D02*
X14158782Y-13822898D01*
X14158782Y-13822898D02*
X14168305Y-13813374D01*
X14168305Y-13813374D02*
X14168305Y-13832422D01*
D12*
X12514100Y-14254700D02*
X12536100Y-14276700D01*
X12536100Y-14254700D02*
X12514100Y-14276700D01*
D11*
X12834972Y-14157184D02*
X12854020Y-14157184D01*
X12854020Y-14157184D02*
X12873067Y-14166708D01*
X12873067Y-14166708D02*
X12882591Y-14176231D01*
X12882591Y-14176231D02*
X12892115Y-14195279D01*
X12892115Y-14195279D02*
X12901639Y-14233374D01*
X12901639Y-14233374D02*
X12901639Y-14280993D01*
X12901639Y-14280993D02*
X12892115Y-14319088D01*
X12892115Y-14319088D02*
X12882591Y-14338136D01*
X12882591Y-14338136D02*
X12873067Y-14347660D01*
X12873067Y-14347660D02*
X12854020Y-14357184D01*
X12854020Y-14357184D02*
X12834972Y-14357184D01*
X12834972Y-14357184D02*
X12815924Y-14347660D01*
X12815924Y-14347660D02*
X12806401Y-14338136D01*
X12806401Y-14338136D02*
X12796877Y-14319088D01*
X12796877Y-14319088D02*
X12787353Y-14280993D01*
X12787353Y-14280993D02*
X12787353Y-14233374D01*
X12787353Y-14233374D02*
X12796877Y-14195279D01*
X12796877Y-14195279D02*
X12806401Y-14176231D01*
X12806401Y-14176231D02*
X12815924Y-14166708D01*
X12815924Y-14166708D02*
X12834972Y-14157184D01*
X12987353Y-14338136D02*
X12996877Y-14347660D01*
X12996877Y-14347660D02*
X12987353Y-14357184D01*
X12987353Y-14357184D02*
X12977829Y-14347660D01*
X12977829Y-14347660D02*
X12987353Y-14338136D01*
X12987353Y-14338136D02*
X12987353Y-14357184D01*
X13073067Y-14176231D02*
X13082591Y-14166708D01*
X13082591Y-14166708D02*
X13101639Y-14157184D01*
X13101639Y-14157184D02*
X13149258Y-14157184D01*
X13149258Y-14157184D02*
X13168305Y-14166708D01*
X13168305Y-14166708D02*
X13177829Y-14176231D01*
X13177829Y-14176231D02*
X13187353Y-14195279D01*
X13187353Y-14195279D02*
X13187353Y-14214327D01*
X13187353Y-14214327D02*
X13177829Y-14242898D01*
X13177829Y-14242898D02*
X13063543Y-14357184D01*
X13063543Y-14357184D02*
X13187353Y-14357184D01*
X13263543Y-14176231D02*
X13273067Y-14166708D01*
X13273067Y-14166708D02*
X13292115Y-14157184D01*
X13292115Y-14157184D02*
X13339734Y-14157184D01*
X13339734Y-14157184D02*
X13358782Y-14166708D01*
X13358782Y-14166708D02*
X13368305Y-14176231D01*
X13368305Y-14176231D02*
X13377829Y-14195279D01*
X13377829Y-14195279D02*
X13377829Y-14214327D01*
X13377829Y-14214327D02*
X13368305Y-14242898D01*
X13368305Y-14242898D02*
X13254020Y-14357184D01*
X13254020Y-14357184D02*
X13377829Y-14357184D01*
X13501639Y-14157184D02*
X13520686Y-14157184D01*
X13520686Y-14157184D02*
X13539734Y-14166708D01*
X13539734Y-14166708D02*
X13549258Y-14176231D01*
X13549258Y-14176231D02*
X13558782Y-14195279D01*
X13558782Y-14195279D02*
X13568305Y-14233374D01*
X13568305Y-14233374D02*
X13568305Y-14280993D01*
X13568305Y-14280993D02*
X13558782Y-14319088D01*
X13558782Y-14319088D02*
X13549258Y-14338136D01*
X13549258Y-14338136D02*
X13539734Y-14347660D01*
X13539734Y-14347660D02*
X13520686Y-14357184D01*
X13520686Y-14357184D02*
X13501639Y-14357184D01*
X13501639Y-14357184D02*
X13482591Y-14347660D01*
X13482591Y-14347660D02*
X13473067Y-14338136D01*
X13473067Y-14338136D02*
X13463543Y-14319088D01*
X13463543Y-14319088D02*
X13454020Y-14280993D01*
X13454020Y-14280993D02*
X13454020Y-14233374D01*
X13454020Y-14233374D02*
X13463543Y-14195279D01*
X13463543Y-14195279D02*
X13473067Y-14176231D01*
X13473067Y-14176231D02*
X13482591Y-14166708D01*
X13482591Y-14166708D02*
X13501639Y-14157184D01*
X13654020Y-14357184D02*
X13654020Y-14223850D01*
X13654020Y-14242898D02*
X13663543Y-14233374D01*
X13663543Y-14233374D02*
X13682591Y-14223850D01*
X13682591Y-14223850D02*
X13711163Y-14223850D01*
X13711163Y-14223850D02*
X13730210Y-14233374D01*
X13730210Y-14233374D02*
X13739734Y-14252422D01*
X13739734Y-14252422D02*
X13739734Y-14357184D01*
X13739734Y-14252422D02*
X13749258Y-14233374D01*
X13749258Y-14233374D02*
X13768305Y-14223850D01*
X13768305Y-14223850D02*
X13796877Y-14223850D01*
X13796877Y-14223850D02*
X13815924Y-14233374D01*
X13815924Y-14233374D02*
X13825448Y-14252422D01*
X13825448Y-14252422D02*
X13825448Y-14357184D01*
X13920686Y-14357184D02*
X13920686Y-14223850D01*
X13920686Y-14242898D02*
X13930210Y-14233374D01*
X13930210Y-14233374D02*
X13949258Y-14223850D01*
X13949258Y-14223850D02*
X13977829Y-14223850D01*
X13977829Y-14223850D02*
X13996877Y-14233374D01*
X13996877Y-14233374D02*
X14006401Y-14252422D01*
X14006401Y-14252422D02*
X14006401Y-14357184D01*
X14006401Y-14252422D02*
X14015924Y-14233374D01*
X14015924Y-14233374D02*
X14034972Y-14223850D01*
X14034972Y-14223850D02*
X14063543Y-14223850D01*
X14063543Y-14223850D02*
X14082591Y-14233374D01*
X14082591Y-14233374D02*
X14092115Y-14252422D01*
X14092115Y-14252422D02*
X14092115Y-14357184D01*
X14482591Y-14147660D02*
X14311163Y-14404803D01*
X14739734Y-14157184D02*
X14758782Y-14157184D01*
X14758782Y-14157184D02*
X14777829Y-14166708D01*
X14777829Y-14166708D02*
X14787353Y-14176231D01*
X14787353Y-14176231D02*
X14796877Y-14195279D01*
X14796877Y-14195279D02*
X14806401Y-14233374D01*
X14806401Y-14233374D02*
X14806401Y-14280993D01*
X14806401Y-14280993D02*
X14796877Y-14319088D01*
X14796877Y-14319088D02*
X14787353Y-14338136D01*
X14787353Y-14338136D02*
X14777829Y-14347660D01*
X14777829Y-14347660D02*
X14758782Y-14357184D01*
X14758782Y-14357184D02*
X14739734Y-14357184D01*
X14739734Y-14357184D02*
X14720686Y-14347660D01*
X14720686Y-14347660D02*
X14711163Y-14338136D01*
X14711163Y-14338136D02*
X14701639Y-14319088D01*
X14701639Y-14319088D02*
X14692115Y-14280993D01*
X14692115Y-14280993D02*
X14692115Y-14233374D01*
X14692115Y-14233374D02*
X14701639Y-14195279D01*
X14701639Y-14195279D02*
X14711163Y-14176231D01*
X14711163Y-14176231D02*
X14720686Y-14166708D01*
X14720686Y-14166708D02*
X14739734Y-14157184D01*
X14892115Y-14338136D02*
X14901639Y-14347660D01*
X14901639Y-14347660D02*
X14892115Y-14357184D01*
X14892115Y-14357184D02*
X14882591Y-14347660D01*
X14882591Y-14347660D02*
X14892115Y-14338136D01*
X14892115Y-14338136D02*
X14892115Y-14357184D01*
X15025448Y-14157184D02*
X15044496Y-14157184D01*
X15044496Y-14157184D02*
X15063544Y-14166708D01*
X15063544Y-14166708D02*
X15073067Y-14176231D01*
X15073067Y-14176231D02*
X15082591Y-14195279D01*
X15082591Y-14195279D02*
X15092115Y-14233374D01*
X15092115Y-14233374D02*
X15092115Y-14280993D01*
X15092115Y-14280993D02*
X15082591Y-14319088D01*
X15082591Y-14319088D02*
X15073067Y-14338136D01*
X15073067Y-14338136D02*
X15063544Y-14347660D01*
X15063544Y-14347660D02*
X15044496Y-14357184D01*
X15044496Y-14357184D02*
X15025448Y-14357184D01*
X15025448Y-14357184D02*
X15006401Y-14347660D01*
X15006401Y-14347660D02*
X14996877Y-14338136D01*
X14996877Y-14338136D02*
X14987353Y-14319088D01*
X14987353Y-14319088D02*
X14977829Y-14280993D01*
X14977829Y-14280993D02*
X14977829Y-14233374D01*
X14977829Y-14233374D02*
X14987353Y-14195279D01*
X14987353Y-14195279D02*
X14996877Y-14176231D01*
X14996877Y-14176231D02*
X15006401Y-14166708D01*
X15006401Y-14166708D02*
X15025448Y-14157184D01*
X15215925Y-14157184D02*
X15234972Y-14157184D01*
X15234972Y-14157184D02*
X15254020Y-14166708D01*
X15254020Y-14166708D02*
X15263544Y-14176231D01*
X15263544Y-14176231D02*
X15273067Y-14195279D01*
X15273067Y-14195279D02*
X15282591Y-14233374D01*
X15282591Y-14233374D02*
X15282591Y-14280993D01*
X15282591Y-14280993D02*
X15273067Y-14319088D01*
X15273067Y-14319088D02*
X15263544Y-14338136D01*
X15263544Y-14338136D02*
X15254020Y-14347660D01*
X15254020Y-14347660D02*
X15234972Y-14357184D01*
X15234972Y-14357184D02*
X15215925Y-14357184D01*
X15215925Y-14357184D02*
X15196877Y-14347660D01*
X15196877Y-14347660D02*
X15187353Y-14338136D01*
X15187353Y-14338136D02*
X15177829Y-14319088D01*
X15177829Y-14319088D02*
X15168306Y-14280993D01*
X15168306Y-14280993D02*
X15168306Y-14233374D01*
X15168306Y-14233374D02*
X15177829Y-14195279D01*
X15177829Y-14195279D02*
X15187353Y-14176231D01*
X15187353Y-14176231D02*
X15196877Y-14166708D01*
X15196877Y-14166708D02*
X15215925Y-14157184D01*
X15396877Y-14242898D02*
X15377829Y-14233374D01*
X15377829Y-14233374D02*
X15368306Y-14223850D01*
X15368306Y-14223850D02*
X15358782Y-14204803D01*
X15358782Y-14204803D02*
X15358782Y-14195279D01*
X15358782Y-14195279D02*
X15368306Y-14176231D01*
X15368306Y-14176231D02*
X15377829Y-14166708D01*
X15377829Y-14166708D02*
X15396877Y-14157184D01*
X15396877Y-14157184D02*
X15434972Y-14157184D01*
X15434972Y-14157184D02*
X15454020Y-14166708D01*
X15454020Y-14166708D02*
X15463544Y-14176231D01*
X15463544Y-14176231D02*
X15473067Y-14195279D01*
X15473067Y-14195279D02*
X15473067Y-14204803D01*
X15473067Y-14204803D02*
X15463544Y-14223850D01*
X15463544Y-14223850D02*
X15454020Y-14233374D01*
X15454020Y-14233374D02*
X15434972Y-14242898D01*
X15434972Y-14242898D02*
X15396877Y-14242898D01*
X15396877Y-14242898D02*
X15377829Y-14252422D01*
X15377829Y-14252422D02*
X15368306Y-14261946D01*
X15368306Y-14261946D02*
X15358782Y-14280993D01*
X15358782Y-14280993D02*
X15358782Y-14319088D01*
X15358782Y-14319088D02*
X15368306Y-14338136D01*
X15368306Y-14338136D02*
X15377829Y-14347660D01*
X15377829Y-14347660D02*
X15396877Y-14357184D01*
X15396877Y-14357184D02*
X15434972Y-14357184D01*
X15434972Y-14357184D02*
X15454020Y-14347660D01*
X15454020Y-14347660D02*
X15463544Y-14338136D01*
X15463544Y-14338136D02*
X15473067Y-14319088D01*
X15473067Y-14319088D02*
X15473067Y-14280993D01*
X15473067Y-14280993D02*
X15463544Y-14261946D01*
X15463544Y-14261946D02*
X15454020Y-14252422D01*
X15454020Y-14252422D02*
X15434972Y-14242898D01*
X15539734Y-14157184D02*
X15673067Y-14157184D01*
X15673067Y-14157184D02*
X15587353Y-14357184D01*
X15739734Y-14157184D02*
X15739734Y-14195279D01*
X15815925Y-14157184D02*
X15815925Y-14195279D01*
X16111163Y-14433374D02*
X16101639Y-14423850D01*
X16101639Y-14423850D02*
X16082591Y-14395279D01*
X16082591Y-14395279D02*
X16073068Y-14376231D01*
X16073068Y-14376231D02*
X16063544Y-14347660D01*
X16063544Y-14347660D02*
X16054020Y-14300041D01*
X16054020Y-14300041D02*
X16054020Y-14261946D01*
X16054020Y-14261946D02*
X16063544Y-14214327D01*
X16063544Y-14214327D02*
X16073068Y-14185755D01*
X16073068Y-14185755D02*
X16082591Y-14166708D01*
X16082591Y-14166708D02*
X16101639Y-14138136D01*
X16101639Y-14138136D02*
X16111163Y-14128612D01*
X16292115Y-14357184D02*
X16177829Y-14357184D01*
X16234972Y-14357184D02*
X16234972Y-14157184D01*
X16234972Y-14157184D02*
X16215925Y-14185755D01*
X16215925Y-14185755D02*
X16196877Y-14204803D01*
X16196877Y-14204803D02*
X16177829Y-14214327D01*
X16358782Y-14157184D02*
X16482591Y-14157184D01*
X16482591Y-14157184D02*
X16415925Y-14233374D01*
X16415925Y-14233374D02*
X16444496Y-14233374D01*
X16444496Y-14233374D02*
X16463544Y-14242898D01*
X16463544Y-14242898D02*
X16473068Y-14252422D01*
X16473068Y-14252422D02*
X16482591Y-14271469D01*
X16482591Y-14271469D02*
X16482591Y-14319088D01*
X16482591Y-14319088D02*
X16473068Y-14338136D01*
X16473068Y-14338136D02*
X16463544Y-14347660D01*
X16463544Y-14347660D02*
X16444496Y-14357184D01*
X16444496Y-14357184D02*
X16387353Y-14357184D01*
X16387353Y-14357184D02*
X16368306Y-14347660D01*
X16368306Y-14347660D02*
X16358782Y-14338136D01*
X16654020Y-14157184D02*
X16615925Y-14157184D01*
X16615925Y-14157184D02*
X16596877Y-14166708D01*
X16596877Y-14166708D02*
X16587353Y-14176231D01*
X16587353Y-14176231D02*
X16568306Y-14204803D01*
X16568306Y-14204803D02*
X16558782Y-14242898D01*
X16558782Y-14242898D02*
X16558782Y-14319088D01*
X16558782Y-14319088D02*
X16568306Y-14338136D01*
X16568306Y-14338136D02*
X16577829Y-14347660D01*
X16577829Y-14347660D02*
X16596877Y-14357184D01*
X16596877Y-14357184D02*
X16634972Y-14357184D01*
X16634972Y-14357184D02*
X16654020Y-14347660D01*
X16654020Y-14347660D02*
X16663544Y-14338136D01*
X16663544Y-14338136D02*
X16673068Y-14319088D01*
X16673068Y-14319088D02*
X16673068Y-14271469D01*
X16673068Y-14271469D02*
X16663544Y-14252422D01*
X16663544Y-14252422D02*
X16654020Y-14242898D01*
X16654020Y-14242898D02*
X16634972Y-14233374D01*
X16634972Y-14233374D02*
X16596877Y-14233374D01*
X16596877Y-14233374D02*
X16577829Y-14242898D01*
X16577829Y-14242898D02*
X16568306Y-14252422D01*
X16568306Y-14252422D02*
X16558782Y-14271469D01*
X16911163Y-14357184D02*
X16911163Y-14157184D01*
X16996877Y-14357184D02*
X16996877Y-14252422D01*
X16996877Y-14252422D02*
X16987353Y-14233374D01*
X16987353Y-14233374D02*
X16968306Y-14223850D01*
X16968306Y-14223850D02*
X16939734Y-14223850D01*
X16939734Y-14223850D02*
X16920687Y-14233374D01*
X16920687Y-14233374D02*
X16911163Y-14242898D01*
X17120687Y-14357184D02*
X17101639Y-14347660D01*
X17101639Y-14347660D02*
X17092115Y-14338136D01*
X17092115Y-14338136D02*
X17082592Y-14319088D01*
X17082592Y-14319088D02*
X17082592Y-14261946D01*
X17082592Y-14261946D02*
X17092115Y-14242898D01*
X17092115Y-14242898D02*
X17101639Y-14233374D01*
X17101639Y-14233374D02*
X17120687Y-14223850D01*
X17120687Y-14223850D02*
X17149258Y-14223850D01*
X17149258Y-14223850D02*
X17168306Y-14233374D01*
X17168306Y-14233374D02*
X17177830Y-14242898D01*
X17177830Y-14242898D02*
X17187353Y-14261946D01*
X17187353Y-14261946D02*
X17187353Y-14319088D01*
X17187353Y-14319088D02*
X17177830Y-14338136D01*
X17177830Y-14338136D02*
X17168306Y-14347660D01*
X17168306Y-14347660D02*
X17149258Y-14357184D01*
X17149258Y-14357184D02*
X17120687Y-14357184D01*
X17301639Y-14357184D02*
X17282592Y-14347660D01*
X17282592Y-14347660D02*
X17273068Y-14328612D01*
X17273068Y-14328612D02*
X17273068Y-14157184D01*
X17454020Y-14347660D02*
X17434973Y-14357184D01*
X17434973Y-14357184D02*
X17396877Y-14357184D01*
X17396877Y-14357184D02*
X17377830Y-14347660D01*
X17377830Y-14347660D02*
X17368306Y-14328612D01*
X17368306Y-14328612D02*
X17368306Y-14252422D01*
X17368306Y-14252422D02*
X17377830Y-14233374D01*
X17377830Y-14233374D02*
X17396877Y-14223850D01*
X17396877Y-14223850D02*
X17434973Y-14223850D01*
X17434973Y-14223850D02*
X17454020Y-14233374D01*
X17454020Y-14233374D02*
X17463544Y-14252422D01*
X17463544Y-14252422D02*
X17463544Y-14271469D01*
X17463544Y-14271469D02*
X17368306Y-14290517D01*
X17539734Y-14347660D02*
X17558782Y-14357184D01*
X17558782Y-14357184D02*
X17596877Y-14357184D01*
X17596877Y-14357184D02*
X17615925Y-14347660D01*
X17615925Y-14347660D02*
X17625449Y-14328612D01*
X17625449Y-14328612D02*
X17625449Y-14319088D01*
X17625449Y-14319088D02*
X17615925Y-14300041D01*
X17615925Y-14300041D02*
X17596877Y-14290517D01*
X17596877Y-14290517D02*
X17568306Y-14290517D01*
X17568306Y-14290517D02*
X17549258Y-14280993D01*
X17549258Y-14280993D02*
X17539734Y-14261946D01*
X17539734Y-14261946D02*
X17539734Y-14252422D01*
X17539734Y-14252422D02*
X17549258Y-14233374D01*
X17549258Y-14233374D02*
X17568306Y-14223850D01*
X17568306Y-14223850D02*
X17596877Y-14223850D01*
X17596877Y-14223850D02*
X17615925Y-14233374D01*
X17692115Y-14433374D02*
X17701639Y-14423850D01*
X17701639Y-14423850D02*
X17720687Y-14395279D01*
X17720687Y-14395279D02*
X17730211Y-14376231D01*
X17730211Y-14376231D02*
X17739734Y-14347660D01*
X17739734Y-14347660D02*
X17749258Y-14300041D01*
X17749258Y-14300041D02*
X17749258Y-14261946D01*
X17749258Y-14261946D02*
X17739734Y-14214327D01*
X17739734Y-14214327D02*
X17730211Y-14185755D01*
X17730211Y-14185755D02*
X17720687Y-14166708D01*
X17720687Y-14166708D02*
X17701639Y-14138136D01*
X17701639Y-14138136D02*
X17692115Y-14128612D01*
D12*
X12536100Y-14529700D02*
G75*
G02*
X12476100Y-14529700I-30000J0D01*
G01*
X12476100Y-14529700D02*
G75*
G02*
X12536100Y-14529700I30000J0D01*
G01*
D11*
X12834972Y-14421184D02*
X12854020Y-14421184D01*
X12854020Y-14421184D02*
X12873067Y-14430708D01*
X12873067Y-14430708D02*
X12882591Y-14440231D01*
X12882591Y-14440231D02*
X12892115Y-14459279D01*
X12892115Y-14459279D02*
X12901639Y-14497374D01*
X12901639Y-14497374D02*
X12901639Y-14544993D01*
X12901639Y-14544993D02*
X12892115Y-14583088D01*
X12892115Y-14583088D02*
X12882591Y-14602136D01*
X12882591Y-14602136D02*
X12873067Y-14611660D01*
X12873067Y-14611660D02*
X12854020Y-14621184D01*
X12854020Y-14621184D02*
X12834972Y-14621184D01*
X12834972Y-14621184D02*
X12815924Y-14611660D01*
X12815924Y-14611660D02*
X12806401Y-14602136D01*
X12806401Y-14602136D02*
X12796877Y-14583088D01*
X12796877Y-14583088D02*
X12787353Y-14544993D01*
X12787353Y-14544993D02*
X12787353Y-14497374D01*
X12787353Y-14497374D02*
X12796877Y-14459279D01*
X12796877Y-14459279D02*
X12806401Y-14440231D01*
X12806401Y-14440231D02*
X12815924Y-14430708D01*
X12815924Y-14430708D02*
X12834972Y-14421184D01*
X12987353Y-14602136D02*
X12996877Y-14611660D01*
X12996877Y-14611660D02*
X12987353Y-14621184D01*
X12987353Y-14621184D02*
X12977829Y-14611660D01*
X12977829Y-14611660D02*
X12987353Y-14602136D01*
X12987353Y-14602136D02*
X12987353Y-14621184D01*
X13168305Y-14421184D02*
X13130210Y-14421184D01*
X13130210Y-14421184D02*
X13111162Y-14430708D01*
X13111162Y-14430708D02*
X13101639Y-14440231D01*
X13101639Y-14440231D02*
X13082591Y-14468803D01*
X13082591Y-14468803D02*
X13073067Y-14506898D01*
X13073067Y-14506898D02*
X13073067Y-14583088D01*
X13073067Y-14583088D02*
X13082591Y-14602136D01*
X13082591Y-14602136D02*
X13092115Y-14611660D01*
X13092115Y-14611660D02*
X13111162Y-14621184D01*
X13111162Y-14621184D02*
X13149258Y-14621184D01*
X13149258Y-14621184D02*
X13168305Y-14611660D01*
X13168305Y-14611660D02*
X13177829Y-14602136D01*
X13177829Y-14602136D02*
X13187353Y-14583088D01*
X13187353Y-14583088D02*
X13187353Y-14535469D01*
X13187353Y-14535469D02*
X13177829Y-14516422D01*
X13177829Y-14516422D02*
X13168305Y-14506898D01*
X13168305Y-14506898D02*
X13149258Y-14497374D01*
X13149258Y-14497374D02*
X13111162Y-14497374D01*
X13111162Y-14497374D02*
X13092115Y-14506898D01*
X13092115Y-14506898D02*
X13082591Y-14516422D01*
X13082591Y-14516422D02*
X13073067Y-14535469D01*
X13311162Y-14421184D02*
X13330210Y-14421184D01*
X13330210Y-14421184D02*
X13349258Y-14430708D01*
X13349258Y-14430708D02*
X13358782Y-14440231D01*
X13358782Y-14440231D02*
X13368305Y-14459279D01*
X13368305Y-14459279D02*
X13377829Y-14497374D01*
X13377829Y-14497374D02*
X13377829Y-14544993D01*
X13377829Y-14544993D02*
X13368305Y-14583088D01*
X13368305Y-14583088D02*
X13358782Y-14602136D01*
X13358782Y-14602136D02*
X13349258Y-14611660D01*
X13349258Y-14611660D02*
X13330210Y-14621184D01*
X13330210Y-14621184D02*
X13311162Y-14621184D01*
X13311162Y-14621184D02*
X13292115Y-14611660D01*
X13292115Y-14611660D02*
X13282591Y-14602136D01*
X13282591Y-14602136D02*
X13273067Y-14583088D01*
X13273067Y-14583088D02*
X13263543Y-14544993D01*
X13263543Y-14544993D02*
X13263543Y-14497374D01*
X13263543Y-14497374D02*
X13273067Y-14459279D01*
X13273067Y-14459279D02*
X13282591Y-14440231D01*
X13282591Y-14440231D02*
X13292115Y-14430708D01*
X13292115Y-14430708D02*
X13311162Y-14421184D01*
X13501639Y-14421184D02*
X13520686Y-14421184D01*
X13520686Y-14421184D02*
X13539734Y-14430708D01*
X13539734Y-14430708D02*
X13549258Y-14440231D01*
X13549258Y-14440231D02*
X13558782Y-14459279D01*
X13558782Y-14459279D02*
X13568305Y-14497374D01*
X13568305Y-14497374D02*
X13568305Y-14544993D01*
X13568305Y-14544993D02*
X13558782Y-14583088D01*
X13558782Y-14583088D02*
X13549258Y-14602136D01*
X13549258Y-14602136D02*
X13539734Y-14611660D01*
X13539734Y-14611660D02*
X13520686Y-14621184D01*
X13520686Y-14621184D02*
X13501639Y-14621184D01*
X13501639Y-14621184D02*
X13482591Y-14611660D01*
X13482591Y-14611660D02*
X13473067Y-14602136D01*
X13473067Y-14602136D02*
X13463543Y-14583088D01*
X13463543Y-14583088D02*
X13454020Y-14544993D01*
X13454020Y-14544993D02*
X13454020Y-14497374D01*
X13454020Y-14497374D02*
X13463543Y-14459279D01*
X13463543Y-14459279D02*
X13473067Y-14440231D01*
X13473067Y-14440231D02*
X13482591Y-14430708D01*
X13482591Y-14430708D02*
X13501639Y-14421184D01*
X13654020Y-14621184D02*
X13654020Y-14487850D01*
X13654020Y-14506898D02*
X13663543Y-14497374D01*
X13663543Y-14497374D02*
X13682591Y-14487850D01*
X13682591Y-14487850D02*
X13711163Y-14487850D01*
X13711163Y-14487850D02*
X13730210Y-14497374D01*
X13730210Y-14497374D02*
X13739734Y-14516422D01*
X13739734Y-14516422D02*
X13739734Y-14621184D01*
X13739734Y-14516422D02*
X13749258Y-14497374D01*
X13749258Y-14497374D02*
X13768305Y-14487850D01*
X13768305Y-14487850D02*
X13796877Y-14487850D01*
X13796877Y-14487850D02*
X13815924Y-14497374D01*
X13815924Y-14497374D02*
X13825448Y-14516422D01*
X13825448Y-14516422D02*
X13825448Y-14621184D01*
X13920686Y-14621184D02*
X13920686Y-14487850D01*
X13920686Y-14506898D02*
X13930210Y-14497374D01*
X13930210Y-14497374D02*
X13949258Y-14487850D01*
X13949258Y-14487850D02*
X13977829Y-14487850D01*
X13977829Y-14487850D02*
X13996877Y-14497374D01*
X13996877Y-14497374D02*
X14006401Y-14516422D01*
X14006401Y-14516422D02*
X14006401Y-14621184D01*
X14006401Y-14516422D02*
X14015924Y-14497374D01*
X14015924Y-14497374D02*
X14034972Y-14487850D01*
X14034972Y-14487850D02*
X14063543Y-14487850D01*
X14063543Y-14487850D02*
X14082591Y-14497374D01*
X14082591Y-14497374D02*
X14092115Y-14516422D01*
X14092115Y-14516422D02*
X14092115Y-14621184D01*
X14482591Y-14411660D02*
X14311163Y-14668803D01*
X14739734Y-14421184D02*
X14758782Y-14421184D01*
X14758782Y-14421184D02*
X14777829Y-14430708D01*
X14777829Y-14430708D02*
X14787353Y-14440231D01*
X14787353Y-14440231D02*
X14796877Y-14459279D01*
X14796877Y-14459279D02*
X14806401Y-14497374D01*
X14806401Y-14497374D02*
X14806401Y-14544993D01*
X14806401Y-14544993D02*
X14796877Y-14583088D01*
X14796877Y-14583088D02*
X14787353Y-14602136D01*
X14787353Y-14602136D02*
X14777829Y-14611660D01*
X14777829Y-14611660D02*
X14758782Y-14621184D01*
X14758782Y-14621184D02*
X14739734Y-14621184D01*
X14739734Y-14621184D02*
X14720686Y-14611660D01*
X14720686Y-14611660D02*
X14711163Y-14602136D01*
X14711163Y-14602136D02*
X14701639Y-14583088D01*
X14701639Y-14583088D02*
X14692115Y-14544993D01*
X14692115Y-14544993D02*
X14692115Y-14497374D01*
X14692115Y-14497374D02*
X14701639Y-14459279D01*
X14701639Y-14459279D02*
X14711163Y-14440231D01*
X14711163Y-14440231D02*
X14720686Y-14430708D01*
X14720686Y-14430708D02*
X14739734Y-14421184D01*
X14892115Y-14602136D02*
X14901639Y-14611660D01*
X14901639Y-14611660D02*
X14892115Y-14621184D01*
X14892115Y-14621184D02*
X14882591Y-14611660D01*
X14882591Y-14611660D02*
X14892115Y-14602136D01*
X14892115Y-14602136D02*
X14892115Y-14621184D01*
X15025448Y-14421184D02*
X15044496Y-14421184D01*
X15044496Y-14421184D02*
X15063544Y-14430708D01*
X15063544Y-14430708D02*
X15073067Y-14440231D01*
X15073067Y-14440231D02*
X15082591Y-14459279D01*
X15082591Y-14459279D02*
X15092115Y-14497374D01*
X15092115Y-14497374D02*
X15092115Y-14544993D01*
X15092115Y-14544993D02*
X15082591Y-14583088D01*
X15082591Y-14583088D02*
X15073067Y-14602136D01*
X15073067Y-14602136D02*
X15063544Y-14611660D01*
X15063544Y-14611660D02*
X15044496Y-14621184D01*
X15044496Y-14621184D02*
X15025448Y-14621184D01*
X15025448Y-14621184D02*
X15006401Y-14611660D01*
X15006401Y-14611660D02*
X14996877Y-14602136D01*
X14996877Y-14602136D02*
X14987353Y-14583088D01*
X14987353Y-14583088D02*
X14977829Y-14544993D01*
X14977829Y-14544993D02*
X14977829Y-14497374D01*
X14977829Y-14497374D02*
X14987353Y-14459279D01*
X14987353Y-14459279D02*
X14996877Y-14440231D01*
X14996877Y-14440231D02*
X15006401Y-14430708D01*
X15006401Y-14430708D02*
X15025448Y-14421184D01*
X15168306Y-14440231D02*
X15177829Y-14430708D01*
X15177829Y-14430708D02*
X15196877Y-14421184D01*
X15196877Y-14421184D02*
X15244496Y-14421184D01*
X15244496Y-14421184D02*
X15263544Y-14430708D01*
X15263544Y-14430708D02*
X15273067Y-14440231D01*
X15273067Y-14440231D02*
X15282591Y-14459279D01*
X15282591Y-14459279D02*
X15282591Y-14478327D01*
X15282591Y-14478327D02*
X15273067Y-14506898D01*
X15273067Y-14506898D02*
X15158782Y-14621184D01*
X15158782Y-14621184D02*
X15282591Y-14621184D01*
X15349258Y-14421184D02*
X15473067Y-14421184D01*
X15473067Y-14421184D02*
X15406401Y-14497374D01*
X15406401Y-14497374D02*
X15434972Y-14497374D01*
X15434972Y-14497374D02*
X15454020Y-14506898D01*
X15454020Y-14506898D02*
X15463544Y-14516422D01*
X15463544Y-14516422D02*
X15473067Y-14535469D01*
X15473067Y-14535469D02*
X15473067Y-14583088D01*
X15473067Y-14583088D02*
X15463544Y-14602136D01*
X15463544Y-14602136D02*
X15454020Y-14611660D01*
X15454020Y-14611660D02*
X15434972Y-14621184D01*
X15434972Y-14621184D02*
X15377829Y-14621184D01*
X15377829Y-14621184D02*
X15358782Y-14611660D01*
X15358782Y-14611660D02*
X15349258Y-14602136D01*
X15644496Y-14421184D02*
X15606401Y-14421184D01*
X15606401Y-14421184D02*
X15587353Y-14430708D01*
X15587353Y-14430708D02*
X15577829Y-14440231D01*
X15577829Y-14440231D02*
X15558782Y-14468803D01*
X15558782Y-14468803D02*
X15549258Y-14506898D01*
X15549258Y-14506898D02*
X15549258Y-14583088D01*
X15549258Y-14583088D02*
X15558782Y-14602136D01*
X15558782Y-14602136D02*
X15568306Y-14611660D01*
X15568306Y-14611660D02*
X15587353Y-14621184D01*
X15587353Y-14621184D02*
X15625448Y-14621184D01*
X15625448Y-14621184D02*
X15644496Y-14611660D01*
X15644496Y-14611660D02*
X15654020Y-14602136D01*
X15654020Y-14602136D02*
X15663544Y-14583088D01*
X15663544Y-14583088D02*
X15663544Y-14535469D01*
X15663544Y-14535469D02*
X15654020Y-14516422D01*
X15654020Y-14516422D02*
X15644496Y-14506898D01*
X15644496Y-14506898D02*
X15625448Y-14497374D01*
X15625448Y-14497374D02*
X15587353Y-14497374D01*
X15587353Y-14497374D02*
X15568306Y-14506898D01*
X15568306Y-14506898D02*
X15558782Y-14516422D01*
X15558782Y-14516422D02*
X15549258Y-14535469D01*
X15739734Y-14421184D02*
X15739734Y-14459279D01*
X15815925Y-14421184D02*
X15815925Y-14459279D01*
X16111163Y-14697374D02*
X16101639Y-14687850D01*
X16101639Y-14687850D02*
X16082591Y-14659279D01*
X16082591Y-14659279D02*
X16073068Y-14640231D01*
X16073068Y-14640231D02*
X16063544Y-14611660D01*
X16063544Y-14611660D02*
X16054020Y-14564041D01*
X16054020Y-14564041D02*
X16054020Y-14525946D01*
X16054020Y-14525946D02*
X16063544Y-14478327D01*
X16063544Y-14478327D02*
X16073068Y-14449755D01*
X16073068Y-14449755D02*
X16082591Y-14430708D01*
X16082591Y-14430708D02*
X16101639Y-14402136D01*
X16101639Y-14402136D02*
X16111163Y-14392612D01*
X16225448Y-14421184D02*
X16244496Y-14421184D01*
X16244496Y-14421184D02*
X16263544Y-14430708D01*
X16263544Y-14430708D02*
X16273068Y-14440231D01*
X16273068Y-14440231D02*
X16282591Y-14459279D01*
X16282591Y-14459279D02*
X16292115Y-14497374D01*
X16292115Y-14497374D02*
X16292115Y-14544993D01*
X16292115Y-14544993D02*
X16282591Y-14583088D01*
X16282591Y-14583088D02*
X16273068Y-14602136D01*
X16273068Y-14602136D02*
X16263544Y-14611660D01*
X16263544Y-14611660D02*
X16244496Y-14621184D01*
X16244496Y-14621184D02*
X16225448Y-14621184D01*
X16225448Y-14621184D02*
X16206401Y-14611660D01*
X16206401Y-14611660D02*
X16196877Y-14602136D01*
X16196877Y-14602136D02*
X16187353Y-14583088D01*
X16187353Y-14583088D02*
X16177829Y-14544993D01*
X16177829Y-14544993D02*
X16177829Y-14497374D01*
X16177829Y-14497374D02*
X16187353Y-14459279D01*
X16187353Y-14459279D02*
X16196877Y-14440231D01*
X16196877Y-14440231D02*
X16206401Y-14430708D01*
X16206401Y-14430708D02*
X16225448Y-14421184D01*
X16530210Y-14621184D02*
X16530210Y-14421184D01*
X16615925Y-14621184D02*
X16615925Y-14516422D01*
X16615925Y-14516422D02*
X16606401Y-14497374D01*
X16606401Y-14497374D02*
X16587353Y-14487850D01*
X16587353Y-14487850D02*
X16558782Y-14487850D01*
X16558782Y-14487850D02*
X16539734Y-14497374D01*
X16539734Y-14497374D02*
X16530210Y-14506898D01*
X16739734Y-14621184D02*
X16720687Y-14611660D01*
X16720687Y-14611660D02*
X16711163Y-14602136D01*
X16711163Y-14602136D02*
X16701639Y-14583088D01*
X16701639Y-14583088D02*
X16701639Y-14525946D01*
X16701639Y-14525946D02*
X16711163Y-14506898D01*
X16711163Y-14506898D02*
X16720687Y-14497374D01*
X16720687Y-14497374D02*
X16739734Y-14487850D01*
X16739734Y-14487850D02*
X16768306Y-14487850D01*
X16768306Y-14487850D02*
X16787353Y-14497374D01*
X16787353Y-14497374D02*
X16796877Y-14506898D01*
X16796877Y-14506898D02*
X16806401Y-14525946D01*
X16806401Y-14525946D02*
X16806401Y-14583088D01*
X16806401Y-14583088D02*
X16796877Y-14602136D01*
X16796877Y-14602136D02*
X16787353Y-14611660D01*
X16787353Y-14611660D02*
X16768306Y-14621184D01*
X16768306Y-14621184D02*
X16739734Y-14621184D01*
X16920687Y-14621184D02*
X16901639Y-14611660D01*
X16901639Y-14611660D02*
X16892115Y-14592612D01*
X16892115Y-14592612D02*
X16892115Y-14421184D01*
X17073068Y-14611660D02*
X17054020Y-14621184D01*
X17054020Y-14621184D02*
X17015925Y-14621184D01*
X17015925Y-14621184D02*
X16996877Y-14611660D01*
X16996877Y-14611660D02*
X16987353Y-14592612D01*
X16987353Y-14592612D02*
X16987353Y-14516422D01*
X16987353Y-14516422D02*
X16996877Y-14497374D01*
X16996877Y-14497374D02*
X17015925Y-14487850D01*
X17015925Y-14487850D02*
X17054020Y-14487850D01*
X17054020Y-14487850D02*
X17073068Y-14497374D01*
X17073068Y-14497374D02*
X17082592Y-14516422D01*
X17082592Y-14516422D02*
X17082592Y-14535469D01*
X17082592Y-14535469D02*
X16987353Y-14554517D01*
X17158782Y-14611660D02*
X17177830Y-14621184D01*
X17177830Y-14621184D02*
X17215925Y-14621184D01*
X17215925Y-14621184D02*
X17234973Y-14611660D01*
X17234973Y-14611660D02*
X17244496Y-14592612D01*
X17244496Y-14592612D02*
X17244496Y-14583088D01*
X17244496Y-14583088D02*
X17234973Y-14564041D01*
X17234973Y-14564041D02*
X17215925Y-14554517D01*
X17215925Y-14554517D02*
X17187353Y-14554517D01*
X17187353Y-14554517D02*
X17168306Y-14544993D01*
X17168306Y-14544993D02*
X17158782Y-14525946D01*
X17158782Y-14525946D02*
X17158782Y-14516422D01*
X17158782Y-14516422D02*
X17168306Y-14497374D01*
X17168306Y-14497374D02*
X17187353Y-14487850D01*
X17187353Y-14487850D02*
X17215925Y-14487850D01*
X17215925Y-14487850D02*
X17234973Y-14497374D01*
X17482592Y-14544993D02*
X17634973Y-14544993D01*
X17558782Y-14621184D02*
X17558782Y-14468803D01*
X17968306Y-14487850D02*
X17968306Y-14621184D01*
X17920687Y-14411660D02*
X17873068Y-14554517D01*
X17873068Y-14554517D02*
X17996877Y-14554517D01*
X18215925Y-14611660D02*
X18234973Y-14621184D01*
X18234973Y-14621184D02*
X18273068Y-14621184D01*
X18273068Y-14621184D02*
X18292116Y-14611660D01*
X18292116Y-14611660D02*
X18301639Y-14592612D01*
X18301639Y-14592612D02*
X18301639Y-14583088D01*
X18301639Y-14583088D02*
X18292116Y-14564041D01*
X18292116Y-14564041D02*
X18273068Y-14554517D01*
X18273068Y-14554517D02*
X18244496Y-14554517D01*
X18244496Y-14554517D02*
X18225449Y-14544993D01*
X18225449Y-14544993D02*
X18215925Y-14525946D01*
X18215925Y-14525946D02*
X18215925Y-14516422D01*
X18215925Y-14516422D02*
X18225449Y-14497374D01*
X18225449Y-14497374D02*
X18244496Y-14487850D01*
X18244496Y-14487850D02*
X18273068Y-14487850D01*
X18273068Y-14487850D02*
X18292116Y-14497374D01*
X18415925Y-14621184D02*
X18396877Y-14611660D01*
X18396877Y-14611660D02*
X18387354Y-14592612D01*
X18387354Y-14592612D02*
X18387354Y-14421184D01*
X18520687Y-14621184D02*
X18501639Y-14611660D01*
X18501639Y-14611660D02*
X18492116Y-14602136D01*
X18492116Y-14602136D02*
X18482592Y-14583088D01*
X18482592Y-14583088D02*
X18482592Y-14525946D01*
X18482592Y-14525946D02*
X18492116Y-14506898D01*
X18492116Y-14506898D02*
X18501639Y-14497374D01*
X18501639Y-14497374D02*
X18520687Y-14487850D01*
X18520687Y-14487850D02*
X18549258Y-14487850D01*
X18549258Y-14487850D02*
X18568306Y-14497374D01*
X18568306Y-14497374D02*
X18577830Y-14506898D01*
X18577830Y-14506898D02*
X18587354Y-14525946D01*
X18587354Y-14525946D02*
X18587354Y-14583088D01*
X18587354Y-14583088D02*
X18577830Y-14602136D01*
X18577830Y-14602136D02*
X18568306Y-14611660D01*
X18568306Y-14611660D02*
X18549258Y-14621184D01*
X18549258Y-14621184D02*
X18520687Y-14621184D01*
X18644497Y-14487850D02*
X18720687Y-14487850D01*
X18673068Y-14421184D02*
X18673068Y-14592612D01*
X18673068Y-14592612D02*
X18682592Y-14611660D01*
X18682592Y-14611660D02*
X18701639Y-14621184D01*
X18701639Y-14621184D02*
X18720687Y-14621184D01*
X18777830Y-14611660D02*
X18796877Y-14621184D01*
X18796877Y-14621184D02*
X18834973Y-14621184D01*
X18834973Y-14621184D02*
X18854020Y-14611660D01*
X18854020Y-14611660D02*
X18863544Y-14592612D01*
X18863544Y-14592612D02*
X18863544Y-14583088D01*
X18863544Y-14583088D02*
X18854020Y-14564041D01*
X18854020Y-14564041D02*
X18834973Y-14554517D01*
X18834973Y-14554517D02*
X18806401Y-14554517D01*
X18806401Y-14554517D02*
X18787354Y-14544993D01*
X18787354Y-14544993D02*
X18777830Y-14525946D01*
X18777830Y-14525946D02*
X18777830Y-14516422D01*
X18777830Y-14516422D02*
X18787354Y-14497374D01*
X18787354Y-14497374D02*
X18806401Y-14487850D01*
X18806401Y-14487850D02*
X18834973Y-14487850D01*
X18834973Y-14487850D02*
X18854020Y-14497374D01*
X18930211Y-14697374D02*
X18939735Y-14687850D01*
X18939735Y-14687850D02*
X18958782Y-14659279D01*
X18958782Y-14659279D02*
X18968306Y-14640231D01*
X18968306Y-14640231D02*
X18977830Y-14611660D01*
X18977830Y-14611660D02*
X18987354Y-14564041D01*
X18987354Y-14564041D02*
X18987354Y-14525946D01*
X18987354Y-14525946D02*
X18977830Y-14478327D01*
X18977830Y-14478327D02*
X18968306Y-14449755D01*
X18968306Y-14449755D02*
X18958782Y-14430708D01*
X18958782Y-14430708D02*
X18939735Y-14402136D01*
X18939735Y-14402136D02*
X18930211Y-14392612D01*
D12*
X12486100Y-14743700D02*
X12486100Y-14843700D01*
X12436100Y-14793700D02*
X12536100Y-14793700D01*
D11*
X12901639Y-14885184D02*
X12787353Y-14885184D01*
X12844496Y-14885184D02*
X12844496Y-14685184D01*
X12844496Y-14685184D02*
X12825448Y-14713755D01*
X12825448Y-14713755D02*
X12806401Y-14732803D01*
X12806401Y-14732803D02*
X12787353Y-14742327D01*
X12987353Y-14866136D02*
X12996877Y-14875660D01*
X12996877Y-14875660D02*
X12987353Y-14885184D01*
X12987353Y-14885184D02*
X12977829Y-14875660D01*
X12977829Y-14875660D02*
X12987353Y-14866136D01*
X12987353Y-14866136D02*
X12987353Y-14885184D01*
X13120686Y-14685184D02*
X13139734Y-14685184D01*
X13139734Y-14685184D02*
X13158782Y-14694708D01*
X13158782Y-14694708D02*
X13168305Y-14704231D01*
X13168305Y-14704231D02*
X13177829Y-14723279D01*
X13177829Y-14723279D02*
X13187353Y-14761374D01*
X13187353Y-14761374D02*
X13187353Y-14808993D01*
X13187353Y-14808993D02*
X13177829Y-14847088D01*
X13177829Y-14847088D02*
X13168305Y-14866136D01*
X13168305Y-14866136D02*
X13158782Y-14875660D01*
X13158782Y-14875660D02*
X13139734Y-14885184D01*
X13139734Y-14885184D02*
X13120686Y-14885184D01*
X13120686Y-14885184D02*
X13101639Y-14875660D01*
X13101639Y-14875660D02*
X13092115Y-14866136D01*
X13092115Y-14866136D02*
X13082591Y-14847088D01*
X13082591Y-14847088D02*
X13073067Y-14808993D01*
X13073067Y-14808993D02*
X13073067Y-14761374D01*
X13073067Y-14761374D02*
X13082591Y-14723279D01*
X13082591Y-14723279D02*
X13092115Y-14704231D01*
X13092115Y-14704231D02*
X13101639Y-14694708D01*
X13101639Y-14694708D02*
X13120686Y-14685184D01*
X13311162Y-14685184D02*
X13330210Y-14685184D01*
X13330210Y-14685184D02*
X13349258Y-14694708D01*
X13349258Y-14694708D02*
X13358782Y-14704231D01*
X13358782Y-14704231D02*
X13368305Y-14723279D01*
X13368305Y-14723279D02*
X13377829Y-14761374D01*
X13377829Y-14761374D02*
X13377829Y-14808993D01*
X13377829Y-14808993D02*
X13368305Y-14847088D01*
X13368305Y-14847088D02*
X13358782Y-14866136D01*
X13358782Y-14866136D02*
X13349258Y-14875660D01*
X13349258Y-14875660D02*
X13330210Y-14885184D01*
X13330210Y-14885184D02*
X13311162Y-14885184D01*
X13311162Y-14885184D02*
X13292115Y-14875660D01*
X13292115Y-14875660D02*
X13282591Y-14866136D01*
X13282591Y-14866136D02*
X13273067Y-14847088D01*
X13273067Y-14847088D02*
X13263543Y-14808993D01*
X13263543Y-14808993D02*
X13263543Y-14761374D01*
X13263543Y-14761374D02*
X13273067Y-14723279D01*
X13273067Y-14723279D02*
X13282591Y-14704231D01*
X13282591Y-14704231D02*
X13292115Y-14694708D01*
X13292115Y-14694708D02*
X13311162Y-14685184D01*
X13501639Y-14685184D02*
X13520686Y-14685184D01*
X13520686Y-14685184D02*
X13539734Y-14694708D01*
X13539734Y-14694708D02*
X13549258Y-14704231D01*
X13549258Y-14704231D02*
X13558782Y-14723279D01*
X13558782Y-14723279D02*
X13568305Y-14761374D01*
X13568305Y-14761374D02*
X13568305Y-14808993D01*
X13568305Y-14808993D02*
X13558782Y-14847088D01*
X13558782Y-14847088D02*
X13549258Y-14866136D01*
X13549258Y-14866136D02*
X13539734Y-14875660D01*
X13539734Y-14875660D02*
X13520686Y-14885184D01*
X13520686Y-14885184D02*
X13501639Y-14885184D01*
X13501639Y-14885184D02*
X13482591Y-14875660D01*
X13482591Y-14875660D02*
X13473067Y-14866136D01*
X13473067Y-14866136D02*
X13463543Y-14847088D01*
X13463543Y-14847088D02*
X13454020Y-14808993D01*
X13454020Y-14808993D02*
X13454020Y-14761374D01*
X13454020Y-14761374D02*
X13463543Y-14723279D01*
X13463543Y-14723279D02*
X13473067Y-14704231D01*
X13473067Y-14704231D02*
X13482591Y-14694708D01*
X13482591Y-14694708D02*
X13501639Y-14685184D01*
X13654020Y-14885184D02*
X13654020Y-14751850D01*
X13654020Y-14770898D02*
X13663543Y-14761374D01*
X13663543Y-14761374D02*
X13682591Y-14751850D01*
X13682591Y-14751850D02*
X13711163Y-14751850D01*
X13711163Y-14751850D02*
X13730210Y-14761374D01*
X13730210Y-14761374D02*
X13739734Y-14780422D01*
X13739734Y-14780422D02*
X13739734Y-14885184D01*
X13739734Y-14780422D02*
X13749258Y-14761374D01*
X13749258Y-14761374D02*
X13768305Y-14751850D01*
X13768305Y-14751850D02*
X13796877Y-14751850D01*
X13796877Y-14751850D02*
X13815924Y-14761374D01*
X13815924Y-14761374D02*
X13825448Y-14780422D01*
X13825448Y-14780422D02*
X13825448Y-14885184D01*
X13920686Y-14885184D02*
X13920686Y-14751850D01*
X13920686Y-14770898D02*
X13930210Y-14761374D01*
X13930210Y-14761374D02*
X13949258Y-14751850D01*
X13949258Y-14751850D02*
X13977829Y-14751850D01*
X13977829Y-14751850D02*
X13996877Y-14761374D01*
X13996877Y-14761374D02*
X14006401Y-14780422D01*
X14006401Y-14780422D02*
X14006401Y-14885184D01*
X14006401Y-14780422D02*
X14015924Y-14761374D01*
X14015924Y-14761374D02*
X14034972Y-14751850D01*
X14034972Y-14751850D02*
X14063543Y-14751850D01*
X14063543Y-14751850D02*
X14082591Y-14761374D01*
X14082591Y-14761374D02*
X14092115Y-14780422D01*
X14092115Y-14780422D02*
X14092115Y-14885184D01*
X14482591Y-14675660D02*
X14311163Y-14932803D01*
X14739734Y-14685184D02*
X14758782Y-14685184D01*
X14758782Y-14685184D02*
X14777829Y-14694708D01*
X14777829Y-14694708D02*
X14787353Y-14704231D01*
X14787353Y-14704231D02*
X14796877Y-14723279D01*
X14796877Y-14723279D02*
X14806401Y-14761374D01*
X14806401Y-14761374D02*
X14806401Y-14808993D01*
X14806401Y-14808993D02*
X14796877Y-14847088D01*
X14796877Y-14847088D02*
X14787353Y-14866136D01*
X14787353Y-14866136D02*
X14777829Y-14875660D01*
X14777829Y-14875660D02*
X14758782Y-14885184D01*
X14758782Y-14885184D02*
X14739734Y-14885184D01*
X14739734Y-14885184D02*
X14720686Y-14875660D01*
X14720686Y-14875660D02*
X14711163Y-14866136D01*
X14711163Y-14866136D02*
X14701639Y-14847088D01*
X14701639Y-14847088D02*
X14692115Y-14808993D01*
X14692115Y-14808993D02*
X14692115Y-14761374D01*
X14692115Y-14761374D02*
X14701639Y-14723279D01*
X14701639Y-14723279D02*
X14711163Y-14704231D01*
X14711163Y-14704231D02*
X14720686Y-14694708D01*
X14720686Y-14694708D02*
X14739734Y-14685184D01*
X14892115Y-14866136D02*
X14901639Y-14875660D01*
X14901639Y-14875660D02*
X14892115Y-14885184D01*
X14892115Y-14885184D02*
X14882591Y-14875660D01*
X14882591Y-14875660D02*
X14892115Y-14866136D01*
X14892115Y-14866136D02*
X14892115Y-14885184D01*
X15025448Y-14685184D02*
X15044496Y-14685184D01*
X15044496Y-14685184D02*
X15063544Y-14694708D01*
X15063544Y-14694708D02*
X15073067Y-14704231D01*
X15073067Y-14704231D02*
X15082591Y-14723279D01*
X15082591Y-14723279D02*
X15092115Y-14761374D01*
X15092115Y-14761374D02*
X15092115Y-14808993D01*
X15092115Y-14808993D02*
X15082591Y-14847088D01*
X15082591Y-14847088D02*
X15073067Y-14866136D01*
X15073067Y-14866136D02*
X15063544Y-14875660D01*
X15063544Y-14875660D02*
X15044496Y-14885184D01*
X15044496Y-14885184D02*
X15025448Y-14885184D01*
X15025448Y-14885184D02*
X15006401Y-14875660D01*
X15006401Y-14875660D02*
X14996877Y-14866136D01*
X14996877Y-14866136D02*
X14987353Y-14847088D01*
X14987353Y-14847088D02*
X14977829Y-14808993D01*
X14977829Y-14808993D02*
X14977829Y-14761374D01*
X14977829Y-14761374D02*
X14987353Y-14723279D01*
X14987353Y-14723279D02*
X14996877Y-14704231D01*
X14996877Y-14704231D02*
X15006401Y-14694708D01*
X15006401Y-14694708D02*
X15025448Y-14685184D01*
X15158782Y-14685184D02*
X15282591Y-14685184D01*
X15282591Y-14685184D02*
X15215925Y-14761374D01*
X15215925Y-14761374D02*
X15244496Y-14761374D01*
X15244496Y-14761374D02*
X15263544Y-14770898D01*
X15263544Y-14770898D02*
X15273067Y-14780422D01*
X15273067Y-14780422D02*
X15282591Y-14799469D01*
X15282591Y-14799469D02*
X15282591Y-14847088D01*
X15282591Y-14847088D02*
X15273067Y-14866136D01*
X15273067Y-14866136D02*
X15263544Y-14875660D01*
X15263544Y-14875660D02*
X15244496Y-14885184D01*
X15244496Y-14885184D02*
X15187353Y-14885184D01*
X15187353Y-14885184D02*
X15168306Y-14875660D01*
X15168306Y-14875660D02*
X15158782Y-14866136D01*
X15377829Y-14885184D02*
X15415925Y-14885184D01*
X15415925Y-14885184D02*
X15434972Y-14875660D01*
X15434972Y-14875660D02*
X15444496Y-14866136D01*
X15444496Y-14866136D02*
X15463544Y-14837565D01*
X15463544Y-14837565D02*
X15473067Y-14799469D01*
X15473067Y-14799469D02*
X15473067Y-14723279D01*
X15473067Y-14723279D02*
X15463544Y-14704231D01*
X15463544Y-14704231D02*
X15454020Y-14694708D01*
X15454020Y-14694708D02*
X15434972Y-14685184D01*
X15434972Y-14685184D02*
X15396877Y-14685184D01*
X15396877Y-14685184D02*
X15377829Y-14694708D01*
X15377829Y-14694708D02*
X15368306Y-14704231D01*
X15368306Y-14704231D02*
X15358782Y-14723279D01*
X15358782Y-14723279D02*
X15358782Y-14770898D01*
X15358782Y-14770898D02*
X15368306Y-14789946D01*
X15368306Y-14789946D02*
X15377829Y-14799469D01*
X15377829Y-14799469D02*
X15396877Y-14808993D01*
X15396877Y-14808993D02*
X15434972Y-14808993D01*
X15434972Y-14808993D02*
X15454020Y-14799469D01*
X15454020Y-14799469D02*
X15463544Y-14789946D01*
X15463544Y-14789946D02*
X15473067Y-14770898D01*
X15644496Y-14751850D02*
X15644496Y-14885184D01*
X15596877Y-14675660D02*
X15549258Y-14818517D01*
X15549258Y-14818517D02*
X15673067Y-14818517D01*
X15739734Y-14685184D02*
X15739734Y-14723279D01*
X15815925Y-14685184D02*
X15815925Y-14723279D01*
X16111163Y-14961374D02*
X16101639Y-14951850D01*
X16101639Y-14951850D02*
X16082591Y-14923279D01*
X16082591Y-14923279D02*
X16073068Y-14904231D01*
X16073068Y-14904231D02*
X16063544Y-14875660D01*
X16063544Y-14875660D02*
X16054020Y-14828041D01*
X16054020Y-14828041D02*
X16054020Y-14789946D01*
X16054020Y-14789946D02*
X16063544Y-14742327D01*
X16063544Y-14742327D02*
X16073068Y-14713755D01*
X16073068Y-14713755D02*
X16082591Y-14694708D01*
X16082591Y-14694708D02*
X16101639Y-14666136D01*
X16101639Y-14666136D02*
X16111163Y-14656612D01*
X16168306Y-14685184D02*
X16292115Y-14685184D01*
X16292115Y-14685184D02*
X16225448Y-14761374D01*
X16225448Y-14761374D02*
X16254020Y-14761374D01*
X16254020Y-14761374D02*
X16273068Y-14770898D01*
X16273068Y-14770898D02*
X16282591Y-14780422D01*
X16282591Y-14780422D02*
X16292115Y-14799469D01*
X16292115Y-14799469D02*
X16292115Y-14847088D01*
X16292115Y-14847088D02*
X16282591Y-14866136D01*
X16282591Y-14866136D02*
X16273068Y-14875660D01*
X16273068Y-14875660D02*
X16254020Y-14885184D01*
X16254020Y-14885184D02*
X16196877Y-14885184D01*
X16196877Y-14885184D02*
X16177829Y-14875660D01*
X16177829Y-14875660D02*
X16168306Y-14866136D01*
X16406401Y-14770898D02*
X16387353Y-14761374D01*
X16387353Y-14761374D02*
X16377829Y-14751850D01*
X16377829Y-14751850D02*
X16368306Y-14732803D01*
X16368306Y-14732803D02*
X16368306Y-14723279D01*
X16368306Y-14723279D02*
X16377829Y-14704231D01*
X16377829Y-14704231D02*
X16387353Y-14694708D01*
X16387353Y-14694708D02*
X16406401Y-14685184D01*
X16406401Y-14685184D02*
X16444496Y-14685184D01*
X16444496Y-14685184D02*
X16463544Y-14694708D01*
X16463544Y-14694708D02*
X16473068Y-14704231D01*
X16473068Y-14704231D02*
X16482591Y-14723279D01*
X16482591Y-14723279D02*
X16482591Y-14732803D01*
X16482591Y-14732803D02*
X16473068Y-14751850D01*
X16473068Y-14751850D02*
X16463544Y-14761374D01*
X16463544Y-14761374D02*
X16444496Y-14770898D01*
X16444496Y-14770898D02*
X16406401Y-14770898D01*
X16406401Y-14770898D02*
X16387353Y-14780422D01*
X16387353Y-14780422D02*
X16377829Y-14789946D01*
X16377829Y-14789946D02*
X16368306Y-14808993D01*
X16368306Y-14808993D02*
X16368306Y-14847088D01*
X16368306Y-14847088D02*
X16377829Y-14866136D01*
X16377829Y-14866136D02*
X16387353Y-14875660D01*
X16387353Y-14875660D02*
X16406401Y-14885184D01*
X16406401Y-14885184D02*
X16444496Y-14885184D01*
X16444496Y-14885184D02*
X16463544Y-14875660D01*
X16463544Y-14875660D02*
X16473068Y-14866136D01*
X16473068Y-14866136D02*
X16482591Y-14847088D01*
X16482591Y-14847088D02*
X16482591Y-14808993D01*
X16482591Y-14808993D02*
X16473068Y-14789946D01*
X16473068Y-14789946D02*
X16463544Y-14780422D01*
X16463544Y-14780422D02*
X16444496Y-14770898D01*
X16720687Y-14885184D02*
X16720687Y-14685184D01*
X16806401Y-14885184D02*
X16806401Y-14780422D01*
X16806401Y-14780422D02*
X16796877Y-14761374D01*
X16796877Y-14761374D02*
X16777830Y-14751850D01*
X16777830Y-14751850D02*
X16749258Y-14751850D01*
X16749258Y-14751850D02*
X16730210Y-14761374D01*
X16730210Y-14761374D02*
X16720687Y-14770898D01*
X16930211Y-14885184D02*
X16911163Y-14875660D01*
X16911163Y-14875660D02*
X16901639Y-14866136D01*
X16901639Y-14866136D02*
X16892115Y-14847088D01*
X16892115Y-14847088D02*
X16892115Y-14789946D01*
X16892115Y-14789946D02*
X16901639Y-14770898D01*
X16901639Y-14770898D02*
X16911163Y-14761374D01*
X16911163Y-14761374D02*
X16930211Y-14751850D01*
X16930211Y-14751850D02*
X16958782Y-14751850D01*
X16958782Y-14751850D02*
X16977830Y-14761374D01*
X16977830Y-14761374D02*
X16987353Y-14770898D01*
X16987353Y-14770898D02*
X16996877Y-14789946D01*
X16996877Y-14789946D02*
X16996877Y-14847088D01*
X16996877Y-14847088D02*
X16987353Y-14866136D01*
X16987353Y-14866136D02*
X16977830Y-14875660D01*
X16977830Y-14875660D02*
X16958782Y-14885184D01*
X16958782Y-14885184D02*
X16930211Y-14885184D01*
X17111163Y-14885184D02*
X17092115Y-14875660D01*
X17092115Y-14875660D02*
X17082592Y-14856612D01*
X17082592Y-14856612D02*
X17082592Y-14685184D01*
X17263544Y-14875660D02*
X17244496Y-14885184D01*
X17244496Y-14885184D02*
X17206401Y-14885184D01*
X17206401Y-14885184D02*
X17187353Y-14875660D01*
X17187353Y-14875660D02*
X17177830Y-14856612D01*
X17177830Y-14856612D02*
X17177830Y-14780422D01*
X17177830Y-14780422D02*
X17187353Y-14761374D01*
X17187353Y-14761374D02*
X17206401Y-14751850D01*
X17206401Y-14751850D02*
X17244496Y-14751850D01*
X17244496Y-14751850D02*
X17263544Y-14761374D01*
X17263544Y-14761374D02*
X17273068Y-14780422D01*
X17273068Y-14780422D02*
X17273068Y-14799469D01*
X17273068Y-14799469D02*
X17177830Y-14818517D01*
X17349258Y-14875660D02*
X17368306Y-14885184D01*
X17368306Y-14885184D02*
X17406401Y-14885184D01*
X17406401Y-14885184D02*
X17425449Y-14875660D01*
X17425449Y-14875660D02*
X17434973Y-14856612D01*
X17434973Y-14856612D02*
X17434973Y-14847088D01*
X17434973Y-14847088D02*
X17425449Y-14828041D01*
X17425449Y-14828041D02*
X17406401Y-14818517D01*
X17406401Y-14818517D02*
X17377830Y-14818517D01*
X17377830Y-14818517D02*
X17358782Y-14808993D01*
X17358782Y-14808993D02*
X17349258Y-14789946D01*
X17349258Y-14789946D02*
X17349258Y-14780422D01*
X17349258Y-14780422D02*
X17358782Y-14761374D01*
X17358782Y-14761374D02*
X17377830Y-14751850D01*
X17377830Y-14751850D02*
X17406401Y-14751850D01*
X17406401Y-14751850D02*
X17425449Y-14761374D01*
X17501639Y-14961374D02*
X17511163Y-14951850D01*
X17511163Y-14951850D02*
X17530211Y-14923279D01*
X17530211Y-14923279D02*
X17539734Y-14904231D01*
X17539734Y-14904231D02*
X17549258Y-14875660D01*
X17549258Y-14875660D02*
X17558782Y-14828041D01*
X17558782Y-14828041D02*
X17558782Y-14789946D01*
X17558782Y-14789946D02*
X17549258Y-14742327D01*
X17549258Y-14742327D02*
X17539734Y-14713755D01*
X17539734Y-14713755D02*
X17530211Y-14694708D01*
X17530211Y-14694708D02*
X17511163Y-14666136D01*
X17511163Y-14666136D02*
X17501639Y-14656612D01*
M02*
