%TF.GenerationSoftware,KiCad,Pcbnew,9.0.0*%
%TF.CreationDate,2025-11-24T16:37:30+00:00*%
%TF.ProjectId,OE PyBoard,4f452050-7942-46f6-9172-642e6b696361,rev?*%
%TF.SameCoordinates,Original*%
%TF.FileFunction,Copper,L4,Bot*%
%TF.FilePolarity,Positive*%
%FSLAX46Y46*%
G04 Gerber Fmt 4.6, Leading zero omitted, Abs format (unit mm)*
G04 Created by KiCad (PCBNEW 9.0.0) date 2025-11-24 16:37:30*
%MOMM*%
%LPD*%
G01*
G04 APERTURE LIST*
G04 Aperture macros list*
%AMFreePoly0*
4,1,23,0.500000,-0.750000,0.000000,-0.750000,0.000000,-0.745722,-0.065263,-0.745722,-0.191342,-0.711940,-0.304381,-0.646677,-0.396677,-0.554381,-0.461940,-0.441342,-0.495722,-0.315263,-0.495722,-0.250000,-0.500000,-0.250000,-0.500000,0.250000,-0.495722,0.250000,-0.495722,0.315263,-0.461940,0.441342,-0.396677,0.554381,-0.304381,0.646677,-0.191342,0.711940,-0.065263,0.745722,0.000000,0.745722,
0.000000,0.750000,0.500000,0.750000,0.500000,-0.750000,0.500000,-0.750000,$1*%
%AMFreePoly1*
4,1,23,0.000000,0.745722,0.065263,0.745722,0.191342,0.711940,0.304381,0.646677,0.396677,0.554381,0.461940,0.441342,0.495722,0.315263,0.495722,0.250000,0.500000,0.250000,0.500000,-0.250000,0.495722,-0.250000,0.495722,-0.315263,0.461940,-0.441342,0.396677,-0.554381,0.304381,-0.646677,0.191342,-0.711940,0.065263,-0.745722,0.000000,-0.745722,0.000000,-0.750000,-0.500000,-0.750000,
-0.500000,0.750000,0.000000,0.750000,0.000000,0.745722,0.000000,0.745722,$1*%
G04 Aperture macros list end*
%TA.AperFunction,HeatsinkPad*%
%ADD10O,1.000000X2.100000*%
%TD*%
%TA.AperFunction,HeatsinkPad*%
%ADD11O,1.000000X1.800000*%
%TD*%
%TA.AperFunction,ComponentPad*%
%ADD12R,1.700000X1.700000*%
%TD*%
%TA.AperFunction,ComponentPad*%
%ADD13C,1.700000*%
%TD*%
%TA.AperFunction,SMDPad,CuDef*%
%ADD14FreePoly0,0.000000*%
%TD*%
%TA.AperFunction,SMDPad,CuDef*%
%ADD15FreePoly1,0.000000*%
%TD*%
%TA.AperFunction,ViaPad*%
%ADD16C,0.550000*%
%TD*%
%TA.AperFunction,Conductor*%
%ADD17C,0.220000*%
%TD*%
%TA.AperFunction,Conductor*%
%ADD18C,0.230000*%
%TD*%
%TA.AperFunction,Conductor*%
%ADD19C,0.700000*%
%TD*%
%TA.AperFunction,Conductor*%
%ADD20C,0.250000*%
%TD*%
%TA.AperFunction,Conductor*%
%ADD21C,0.450000*%
%TD*%
%TA.AperFunction,Conductor*%
%ADD22C,0.400000*%
%TD*%
%TA.AperFunction,Profile*%
%ADD23C,0.230000*%
%TD*%
G04 APERTURE END LIST*
D10*
%TO.P,J3,S1,SHIELD*%
%TO.N,Net-(J3-SHIELD)*%
X146814000Y-101111000D03*
D11*
X146814000Y-96931000D03*
D10*
X138174000Y-101111000D03*
D11*
X138174000Y-96931000D03*
%TD*%
D12*
%TO.P,J6,1,Pin_1*%
%TO.N,/PC6-Y1*%
X128016000Y-96012000D03*
D13*
%TO.P,J6,2,Pin_2*%
%TO.N,/PC7-Y2*%
X128016000Y-98552000D03*
%TO.P,J6,3,Pin_3*%
%TO.N,/PB8-Y3*%
X128016000Y-101092000D03*
%TO.P,J6,4,Pin_4*%
%TO.N,/PB9-Y4*%
X128016000Y-103632000D03*
%TO.P,J6,5,Pin_5*%
%TO.N,/PB12-Y5*%
X128016000Y-106172000D03*
%TO.P,J6,6,Pin_6*%
%TO.N,/PB13-Y6*%
X128016000Y-108712000D03*
%TO.P,J6,7,Pin_7*%
%TO.N,/PB14-Y7*%
X128016000Y-111252000D03*
%TO.P,J6,8,Pin_8*%
%TO.N,/PB15-Y8*%
X128016000Y-113792000D03*
%TO.P,J6,9,Pin_9*%
%TO.N,/PB6-SCL-X9*%
X128016000Y-116332000D03*
%TO.P,J6,10,Pin_10*%
%TO.N,/PB7-SDA-X10*%
X128016000Y-118872000D03*
%TO.P,J6,11,Pin_11*%
%TO.N,/PC4-X11*%
X128016000Y-121412000D03*
%TO.P,J6,12,Pin_12*%
%TO.N,/PC5-X12*%
X128016000Y-123952000D03*
%TO.P,J6,13,Pin_13*%
%TO.N,/RST-SW*%
X128016000Y-126492000D03*
%TO.P,J6,14,Pin_14*%
%TO.N,GND*%
X128016000Y-129032000D03*
%TO.P,J6,15,Pin_15*%
%TO.N,+3V3*%
X128016000Y-131572000D03*
%TO.P,J6,16,Pin_16*%
%TO.N,V+*%
X128016000Y-134112000D03*
%TD*%
D12*
%TO.P,JP1,1,A*%
%TO.N,/BOOT0*%
X150469600Y-110002400D03*
D13*
%TO.P,JP1,2,B*%
%TO.N,+3V3*%
X150469600Y-112542400D03*
%TD*%
D12*
%TO.P,J7,1,Pin_1*%
%TO.N,V+*%
X155956000Y-96012000D03*
D13*
%TO.P,J7,2,Pin_2*%
%TO.N,+3V3*%
X155956000Y-98552000D03*
%TO.P,J7,3,Pin_3*%
%TO.N,GND*%
X155956000Y-101092000D03*
%TO.P,J7,4,Pin_4*%
%TO.N,/RST-SW*%
X155956000Y-103632000D03*
%TO.P,J7,5,Pin_5*%
%TO.N,/PB1-Y12*%
X155956000Y-106172000D03*
%TO.P,J7,6,Pin_6*%
%TO.N,/PB0-Y11*%
X155956000Y-108712000D03*
%TO.P,J7,7,Pin_7*%
%TO.N,/PB11-Y10*%
X155956000Y-111252000D03*
%TO.P,J7,8,Pin_8*%
%TO.N,/PB10-Y9*%
X155956000Y-113792000D03*
%TO.P,J7,9,Pin_9*%
%TO.N,/PA7-X8*%
X155956000Y-116332000D03*
%TO.P,J7,10,Pin_10*%
%TO.N,/PA6-X7*%
X155956000Y-118872000D03*
%TO.P,J7,11,Pin_11*%
%TO.N,/PA5-X6*%
X155956000Y-121412000D03*
%TO.P,J7,12,Pin_12*%
%TO.N,/PA4-X5*%
X155956000Y-123952000D03*
%TO.P,J7,13,Pin_13*%
%TO.N,/PA3-X4*%
X155956000Y-126492000D03*
%TO.P,J7,14,Pin_14*%
%TO.N,/PA2-X3*%
X155956000Y-129032000D03*
%TO.P,J7,15,Pin_15*%
%TO.N,/PA1-X2*%
X155956000Y-131572000D03*
%TO.P,J7,16,Pin_16*%
%TO.N,/PA0-X1*%
X155956000Y-134112000D03*
%TD*%
D14*
%TO.P,JP2,1,A*%
%TO.N,VBUS*%
X150480000Y-97739200D03*
D15*
%TO.P,JP2,2,B*%
%TO.N,V+*%
X151780000Y-97739200D03*
%TD*%
D16*
%TO.N,/PB12-Y5*%
X146202400Y-109423200D03*
%TO.N,/PB14-Y7*%
X144471660Y-111529424D03*
%TO.N,/PB1-Y12*%
X145542000Y-105664000D03*
X145871000Y-120267000D03*
%TO.N,/PB9-Y4*%
X135450000Y-106100000D03*
X137637104Y-125007000D03*
%TO.N,/PA0-X1*%
X147173400Y-130006015D03*
%TO.N,/PB13-Y6*%
X144830800Y-110871000D03*
%TO.N,/PB7-SDA-X10*%
X134366000Y-123507000D03*
%TO.N,/PB11-Y10*%
X154559000Y-117856000D03*
X149315961Y-119320493D03*
%TO.N,/PA1-X2*%
X147675600Y-129387600D03*
%TO.N,/PC4-X11*%
X146177000Y-122807000D03*
%TO.N,/PC6-Y1*%
X143764000Y-115314000D03*
%TO.N,/PB15-Y8*%
X143764000Y-118489000D03*
%TO.N,/PA2-X3*%
X146862800Y-128752600D03*
%TO.N,/PB0-Y11*%
X154432000Y-119126000D03*
X146081750Y-121124250D03*
%TO.N,/VDDA*%
X147116800Y-104902000D03*
X146583400Y-130886200D03*
%TO.N,/PB6-SCL-X9*%
X132885431Y-121061573D03*
%TO.N,/PC5-X12*%
X144975000Y-124203025D03*
%TO.N,/RST-SW*%
X154555563Y-106807000D03*
X139827000Y-108585000D03*
X140589000Y-126111000D03*
X133575000Y-108700000D03*
%TO.N,/PB8-Y3*%
X136339022Y-102889106D03*
X138354428Y-124788025D03*
%TO.N,/PC7-Y2*%
X141478000Y-98552000D03*
X142240000Y-115187000D03*
%TO.N,/PB10-Y9*%
X149273885Y-120228716D03*
X149860000Y-114046000D03*
%TO.N,GND*%
X131706510Y-121062966D03*
X141478000Y-96647000D03*
X143875000Y-106850000D03*
X139573000Y-123317000D03*
X129540000Y-112014000D03*
X139600000Y-125175000D03*
X144780000Y-108686600D03*
X144575000Y-118850000D03*
X151700000Y-115500000D03*
X135350000Y-110286000D03*
X154500000Y-127600000D03*
X147370800Y-134518400D03*
X144018000Y-114147600D03*
X139827000Y-103124000D03*
X130246000Y-128250000D03*
X149961600Y-102717600D03*
X143175000Y-107550000D03*
X129425000Y-107625000D03*
X129540000Y-104902000D03*
X145900000Y-125025000D03*
X151275000Y-126925000D03*
X145973800Y-103200200D03*
X143950000Y-123300000D03*
X146177000Y-118872000D03*
X132125000Y-112050000D03*
X140843000Y-107823000D03*
X153162000Y-112649000D03*
X153873200Y-107696000D03*
X151393912Y-104421942D03*
X143611600Y-112039400D03*
X129540000Y-117983000D03*
X131815548Y-124458000D03*
X151765000Y-124942600D03*
X147675600Y-103657400D03*
X132050000Y-101250000D03*
X154672166Y-123624277D03*
X153150000Y-116650000D03*
X139725000Y-121725000D03*
X141925000Y-125175000D03*
X135636000Y-114427000D03*
X138430000Y-107315000D03*
X146405600Y-110998000D03*
X135255000Y-116459000D03*
X143459200Y-98602800D03*
X144175000Y-120225000D03*
X150774681Y-122263533D03*
X141700000Y-120225000D03*
X154482800Y-125577600D03*
X132000000Y-134475000D03*
X148996000Y-100000000D03*
X135001000Y-119634000D03*
X144256583Y-95235447D03*
X130950000Y-99650000D03*
X146354800Y-108229400D03*
X129794000Y-125250000D03*
X143950000Y-121625000D03*
X145161000Y-132613400D03*
X134493000Y-125222000D03*
X148700000Y-95500000D03*
X129050000Y-102325000D03*
X130200400Y-132232400D03*
X148082000Y-107264200D03*
X132025000Y-106675000D03*
X141986000Y-129284000D03*
X139827000Y-105410000D03*
X137972800Y-125704600D03*
X136375000Y-97325000D03*
X138404600Y-131165600D03*
X130048000Y-114681000D03*
X137033000Y-128522000D03*
X132125000Y-97850000D03*
X138850000Y-134475000D03*
X154432000Y-134620000D03*
X139575000Y-120225000D03*
X151257000Y-131064000D03*
X135600000Y-105125000D03*
X141700000Y-123300000D03*
%TO.N,+3V3*%
X134848600Y-127506000D03*
X136294720Y-112312720D03*
X149860000Y-125855000D03*
X134945832Y-118616000D03*
X151842000Y-120142000D03*
X134442200Y-133604000D03*
X152400000Y-102743000D03*
X141224000Y-111885000D03*
X152400000Y-114808000D03*
X136334500Y-117475000D03*
X152374600Y-102031800D03*
X146825000Y-133361000D03*
X136334500Y-115187000D03*
%TO.N,VBUS*%
X148049066Y-98153134D03*
X148049066Y-99334043D03*
%TO.N,/BOOT0*%
X138154063Y-123469592D03*
X138277600Y-110159800D03*
%TO.N,/PA13-RED*%
X148183600Y-117449600D03*
X148971000Y-128320000D03*
X139236000Y-117678200D03*
%TO.N,/PA14-GRN*%
X142800000Y-119049000D03*
X138526000Y-119049000D03*
X147701000Y-127635000D03*
X143675000Y-125425000D03*
%TO.N,/PA15-YEL*%
X152019000Y-126525000D03*
X151689988Y-118547201D03*
X151625000Y-122250000D03*
X138430000Y-119888000D03*
%TO.N,/PB4-BLU*%
X152675000Y-121750000D03*
X153200000Y-126525000D03*
X138500000Y-121225000D03*
%TO.N,/PB3-SW1*%
X134316000Y-120788666D03*
X135589234Y-102871150D03*
%TD*%
D17*
%TO.N,/PB1-Y12*%
X145542000Y-105664000D02*
X145542000Y-119938000D01*
X145542000Y-119938000D02*
X145871000Y-120267000D01*
%TO.N,/PB9-Y4*%
X137637104Y-124998895D02*
X137637104Y-125007000D01*
X135600000Y-106261000D02*
X136993000Y-107654000D01*
X136993000Y-124354791D02*
X137637104Y-124998895D01*
X136993000Y-107654000D02*
X136993000Y-124354791D01*
X135450000Y-106100000D02*
X135600000Y-106250000D01*
X135600000Y-106250000D02*
X135600000Y-106261000D01*
%TO.N,/PB7-SDA-X10*%
X134366000Y-123507000D02*
X133731000Y-122872000D01*
X133731000Y-119634000D02*
X132967000Y-118870000D01*
X132967000Y-118870000D02*
X128016000Y-118870000D01*
X133731000Y-122872000D02*
X133731000Y-119634000D01*
%TO.N,/PC6-Y1*%
X142367000Y-113917000D02*
X142367000Y-95885000D01*
X131824000Y-95504000D02*
X131318000Y-96010000D01*
X141986000Y-95504000D02*
X131824000Y-95504000D01*
X142367000Y-95885000D02*
X141986000Y-95504000D01*
X143764000Y-115314000D02*
X142367000Y-113917000D01*
X131318000Y-96010000D02*
X128016000Y-96010000D01*
D18*
%TO.N,/PB0-Y11*%
X153902531Y-110003469D02*
X155196000Y-108710000D01*
X153902531Y-118596531D02*
X153902531Y-110003469D01*
X155196000Y-108710000D02*
X155956000Y-108710000D01*
X154432000Y-119126000D02*
X153902531Y-118596531D01*
%TO.N,/VDDA*%
X146227800Y-130530600D02*
X146583400Y-130886200D01*
X147142200Y-126187200D02*
X146227800Y-127101600D01*
X146227800Y-127101600D02*
X146227800Y-130530600D01*
X147116800Y-104902000D02*
X147116800Y-104927400D01*
X147142200Y-104952800D02*
X147142200Y-126187200D01*
X147116800Y-104927400D02*
X147142200Y-104952800D01*
D17*
%TO.N,/RST-SW*%
X140589000Y-110538000D02*
X140589000Y-126111000D01*
X139827000Y-109776000D02*
X140589000Y-110538000D01*
X139827000Y-108585000D02*
X139827000Y-109776000D01*
%TO.N,/PB8-Y3*%
X138354428Y-124788025D02*
X138354428Y-124765428D01*
X136339022Y-102889106D02*
X136339022Y-105998830D01*
X138354428Y-124765428D02*
X137569063Y-123980063D01*
X137569063Y-123980063D02*
X137569063Y-107228871D01*
X137569063Y-107228871D02*
X136339022Y-105998830D01*
%TO.N,/PC7-Y2*%
X141859000Y-114806000D02*
X142240000Y-115187000D01*
X141478000Y-98552000D02*
X141859000Y-98933000D01*
X141859000Y-98933000D02*
X141859000Y-114806000D01*
D19*
%TO.N,V+*%
X151780000Y-97739200D02*
X152931974Y-97739200D01*
X154659174Y-96012000D02*
X155956000Y-96012000D01*
X152931974Y-97739200D02*
X154659174Y-96012000D01*
D20*
%TO.N,+3V3*%
X134848600Y-127506000D02*
X134848600Y-133197600D01*
D21*
X152400000Y-111556800D02*
X152400000Y-101600000D01*
D17*
X150469600Y-112542400D02*
X152354200Y-112542400D01*
D21*
X149860000Y-132967000D02*
X149466000Y-133361000D01*
X149466000Y-133361000D02*
X146825000Y-133361000D01*
X149860000Y-126236000D02*
X149860000Y-132967000D01*
D20*
X136334500Y-126020100D02*
X136334500Y-115187000D01*
D21*
X152400000Y-119584000D02*
X151842000Y-120142000D01*
D20*
X134848600Y-133197600D02*
X134442200Y-133604000D01*
X134848600Y-127506000D02*
X136334500Y-126020100D01*
D17*
X136294720Y-115147220D02*
X136334500Y-115187000D01*
D21*
X152400000Y-101600000D02*
X155450000Y-98550000D01*
X152400000Y-111556800D02*
X152400000Y-112496600D01*
D17*
X136294720Y-112312720D02*
X136294720Y-115147220D01*
D21*
X152400000Y-112496600D02*
X152400000Y-119584000D01*
X149860000Y-122124000D02*
X149860000Y-126236000D01*
D17*
X152354200Y-112542400D02*
X152400000Y-112496600D01*
D21*
X151842000Y-120142000D02*
X149860000Y-122124000D01*
X155450000Y-98550000D02*
X155956000Y-98550000D01*
X149860000Y-125855000D02*
X149860000Y-126236000D01*
D19*
%TO.N,VBUS*%
X148049066Y-99334043D02*
X148049066Y-98132281D01*
X148049066Y-98132281D02*
X148442147Y-97739200D01*
X148442147Y-97739200D02*
X150480000Y-97739200D01*
D22*
%TO.N,Net-(J3-SHIELD)*%
X146814000Y-101111000D02*
X146814000Y-96931000D01*
X138174000Y-101111000D02*
X138174000Y-96931000D01*
D18*
%TO.N,/PA13-RED*%
X148971000Y-121971000D02*
X148183600Y-121183600D01*
X148971000Y-128320000D02*
X148971000Y-121971000D01*
X148183600Y-121183600D02*
X148183600Y-117449600D01*
D17*
%TO.N,/PA15-YEL*%
X152100000Y-122250000D02*
X152374600Y-122524600D01*
X151625000Y-122250000D02*
X152100000Y-122250000D01*
X152374600Y-126169400D02*
X152019000Y-126525000D01*
X152374600Y-122524600D02*
X152374600Y-126169400D01*
D18*
%TO.N,/PB4-BLU*%
X152958800Y-122033800D02*
X152675000Y-121750000D01*
X153200000Y-126525000D02*
X152958800Y-126283800D01*
X152958800Y-126283800D02*
X152958800Y-122033800D01*
D17*
%TO.N,/PB3-SW1*%
X134316000Y-104144384D02*
X135589234Y-102871150D01*
X134316000Y-120788666D02*
X134316000Y-104144384D01*
%TD*%
%TA.AperFunction,Conductor*%
%TO.N,GND*%
G36*
X155405992Y-94633817D02*
G01*
X155445588Y-94688317D01*
X155450915Y-94720646D01*
X155451915Y-94801146D01*
X155431895Y-94865468D01*
X155377891Y-94905739D01*
X155342923Y-94911500D01*
X155081326Y-94911500D01*
X155008260Y-94926034D01*
X154925399Y-94981399D01*
X154870034Y-95064260D01*
X154855500Y-95137326D01*
X154855500Y-95137327D01*
X154855500Y-95137329D01*
X154855500Y-95302500D01*
X154850165Y-95318919D01*
X154850165Y-95336183D01*
X154840017Y-95350149D01*
X154834683Y-95366569D01*
X154820716Y-95376716D01*
X154810569Y-95390683D01*
X154794149Y-95396017D01*
X154780183Y-95406165D01*
X154746500Y-95411500D01*
X154744924Y-95411500D01*
X154744908Y-95411499D01*
X154738232Y-95411499D01*
X154580117Y-95411499D01*
X154580115Y-95411499D01*
X154427389Y-95452423D01*
X154290460Y-95531478D01*
X152715164Y-97106775D01*
X152707327Y-97110767D01*
X152702158Y-97117883D01*
X152677882Y-97125770D01*
X152655140Y-97137358D01*
X152638089Y-97138700D01*
X152512946Y-97138700D01*
X152448877Y-97117883D01*
X152418549Y-97084200D01*
X152401369Y-97054443D01*
X152360765Y-97001527D01*
X152267673Y-96908435D01*
X152267671Y-96908433D01*
X152214760Y-96867832D01*
X152100747Y-96802007D01*
X152100745Y-96802006D01*
X152100743Y-96802005D01*
X152039123Y-96776481D01*
X151911956Y-96742406D01*
X151911951Y-96742405D01*
X151911953Y-96742405D01*
X151880279Y-96738235D01*
X151845826Y-96733700D01*
X151280000Y-96733700D01*
X151182224Y-96753149D01*
X151182219Y-96753150D01*
X151172305Y-96757257D01*
X151170630Y-96753213D01*
X151125607Y-96765861D01*
X151089051Y-96753983D01*
X151087695Y-96757257D01*
X151077780Y-96753150D01*
X151077776Y-96753149D01*
X150980000Y-96733700D01*
X150414174Y-96733700D01*
X150379720Y-96738235D01*
X150348047Y-96742405D01*
X150220877Y-96776481D01*
X150159252Y-96802007D01*
X150045239Y-96867832D01*
X149992328Y-96908433D01*
X149899233Y-97001528D01*
X149858633Y-97054439D01*
X149841451Y-97084200D01*
X149791389Y-97129276D01*
X149747054Y-97138700D01*
X148363088Y-97138700D01*
X148322166Y-97149664D01*
X148322166Y-97149665D01*
X148266264Y-97164644D01*
X148210362Y-97179623D01*
X148073430Y-97258679D01*
X147961626Y-97370483D01*
X147961627Y-97370484D01*
X147961625Y-97370486D01*
X147961624Y-97370486D01*
X147728522Y-97603587D01*
X147668499Y-97634170D01*
X147601963Y-97623632D01*
X147554328Y-97575997D01*
X147543790Y-97509460D01*
X147544543Y-97505247D01*
X147564499Y-97404923D01*
X147564500Y-97404915D01*
X147564500Y-96457085D01*
X147564500Y-96457082D01*
X147535658Y-96312087D01*
X147479084Y-96175505D01*
X147396951Y-96052584D01*
X147292416Y-95948049D01*
X147280096Y-95939817D01*
X147169496Y-95865916D01*
X147169491Y-95865914D01*
X147032915Y-95809343D01*
X147032916Y-95809343D01*
X147032913Y-95809342D01*
X146887918Y-95780500D01*
X146740082Y-95780500D01*
X146595087Y-95809342D01*
X146595085Y-95809342D01*
X146595084Y-95809343D01*
X146458508Y-95865914D01*
X146458503Y-95865916D01*
X146335586Y-95948047D01*
X146231047Y-96052586D01*
X146148916Y-96175503D01*
X146148914Y-96175508D01*
X146092343Y-96312084D01*
X146092342Y-96312087D01*
X146063500Y-96457082D01*
X146063500Y-97404918D01*
X146092342Y-97549913D01*
X146092343Y-97549915D01*
X146148914Y-97686491D01*
X146148916Y-97686496D01*
X146166348Y-97712584D01*
X146231049Y-97809416D01*
X146331576Y-97909943D01*
X146362158Y-97969965D01*
X146363500Y-97987016D01*
X146363500Y-99904984D01*
X146342683Y-99969053D01*
X146331580Y-99982052D01*
X146231049Y-100082584D01*
X146231047Y-100082586D01*
X146148916Y-100205503D01*
X146148914Y-100205508D01*
X146092343Y-100342084D01*
X146092339Y-100342096D01*
X146082626Y-100390928D01*
X146049710Y-100449704D01*
X145988532Y-100477907D01*
X145922461Y-100464764D01*
X145876733Y-100415295D01*
X145875019Y-100411376D01*
X145873689Y-100408167D01*
X145873688Y-100408166D01*
X145873688Y-100408164D01*
X145804505Y-100288335D01*
X145706665Y-100190495D01*
X145706662Y-100190493D01*
X145586835Y-100121311D01*
X145453183Y-100085500D01*
X145314817Y-100085500D01*
X145181164Y-100121311D01*
X145061337Y-100190493D01*
X144963493Y-100288337D01*
X144894311Y-100408164D01*
X144858500Y-100541817D01*
X144858500Y-100680182D01*
X144894311Y-100813835D01*
X144963493Y-100933662D01*
X144963495Y-100933665D01*
X145061335Y-101031505D01*
X145181164Y-101100688D01*
X145314817Y-101136500D01*
X145453183Y-101136500D01*
X145586836Y-101100688D01*
X145706665Y-101031505D01*
X145804505Y-100933665D01*
X145860103Y-100837365D01*
X145910165Y-100792289D01*
X145977162Y-100785247D01*
X146035502Y-100818929D01*
X146062903Y-100880471D01*
X146063500Y-100891865D01*
X146063500Y-101734918D01*
X146092342Y-101879913D01*
X146092343Y-101879915D01*
X146148914Y-102016491D01*
X146148916Y-102016496D01*
X146230493Y-102138585D01*
X146231049Y-102139416D01*
X146335584Y-102243951D01*
X146386406Y-102277909D01*
X146458503Y-102326083D01*
X146458504Y-102326083D01*
X146458505Y-102326084D01*
X146595087Y-102382658D01*
X146740082Y-102411500D01*
X146740086Y-102411500D01*
X146887914Y-102411500D01*
X146887918Y-102411500D01*
X147032913Y-102382658D01*
X147169495Y-102326084D01*
X147292416Y-102243951D01*
X147396951Y-102139416D01*
X147479084Y-102016495D01*
X147535658Y-101879913D01*
X147564500Y-101734918D01*
X147564500Y-100487082D01*
X147535658Y-100342087D01*
X147479084Y-100205505D01*
X147469053Y-100190493D01*
X147396952Y-100082586D01*
X147396951Y-100082584D01*
X147296423Y-99982056D01*
X147265842Y-99922035D01*
X147264500Y-99904984D01*
X147264500Y-99554093D01*
X147285317Y-99490024D01*
X147339817Y-99450428D01*
X147407183Y-99450428D01*
X147461683Y-99490024D01*
X147478786Y-99525882D01*
X147489488Y-99565826D01*
X147489489Y-99565827D01*
X147568546Y-99702759D01*
X147680350Y-99814563D01*
X147817282Y-99893620D01*
X147970009Y-99934543D01*
X148128123Y-99934543D01*
X148280850Y-99893620D01*
X148417782Y-99814563D01*
X148529586Y-99702759D01*
X148608643Y-99565827D01*
X148649566Y-99413100D01*
X148649566Y-98448700D01*
X148670383Y-98384631D01*
X148724883Y-98345035D01*
X148758566Y-98339700D01*
X149747054Y-98339700D01*
X149811123Y-98360517D01*
X149841450Y-98394199D01*
X149858631Y-98423957D01*
X149858633Y-98423960D01*
X149899233Y-98476871D01*
X149992328Y-98569966D01*
X150045239Y-98610567D01*
X150063625Y-98621182D01*
X150159257Y-98676395D01*
X150220877Y-98701919D01*
X150348044Y-98735994D01*
X150414174Y-98744700D01*
X150414179Y-98744700D01*
X150979996Y-98744700D01*
X150980000Y-98744700D01*
X151077776Y-98725251D01*
X151077778Y-98725249D01*
X151077781Y-98725249D01*
X151087698Y-98721142D01*
X151089381Y-98725207D01*
X151134182Y-98712529D01*
X151170924Y-98724467D01*
X151172302Y-98721142D01*
X151182218Y-98725249D01*
X151182222Y-98725249D01*
X151182224Y-98725251D01*
X151280000Y-98744700D01*
X151280003Y-98744700D01*
X151845821Y-98744700D01*
X151845826Y-98744700D01*
X151911956Y-98735994D01*
X152039123Y-98701919D01*
X152100743Y-98676395D01*
X152214757Y-98610569D01*
X152267673Y-98569965D01*
X152360765Y-98476873D01*
X152401369Y-98423957D01*
X152418549Y-98394199D01*
X152468611Y-98349124D01*
X152512946Y-98339700D01*
X152846225Y-98339700D01*
X152846241Y-98339701D01*
X152852917Y-98339701D01*
X153011029Y-98339701D01*
X153011031Y-98339701D01*
X153163759Y-98298777D01*
X153213873Y-98269842D01*
X153213877Y-98269840D01*
X153239668Y-98254949D01*
X153300690Y-98219720D01*
X153412494Y-98107916D01*
X153412494Y-98107914D01*
X153421463Y-98098946D01*
X153421466Y-98098941D01*
X154674511Y-96845897D01*
X154734534Y-96815315D01*
X154801070Y-96825853D01*
X154848705Y-96873488D01*
X154858490Y-96901708D01*
X154868937Y-96954225D01*
X154870034Y-96959740D01*
X154925399Y-97042601D01*
X155008260Y-97097966D01*
X155081326Y-97112500D01*
X155081330Y-97112500D01*
X155372972Y-97112500D01*
X155437041Y-97133317D01*
X155476637Y-97187817D01*
X155481964Y-97220146D01*
X155485298Y-97488560D01*
X155465278Y-97552882D01*
X155425793Y-97587033D01*
X155379211Y-97610768D01*
X155239074Y-97712584D01*
X155116584Y-97835074D01*
X155014765Y-97975216D01*
X155014763Y-97975219D01*
X155011329Y-97981959D01*
X155011284Y-97982048D01*
X154980738Y-98042000D01*
X154940000Y-98042000D01*
X154940000Y-98121953D01*
X154936127Y-98129555D01*
X154932205Y-98141623D01*
X154932203Y-98141629D01*
X154882598Y-98294294D01*
X154859788Y-98438312D01*
X154829205Y-98498335D01*
X152108036Y-101219505D01*
X152019503Y-101308037D01*
X151956905Y-101416461D01*
X151924500Y-101537397D01*
X151924500Y-101731188D01*
X151909897Y-101785687D01*
X151884912Y-101828961D01*
X151884912Y-101828963D01*
X151884912Y-101828964D01*
X151849100Y-101962617D01*
X151849100Y-102100983D01*
X151873700Y-102192791D01*
X151884912Y-102234636D01*
X151884911Y-102234636D01*
X151909896Y-102277909D01*
X151924500Y-102332410D01*
X151924500Y-102486383D01*
X151911977Y-102533124D01*
X151913045Y-102533567D01*
X151910311Y-102540166D01*
X151874500Y-102673817D01*
X151874500Y-102812183D01*
X151899570Y-102905745D01*
X151910312Y-102945836D01*
X151913046Y-102952437D01*
X151911975Y-102952880D01*
X151924500Y-102999616D01*
X151924500Y-112072900D01*
X151903683Y-112136969D01*
X151849183Y-112176565D01*
X151815500Y-112181900D01*
X151587831Y-112181900D01*
X151523762Y-112161083D01*
X151490711Y-112122384D01*
X151410836Y-111965619D01*
X151410834Y-111965616D01*
X151410832Y-111965612D01*
X151309014Y-111825472D01*
X151186528Y-111702986D01*
X151046388Y-111601168D01*
X151046385Y-111601166D01*
X151046383Y-111601165D01*
X151046380Y-111601163D01*
X150892043Y-111522526D01*
X150727304Y-111468998D01*
X150727305Y-111468998D01*
X150556212Y-111441900D01*
X150556211Y-111441900D01*
X150382989Y-111441900D01*
X150382987Y-111441900D01*
X150211895Y-111468998D01*
X150047156Y-111522526D01*
X149892819Y-111601163D01*
X149892816Y-111601165D01*
X149752674Y-111702984D01*
X149630184Y-111825474D01*
X149528365Y-111965616D01*
X149528363Y-111965619D01*
X149449726Y-112119956D01*
X149396198Y-112284695D01*
X149369100Y-112455787D01*
X149369100Y-112629012D01*
X149396198Y-112800104D01*
X149449726Y-112964843D01*
X149528363Y-113119180D01*
X149528365Y-113119183D01*
X149528368Y-113119188D01*
X149630186Y-113259328D01*
X149736615Y-113365757D01*
X149767197Y-113425779D01*
X149756659Y-113492315D01*
X149709024Y-113539950D01*
X149687751Y-113548116D01*
X149657163Y-113556312D01*
X149537337Y-113625493D01*
X149439493Y-113723337D01*
X149370311Y-113843164D01*
X149334500Y-113976817D01*
X149334500Y-114115182D01*
X149370311Y-114248835D01*
X149370312Y-114248836D01*
X149439495Y-114368665D01*
X149537335Y-114466505D01*
X149657164Y-114535688D01*
X149790817Y-114571500D01*
X149929183Y-114571500D01*
X150062836Y-114535688D01*
X150182665Y-114466505D01*
X150280505Y-114368665D01*
X150349688Y-114248836D01*
X150385500Y-114115183D01*
X150385500Y-113976817D01*
X150349688Y-113843164D01*
X150328461Y-113806398D01*
X150314456Y-113740507D01*
X150341856Y-113678965D01*
X150400196Y-113645282D01*
X150422859Y-113642900D01*
X150556210Y-113642900D01*
X150556211Y-113642900D01*
X150727301Y-113615802D01*
X150892045Y-113562273D01*
X151046388Y-113483632D01*
X151186528Y-113381814D01*
X151309014Y-113259328D01*
X151410832Y-113119188D01*
X151433310Y-113075072D01*
X151490711Y-112962416D01*
X151538345Y-112914781D01*
X151587831Y-112902900D01*
X151815500Y-112902900D01*
X151879569Y-112923717D01*
X151919165Y-112978217D01*
X151924500Y-113011900D01*
X151924500Y-114551383D01*
X151911977Y-114598124D01*
X151913045Y-114598567D01*
X151910311Y-114605166D01*
X151874500Y-114738817D01*
X151874500Y-114877182D01*
X151910312Y-115010836D01*
X151913046Y-115017437D01*
X151911975Y-115017880D01*
X151924500Y-115064616D01*
X151924500Y-117923949D01*
X151903683Y-117988018D01*
X151849183Y-118027614D01*
X151787290Y-118029235D01*
X151759172Y-118021701D01*
X151759171Y-118021701D01*
X151620805Y-118021701D01*
X151487152Y-118057512D01*
X151367325Y-118126694D01*
X151269481Y-118224538D01*
X151200299Y-118344365D01*
X151167200Y-118467898D01*
X151164488Y-118478018D01*
X151164488Y-118616384D01*
X151169828Y-118636312D01*
X151200299Y-118750036D01*
X151269481Y-118869863D01*
X151269483Y-118869866D01*
X151367323Y-118967706D01*
X151487152Y-119036889D01*
X151620805Y-119072701D01*
X151759172Y-119072701D01*
X151770702Y-119069611D01*
X151787288Y-119065167D01*
X151818213Y-119066787D01*
X151849183Y-119066787D01*
X151851589Y-119068535D01*
X151854560Y-119068691D01*
X151878622Y-119088175D01*
X151903683Y-119106383D01*
X151904602Y-119109213D01*
X151906914Y-119111085D01*
X151924500Y-119170452D01*
X151924500Y-119341891D01*
X151903683Y-119405960D01*
X151892574Y-119418966D01*
X151687223Y-119624316D01*
X151645319Y-119648512D01*
X151645761Y-119649579D01*
X151639167Y-119652309D01*
X151519337Y-119721493D01*
X151421493Y-119819337D01*
X151352309Y-119939167D01*
X151349579Y-119945761D01*
X151348512Y-119945319D01*
X151324316Y-119987223D01*
X149568036Y-121743505D01*
X149566142Y-121745398D01*
X149564963Y-121746578D01*
X149479505Y-121832036D01*
X149479443Y-121832143D01*
X149474310Y-121837279D01*
X149450297Y-121849522D01*
X149428071Y-121864766D01*
X149420787Y-121864568D01*
X149414294Y-121867879D01*
X149387670Y-121863669D01*
X149360730Y-121862938D01*
X149354952Y-121858496D01*
X149347755Y-121857358D01*
X149328692Y-121838304D01*
X149307325Y-121821876D01*
X149302818Y-121814725D01*
X149263473Y-121746578D01*
X149195422Y-121678526D01*
X149195422Y-121678527D01*
X148581025Y-121064130D01*
X148550442Y-121004106D01*
X148549100Y-120987055D01*
X148549100Y-120382094D01*
X148569917Y-120318025D01*
X148624417Y-120278429D01*
X148691783Y-120278429D01*
X148746283Y-120318025D01*
X148763385Y-120353881D01*
X148768225Y-120371943D01*
X148784196Y-120431551D01*
X148806300Y-120469836D01*
X148853380Y-120551381D01*
X148951220Y-120649221D01*
X149071049Y-120718404D01*
X149204702Y-120754216D01*
X149343068Y-120754216D01*
X149476721Y-120718404D01*
X149596550Y-120649221D01*
X149694390Y-120551381D01*
X149763573Y-120431552D01*
X149799385Y-120297899D01*
X149799385Y-120159533D01*
X149763573Y-120025880D01*
X149694390Y-119906051D01*
X149661053Y-119872714D01*
X149630472Y-119812693D01*
X149641010Y-119746157D01*
X149661053Y-119718570D01*
X149736466Y-119643158D01*
X149805649Y-119523329D01*
X149841461Y-119389676D01*
X149841461Y-119251310D01*
X149805649Y-119117657D01*
X149736466Y-118997828D01*
X149638626Y-118899988D01*
X149638623Y-118899986D01*
X149518796Y-118830804D01*
X149385144Y-118794993D01*
X149246778Y-118794993D01*
X149113125Y-118830804D01*
X148993298Y-118899986D01*
X148895454Y-118997830D01*
X148826272Y-119117657D01*
X148790461Y-119251310D01*
X148790461Y-119389675D01*
X148826272Y-119523328D01*
X148884579Y-119624319D01*
X148895456Y-119643158D01*
X148928791Y-119676493D01*
X148959373Y-119736515D01*
X148948835Y-119803051D01*
X148928790Y-119830640D01*
X148853379Y-119906050D01*
X148784196Y-120025880D01*
X148763386Y-120103548D01*
X148726696Y-120160046D01*
X148663805Y-120184188D01*
X148598735Y-120166752D01*
X148556340Y-120114399D01*
X148549100Y-120075337D01*
X148549100Y-117872419D01*
X148569917Y-117808350D01*
X148581019Y-117795350D01*
X148604105Y-117772265D01*
X148673288Y-117652436D01*
X148709100Y-117518783D01*
X148709100Y-117380417D01*
X148673288Y-117246764D01*
X148604105Y-117126935D01*
X148506265Y-117029095D01*
X148506262Y-117029093D01*
X148386435Y-116959911D01*
X148252783Y-116924100D01*
X148114417Y-116924100D01*
X147980764Y-116959911D01*
X147860937Y-117029093D01*
X147763093Y-117126937D01*
X147711097Y-117216998D01*
X147661034Y-117262074D01*
X147594038Y-117269116D01*
X147535697Y-117235433D01*
X147508297Y-117173892D01*
X147507700Y-117162498D01*
X147507700Y-109127726D01*
X149369100Y-109127726D01*
X149369100Y-110877074D01*
X149383634Y-110950140D01*
X149438999Y-111033001D01*
X149521860Y-111088366D01*
X149594926Y-111102900D01*
X149594930Y-111102900D01*
X151344270Y-111102900D01*
X151344274Y-111102900D01*
X151417340Y-111088366D01*
X151500201Y-111033001D01*
X151555566Y-110950140D01*
X151570100Y-110877074D01*
X151570100Y-109127726D01*
X151555566Y-109054660D01*
X151500201Y-108971799D01*
X151417340Y-108916434D01*
X151344274Y-108901900D01*
X149594926Y-108901900D01*
X149521860Y-108916434D01*
X149438999Y-108971799D01*
X149383634Y-109054660D01*
X149369100Y-109127726D01*
X147507700Y-109127726D01*
X147507700Y-105299419D01*
X147528517Y-105235350D01*
X147534317Y-105228558D01*
X147537300Y-105224669D01*
X147537305Y-105224665D01*
X147606488Y-105104836D01*
X147642300Y-104971183D01*
X147642300Y-104832817D01*
X147606488Y-104699164D01*
X147537305Y-104579335D01*
X147439465Y-104481495D01*
X147439462Y-104481493D01*
X147319635Y-104412311D01*
X147185983Y-104376500D01*
X147047617Y-104376500D01*
X146913964Y-104412311D01*
X146794137Y-104481493D01*
X146696293Y-104579337D01*
X146627111Y-104699164D01*
X146591300Y-104832817D01*
X146591300Y-104971182D01*
X146627111Y-105104835D01*
X146696293Y-105224662D01*
X146696295Y-105224665D01*
X146744776Y-105273146D01*
X146775358Y-105333168D01*
X146776700Y-105350219D01*
X146776700Y-108991181D01*
X146755883Y-109055250D01*
X146701383Y-109094846D01*
X146634017Y-109094846D01*
X146590627Y-109068257D01*
X146525065Y-109002695D01*
X146525062Y-109002693D01*
X146405235Y-108933511D01*
X146271583Y-108897700D01*
X146133217Y-108897700D01*
X146133216Y-108897700D01*
X146039710Y-108922754D01*
X145972437Y-108919228D01*
X145920084Y-108876833D01*
X145902500Y-108817468D01*
X145902500Y-106091819D01*
X145923317Y-106027750D01*
X145934419Y-106014750D01*
X145962505Y-105986665D01*
X146031688Y-105866836D01*
X146067500Y-105733183D01*
X146067500Y-105594817D01*
X146031688Y-105461164D01*
X145962505Y-105341335D01*
X145864665Y-105243495D01*
X145864662Y-105243493D01*
X145744835Y-105174311D01*
X145611183Y-105138500D01*
X145472817Y-105138500D01*
X145339164Y-105174311D01*
X145219337Y-105243493D01*
X145121493Y-105341337D01*
X145052311Y-105461164D01*
X145016500Y-105594817D01*
X145016500Y-105733182D01*
X145052311Y-105866835D01*
X145101117Y-105951369D01*
X145121495Y-105986665D01*
X145149576Y-106014746D01*
X145180158Y-106074768D01*
X145181500Y-106091819D01*
X145181500Y-110279429D01*
X145160683Y-110343498D01*
X145106183Y-110383094D01*
X145040555Y-110383094D01*
X145040537Y-110383161D01*
X145040287Y-110383094D01*
X145038817Y-110383094D01*
X145034914Y-110381654D01*
X144899983Y-110345500D01*
X144761617Y-110345500D01*
X144627964Y-110381311D01*
X144508137Y-110450493D01*
X144410293Y-110548337D01*
X144341111Y-110668164D01*
X144305300Y-110801817D01*
X144305300Y-110940189D01*
X144305398Y-110940935D01*
X144305300Y-110941463D01*
X144305300Y-110947327D01*
X144304213Y-110947327D01*
X144293114Y-111007171D01*
X144251829Y-111049547D01*
X144148997Y-111108917D01*
X144051153Y-111206761D01*
X143981971Y-111326588D01*
X143961901Y-111401494D01*
X143946160Y-111460241D01*
X143946160Y-111598607D01*
X143946846Y-111601168D01*
X143981971Y-111732259D01*
X144035789Y-111825474D01*
X144051155Y-111852089D01*
X144148995Y-111949929D01*
X144268824Y-112019112D01*
X144402477Y-112054924D01*
X144540843Y-112054924D01*
X144674496Y-112019112D01*
X144794325Y-111949929D01*
X144892165Y-111852089D01*
X144961348Y-111732260D01*
X144967214Y-111710368D01*
X145003903Y-111653870D01*
X145066794Y-111629727D01*
X145131865Y-111647162D01*
X145174260Y-111699515D01*
X145181500Y-111738578D01*
X145181500Y-119985460D01*
X145206067Y-120077148D01*
X145206066Y-120077148D01*
X145221309Y-120103548D01*
X145253528Y-120159352D01*
X145313576Y-120219400D01*
X145344158Y-120279422D01*
X145345500Y-120296473D01*
X145345500Y-120336182D01*
X145381311Y-120469835D01*
X145440634Y-120572586D01*
X145450495Y-120589665D01*
X145548335Y-120687505D01*
X145569111Y-120699500D01*
X145588018Y-120710416D01*
X145633094Y-120760479D01*
X145640136Y-120827475D01*
X145627915Y-120859312D01*
X145592062Y-120921411D01*
X145592062Y-120921413D01*
X145556250Y-121055067D01*
X145556250Y-121193432D01*
X145592061Y-121327085D01*
X145661243Y-121446912D01*
X145661245Y-121446915D01*
X145759085Y-121544755D01*
X145878914Y-121613938D01*
X146012567Y-121649750D01*
X146150933Y-121649750D01*
X146284586Y-121613938D01*
X146404415Y-121544755D01*
X146502255Y-121446915D01*
X146571438Y-121327086D01*
X146571438Y-121327084D01*
X146573303Y-121323855D01*
X146623365Y-121278779D01*
X146690362Y-121271737D01*
X146748702Y-121305419D01*
X146776103Y-121366961D01*
X146776700Y-121378355D01*
X146776700Y-122400381D01*
X146755883Y-122464450D01*
X146701383Y-122504046D01*
X146634017Y-122504046D01*
X146590627Y-122477457D01*
X146499665Y-122386495D01*
X146464354Y-122366108D01*
X146379835Y-122317311D01*
X146246183Y-122281500D01*
X146107817Y-122281500D01*
X145974164Y-122317311D01*
X145854337Y-122386493D01*
X145756493Y-122484337D01*
X145687311Y-122604164D01*
X145651500Y-122737817D01*
X145651500Y-122876182D01*
X145687311Y-123009835D01*
X145756493Y-123129662D01*
X145756495Y-123129665D01*
X145854335Y-123227505D01*
X145974164Y-123296688D01*
X146107817Y-123332500D01*
X146246183Y-123332500D01*
X146379836Y-123296688D01*
X146499665Y-123227505D01*
X146590627Y-123136542D01*
X146650649Y-123105961D01*
X146717185Y-123116499D01*
X146764820Y-123164134D01*
X146776700Y-123213619D01*
X146776700Y-125990655D01*
X146755883Y-126054724D01*
X146744775Y-126067730D01*
X146003378Y-126809127D01*
X146003377Y-126809126D01*
X145935326Y-126877178D01*
X145887207Y-126960522D01*
X145862300Y-127053481D01*
X145862300Y-130578718D01*
X145887207Y-130671677D01*
X145893300Y-130682230D01*
X145935327Y-130755022D01*
X146025976Y-130845671D01*
X146056558Y-130905693D01*
X146057900Y-130922744D01*
X146057900Y-130955382D01*
X146093711Y-131089035D01*
X146131250Y-131154054D01*
X146162895Y-131208865D01*
X146260735Y-131306705D01*
X146380564Y-131375888D01*
X146514217Y-131411700D01*
X146652583Y-131411700D01*
X146786236Y-131375888D01*
X146906065Y-131306705D01*
X147003905Y-131208865D01*
X147073088Y-131089036D01*
X147108900Y-130955383D01*
X147108900Y-130817017D01*
X147073088Y-130683364D01*
X147073085Y-130683358D01*
X147072618Y-130682230D01*
X147072548Y-130681351D01*
X147071239Y-130676463D01*
X147072144Y-130676220D01*
X147067331Y-130615072D01*
X147102528Y-130557633D01*
X147164765Y-130531851D01*
X147173320Y-130531515D01*
X147242583Y-130531515D01*
X147376236Y-130495703D01*
X147496065Y-130426520D01*
X147593905Y-130328680D01*
X147663088Y-130208851D01*
X147698900Y-130075198D01*
X147698900Y-130009032D01*
X147719717Y-129944963D01*
X147774217Y-129905367D01*
X147779663Y-129903753D01*
X147878436Y-129877288D01*
X147998265Y-129808105D01*
X148096105Y-129710265D01*
X148165288Y-129590436D01*
X148201100Y-129456783D01*
X148201100Y-129318417D01*
X148165288Y-129184764D01*
X148096105Y-129064935D01*
X147998265Y-128967095D01*
X147960669Y-128945389D01*
X147878435Y-128897911D01*
X147744783Y-128862100D01*
X147606417Y-128862100D01*
X147606416Y-128862100D01*
X147525510Y-128883778D01*
X147458237Y-128880252D01*
X147405884Y-128837857D01*
X147388300Y-128778492D01*
X147388300Y-128683417D01*
X147352488Y-128549764D01*
X147298050Y-128455474D01*
X147283305Y-128429935D01*
X147185465Y-128332095D01*
X147185462Y-128332093D01*
X147065635Y-128262911D01*
X146931983Y-128227100D01*
X146793617Y-128227100D01*
X146730511Y-128244009D01*
X146663237Y-128240483D01*
X146610885Y-128198088D01*
X146593300Y-128138723D01*
X146593300Y-127565817D01*
X147175500Y-127565817D01*
X147175500Y-127704183D01*
X147176747Y-127708836D01*
X147211311Y-127837835D01*
X147245574Y-127897180D01*
X147280495Y-127957665D01*
X147378335Y-128055505D01*
X147498164Y-128124688D01*
X147631817Y-128160500D01*
X147770183Y-128160500D01*
X147903836Y-128124688D01*
X148023665Y-128055505D01*
X148121505Y-127957665D01*
X148190688Y-127837836D01*
X148226500Y-127704183D01*
X148226500Y-127565817D01*
X148190688Y-127432164D01*
X148121505Y-127312335D01*
X148023665Y-127214495D01*
X147969698Y-127183337D01*
X147903835Y-127145311D01*
X147770183Y-127109500D01*
X147631817Y-127109500D01*
X147498164Y-127145311D01*
X147378337Y-127214493D01*
X147280493Y-127312337D01*
X147211311Y-127432164D01*
X147198598Y-127479612D01*
X147175500Y-127565817D01*
X146593300Y-127565817D01*
X146593300Y-127298144D01*
X146614117Y-127234075D01*
X146625219Y-127221075D01*
X147434673Y-126411622D01*
X147482792Y-126328278D01*
X147507700Y-126235319D01*
X147507700Y-126139081D01*
X147507700Y-117736701D01*
X147508238Y-117735042D01*
X147507751Y-117733368D01*
X147518598Y-117703157D01*
X147528517Y-117672632D01*
X147529927Y-117671607D01*
X147530517Y-117669966D01*
X147557056Y-117651896D01*
X147583017Y-117633036D01*
X147584760Y-117633036D01*
X147586202Y-117632054D01*
X147618301Y-117633036D01*
X147650383Y-117633036D01*
X147651793Y-117634060D01*
X147653537Y-117634114D01*
X147664680Y-117643423D01*
X147704883Y-117672632D01*
X147706800Y-117675358D01*
X147709076Y-117678701D01*
X147763095Y-117772265D01*
X147793427Y-117802597D01*
X147799200Y-117811076D01*
X147805894Y-117834046D01*
X147816758Y-117855368D01*
X147818100Y-117872419D01*
X147818100Y-121231718D01*
X147843007Y-121324677D01*
X147877393Y-121384235D01*
X147891127Y-121408022D01*
X148573576Y-122090471D01*
X148604158Y-122150493D01*
X148605500Y-122167544D01*
X148605500Y-127897180D01*
X148584683Y-127961249D01*
X148573576Y-127974253D01*
X148550495Y-127997334D01*
X148481311Y-128117164D01*
X148445500Y-128250817D01*
X148445500Y-128389182D01*
X148481311Y-128522835D01*
X148544280Y-128631901D01*
X148550495Y-128642665D01*
X148648335Y-128740505D01*
X148768164Y-128809688D01*
X148901817Y-128845500D01*
X149040183Y-128845500D01*
X149173836Y-128809688D01*
X149221000Y-128782457D01*
X149286892Y-128768451D01*
X149348434Y-128795850D01*
X149382118Y-128854190D01*
X149384500Y-128876854D01*
X149384500Y-132724891D01*
X149381782Y-132733255D01*
X149383158Y-132741942D01*
X149371570Y-132764684D01*
X149363683Y-132788960D01*
X149352575Y-132801966D01*
X149300966Y-132853575D01*
X149240942Y-132884158D01*
X149223891Y-132885500D01*
X147081617Y-132885500D01*
X147034880Y-132872976D01*
X147034437Y-132874046D01*
X147027836Y-132871312D01*
X146894183Y-132835500D01*
X146755817Y-132835500D01*
X146622164Y-132871311D01*
X146502337Y-132940493D01*
X146404493Y-133038337D01*
X146335311Y-133158164D01*
X146299500Y-133291817D01*
X146299500Y-133430182D01*
X146335311Y-133563835D01*
X146404493Y-133683662D01*
X146404495Y-133683665D01*
X146502335Y-133781505D01*
X146622164Y-133850688D01*
X146755817Y-133886500D01*
X146894183Y-133886500D01*
X147027836Y-133850688D01*
X147027842Y-133850684D01*
X147034437Y-133847954D01*
X147034880Y-133849023D01*
X147081617Y-133836500D01*
X149528599Y-133836500D01*
X149528601Y-133836500D01*
X149649536Y-133804095D01*
X149757964Y-133741495D01*
X150240495Y-133258964D01*
X150303095Y-133150536D01*
X150335500Y-133029601D01*
X150335500Y-132904399D01*
X150335500Y-126173399D01*
X150335500Y-126111616D01*
X150348024Y-126064880D01*
X150346954Y-126064437D01*
X150349684Y-126057842D01*
X150349688Y-126057836D01*
X150385500Y-125924183D01*
X150385500Y-125785817D01*
X150349688Y-125652164D01*
X150349685Y-125652158D01*
X150346955Y-125645567D01*
X150348022Y-125645124D01*
X150335500Y-125598383D01*
X150335500Y-122366108D01*
X150356317Y-122302039D01*
X150367419Y-122289039D01*
X150475641Y-122180817D01*
X151099500Y-122180817D01*
X151099500Y-122319182D01*
X151135311Y-122452835D01*
X151153499Y-122484337D01*
X151204495Y-122572665D01*
X151302335Y-122670505D01*
X151422164Y-122739688D01*
X151555817Y-122775500D01*
X151694183Y-122775500D01*
X151827836Y-122739688D01*
X151850600Y-122726544D01*
X151916493Y-122712539D01*
X151978035Y-122739939D01*
X152011718Y-122798279D01*
X152014100Y-122820942D01*
X152014100Y-125898636D01*
X151993283Y-125962705D01*
X151938783Y-126002301D01*
X151933312Y-126003922D01*
X151816163Y-126035312D01*
X151696337Y-126104493D01*
X151598493Y-126202337D01*
X151529311Y-126322164D01*
X151493500Y-126455817D01*
X151493500Y-126594182D01*
X151529311Y-126727835D01*
X151576245Y-126809127D01*
X151598495Y-126847665D01*
X151696335Y-126945505D01*
X151816164Y-127014688D01*
X151949817Y-127050500D01*
X152088183Y-127050500D01*
X152221836Y-127014688D01*
X152341665Y-126945505D01*
X152439505Y-126847665D01*
X152508688Y-126727836D01*
X152508689Y-126727829D01*
X152508796Y-126727575D01*
X152508927Y-126727420D01*
X152512260Y-126721649D01*
X152513329Y-126722266D01*
X152552546Y-126676348D01*
X152618050Y-126660621D01*
X152680288Y-126686399D01*
X152706147Y-126721991D01*
X152706740Y-126721649D01*
X152709996Y-126727289D01*
X152710204Y-126727575D01*
X152710312Y-126727836D01*
X152757244Y-126809126D01*
X152779495Y-126847665D01*
X152877335Y-126945505D01*
X152997164Y-127014688D01*
X153130817Y-127050500D01*
X153269183Y-127050500D01*
X153402836Y-127014688D01*
X153522665Y-126945505D01*
X153620505Y-126847665D01*
X153689688Y-126727836D01*
X153725500Y-126594183D01*
X153725500Y-126455817D01*
X153689688Y-126322164D01*
X153620505Y-126202335D01*
X153522665Y-126104495D01*
X153484412Y-126082410D01*
X153402834Y-126035311D01*
X153396236Y-126032578D01*
X153397022Y-126030679D01*
X153348583Y-125999215D01*
X153324449Y-125936321D01*
X153324300Y-125930629D01*
X153324300Y-121985681D01*
X153299392Y-121892722D01*
X153297532Y-121889500D01*
X153251273Y-121809378D01*
X153251272Y-121809377D01*
X153251273Y-121809377D01*
X153232424Y-121790528D01*
X153201842Y-121730504D01*
X153200500Y-121713455D01*
X153200500Y-121680817D01*
X153164688Y-121547164D01*
X153095506Y-121427337D01*
X153095505Y-121427335D01*
X152997665Y-121329495D01*
X152997662Y-121329493D01*
X152877835Y-121260311D01*
X152744183Y-121224500D01*
X152605817Y-121224500D01*
X152472164Y-121260311D01*
X152352337Y-121329493D01*
X152254493Y-121427337D01*
X152185311Y-121547164D01*
X152149500Y-121680817D01*
X152149500Y-121768180D01*
X152128683Y-121832249D01*
X152074183Y-121871845D01*
X152006817Y-121871845D01*
X151963427Y-121845256D01*
X151947665Y-121829495D01*
X151827835Y-121760311D01*
X151694183Y-121724500D01*
X151555817Y-121724500D01*
X151422164Y-121760311D01*
X151302337Y-121829493D01*
X151204493Y-121927337D01*
X151135311Y-122047164D01*
X151099500Y-122180817D01*
X150475641Y-122180817D01*
X151996776Y-120659681D01*
X152038678Y-120635493D01*
X152038235Y-120634422D01*
X152044831Y-120631689D01*
X152044836Y-120631688D01*
X152164665Y-120562505D01*
X152262505Y-120464665D01*
X152331688Y-120344836D01*
X152331689Y-120344831D01*
X152334422Y-120338235D01*
X152335493Y-120338678D01*
X152359681Y-120296776D01*
X152780495Y-119875964D01*
X152837451Y-119777312D01*
X152843094Y-119767538D01*
X152843095Y-119767536D01*
X152875500Y-119646601D01*
X152875500Y-119521399D01*
X152875500Y-115064616D01*
X152888024Y-115017880D01*
X152886954Y-115017437D01*
X152889684Y-115010842D01*
X152889688Y-115010836D01*
X152925500Y-114877183D01*
X152925500Y-114738817D01*
X152889688Y-114605164D01*
X152889685Y-114605158D01*
X152886955Y-114598567D01*
X152888022Y-114598124D01*
X152875500Y-114551383D01*
X152875500Y-102999616D01*
X152888024Y-102952880D01*
X152886954Y-102952437D01*
X152889684Y-102945842D01*
X152889688Y-102945836D01*
X152925500Y-102812183D01*
X152925500Y-102673817D01*
X152889688Y-102540164D01*
X152889685Y-102540158D01*
X152886955Y-102533567D01*
X152888022Y-102533124D01*
X152875500Y-102486383D01*
X152875500Y-102207141D01*
X152879214Y-102178929D01*
X152887108Y-102149469D01*
X152900100Y-102100983D01*
X152900100Y-101962617D01*
X152879214Y-101884668D01*
X152875500Y-101856457D01*
X152875500Y-101842109D01*
X152896317Y-101778040D01*
X152907425Y-101765034D01*
X154755655Y-99916804D01*
X154815679Y-99886221D01*
X154882215Y-99896759D01*
X154909805Y-99916804D01*
X154940000Y-99946999D01*
X154940000Y-99947000D01*
X154940001Y-99947000D01*
X155326215Y-99947000D01*
X155390284Y-99967817D01*
X155429880Y-100022317D01*
X155429880Y-100089683D01*
X155390284Y-100144183D01*
X155382950Y-100148687D01*
X155383120Y-100148963D01*
X155379475Y-100151195D01*
X155270874Y-100230096D01*
X155522481Y-100481703D01*
X155526872Y-100835271D01*
X155525269Y-100838047D01*
X155094096Y-100406874D01*
X155015193Y-100515478D01*
X154936588Y-100669751D01*
X154883086Y-100834411D01*
X154856000Y-101005427D01*
X154856000Y-101178572D01*
X154883086Y-101349588D01*
X154936588Y-101514248D01*
X155015196Y-101668524D01*
X155094096Y-101777124D01*
X155525268Y-101345950D01*
X155533391Y-101360019D01*
X155537457Y-101687317D01*
X155270874Y-101953901D01*
X155382940Y-102035321D01*
X155381716Y-102037005D01*
X155420393Y-102082310D01*
X155425664Y-102149469D01*
X155390453Y-102206900D01*
X155328209Y-102232666D01*
X155319681Y-102233000D01*
X154940000Y-102233000D01*
X154940000Y-102233001D01*
X154940000Y-103180371D01*
X154934665Y-103214054D01*
X154882598Y-103374295D01*
X154855500Y-103545387D01*
X154855500Y-103718612D01*
X154882598Y-103889704D01*
X154934665Y-104049946D01*
X154940000Y-104083629D01*
X154940000Y-105720371D01*
X154934665Y-105754054D01*
X154882598Y-105914295D01*
X154855500Y-106085387D01*
X154855500Y-106201278D01*
X154834683Y-106265347D01*
X154780183Y-106304943D01*
X154718290Y-106306564D01*
X154624747Y-106281500D01*
X154624746Y-106281500D01*
X154486380Y-106281500D01*
X154352727Y-106317311D01*
X154232900Y-106386493D01*
X154135056Y-106484337D01*
X154065874Y-106604164D01*
X154030063Y-106737817D01*
X154030063Y-106876182D01*
X154065874Y-107009835D01*
X154135056Y-107129662D01*
X154135058Y-107129665D01*
X154232898Y-107227505D01*
X154352727Y-107296688D01*
X154486380Y-107332500D01*
X154624746Y-107332500D01*
X154758399Y-107296688D01*
X154776499Y-107286237D01*
X154842393Y-107272231D01*
X154903934Y-107299631D01*
X154937618Y-107357971D01*
X154940000Y-107380634D01*
X154940000Y-108260371D01*
X154935520Y-108291300D01*
X154935111Y-108292679D01*
X154882598Y-108454299D01*
X154877198Y-108488386D01*
X154875175Y-108495226D01*
X154859946Y-108517397D01*
X154847730Y-108541372D01*
X153678109Y-109710996D01*
X153678108Y-109710995D01*
X153610057Y-109779047D01*
X153561938Y-109862391D01*
X153537031Y-109955350D01*
X153537031Y-118644649D01*
X153561938Y-118737608D01*
X153610056Y-118820950D01*
X153610058Y-118820953D01*
X153874576Y-119085471D01*
X153905158Y-119145493D01*
X153906500Y-119162544D01*
X153906500Y-119195182D01*
X153942311Y-119328835D01*
X154011493Y-119448662D01*
X154011495Y-119448665D01*
X154109335Y-119546505D01*
X154229164Y-119615688D01*
X154362817Y-119651500D01*
X154501183Y-119651500D01*
X154634836Y-119615688D01*
X154754665Y-119546505D01*
X154754669Y-119546500D01*
X154760330Y-119542158D01*
X154761335Y-119543468D01*
X154813949Y-119516661D01*
X154880485Y-119527199D01*
X154928120Y-119574834D01*
X154940000Y-119624319D01*
X154940000Y-120960371D01*
X154934665Y-120994054D01*
X154882598Y-121154295D01*
X154855500Y-121325387D01*
X154855500Y-121498612D01*
X154882598Y-121669704D01*
X154934665Y-121829946D01*
X154940000Y-121863629D01*
X154940000Y-123500371D01*
X154934665Y-123534054D01*
X154882598Y-123694295D01*
X154855500Y-123865387D01*
X154855500Y-124038612D01*
X154882598Y-124209704D01*
X154934665Y-124369946D01*
X154940000Y-124403629D01*
X154940000Y-126040371D01*
X154934665Y-126074054D01*
X154882598Y-126234295D01*
X154855500Y-126405387D01*
X154855500Y-126578612D01*
X154882598Y-126749704D01*
X154934665Y-126909946D01*
X154940000Y-126943629D01*
X154940000Y-128580371D01*
X154934665Y-128614054D01*
X154882598Y-128774295D01*
X154855500Y-128945387D01*
X154855500Y-129118612D01*
X154882598Y-129289704D01*
X154934665Y-129449946D01*
X154940000Y-129483629D01*
X154940000Y-131120371D01*
X154934665Y-131154054D01*
X154882598Y-131314295D01*
X154855500Y-131485387D01*
X154855500Y-131658612D01*
X154882598Y-131829704D01*
X154934665Y-131989946D01*
X154940000Y-132023629D01*
X154940000Y-133660371D01*
X154934665Y-133694054D01*
X154882598Y-133854295D01*
X154855500Y-134025387D01*
X154855500Y-134198612D01*
X154882598Y-134369704D01*
X154934665Y-134529946D01*
X154940000Y-134563629D01*
X154940000Y-135398000D01*
X154919183Y-135462069D01*
X154864683Y-135501665D01*
X154831000Y-135507000D01*
X128633000Y-135507000D01*
X128568931Y-135486183D01*
X128529335Y-135431683D01*
X128524000Y-135398000D01*
X128524000Y-135155076D01*
X128529936Y-135136803D01*
X128530643Y-135117606D01*
X128539375Y-135107754D01*
X128544817Y-135091007D01*
X128572216Y-135064598D01*
X128577663Y-135060938D01*
X128592788Y-135053232D01*
X128637635Y-135020648D01*
X128639312Y-135019522D01*
X128669869Y-135010821D01*
X128700096Y-135001000D01*
X129105197Y-135001000D01*
X129105198Y-135001000D01*
X129105198Y-134278546D01*
X129106540Y-134261494D01*
X129116500Y-134198611D01*
X129116500Y-134025389D01*
X129106540Y-133962503D01*
X129105198Y-133945452D01*
X129105198Y-131738546D01*
X129106540Y-131721494D01*
X129116500Y-131658611D01*
X129116500Y-131485389D01*
X129106540Y-131422503D01*
X129105198Y-131405452D01*
X129105198Y-130429001D01*
X129105198Y-130429000D01*
X128633000Y-130429000D01*
X128568931Y-130408183D01*
X128529335Y-130353683D01*
X128524000Y-130320000D01*
X128524000Y-130074515D01*
X128544817Y-130010446D01*
X128583516Y-129977395D01*
X128592517Y-129972808D01*
X128592527Y-129972802D01*
X128701124Y-129893902D01*
X128701124Y-129893901D01*
X128524000Y-129716776D01*
X128524000Y-129363223D01*
X128877901Y-129717124D01*
X128877902Y-129717124D01*
X128956801Y-129608529D01*
X129035411Y-129454248D01*
X129088913Y-129289588D01*
X129116000Y-129118572D01*
X129116000Y-128945427D01*
X129088913Y-128774411D01*
X129035411Y-128609751D01*
X128956802Y-128455474D01*
X128877901Y-128346874D01*
X128524000Y-128700775D01*
X128524000Y-128347220D01*
X128701124Y-128170096D01*
X128592521Y-128091194D01*
X128583510Y-128086602D01*
X128535878Y-128038965D01*
X128524000Y-127989485D01*
X128524000Y-127744000D01*
X128544817Y-127679931D01*
X128599317Y-127640335D01*
X128633000Y-127635000D01*
X129105197Y-127635000D01*
X129105198Y-127635000D01*
X129105198Y-126658546D01*
X129106540Y-126641494D01*
X129107331Y-126636500D01*
X129116500Y-126578611D01*
X129116500Y-126405389D01*
X129106540Y-126342503D01*
X129105198Y-126325452D01*
X129105198Y-124118546D01*
X129106540Y-124101494D01*
X129107427Y-124095896D01*
X129116500Y-124038611D01*
X129116500Y-123865389D01*
X129106540Y-123802503D01*
X129105198Y-123785452D01*
X129105198Y-121578546D01*
X129106540Y-121561494D01*
X129116500Y-121498611D01*
X129116500Y-121325389D01*
X129106540Y-121262503D01*
X129105198Y-121245452D01*
X129105198Y-119339500D01*
X129126015Y-119275431D01*
X129180515Y-119235835D01*
X129214198Y-119230500D01*
X132772526Y-119230500D01*
X132836595Y-119251317D01*
X132849601Y-119262425D01*
X133338575Y-119751399D01*
X133369158Y-119811423D01*
X133370500Y-119828474D01*
X133370500Y-120546038D01*
X133349683Y-120610107D01*
X133295183Y-120649703D01*
X133227817Y-120649703D01*
X133207000Y-120640435D01*
X133088266Y-120571884D01*
X132954614Y-120536073D01*
X132816248Y-120536073D01*
X132682595Y-120571884D01*
X132562768Y-120641066D01*
X132464924Y-120738910D01*
X132395742Y-120858737D01*
X132359931Y-120992390D01*
X132359931Y-121130755D01*
X132395742Y-121264408D01*
X132430950Y-121325390D01*
X132464926Y-121384238D01*
X132562766Y-121482078D01*
X132682595Y-121551261D01*
X132816248Y-121587073D01*
X132954614Y-121587073D01*
X133088267Y-121551261D01*
X133207002Y-121482709D01*
X133272893Y-121468704D01*
X133334435Y-121496104D01*
X133368118Y-121554444D01*
X133370500Y-121577107D01*
X133370500Y-122824539D01*
X133370500Y-122919461D01*
X133378400Y-122948944D01*
X133395067Y-123011148D01*
X133395066Y-123011148D01*
X133436168Y-123082336D01*
X133442528Y-123093352D01*
X133808576Y-123459400D01*
X133839158Y-123519422D01*
X133840500Y-123536473D01*
X133840500Y-123576182D01*
X133876311Y-123709835D01*
X133924921Y-123794030D01*
X133945495Y-123829665D01*
X134043335Y-123927505D01*
X134163164Y-123996688D01*
X134296817Y-124032500D01*
X134435183Y-124032500D01*
X134568836Y-123996688D01*
X134688665Y-123927505D01*
X134786505Y-123829665D01*
X134855688Y-123709836D01*
X134891500Y-123576183D01*
X134891500Y-123437817D01*
X134855688Y-123304164D01*
X134786505Y-123184335D01*
X134688665Y-123086495D01*
X134688662Y-123086493D01*
X134568835Y-123017311D01*
X134435183Y-122981500D01*
X134395474Y-122981500D01*
X134331405Y-122960683D01*
X134318399Y-122949575D01*
X134123425Y-122754601D01*
X134092842Y-122694577D01*
X134091500Y-122677526D01*
X134091500Y-121414600D01*
X134112317Y-121350531D01*
X134166817Y-121310935D01*
X134228713Y-121309315D01*
X134246816Y-121314166D01*
X134246817Y-121314166D01*
X134385183Y-121314166D01*
X134518836Y-121278354D01*
X134638665Y-121209171D01*
X134736505Y-121111331D01*
X134805688Y-120991502D01*
X134841500Y-120857849D01*
X134841500Y-120719483D01*
X134805688Y-120585830D01*
X134736505Y-120466001D01*
X134735165Y-120464661D01*
X134708424Y-120437919D01*
X134677842Y-120377896D01*
X134676500Y-120360846D01*
X134676500Y-119229921D01*
X134697317Y-119165852D01*
X134751817Y-119126256D01*
X134813707Y-119124635D01*
X134876649Y-119141500D01*
X134876651Y-119141500D01*
X135015015Y-119141500D01*
X135148668Y-119105688D01*
X135268497Y-119036505D01*
X135366337Y-118938665D01*
X135435520Y-118818836D01*
X135471332Y-118685183D01*
X135471332Y-118546817D01*
X135435520Y-118413164D01*
X135366337Y-118293335D01*
X135268497Y-118195495D01*
X135268494Y-118195493D01*
X135148667Y-118126311D01*
X135015015Y-118090500D01*
X134876649Y-118090500D01*
X134813711Y-118107364D01*
X134746437Y-118103838D01*
X134694085Y-118061443D01*
X134676500Y-118002078D01*
X134676500Y-104338858D01*
X134697317Y-104274789D01*
X134708425Y-104261783D01*
X135541633Y-103428575D01*
X135601657Y-103397992D01*
X135618708Y-103396650D01*
X135658417Y-103396650D01*
X135792070Y-103360838D01*
X135815021Y-103347586D01*
X135880914Y-103333580D01*
X135942456Y-103360979D01*
X135976140Y-103419319D01*
X135978522Y-103441983D01*
X135978522Y-105622203D01*
X135957705Y-105686272D01*
X135903205Y-105725868D01*
X135835839Y-105725868D01*
X135792449Y-105699279D01*
X135772665Y-105679495D01*
X135772662Y-105679493D01*
X135652835Y-105610311D01*
X135519183Y-105574500D01*
X135380817Y-105574500D01*
X135247164Y-105610311D01*
X135127337Y-105679493D01*
X135029493Y-105777337D01*
X134960311Y-105897164D01*
X134936331Y-105986662D01*
X134924500Y-106030817D01*
X134924500Y-106169183D01*
X134933100Y-106201278D01*
X134960311Y-106302835D01*
X135008611Y-106386493D01*
X135029495Y-106422665D01*
X135127335Y-106520505D01*
X135247164Y-106589688D01*
X135380817Y-106625500D01*
X135409526Y-106625500D01*
X135473595Y-106646317D01*
X135486601Y-106657425D01*
X136600575Y-107771399D01*
X136631158Y-107831423D01*
X136632500Y-107848474D01*
X136632500Y-111717138D01*
X136611683Y-111781207D01*
X136557183Y-111820803D01*
X136495289Y-111822424D01*
X136363903Y-111787220D01*
X136225537Y-111787220D01*
X136091884Y-111823031D01*
X135972057Y-111892213D01*
X135874213Y-111990057D01*
X135805031Y-112109884D01*
X135785735Y-112181900D01*
X135769220Y-112243537D01*
X135769220Y-112381903D01*
X135778815Y-112417714D01*
X135805031Y-112515555D01*
X135874213Y-112635382D01*
X135874215Y-112635385D01*
X135902296Y-112663466D01*
X135932878Y-112723488D01*
X135934220Y-112740539D01*
X135934220Y-114800976D01*
X135915947Y-114857213D01*
X135917567Y-114858148D01*
X135844811Y-114984164D01*
X135809000Y-115117817D01*
X135809000Y-115256183D01*
X135818595Y-115291994D01*
X135844811Y-115389835D01*
X135904134Y-115492586D01*
X135913995Y-115509665D01*
X135927076Y-115522746D01*
X135957658Y-115582768D01*
X135959000Y-115599819D01*
X135959000Y-117062180D01*
X135938183Y-117126249D01*
X135927077Y-117139253D01*
X135913993Y-117152336D01*
X135844811Y-117272164D01*
X135809000Y-117405817D01*
X135809000Y-117544182D01*
X135844811Y-117677835D01*
X135899330Y-117772265D01*
X135913995Y-117797665D01*
X135927076Y-117810746D01*
X135957658Y-117870768D01*
X135959000Y-117887819D01*
X135959000Y-125819413D01*
X135938183Y-125883482D01*
X135927075Y-125896488D01*
X134874988Y-126948575D01*
X134814964Y-126979158D01*
X134797913Y-126980500D01*
X134779417Y-126980500D01*
X134645764Y-127016311D01*
X134525937Y-127085493D01*
X134428093Y-127183337D01*
X134358911Y-127303164D01*
X134323100Y-127436817D01*
X134323100Y-127575182D01*
X134358911Y-127708835D01*
X134428093Y-127828662D01*
X134428095Y-127828665D01*
X134441176Y-127841746D01*
X134471758Y-127901768D01*
X134473100Y-127918819D01*
X134473100Y-132969733D01*
X134452283Y-133033802D01*
X134397783Y-133073398D01*
X134378331Y-133077800D01*
X134373019Y-133078499D01*
X134239364Y-133114311D01*
X134119537Y-133183493D01*
X134021693Y-133281337D01*
X133952513Y-133401162D01*
X133952512Y-133401163D01*
X133916700Y-133534817D01*
X133916700Y-133673182D01*
X133952511Y-133806835D01*
X133998506Y-133886500D01*
X134021695Y-133926665D01*
X134119535Y-134024505D01*
X134239364Y-134093688D01*
X134373017Y-134129500D01*
X134511383Y-134129500D01*
X134645036Y-134093688D01*
X134764865Y-134024505D01*
X134862705Y-133926665D01*
X134931888Y-133806836D01*
X134967700Y-133673183D01*
X134967700Y-133654686D01*
X134988517Y-133590617D01*
X134999619Y-133577617D01*
X135149074Y-133428163D01*
X135164662Y-133401164D01*
X135198510Y-133342538D01*
X135217254Y-133272586D01*
X135224100Y-133247036D01*
X135224100Y-133148164D01*
X135224100Y-127918819D01*
X135244917Y-127854750D01*
X135256019Y-127841750D01*
X135269105Y-127828665D01*
X135338288Y-127708836D01*
X135374100Y-127575183D01*
X135374100Y-127556687D01*
X135394917Y-127492618D01*
X135406025Y-127479612D01*
X136634974Y-126250663D01*
X136634975Y-126250662D01*
X136684410Y-126165038D01*
X136697205Y-126117286D01*
X136710000Y-126069536D01*
X136710000Y-125970664D01*
X136710000Y-124844765D01*
X136730817Y-124780696D01*
X136785317Y-124741100D01*
X136852683Y-124741100D01*
X136896075Y-124767690D01*
X137079679Y-124951294D01*
X137110262Y-125011318D01*
X137111604Y-125028369D01*
X137111604Y-125076182D01*
X137147415Y-125209835D01*
X137214515Y-125326056D01*
X137216599Y-125329665D01*
X137314439Y-125427505D01*
X137434268Y-125496688D01*
X137567921Y-125532500D01*
X137706287Y-125532500D01*
X137839940Y-125496688D01*
X137959769Y-125427505D01*
X138057609Y-125329665D01*
X138057611Y-125329662D01*
X138061957Y-125323999D01*
X138064637Y-125326056D01*
X138104362Y-125290246D01*
X138171354Y-125283166D01*
X138176934Y-125284503D01*
X138285245Y-125313525D01*
X138285247Y-125313525D01*
X138423611Y-125313525D01*
X138557264Y-125277713D01*
X138677093Y-125208530D01*
X138774933Y-125110690D01*
X138844116Y-124990861D01*
X138879928Y-124857208D01*
X138879928Y-124718842D01*
X138844116Y-124585189D01*
X138774933Y-124465360D01*
X138677093Y-124367520D01*
X138677090Y-124367518D01*
X138557263Y-124298336D01*
X138423611Y-124262525D01*
X138406499Y-124262525D01*
X138398134Y-124259807D01*
X138389448Y-124261183D01*
X138366705Y-124249595D01*
X138342430Y-124241708D01*
X138329424Y-124230600D01*
X138254744Y-124155920D01*
X138224161Y-124095896D01*
X138234699Y-124029360D01*
X138282334Y-123981725D01*
X138303606Y-123973559D01*
X138356899Y-123959280D01*
X138476728Y-123890097D01*
X138574568Y-123792257D01*
X138643751Y-123672428D01*
X138679563Y-123538775D01*
X138679563Y-123400409D01*
X138643751Y-123266756D01*
X138574568Y-123146927D01*
X138476728Y-123049087D01*
X138421692Y-123017312D01*
X138356898Y-122979903D01*
X138223246Y-122944092D01*
X138084880Y-122944092D01*
X138066772Y-122948944D01*
X137999499Y-122945416D01*
X137947147Y-122903021D01*
X137929563Y-122843657D01*
X137929563Y-121660882D01*
X137950380Y-121596813D01*
X138004880Y-121557217D01*
X138072246Y-121557217D01*
X138115635Y-121583805D01*
X138177335Y-121645505D01*
X138297164Y-121714688D01*
X138430817Y-121750500D01*
X138569183Y-121750500D01*
X138702836Y-121714688D01*
X138822665Y-121645505D01*
X138920505Y-121547665D01*
X138989688Y-121427836D01*
X139025500Y-121294183D01*
X139025500Y-121155817D01*
X138989688Y-121022164D01*
X138920505Y-120902335D01*
X138822665Y-120804495D01*
X138822662Y-120804493D01*
X138702835Y-120735311D01*
X138569183Y-120699500D01*
X138430817Y-120699500D01*
X138297164Y-120735311D01*
X138177337Y-120804493D01*
X138177335Y-120804494D01*
X138177335Y-120804495D01*
X138115635Y-120866194D01*
X138055614Y-120896776D01*
X137989078Y-120886238D01*
X137941443Y-120838603D01*
X137929563Y-120789118D01*
X137929563Y-120393125D01*
X137950380Y-120329056D01*
X138004880Y-120289460D01*
X138072246Y-120289460D01*
X138104926Y-120306655D01*
X138107328Y-120308498D01*
X138107335Y-120308505D01*
X138227164Y-120377688D01*
X138360817Y-120413500D01*
X138499183Y-120413500D01*
X138632836Y-120377688D01*
X138752665Y-120308505D01*
X138850505Y-120210665D01*
X138919688Y-120090836D01*
X138955500Y-119957183D01*
X138955500Y-119818817D01*
X138919688Y-119685164D01*
X138856573Y-119575846D01*
X138842568Y-119509955D01*
X138869968Y-119448413D01*
X138873877Y-119444292D01*
X138946505Y-119371665D01*
X139015688Y-119251836D01*
X139051500Y-119118183D01*
X139051500Y-118979817D01*
X139015688Y-118846164D01*
X138946505Y-118726335D01*
X138848665Y-118628495D01*
X138848662Y-118628493D01*
X138728835Y-118559311D01*
X138595183Y-118523500D01*
X138456817Y-118523500D01*
X138323164Y-118559311D01*
X138203337Y-118628493D01*
X138203335Y-118628494D01*
X138203335Y-118628495D01*
X138115635Y-118716194D01*
X138055614Y-118746776D01*
X137989078Y-118736238D01*
X137941443Y-118688603D01*
X137929563Y-118639118D01*
X137929563Y-117609017D01*
X138710500Y-117609017D01*
X138710500Y-117747382D01*
X138746311Y-117881035D01*
X138793922Y-117963500D01*
X138815495Y-118000865D01*
X138913335Y-118098705D01*
X139033164Y-118167888D01*
X139166817Y-118203700D01*
X139305183Y-118203700D01*
X139438836Y-118167888D01*
X139558665Y-118098705D01*
X139656505Y-118000865D01*
X139725688Y-117881036D01*
X139761500Y-117747383D01*
X139761500Y-117609017D01*
X139725688Y-117475364D01*
X139656505Y-117355535D01*
X139558665Y-117257695D01*
X139558662Y-117257693D01*
X139438835Y-117188511D01*
X139305183Y-117152700D01*
X139166817Y-117152700D01*
X139033164Y-117188511D01*
X138913337Y-117257693D01*
X138815493Y-117355537D01*
X138746311Y-117475364D01*
X138710500Y-117609017D01*
X137929563Y-117609017D01*
X137929563Y-110752473D01*
X137950380Y-110688404D01*
X138004880Y-110648808D01*
X138067550Y-110648808D01*
X138067863Y-110647639D01*
X138072226Y-110648808D01*
X138072246Y-110648808D01*
X138072299Y-110648827D01*
X138074762Y-110649487D01*
X138074764Y-110649488D01*
X138208417Y-110685300D01*
X138346783Y-110685300D01*
X138480436Y-110649488D01*
X138600265Y-110580305D01*
X138698105Y-110482465D01*
X138767288Y-110362636D01*
X138803100Y-110228983D01*
X138803100Y-110090617D01*
X138767288Y-109956964D01*
X138698105Y-109837135D01*
X138600265Y-109739295D01*
X138581635Y-109728539D01*
X138480435Y-109670111D01*
X138346783Y-109634300D01*
X138208417Y-109634300D01*
X138067863Y-109671961D01*
X138067035Y-109668871D01*
X138013111Y-109673113D01*
X137955674Y-109637911D01*
X137929898Y-109575671D01*
X137929563Y-109567126D01*
X137929563Y-107181410D01*
X137915697Y-107129662D01*
X137904996Y-107089723D01*
X137904995Y-107089722D01*
X137904996Y-107089722D01*
X137887623Y-107059633D01*
X137857535Y-107007519D01*
X137857532Y-107007516D01*
X137790415Y-106940398D01*
X137790415Y-106940399D01*
X136731447Y-105881431D01*
X136700864Y-105821407D01*
X136699522Y-105804356D01*
X136699522Y-103316925D01*
X136720339Y-103252856D01*
X136731441Y-103239856D01*
X136759527Y-103211771D01*
X136828710Y-103091942D01*
X136864522Y-102958289D01*
X136864522Y-102819923D01*
X136828710Y-102686270D01*
X136759527Y-102566441D01*
X136661687Y-102468601D01*
X136644867Y-102458890D01*
X136541857Y-102399417D01*
X136408205Y-102363606D01*
X136269839Y-102363606D01*
X136136185Y-102399418D01*
X136136183Y-102399418D01*
X136033175Y-102458890D01*
X135967282Y-102472896D01*
X135918530Y-102453446D01*
X135918086Y-102454217D01*
X135912771Y-102451148D01*
X135912321Y-102450969D01*
X135911901Y-102450647D01*
X135911899Y-102450645D01*
X135823171Y-102399418D01*
X135792069Y-102381461D01*
X135658417Y-102345650D01*
X135520051Y-102345650D01*
X135386398Y-102381461D01*
X135266571Y-102450643D01*
X135168727Y-102548487D01*
X135099545Y-102668314D01*
X135063734Y-102801967D01*
X135063734Y-102841676D01*
X135042917Y-102905745D01*
X135031809Y-102918751D01*
X134094648Y-103855912D01*
X134094647Y-103855911D01*
X134027530Y-103923029D01*
X134027528Y-103923032D01*
X133980067Y-104005235D01*
X133955500Y-104096923D01*
X133955500Y-108124092D01*
X133934683Y-108188161D01*
X133880183Y-108227757D01*
X133812817Y-108227757D01*
X133792002Y-108218490D01*
X133777836Y-108210312D01*
X133644183Y-108174500D01*
X133505817Y-108174500D01*
X133372164Y-108210311D01*
X133252337Y-108279493D01*
X133154493Y-108377337D01*
X133085311Y-108497164D01*
X133049500Y-108630817D01*
X133049500Y-108769182D01*
X133085311Y-108902835D01*
X133138966Y-108995768D01*
X133154495Y-109022665D01*
X133252335Y-109120505D01*
X133372164Y-109189688D01*
X133505817Y-109225500D01*
X133644183Y-109225500D01*
X133777836Y-109189688D01*
X133791999Y-109181510D01*
X133857892Y-109167504D01*
X133919434Y-109194903D01*
X133953118Y-109253243D01*
X133955500Y-109275907D01*
X133955500Y-119085526D01*
X133934683Y-119149595D01*
X133880183Y-119189191D01*
X133812817Y-119189191D01*
X133769425Y-119162601D01*
X133506810Y-118899986D01*
X133188352Y-118581528D01*
X133106148Y-118534067D01*
X133014461Y-118509500D01*
X129214198Y-118509500D01*
X129150129Y-118488683D01*
X129110533Y-118434183D01*
X129105198Y-118400500D01*
X129105198Y-116498546D01*
X129106540Y-116481494D01*
X129116500Y-116418611D01*
X129116500Y-116245389D01*
X129106540Y-116182503D01*
X129105198Y-116165452D01*
X129105198Y-113958546D01*
X129106540Y-113941494D01*
X129116500Y-113878611D01*
X129116500Y-113705389D01*
X129106540Y-113642503D01*
X129105198Y-113625452D01*
X129105198Y-111418546D01*
X129106540Y-111401494D01*
X129110301Y-111377748D01*
X129116500Y-111338611D01*
X129116500Y-111165389D01*
X129106540Y-111102503D01*
X129105198Y-111085452D01*
X129105198Y-108878546D01*
X129106540Y-108861494D01*
X129116500Y-108798611D01*
X129116500Y-108625389D01*
X129106540Y-108562503D01*
X129105198Y-108545452D01*
X129105198Y-106338546D01*
X129106540Y-106321494D01*
X129116500Y-106258611D01*
X129116500Y-106085389D01*
X129106540Y-106022503D01*
X129105198Y-106005452D01*
X129105198Y-103798546D01*
X129106540Y-103781494D01*
X129116500Y-103718611D01*
X129116500Y-103545389D01*
X129106540Y-103482503D01*
X129105198Y-103465452D01*
X129105198Y-101258546D01*
X129106540Y-101241494D01*
X129116500Y-101178611D01*
X129116500Y-101005389D01*
X129106540Y-100942503D01*
X129105198Y-100925452D01*
X129105198Y-98718546D01*
X129106540Y-98701494D01*
X129108304Y-98690356D01*
X129116500Y-98638611D01*
X129116500Y-98465389D01*
X129106540Y-98402503D01*
X129105198Y-98385452D01*
X129105198Y-96954225D01*
X129107293Y-96932959D01*
X129112171Y-96908435D01*
X129116500Y-96886674D01*
X129116500Y-96479500D01*
X129137317Y-96415431D01*
X129191817Y-96375835D01*
X129225500Y-96370500D01*
X131365461Y-96370500D01*
X131457148Y-96345933D01*
X131539352Y-96298472D01*
X131941399Y-95896425D01*
X132001423Y-95865842D01*
X132018474Y-95864500D01*
X137515984Y-95864500D01*
X137580053Y-95885317D01*
X137619649Y-95939817D01*
X137619649Y-96007183D01*
X137594393Y-96048397D01*
X137594448Y-96048442D01*
X137594124Y-96048836D01*
X137593060Y-96050572D01*
X137591049Y-96052584D01*
X137591047Y-96052586D01*
X137508916Y-96175503D01*
X137508914Y-96175508D01*
X137452343Y-96312084D01*
X137452342Y-96312087D01*
X137423500Y-96457082D01*
X137423500Y-97404918D01*
X137452342Y-97549913D01*
X137452343Y-97549915D01*
X137508914Y-97686491D01*
X137508916Y-97686496D01*
X137526348Y-97712584D01*
X137591049Y-97809416D01*
X137691576Y-97909943D01*
X137722158Y-97969965D01*
X137723500Y-97987016D01*
X137723500Y-99904984D01*
X137702683Y-99969053D01*
X137691580Y-99982052D01*
X137591049Y-100082584D01*
X137591047Y-100082586D01*
X137508916Y-100205503D01*
X137508914Y-100205508D01*
X137452343Y-100342084D01*
X137452342Y-100342087D01*
X137423500Y-100487082D01*
X137423500Y-101734918D01*
X137452342Y-101879913D01*
X137452343Y-101879915D01*
X137508914Y-102016491D01*
X137508916Y-102016496D01*
X137590493Y-102138585D01*
X137591049Y-102139416D01*
X137695584Y-102243951D01*
X137746406Y-102277909D01*
X137818503Y-102326083D01*
X137818504Y-102326083D01*
X137818505Y-102326084D01*
X137955087Y-102382658D01*
X138100082Y-102411500D01*
X138100086Y-102411500D01*
X138247914Y-102411500D01*
X138247918Y-102411500D01*
X138392913Y-102382658D01*
X138529495Y-102326084D01*
X138652416Y-102243951D01*
X138756951Y-102139416D01*
X138839084Y-102016495D01*
X138895658Y-101879913D01*
X138924500Y-101734918D01*
X138924500Y-100891865D01*
X138945317Y-100827796D01*
X138999817Y-100788200D01*
X139067183Y-100788200D01*
X139121683Y-100827796D01*
X139127897Y-100837366D01*
X139183492Y-100933661D01*
X139183493Y-100933662D01*
X139183495Y-100933665D01*
X139281335Y-101031505D01*
X139401164Y-101100688D01*
X139534817Y-101136500D01*
X139673183Y-101136500D01*
X139806836Y-101100688D01*
X139926665Y-101031505D01*
X140024505Y-100933665D01*
X140093688Y-100813836D01*
X140129500Y-100680183D01*
X140129500Y-100541817D01*
X140093688Y-100408164D01*
X140024505Y-100288335D01*
X139926665Y-100190495D01*
X139926662Y-100190493D01*
X139806835Y-100121311D01*
X139673183Y-100085500D01*
X139534817Y-100085500D01*
X139401164Y-100121311D01*
X139281337Y-100190493D01*
X139183493Y-100288337D01*
X139114310Y-100408166D01*
X139112977Y-100411385D01*
X139111358Y-100413279D01*
X139110740Y-100414351D01*
X139110541Y-100414236D01*
X139069221Y-100462605D01*
X139003715Y-100478325D01*
X138941480Y-100452539D01*
X138906287Y-100395097D01*
X138905381Y-100390970D01*
X138895658Y-100342087D01*
X138839084Y-100205505D01*
X138829053Y-100190493D01*
X138756952Y-100082586D01*
X138756951Y-100082584D01*
X138656423Y-99982056D01*
X138625842Y-99922035D01*
X138624500Y-99904984D01*
X138624500Y-97987016D01*
X138645317Y-97922947D01*
X138656419Y-97909947D01*
X138756951Y-97809416D01*
X138839084Y-97686495D01*
X138895658Y-97549913D01*
X138924500Y-97404918D01*
X138924500Y-96457082D01*
X138895658Y-96312087D01*
X138839084Y-96175505D01*
X138756951Y-96052584D01*
X138754939Y-96050572D01*
X138754349Y-96049413D01*
X138753552Y-96048442D01*
X138753765Y-96048267D01*
X138724358Y-95990551D01*
X138734896Y-95924015D01*
X138782531Y-95876380D01*
X138832016Y-95864500D01*
X141791526Y-95864500D01*
X141799890Y-95867217D01*
X141808577Y-95865842D01*
X141831319Y-95877429D01*
X141855595Y-95885317D01*
X141868601Y-95896425D01*
X141974575Y-96002399D01*
X142005158Y-96062423D01*
X142006500Y-96079474D01*
X142006500Y-98074181D01*
X141985683Y-98138250D01*
X141931183Y-98177846D01*
X141863817Y-98177846D01*
X141820427Y-98151257D01*
X141800665Y-98131495D01*
X141759820Y-98107913D01*
X141680835Y-98062311D01*
X141547183Y-98026500D01*
X141408817Y-98026500D01*
X141275164Y-98062311D01*
X141155337Y-98131493D01*
X141057493Y-98229337D01*
X140988311Y-98349164D01*
X140952500Y-98482817D01*
X140952500Y-98621182D01*
X140988311Y-98754835D01*
X140988312Y-98754836D01*
X141057495Y-98874665D01*
X141155335Y-98972505D01*
X141155337Y-98972506D01*
X141275164Y-99041688D01*
X141415718Y-99079349D01*
X141414956Y-99082190D01*
X141464516Y-99105817D01*
X141496671Y-99165013D01*
X141498500Y-99184897D01*
X141498500Y-111272462D01*
X141477683Y-111336531D01*
X141423183Y-111376127D01*
X141361290Y-111377748D01*
X141293184Y-111359500D01*
X141293183Y-111359500D01*
X141154817Y-111359500D01*
X141154816Y-111359500D01*
X141086710Y-111377748D01*
X141019437Y-111374222D01*
X140967084Y-111331826D01*
X140949500Y-111272462D01*
X140949500Y-110490539D01*
X140938770Y-110450493D01*
X140924933Y-110398852D01*
X140924932Y-110398851D01*
X140924933Y-110398851D01*
X140898495Y-110353061D01*
X140877472Y-110316648D01*
X140877469Y-110316645D01*
X140810352Y-110249527D01*
X140810352Y-110249528D01*
X140219425Y-109658601D01*
X140188842Y-109598577D01*
X140187500Y-109581526D01*
X140187500Y-109012819D01*
X140208317Y-108948750D01*
X140219419Y-108935750D01*
X140247505Y-108907665D01*
X140316688Y-108787836D01*
X140352500Y-108654183D01*
X140352500Y-108515817D01*
X140316688Y-108382164D01*
X140247505Y-108262335D01*
X140149665Y-108164495D01*
X140149662Y-108164493D01*
X140029835Y-108095311D01*
X139896183Y-108059500D01*
X139757817Y-108059500D01*
X139624164Y-108095311D01*
X139504337Y-108164493D01*
X139406493Y-108262337D01*
X139337311Y-108382164D01*
X139301500Y-108515817D01*
X139301500Y-108654182D01*
X139337311Y-108787835D01*
X139403706Y-108902835D01*
X139406495Y-108907665D01*
X139434576Y-108935746D01*
X139465158Y-108995768D01*
X139466500Y-109012819D01*
X139466500Y-109728539D01*
X139466500Y-109823461D01*
X139475446Y-109856848D01*
X139491067Y-109915148D01*
X139491066Y-109915148D01*
X139532168Y-109986336D01*
X139538528Y-109997352D01*
X140196576Y-110655400D01*
X140227158Y-110715422D01*
X140228500Y-110732473D01*
X140228500Y-125683180D01*
X140207683Y-125747249D01*
X140196576Y-125760253D01*
X140168495Y-125788334D01*
X140099311Y-125908164D01*
X140063500Y-126041817D01*
X140063500Y-126180182D01*
X140099311Y-126313835D01*
X140167352Y-126431685D01*
X140168495Y-126433665D01*
X140266335Y-126531505D01*
X140386164Y-126600688D01*
X140519817Y-126636500D01*
X140658183Y-126636500D01*
X140791836Y-126600688D01*
X140911665Y-126531505D01*
X141009505Y-126433665D01*
X141078688Y-126313836D01*
X141114500Y-126180183D01*
X141114500Y-126041817D01*
X141078688Y-125908164D01*
X141009505Y-125788335D01*
X140996242Y-125775072D01*
X140981424Y-125760253D01*
X140950842Y-125700230D01*
X140949500Y-125683180D01*
X140949500Y-125355817D01*
X143149500Y-125355817D01*
X143149500Y-125494182D01*
X143185311Y-125627835D01*
X143243332Y-125728330D01*
X143254495Y-125747665D01*
X143352335Y-125845505D01*
X143472164Y-125914688D01*
X143605817Y-125950500D01*
X143744183Y-125950500D01*
X143877836Y-125914688D01*
X143997665Y-125845505D01*
X144095505Y-125747665D01*
X144164688Y-125627836D01*
X144200500Y-125494183D01*
X144200500Y-125355817D01*
X144164688Y-125222164D01*
X144095505Y-125102335D01*
X143997665Y-125004495D01*
X143997662Y-125004493D01*
X143877835Y-124935311D01*
X143744183Y-124899500D01*
X143605817Y-124899500D01*
X143472164Y-124935311D01*
X143352337Y-125004493D01*
X143254493Y-125102337D01*
X143185311Y-125222164D01*
X143149500Y-125355817D01*
X140949500Y-125355817D01*
X140949500Y-124133842D01*
X144449500Y-124133842D01*
X144449500Y-124272207D01*
X144485311Y-124405860D01*
X144554493Y-124525687D01*
X144554495Y-124525690D01*
X144652335Y-124623530D01*
X144772164Y-124692713D01*
X144905817Y-124728525D01*
X145044183Y-124728525D01*
X145177836Y-124692713D01*
X145297665Y-124623530D01*
X145395505Y-124525690D01*
X145464688Y-124405861D01*
X145500500Y-124272208D01*
X145500500Y-124133842D01*
X145464688Y-124000189D01*
X145395505Y-123880360D01*
X145297665Y-123782520D01*
X145297662Y-123782518D01*
X145177835Y-123713336D01*
X145044183Y-123677525D01*
X144905817Y-123677525D01*
X144772164Y-123713336D01*
X144652337Y-123782518D01*
X144554493Y-123880362D01*
X144485311Y-124000189D01*
X144449500Y-124133842D01*
X140949500Y-124133842D01*
X140949500Y-118979817D01*
X142274500Y-118979817D01*
X142274500Y-119118182D01*
X142310311Y-119251835D01*
X142362305Y-119341891D01*
X142379495Y-119371665D01*
X142477335Y-119469505D01*
X142597164Y-119538688D01*
X142730817Y-119574500D01*
X142869183Y-119574500D01*
X143002836Y-119538688D01*
X143122665Y-119469505D01*
X143220505Y-119371665D01*
X143289688Y-119251836D01*
X143325500Y-119118183D01*
X143325500Y-119031421D01*
X143346317Y-118967352D01*
X143400817Y-118927756D01*
X143468183Y-118927756D01*
X143488997Y-118937023D01*
X143561164Y-118978688D01*
X143694817Y-119014500D01*
X143833183Y-119014500D01*
X143966836Y-118978688D01*
X144086665Y-118909505D01*
X144184505Y-118811665D01*
X144253688Y-118691836D01*
X144289500Y-118558183D01*
X144289500Y-118419817D01*
X144253688Y-118286164D01*
X144184505Y-118166335D01*
X144086665Y-118068495D01*
X144024469Y-118032586D01*
X143966835Y-117999311D01*
X143833183Y-117963500D01*
X143694817Y-117963500D01*
X143561164Y-117999311D01*
X143441337Y-118068493D01*
X143343493Y-118166337D01*
X143274311Y-118286164D01*
X143238500Y-118419817D01*
X143238500Y-118506578D01*
X143217683Y-118570647D01*
X143163183Y-118610243D01*
X143095817Y-118610243D01*
X143075001Y-118600975D01*
X143002837Y-118559312D01*
X142869183Y-118523500D01*
X142730817Y-118523500D01*
X142597164Y-118559311D01*
X142477337Y-118628493D01*
X142379493Y-118726337D01*
X142310311Y-118846164D01*
X142274500Y-118979817D01*
X140949500Y-118979817D01*
X140949500Y-112497537D01*
X140970317Y-112433468D01*
X141024817Y-112393872D01*
X141086710Y-112392251D01*
X141154817Y-112410500D01*
X141293183Y-112410500D01*
X141361289Y-112392251D01*
X141428562Y-112395777D01*
X141480915Y-112438171D01*
X141498500Y-112497537D01*
X141498500Y-114758539D01*
X141498500Y-114853461D01*
X141499756Y-114858148D01*
X141523067Y-114945148D01*
X141523066Y-114945148D01*
X141553741Y-114998277D01*
X141570528Y-115027352D01*
X141682576Y-115139400D01*
X141713158Y-115199422D01*
X141714500Y-115216473D01*
X141714500Y-115256183D01*
X141724095Y-115291994D01*
X141750311Y-115389835D01*
X141809634Y-115492586D01*
X141819495Y-115509665D01*
X141917335Y-115607505D01*
X142037164Y-115676688D01*
X142170817Y-115712500D01*
X142309183Y-115712500D01*
X142442836Y-115676688D01*
X142562665Y-115607505D01*
X142660505Y-115509665D01*
X142729688Y-115389836D01*
X142765500Y-115256183D01*
X142765500Y-115117817D01*
X142763726Y-115111196D01*
X142767252Y-115043924D01*
X142809646Y-114991571D01*
X142874716Y-114974135D01*
X142937608Y-114998277D01*
X142946087Y-115005911D01*
X143206575Y-115266399D01*
X143237158Y-115326423D01*
X143238500Y-115343474D01*
X143238500Y-115383183D01*
X143240283Y-115389836D01*
X143274311Y-115516835D01*
X143326660Y-115607506D01*
X143343495Y-115636665D01*
X143441335Y-115734505D01*
X143561164Y-115803688D01*
X143694817Y-115839500D01*
X143833183Y-115839500D01*
X143966836Y-115803688D01*
X144086665Y-115734505D01*
X144184505Y-115636665D01*
X144253688Y-115516836D01*
X144289500Y-115383183D01*
X144289500Y-115244817D01*
X144253688Y-115111164D01*
X144184505Y-114991335D01*
X144086665Y-114893495D01*
X144058410Y-114877182D01*
X143966835Y-114824311D01*
X143833183Y-114788500D01*
X143793474Y-114788500D01*
X143729405Y-114767683D01*
X143716399Y-114756575D01*
X142759425Y-113799601D01*
X142728842Y-113739577D01*
X142727500Y-113722526D01*
X142727500Y-95837539D01*
X142719945Y-95809342D01*
X142702933Y-95745852D01*
X142702932Y-95745851D01*
X142702933Y-95745851D01*
X142685560Y-95715762D01*
X142655472Y-95663648D01*
X142639982Y-95648158D01*
X142588352Y-95596527D01*
X142588352Y-95596528D01*
X142207352Y-95215528D01*
X142125148Y-95168067D01*
X142033461Y-95143500D01*
X131871461Y-95143500D01*
X131776539Y-95143500D01*
X131684851Y-95168067D01*
X131602649Y-95215527D01*
X131200601Y-95617575D01*
X131140577Y-95648158D01*
X131123526Y-95649500D01*
X129225500Y-95649500D01*
X129161431Y-95628683D01*
X129121835Y-95574183D01*
X129116500Y-95540500D01*
X129116500Y-95137329D01*
X129116500Y-95137326D01*
X129107292Y-95091034D01*
X129105198Y-95069770D01*
X129105198Y-94722000D01*
X129126015Y-94657931D01*
X129180515Y-94618335D01*
X129214198Y-94613000D01*
X155341923Y-94613000D01*
X155405992Y-94633817D01*
G37*
%TD.AperFunction*%
%TA.AperFunction,Conductor*%
G36*
X146717185Y-109758099D02*
G01*
X146764820Y-109805734D01*
X146776700Y-109855219D01*
X146776700Y-120870144D01*
X146755883Y-120934213D01*
X146701383Y-120973809D01*
X146634017Y-120973809D01*
X146579517Y-120934213D01*
X146573303Y-120924644D01*
X146521669Y-120835212D01*
X146502255Y-120801585D01*
X146404415Y-120703745D01*
X146404412Y-120703743D01*
X146404411Y-120703742D01*
X146364730Y-120680832D01*
X146319654Y-120630770D01*
X146312613Y-120563773D01*
X146324835Y-120531936D01*
X146360686Y-120469840D01*
X146360686Y-120469839D01*
X146360688Y-120469836D01*
X146396500Y-120336183D01*
X146396500Y-120197817D01*
X146360688Y-120064164D01*
X146291505Y-119944335D01*
X146193665Y-119846495D01*
X146193662Y-119846493D01*
X146073835Y-119777311D01*
X145983289Y-119753050D01*
X145926791Y-119716360D01*
X145902649Y-119653469D01*
X145902500Y-119647764D01*
X145902500Y-110028931D01*
X145923317Y-109964862D01*
X145977817Y-109925266D01*
X146039710Y-109923645D01*
X146133217Y-109948700D01*
X146271583Y-109948700D01*
X146405236Y-109912888D01*
X146525065Y-109843705D01*
X146590627Y-109778142D01*
X146650649Y-109747561D01*
X146717185Y-109758099D01*
G37*
%TD.AperFunction*%
%TD*%
D23*
X125476000Y-94232000D02*
X158496000Y-94232000D01*
X158496000Y-136142000D01*
X125476000Y-136142000D01*
X125476000Y-94232000D01*
M02*
