%TF.GenerationSoftware,KiCad,Pcbnew,9.0.0*%
%TF.CreationDate,2025-10-09T14:40:50+01:00*%
%TF.ProjectId,OE PyBoard,4f452050-7942-46f6-9172-642e6b696361,rev?*%
%TF.SameCoordinates,Original*%
%TF.FileFunction,Drillmap*%
%TF.FilePolarity,Positive*%
%FSLAX45Y45*%
G04 Gerber Fmt 4.5, Leading zero omitted, Abs format (unit mm)*
G04 Created by KiCad (PCBNEW 9.0.0) date 2025-10-09 14:40:50*
%MOMM*%
%LPD*%
G01*
G04 APERTURE LIST*
%ADD10C,0.230000*%
%ADD11C,0.200000*%
%ADD12C,0.100000*%
G04 APERTURE END LIST*
D10*
X12547600Y-9423200D02*
X15849600Y-9423200D01*
X15849600Y-13614200D01*
X12547600Y-13614200D01*
X12547600Y-9423200D01*
D11*
D12*
X13927900Y-10028600D02*
X13992900Y-10093600D01*
X13992900Y-10028600D02*
X13927900Y-10093600D01*
X14505900Y-10028600D02*
X14570900Y-10093600D01*
X14570900Y-10028600D02*
X14505900Y-10093600D01*
D11*
X12796877Y-13937184D02*
X12796877Y-13737184D01*
X12796877Y-13737184D02*
X12844496Y-13737184D01*
X12844496Y-13737184D02*
X12873067Y-13746708D01*
X12873067Y-13746708D02*
X12892115Y-13765755D01*
X12892115Y-13765755D02*
X12901639Y-13784803D01*
X12901639Y-13784803D02*
X12911162Y-13822898D01*
X12911162Y-13822898D02*
X12911162Y-13851469D01*
X12911162Y-13851469D02*
X12901639Y-13889565D01*
X12901639Y-13889565D02*
X12892115Y-13908612D01*
X12892115Y-13908612D02*
X12873067Y-13927660D01*
X12873067Y-13927660D02*
X12844496Y-13937184D01*
X12844496Y-13937184D02*
X12796877Y-13937184D01*
X12996877Y-13937184D02*
X12996877Y-13803850D01*
X12996877Y-13841946D02*
X13006401Y-13822898D01*
X13006401Y-13822898D02*
X13015924Y-13813374D01*
X13015924Y-13813374D02*
X13034972Y-13803850D01*
X13034972Y-13803850D02*
X13054020Y-13803850D01*
X13120686Y-13937184D02*
X13120686Y-13803850D01*
X13120686Y-13737184D02*
X13111162Y-13746708D01*
X13111162Y-13746708D02*
X13120686Y-13756231D01*
X13120686Y-13756231D02*
X13130210Y-13746708D01*
X13130210Y-13746708D02*
X13120686Y-13737184D01*
X13120686Y-13737184D02*
X13120686Y-13756231D01*
X13244496Y-13937184D02*
X13225448Y-13927660D01*
X13225448Y-13927660D02*
X13215924Y-13908612D01*
X13215924Y-13908612D02*
X13215924Y-13737184D01*
X13349258Y-13937184D02*
X13330210Y-13927660D01*
X13330210Y-13927660D02*
X13320686Y-13908612D01*
X13320686Y-13908612D02*
X13320686Y-13737184D01*
X13577829Y-13937184D02*
X13577829Y-13737184D01*
X13577829Y-13737184D02*
X13644496Y-13880041D01*
X13644496Y-13880041D02*
X13711162Y-13737184D01*
X13711162Y-13737184D02*
X13711162Y-13937184D01*
X13892115Y-13937184D02*
X13892115Y-13832422D01*
X13892115Y-13832422D02*
X13882591Y-13813374D01*
X13882591Y-13813374D02*
X13863543Y-13803850D01*
X13863543Y-13803850D02*
X13825448Y-13803850D01*
X13825448Y-13803850D02*
X13806401Y-13813374D01*
X13892115Y-13927660D02*
X13873067Y-13937184D01*
X13873067Y-13937184D02*
X13825448Y-13937184D01*
X13825448Y-13937184D02*
X13806401Y-13927660D01*
X13806401Y-13927660D02*
X13796877Y-13908612D01*
X13796877Y-13908612D02*
X13796877Y-13889565D01*
X13796877Y-13889565D02*
X13806401Y-13870517D01*
X13806401Y-13870517D02*
X13825448Y-13860993D01*
X13825448Y-13860993D02*
X13873067Y-13860993D01*
X13873067Y-13860993D02*
X13892115Y-13851469D01*
X13987353Y-13803850D02*
X13987353Y-14003850D01*
X13987353Y-13813374D02*
X14006401Y-13803850D01*
X14006401Y-13803850D02*
X14044496Y-13803850D01*
X14044496Y-13803850D02*
X14063543Y-13813374D01*
X14063543Y-13813374D02*
X14073067Y-13822898D01*
X14073067Y-13822898D02*
X14082591Y-13841946D01*
X14082591Y-13841946D02*
X14082591Y-13899088D01*
X14082591Y-13899088D02*
X14073067Y-13918136D01*
X14073067Y-13918136D02*
X14063543Y-13927660D01*
X14063543Y-13927660D02*
X14044496Y-13937184D01*
X14044496Y-13937184D02*
X14006401Y-13937184D01*
X14006401Y-13937184D02*
X13987353Y-13927660D01*
X14168305Y-13918136D02*
X14177829Y-13927660D01*
X14177829Y-13927660D02*
X14168305Y-13937184D01*
X14168305Y-13937184D02*
X14158782Y-13927660D01*
X14158782Y-13927660D02*
X14168305Y-13918136D01*
X14168305Y-13918136D02*
X14168305Y-13937184D01*
X14168305Y-13813374D02*
X14177829Y-13822898D01*
X14177829Y-13822898D02*
X14168305Y-13832422D01*
X14168305Y-13832422D02*
X14158782Y-13822898D01*
X14158782Y-13822898D02*
X14168305Y-13813374D01*
X14168305Y-13813374D02*
X14168305Y-13832422D01*
D12*
X12471100Y-14233200D02*
X12536100Y-14298200D01*
X12536100Y-14233200D02*
X12471100Y-14298200D01*
D11*
X12834972Y-14157184D02*
X12854020Y-14157184D01*
X12854020Y-14157184D02*
X12873067Y-14166708D01*
X12873067Y-14166708D02*
X12882591Y-14176231D01*
X12882591Y-14176231D02*
X12892115Y-14195279D01*
X12892115Y-14195279D02*
X12901639Y-14233374D01*
X12901639Y-14233374D02*
X12901639Y-14280993D01*
X12901639Y-14280993D02*
X12892115Y-14319088D01*
X12892115Y-14319088D02*
X12882591Y-14338136D01*
X12882591Y-14338136D02*
X12873067Y-14347660D01*
X12873067Y-14347660D02*
X12854020Y-14357184D01*
X12854020Y-14357184D02*
X12834972Y-14357184D01*
X12834972Y-14357184D02*
X12815924Y-14347660D01*
X12815924Y-14347660D02*
X12806401Y-14338136D01*
X12806401Y-14338136D02*
X12796877Y-14319088D01*
X12796877Y-14319088D02*
X12787353Y-14280993D01*
X12787353Y-14280993D02*
X12787353Y-14233374D01*
X12787353Y-14233374D02*
X12796877Y-14195279D01*
X12796877Y-14195279D02*
X12806401Y-14176231D01*
X12806401Y-14176231D02*
X12815924Y-14166708D01*
X12815924Y-14166708D02*
X12834972Y-14157184D01*
X12987353Y-14338136D02*
X12996877Y-14347660D01*
X12996877Y-14347660D02*
X12987353Y-14357184D01*
X12987353Y-14357184D02*
X12977829Y-14347660D01*
X12977829Y-14347660D02*
X12987353Y-14338136D01*
X12987353Y-14338136D02*
X12987353Y-14357184D01*
X13168305Y-14157184D02*
X13130210Y-14157184D01*
X13130210Y-14157184D02*
X13111162Y-14166708D01*
X13111162Y-14166708D02*
X13101639Y-14176231D01*
X13101639Y-14176231D02*
X13082591Y-14204803D01*
X13082591Y-14204803D02*
X13073067Y-14242898D01*
X13073067Y-14242898D02*
X13073067Y-14319088D01*
X13073067Y-14319088D02*
X13082591Y-14338136D01*
X13082591Y-14338136D02*
X13092115Y-14347660D01*
X13092115Y-14347660D02*
X13111162Y-14357184D01*
X13111162Y-14357184D02*
X13149258Y-14357184D01*
X13149258Y-14357184D02*
X13168305Y-14347660D01*
X13168305Y-14347660D02*
X13177829Y-14338136D01*
X13177829Y-14338136D02*
X13187353Y-14319088D01*
X13187353Y-14319088D02*
X13187353Y-14271469D01*
X13187353Y-14271469D02*
X13177829Y-14252422D01*
X13177829Y-14252422D02*
X13168305Y-14242898D01*
X13168305Y-14242898D02*
X13149258Y-14233374D01*
X13149258Y-14233374D02*
X13111162Y-14233374D01*
X13111162Y-14233374D02*
X13092115Y-14242898D01*
X13092115Y-14242898D02*
X13082591Y-14252422D01*
X13082591Y-14252422D02*
X13073067Y-14271469D01*
X13368305Y-14157184D02*
X13273067Y-14157184D01*
X13273067Y-14157184D02*
X13263543Y-14252422D01*
X13263543Y-14252422D02*
X13273067Y-14242898D01*
X13273067Y-14242898D02*
X13292115Y-14233374D01*
X13292115Y-14233374D02*
X13339734Y-14233374D01*
X13339734Y-14233374D02*
X13358782Y-14242898D01*
X13358782Y-14242898D02*
X13368305Y-14252422D01*
X13368305Y-14252422D02*
X13377829Y-14271469D01*
X13377829Y-14271469D02*
X13377829Y-14319088D01*
X13377829Y-14319088D02*
X13368305Y-14338136D01*
X13368305Y-14338136D02*
X13358782Y-14347660D01*
X13358782Y-14347660D02*
X13339734Y-14357184D01*
X13339734Y-14357184D02*
X13292115Y-14357184D01*
X13292115Y-14357184D02*
X13273067Y-14347660D01*
X13273067Y-14347660D02*
X13263543Y-14338136D01*
X13501639Y-14157184D02*
X13520686Y-14157184D01*
X13520686Y-14157184D02*
X13539734Y-14166708D01*
X13539734Y-14166708D02*
X13549258Y-14176231D01*
X13549258Y-14176231D02*
X13558782Y-14195279D01*
X13558782Y-14195279D02*
X13568305Y-14233374D01*
X13568305Y-14233374D02*
X13568305Y-14280993D01*
X13568305Y-14280993D02*
X13558782Y-14319088D01*
X13558782Y-14319088D02*
X13549258Y-14338136D01*
X13549258Y-14338136D02*
X13539734Y-14347660D01*
X13539734Y-14347660D02*
X13520686Y-14357184D01*
X13520686Y-14357184D02*
X13501639Y-14357184D01*
X13501639Y-14357184D02*
X13482591Y-14347660D01*
X13482591Y-14347660D02*
X13473067Y-14338136D01*
X13473067Y-14338136D02*
X13463543Y-14319088D01*
X13463543Y-14319088D02*
X13454020Y-14280993D01*
X13454020Y-14280993D02*
X13454020Y-14233374D01*
X13454020Y-14233374D02*
X13463543Y-14195279D01*
X13463543Y-14195279D02*
X13473067Y-14176231D01*
X13473067Y-14176231D02*
X13482591Y-14166708D01*
X13482591Y-14166708D02*
X13501639Y-14157184D01*
X13654020Y-14357184D02*
X13654020Y-14223850D01*
X13654020Y-14242898D02*
X13663543Y-14233374D01*
X13663543Y-14233374D02*
X13682591Y-14223850D01*
X13682591Y-14223850D02*
X13711163Y-14223850D01*
X13711163Y-14223850D02*
X13730210Y-14233374D01*
X13730210Y-14233374D02*
X13739734Y-14252422D01*
X13739734Y-14252422D02*
X13739734Y-14357184D01*
X13739734Y-14252422D02*
X13749258Y-14233374D01*
X13749258Y-14233374D02*
X13768305Y-14223850D01*
X13768305Y-14223850D02*
X13796877Y-14223850D01*
X13796877Y-14223850D02*
X13815924Y-14233374D01*
X13815924Y-14233374D02*
X13825448Y-14252422D01*
X13825448Y-14252422D02*
X13825448Y-14357184D01*
X13920686Y-14357184D02*
X13920686Y-14223850D01*
X13920686Y-14242898D02*
X13930210Y-14233374D01*
X13930210Y-14233374D02*
X13949258Y-14223850D01*
X13949258Y-14223850D02*
X13977829Y-14223850D01*
X13977829Y-14223850D02*
X13996877Y-14233374D01*
X13996877Y-14233374D02*
X14006401Y-14252422D01*
X14006401Y-14252422D02*
X14006401Y-14357184D01*
X14006401Y-14252422D02*
X14015924Y-14233374D01*
X14015924Y-14233374D02*
X14034972Y-14223850D01*
X14034972Y-14223850D02*
X14063543Y-14223850D01*
X14063543Y-14223850D02*
X14082591Y-14233374D01*
X14082591Y-14233374D02*
X14092115Y-14252422D01*
X14092115Y-14252422D02*
X14092115Y-14357184D01*
X14482591Y-14147660D02*
X14311163Y-14404803D01*
X14739734Y-14157184D02*
X14758782Y-14157184D01*
X14758782Y-14157184D02*
X14777829Y-14166708D01*
X14777829Y-14166708D02*
X14787353Y-14176231D01*
X14787353Y-14176231D02*
X14796877Y-14195279D01*
X14796877Y-14195279D02*
X14806401Y-14233374D01*
X14806401Y-14233374D02*
X14806401Y-14280993D01*
X14806401Y-14280993D02*
X14796877Y-14319088D01*
X14796877Y-14319088D02*
X14787353Y-14338136D01*
X14787353Y-14338136D02*
X14777829Y-14347660D01*
X14777829Y-14347660D02*
X14758782Y-14357184D01*
X14758782Y-14357184D02*
X14739734Y-14357184D01*
X14739734Y-14357184D02*
X14720686Y-14347660D01*
X14720686Y-14347660D02*
X14711163Y-14338136D01*
X14711163Y-14338136D02*
X14701639Y-14319088D01*
X14701639Y-14319088D02*
X14692115Y-14280993D01*
X14692115Y-14280993D02*
X14692115Y-14233374D01*
X14692115Y-14233374D02*
X14701639Y-14195279D01*
X14701639Y-14195279D02*
X14711163Y-14176231D01*
X14711163Y-14176231D02*
X14720686Y-14166708D01*
X14720686Y-14166708D02*
X14739734Y-14157184D01*
X14892115Y-14338136D02*
X14901639Y-14347660D01*
X14901639Y-14347660D02*
X14892115Y-14357184D01*
X14892115Y-14357184D02*
X14882591Y-14347660D01*
X14882591Y-14347660D02*
X14892115Y-14338136D01*
X14892115Y-14338136D02*
X14892115Y-14357184D01*
X15025448Y-14157184D02*
X15044496Y-14157184D01*
X15044496Y-14157184D02*
X15063544Y-14166708D01*
X15063544Y-14166708D02*
X15073067Y-14176231D01*
X15073067Y-14176231D02*
X15082591Y-14195279D01*
X15082591Y-14195279D02*
X15092115Y-14233374D01*
X15092115Y-14233374D02*
X15092115Y-14280993D01*
X15092115Y-14280993D02*
X15082591Y-14319088D01*
X15082591Y-14319088D02*
X15073067Y-14338136D01*
X15073067Y-14338136D02*
X15063544Y-14347660D01*
X15063544Y-14347660D02*
X15044496Y-14357184D01*
X15044496Y-14357184D02*
X15025448Y-14357184D01*
X15025448Y-14357184D02*
X15006401Y-14347660D01*
X15006401Y-14347660D02*
X14996877Y-14338136D01*
X14996877Y-14338136D02*
X14987353Y-14319088D01*
X14987353Y-14319088D02*
X14977829Y-14280993D01*
X14977829Y-14280993D02*
X14977829Y-14233374D01*
X14977829Y-14233374D02*
X14987353Y-14195279D01*
X14987353Y-14195279D02*
X14996877Y-14176231D01*
X14996877Y-14176231D02*
X15006401Y-14166708D01*
X15006401Y-14166708D02*
X15025448Y-14157184D01*
X15168306Y-14176231D02*
X15177829Y-14166708D01*
X15177829Y-14166708D02*
X15196877Y-14157184D01*
X15196877Y-14157184D02*
X15244496Y-14157184D01*
X15244496Y-14157184D02*
X15263544Y-14166708D01*
X15263544Y-14166708D02*
X15273067Y-14176231D01*
X15273067Y-14176231D02*
X15282591Y-14195279D01*
X15282591Y-14195279D02*
X15282591Y-14214327D01*
X15282591Y-14214327D02*
X15273067Y-14242898D01*
X15273067Y-14242898D02*
X15158782Y-14357184D01*
X15158782Y-14357184D02*
X15282591Y-14357184D01*
X15463544Y-14157184D02*
X15368306Y-14157184D01*
X15368306Y-14157184D02*
X15358782Y-14252422D01*
X15358782Y-14252422D02*
X15368306Y-14242898D01*
X15368306Y-14242898D02*
X15387353Y-14233374D01*
X15387353Y-14233374D02*
X15434972Y-14233374D01*
X15434972Y-14233374D02*
X15454020Y-14242898D01*
X15454020Y-14242898D02*
X15463544Y-14252422D01*
X15463544Y-14252422D02*
X15473067Y-14271469D01*
X15473067Y-14271469D02*
X15473067Y-14319088D01*
X15473067Y-14319088D02*
X15463544Y-14338136D01*
X15463544Y-14338136D02*
X15454020Y-14347660D01*
X15454020Y-14347660D02*
X15434972Y-14357184D01*
X15434972Y-14357184D02*
X15387353Y-14357184D01*
X15387353Y-14357184D02*
X15368306Y-14347660D01*
X15368306Y-14347660D02*
X15358782Y-14338136D01*
X15644496Y-14157184D02*
X15606401Y-14157184D01*
X15606401Y-14157184D02*
X15587353Y-14166708D01*
X15587353Y-14166708D02*
X15577829Y-14176231D01*
X15577829Y-14176231D02*
X15558782Y-14204803D01*
X15558782Y-14204803D02*
X15549258Y-14242898D01*
X15549258Y-14242898D02*
X15549258Y-14319088D01*
X15549258Y-14319088D02*
X15558782Y-14338136D01*
X15558782Y-14338136D02*
X15568306Y-14347660D01*
X15568306Y-14347660D02*
X15587353Y-14357184D01*
X15587353Y-14357184D02*
X15625448Y-14357184D01*
X15625448Y-14357184D02*
X15644496Y-14347660D01*
X15644496Y-14347660D02*
X15654020Y-14338136D01*
X15654020Y-14338136D02*
X15663544Y-14319088D01*
X15663544Y-14319088D02*
X15663544Y-14271469D01*
X15663544Y-14271469D02*
X15654020Y-14252422D01*
X15654020Y-14252422D02*
X15644496Y-14242898D01*
X15644496Y-14242898D02*
X15625448Y-14233374D01*
X15625448Y-14233374D02*
X15587353Y-14233374D01*
X15587353Y-14233374D02*
X15568306Y-14242898D01*
X15568306Y-14242898D02*
X15558782Y-14252422D01*
X15558782Y-14252422D02*
X15549258Y-14271469D01*
X15739734Y-14157184D02*
X15739734Y-14195279D01*
X15815925Y-14157184D02*
X15815925Y-14195279D01*
X16111163Y-14433374D02*
X16101639Y-14423850D01*
X16101639Y-14423850D02*
X16082591Y-14395279D01*
X16082591Y-14395279D02*
X16073068Y-14376231D01*
X16073068Y-14376231D02*
X16063544Y-14347660D01*
X16063544Y-14347660D02*
X16054020Y-14300041D01*
X16054020Y-14300041D02*
X16054020Y-14261946D01*
X16054020Y-14261946D02*
X16063544Y-14214327D01*
X16063544Y-14214327D02*
X16073068Y-14185755D01*
X16073068Y-14185755D02*
X16082591Y-14166708D01*
X16082591Y-14166708D02*
X16101639Y-14138136D01*
X16101639Y-14138136D02*
X16111163Y-14128612D01*
X16177829Y-14176231D02*
X16187353Y-14166708D01*
X16187353Y-14166708D02*
X16206401Y-14157184D01*
X16206401Y-14157184D02*
X16254020Y-14157184D01*
X16254020Y-14157184D02*
X16273068Y-14166708D01*
X16273068Y-14166708D02*
X16282591Y-14176231D01*
X16282591Y-14176231D02*
X16292115Y-14195279D01*
X16292115Y-14195279D02*
X16292115Y-14214327D01*
X16292115Y-14214327D02*
X16282591Y-14242898D01*
X16282591Y-14242898D02*
X16168306Y-14357184D01*
X16168306Y-14357184D02*
X16292115Y-14357184D01*
X16530210Y-14357184D02*
X16530210Y-14157184D01*
X16615925Y-14357184D02*
X16615925Y-14252422D01*
X16615925Y-14252422D02*
X16606401Y-14233374D01*
X16606401Y-14233374D02*
X16587353Y-14223850D01*
X16587353Y-14223850D02*
X16558782Y-14223850D01*
X16558782Y-14223850D02*
X16539734Y-14233374D01*
X16539734Y-14233374D02*
X16530210Y-14242898D01*
X16739734Y-14357184D02*
X16720687Y-14347660D01*
X16720687Y-14347660D02*
X16711163Y-14338136D01*
X16711163Y-14338136D02*
X16701639Y-14319088D01*
X16701639Y-14319088D02*
X16701639Y-14261946D01*
X16701639Y-14261946D02*
X16711163Y-14242898D01*
X16711163Y-14242898D02*
X16720687Y-14233374D01*
X16720687Y-14233374D02*
X16739734Y-14223850D01*
X16739734Y-14223850D02*
X16768306Y-14223850D01*
X16768306Y-14223850D02*
X16787353Y-14233374D01*
X16787353Y-14233374D02*
X16796877Y-14242898D01*
X16796877Y-14242898D02*
X16806401Y-14261946D01*
X16806401Y-14261946D02*
X16806401Y-14319088D01*
X16806401Y-14319088D02*
X16796877Y-14338136D01*
X16796877Y-14338136D02*
X16787353Y-14347660D01*
X16787353Y-14347660D02*
X16768306Y-14357184D01*
X16768306Y-14357184D02*
X16739734Y-14357184D01*
X16920687Y-14357184D02*
X16901639Y-14347660D01*
X16901639Y-14347660D02*
X16892115Y-14328612D01*
X16892115Y-14328612D02*
X16892115Y-14157184D01*
X17073068Y-14347660D02*
X17054020Y-14357184D01*
X17054020Y-14357184D02*
X17015925Y-14357184D01*
X17015925Y-14357184D02*
X16996877Y-14347660D01*
X16996877Y-14347660D02*
X16987353Y-14328612D01*
X16987353Y-14328612D02*
X16987353Y-14252422D01*
X16987353Y-14252422D02*
X16996877Y-14233374D01*
X16996877Y-14233374D02*
X17015925Y-14223850D01*
X17015925Y-14223850D02*
X17054020Y-14223850D01*
X17054020Y-14223850D02*
X17073068Y-14233374D01*
X17073068Y-14233374D02*
X17082592Y-14252422D01*
X17082592Y-14252422D02*
X17082592Y-14271469D01*
X17082592Y-14271469D02*
X16987353Y-14290517D01*
X17158782Y-14347660D02*
X17177830Y-14357184D01*
X17177830Y-14357184D02*
X17215925Y-14357184D01*
X17215925Y-14357184D02*
X17234973Y-14347660D01*
X17234973Y-14347660D02*
X17244496Y-14328612D01*
X17244496Y-14328612D02*
X17244496Y-14319088D01*
X17244496Y-14319088D02*
X17234973Y-14300041D01*
X17234973Y-14300041D02*
X17215925Y-14290517D01*
X17215925Y-14290517D02*
X17187353Y-14290517D01*
X17187353Y-14290517D02*
X17168306Y-14280993D01*
X17168306Y-14280993D02*
X17158782Y-14261946D01*
X17158782Y-14261946D02*
X17158782Y-14252422D01*
X17158782Y-14252422D02*
X17168306Y-14233374D01*
X17168306Y-14233374D02*
X17187353Y-14223850D01*
X17187353Y-14223850D02*
X17215925Y-14223850D01*
X17215925Y-14223850D02*
X17234973Y-14233374D01*
X17311163Y-14433374D02*
X17320687Y-14423850D01*
X17320687Y-14423850D02*
X17339734Y-14395279D01*
X17339734Y-14395279D02*
X17349258Y-14376231D01*
X17349258Y-14376231D02*
X17358782Y-14347660D01*
X17358782Y-14347660D02*
X17368306Y-14300041D01*
X17368306Y-14300041D02*
X17368306Y-14261946D01*
X17368306Y-14261946D02*
X17358782Y-14214327D01*
X17358782Y-14214327D02*
X17349258Y-14185755D01*
X17349258Y-14185755D02*
X17339734Y-14166708D01*
X17339734Y-14166708D02*
X17320687Y-14138136D01*
X17320687Y-14138136D02*
X17311163Y-14128612D01*
X17673068Y-14433374D02*
X17663544Y-14423850D01*
X17663544Y-14423850D02*
X17644496Y-14395279D01*
X17644496Y-14395279D02*
X17634973Y-14376231D01*
X17634973Y-14376231D02*
X17625449Y-14347660D01*
X17625449Y-14347660D02*
X17615925Y-14300041D01*
X17615925Y-14300041D02*
X17615925Y-14261946D01*
X17615925Y-14261946D02*
X17625449Y-14214327D01*
X17625449Y-14214327D02*
X17634973Y-14185755D01*
X17634973Y-14185755D02*
X17644496Y-14166708D01*
X17644496Y-14166708D02*
X17663544Y-14138136D01*
X17663544Y-14138136D02*
X17673068Y-14128612D01*
X17749258Y-14223850D02*
X17749258Y-14357184D01*
X17749258Y-14242898D02*
X17758782Y-14233374D01*
X17758782Y-14233374D02*
X17777830Y-14223850D01*
X17777830Y-14223850D02*
X17806401Y-14223850D01*
X17806401Y-14223850D02*
X17825449Y-14233374D01*
X17825449Y-14233374D02*
X17834973Y-14252422D01*
X17834973Y-14252422D02*
X17834973Y-14357184D01*
X17958782Y-14357184D02*
X17939734Y-14347660D01*
X17939734Y-14347660D02*
X17930211Y-14338136D01*
X17930211Y-14338136D02*
X17920687Y-14319088D01*
X17920687Y-14319088D02*
X17920687Y-14261946D01*
X17920687Y-14261946D02*
X17930211Y-14242898D01*
X17930211Y-14242898D02*
X17939734Y-14233374D01*
X17939734Y-14233374D02*
X17958782Y-14223850D01*
X17958782Y-14223850D02*
X17987354Y-14223850D01*
X17987354Y-14223850D02*
X18006401Y-14233374D01*
X18006401Y-14233374D02*
X18015925Y-14242898D01*
X18015925Y-14242898D02*
X18025449Y-14261946D01*
X18025449Y-14261946D02*
X18025449Y-14319088D01*
X18025449Y-14319088D02*
X18015925Y-14338136D01*
X18015925Y-14338136D02*
X18006401Y-14347660D01*
X18006401Y-14347660D02*
X17987354Y-14357184D01*
X17987354Y-14357184D02*
X17958782Y-14357184D01*
X18082592Y-14223850D02*
X18158782Y-14223850D01*
X18111163Y-14157184D02*
X18111163Y-14328612D01*
X18111163Y-14328612D02*
X18120687Y-14347660D01*
X18120687Y-14347660D02*
X18139734Y-14357184D01*
X18139734Y-14357184D02*
X18158782Y-14357184D01*
X18377830Y-14223850D02*
X18377830Y-14423850D01*
X18377830Y-14233374D02*
X18396877Y-14223850D01*
X18396877Y-14223850D02*
X18434973Y-14223850D01*
X18434973Y-14223850D02*
X18454020Y-14233374D01*
X18454020Y-14233374D02*
X18463544Y-14242898D01*
X18463544Y-14242898D02*
X18473068Y-14261946D01*
X18473068Y-14261946D02*
X18473068Y-14319088D01*
X18473068Y-14319088D02*
X18463544Y-14338136D01*
X18463544Y-14338136D02*
X18454020Y-14347660D01*
X18454020Y-14347660D02*
X18434973Y-14357184D01*
X18434973Y-14357184D02*
X18396877Y-14357184D01*
X18396877Y-14357184D02*
X18377830Y-14347660D01*
X18587354Y-14357184D02*
X18568306Y-14347660D01*
X18568306Y-14347660D02*
X18558782Y-14328612D01*
X18558782Y-14328612D02*
X18558782Y-14157184D01*
X18749258Y-14357184D02*
X18749258Y-14252422D01*
X18749258Y-14252422D02*
X18739735Y-14233374D01*
X18739735Y-14233374D02*
X18720687Y-14223850D01*
X18720687Y-14223850D02*
X18682592Y-14223850D01*
X18682592Y-14223850D02*
X18663544Y-14233374D01*
X18749258Y-14347660D02*
X18730211Y-14357184D01*
X18730211Y-14357184D02*
X18682592Y-14357184D01*
X18682592Y-14357184D02*
X18663544Y-14347660D01*
X18663544Y-14347660D02*
X18654020Y-14328612D01*
X18654020Y-14328612D02*
X18654020Y-14309565D01*
X18654020Y-14309565D02*
X18663544Y-14290517D01*
X18663544Y-14290517D02*
X18682592Y-14280993D01*
X18682592Y-14280993D02*
X18730211Y-14280993D01*
X18730211Y-14280993D02*
X18749258Y-14271469D01*
X18815925Y-14223850D02*
X18892115Y-14223850D01*
X18844496Y-14157184D02*
X18844496Y-14328612D01*
X18844496Y-14328612D02*
X18854020Y-14347660D01*
X18854020Y-14347660D02*
X18873068Y-14357184D01*
X18873068Y-14357184D02*
X18892115Y-14357184D01*
X19034973Y-14347660D02*
X19015925Y-14357184D01*
X19015925Y-14357184D02*
X18977830Y-14357184D01*
X18977830Y-14357184D02*
X18958782Y-14347660D01*
X18958782Y-14347660D02*
X18949258Y-14328612D01*
X18949258Y-14328612D02*
X18949258Y-14252422D01*
X18949258Y-14252422D02*
X18958782Y-14233374D01*
X18958782Y-14233374D02*
X18977830Y-14223850D01*
X18977830Y-14223850D02*
X19015925Y-14223850D01*
X19015925Y-14223850D02*
X19034973Y-14233374D01*
X19034973Y-14233374D02*
X19044496Y-14252422D01*
X19044496Y-14252422D02*
X19044496Y-14271469D01*
X19044496Y-14271469D02*
X18949258Y-14290517D01*
X19215925Y-14357184D02*
X19215925Y-14157184D01*
X19215925Y-14347660D02*
X19196877Y-14357184D01*
X19196877Y-14357184D02*
X19158782Y-14357184D01*
X19158782Y-14357184D02*
X19139735Y-14347660D01*
X19139735Y-14347660D02*
X19130211Y-14338136D01*
X19130211Y-14338136D02*
X19120687Y-14319088D01*
X19120687Y-14319088D02*
X19120687Y-14261946D01*
X19120687Y-14261946D02*
X19130211Y-14242898D01*
X19130211Y-14242898D02*
X19139735Y-14233374D01*
X19139735Y-14233374D02*
X19158782Y-14223850D01*
X19158782Y-14223850D02*
X19196877Y-14223850D01*
X19196877Y-14223850D02*
X19215925Y-14233374D01*
X19292116Y-14433374D02*
X19301639Y-14423850D01*
X19301639Y-14423850D02*
X19320687Y-14395279D01*
X19320687Y-14395279D02*
X19330211Y-14376231D01*
X19330211Y-14376231D02*
X19339735Y-14347660D01*
X19339735Y-14347660D02*
X19349258Y-14300041D01*
X19349258Y-14300041D02*
X19349258Y-14261946D01*
X19349258Y-14261946D02*
X19339735Y-14214327D01*
X19339735Y-14214327D02*
X19330211Y-14185755D01*
X19330211Y-14185755D02*
X19320687Y-14166708D01*
X19320687Y-14166708D02*
X19301639Y-14138136D01*
X19301639Y-14138136D02*
X19292116Y-14128612D01*
M02*
