%TF.GenerationSoftware,KiCad,Pcbnew,9.0.0*%
%TF.CreationDate,2025-11-24T16:34:34+00:00*%
%TF.ProjectId,OE PyBoard,4f452050-7942-46f6-9172-642e6b696361,rev?*%
%TF.SameCoordinates,Original*%
%TF.FileFunction,Legend,Bot*%
%TF.FilePolarity,Positive*%
%FSLAX46Y46*%
G04 Gerber Fmt 4.6, Leading zero omitted, Abs format (unit mm)*
G04 Created by KiCad (PCBNEW 9.0.0) date 2025-11-24 16:34:34*
%MOMM*%
%LPD*%
G01*
G04 APERTURE LIST*
G04 Aperture macros list*
%AMFreePoly0*
4,1,23,0.500000,-0.750000,0.000000,-0.750000,0.000000,-0.745722,-0.065263,-0.745722,-0.191342,-0.711940,-0.304381,-0.646677,-0.396677,-0.554381,-0.461940,-0.441342,-0.495722,-0.315263,-0.495722,-0.250000,-0.500000,-0.250000,-0.500000,0.250000,-0.495722,0.250000,-0.495722,0.315263,-0.461940,0.441342,-0.396677,0.554381,-0.304381,0.646677,-0.191342,0.711940,-0.065263,0.745722,0.000000,0.745722,
0.000000,0.750000,0.500000,0.750000,0.500000,-0.750000,0.500000,-0.750000,$1*%
%AMFreePoly1*
4,1,23,0.000000,0.745722,0.065263,0.745722,0.191342,0.711940,0.304381,0.646677,0.396677,0.554381,0.461940,0.441342,0.495722,0.315263,0.495722,0.250000,0.500000,0.250000,0.500000,-0.250000,0.495722,-0.250000,0.495722,-0.315263,0.461940,-0.441342,0.396677,-0.554381,0.304381,-0.646677,0.191342,-0.711940,0.065263,-0.745722,0.000000,-0.745722,0.000000,-0.750000,-0.500000,-0.750000,
-0.500000,0.750000,0.000000,0.750000,0.000000,0.745722,0.000000,0.745722,$1*%
G04 Aperture macros list end*
%ADD10C,0.250000*%
%ADD11C,0.100000*%
%ADD12C,0.650000*%
%ADD13O,1.000000X2.100000*%
%ADD14O,1.000000X1.800000*%
%ADD15R,1.700000X1.700000*%
%ADD16C,1.700000*%
%ADD17FreePoly0,0.000000*%
%ADD18FreePoly1,0.000000*%
%TA.AperFunction,Profile*%
%ADD19C,0.230000*%
%TD*%
G04 APERTURE END LIST*
D10*
X147040475Y-127692444D02*
X147423808Y-127692444D01*
X147423808Y-128294825D02*
X147423808Y-127144825D01*
X147423808Y-127144825D02*
X146876189Y-127144825D01*
X146273808Y-128294825D02*
X146383332Y-128240064D01*
X146383332Y-128240064D02*
X146438094Y-128185302D01*
X146438094Y-128185302D02*
X146492856Y-128075778D01*
X146492856Y-128075778D02*
X146492856Y-127747206D01*
X146492856Y-127747206D02*
X146438094Y-127637683D01*
X146438094Y-127637683D02*
X146383332Y-127582921D01*
X146383332Y-127582921D02*
X146273808Y-127528159D01*
X146273808Y-127528159D02*
X146109523Y-127528159D01*
X146109523Y-127528159D02*
X145999999Y-127582921D01*
X145999999Y-127582921D02*
X145945237Y-127637683D01*
X145945237Y-127637683D02*
X145890475Y-127747206D01*
X145890475Y-127747206D02*
X145890475Y-128075778D01*
X145890475Y-128075778D02*
X145945237Y-128185302D01*
X145945237Y-128185302D02*
X145999999Y-128240064D01*
X145999999Y-128240064D02*
X146109523Y-128294825D01*
X146109523Y-128294825D02*
X146273808Y-128294825D01*
X145397618Y-128294825D02*
X145397618Y-127528159D01*
X145397618Y-127747206D02*
X145342856Y-127637683D01*
X145342856Y-127637683D02*
X145288094Y-127582921D01*
X145288094Y-127582921D02*
X145178570Y-127528159D01*
X145178570Y-127528159D02*
X145069047Y-127528159D01*
X143152380Y-128294825D02*
X143535713Y-127747206D01*
X143809523Y-128294825D02*
X143809523Y-127144825D01*
X143809523Y-127144825D02*
X143371428Y-127144825D01*
X143371428Y-127144825D02*
X143261904Y-127199587D01*
X143261904Y-127199587D02*
X143207142Y-127254349D01*
X143207142Y-127254349D02*
X143152380Y-127363873D01*
X143152380Y-127363873D02*
X143152380Y-127528159D01*
X143152380Y-127528159D02*
X143207142Y-127637683D01*
X143207142Y-127637683D02*
X143261904Y-127692444D01*
X143261904Y-127692444D02*
X143371428Y-127747206D01*
X143371428Y-127747206D02*
X143809523Y-127747206D01*
X142221428Y-128240064D02*
X142330952Y-128294825D01*
X142330952Y-128294825D02*
X142549999Y-128294825D01*
X142549999Y-128294825D02*
X142659523Y-128240064D01*
X142659523Y-128240064D02*
X142714285Y-128130540D01*
X142714285Y-128130540D02*
X142714285Y-127692444D01*
X142714285Y-127692444D02*
X142659523Y-127582921D01*
X142659523Y-127582921D02*
X142549999Y-127528159D01*
X142549999Y-127528159D02*
X142330952Y-127528159D01*
X142330952Y-127528159D02*
X142221428Y-127582921D01*
X142221428Y-127582921D02*
X142166666Y-127692444D01*
X142166666Y-127692444D02*
X142166666Y-127801968D01*
X142166666Y-127801968D02*
X142714285Y-127911492D01*
X141728571Y-128240064D02*
X141619047Y-128294825D01*
X141619047Y-128294825D02*
X141399999Y-128294825D01*
X141399999Y-128294825D02*
X141290476Y-128240064D01*
X141290476Y-128240064D02*
X141235714Y-128130540D01*
X141235714Y-128130540D02*
X141235714Y-128075778D01*
X141235714Y-128075778D02*
X141290476Y-127966254D01*
X141290476Y-127966254D02*
X141399999Y-127911492D01*
X141399999Y-127911492D02*
X141564285Y-127911492D01*
X141564285Y-127911492D02*
X141673809Y-127856730D01*
X141673809Y-127856730D02*
X141728571Y-127747206D01*
X141728571Y-127747206D02*
X141728571Y-127692444D01*
X141728571Y-127692444D02*
X141673809Y-127582921D01*
X141673809Y-127582921D02*
X141564285Y-127528159D01*
X141564285Y-127528159D02*
X141399999Y-127528159D01*
X141399999Y-127528159D02*
X141290476Y-127582921D01*
X140304762Y-128240064D02*
X140414286Y-128294825D01*
X140414286Y-128294825D02*
X140633333Y-128294825D01*
X140633333Y-128294825D02*
X140742857Y-128240064D01*
X140742857Y-128240064D02*
X140797619Y-128130540D01*
X140797619Y-128130540D02*
X140797619Y-127692444D01*
X140797619Y-127692444D02*
X140742857Y-127582921D01*
X140742857Y-127582921D02*
X140633333Y-127528159D01*
X140633333Y-127528159D02*
X140414286Y-127528159D01*
X140414286Y-127528159D02*
X140304762Y-127582921D01*
X140304762Y-127582921D02*
X140250000Y-127692444D01*
X140250000Y-127692444D02*
X140250000Y-127801968D01*
X140250000Y-127801968D02*
X140797619Y-127911492D01*
X139264286Y-128294825D02*
X139264286Y-127692444D01*
X139264286Y-127692444D02*
X139319048Y-127582921D01*
X139319048Y-127582921D02*
X139428572Y-127528159D01*
X139428572Y-127528159D02*
X139647619Y-127528159D01*
X139647619Y-127528159D02*
X139757143Y-127582921D01*
X139264286Y-128240064D02*
X139373810Y-128294825D01*
X139373810Y-128294825D02*
X139647619Y-128294825D01*
X139647619Y-128294825D02*
X139757143Y-128240064D01*
X139757143Y-128240064D02*
X139811905Y-128130540D01*
X139811905Y-128130540D02*
X139811905Y-128021016D01*
X139811905Y-128021016D02*
X139757143Y-127911492D01*
X139757143Y-127911492D02*
X139647619Y-127856730D01*
X139647619Y-127856730D02*
X139373810Y-127856730D01*
X139373810Y-127856730D02*
X139264286Y-127801968D01*
X138716667Y-128294825D02*
X138716667Y-127528159D01*
X138716667Y-127747206D02*
X138661905Y-127637683D01*
X138661905Y-127637683D02*
X138607143Y-127582921D01*
X138607143Y-127582921D02*
X138497619Y-127528159D01*
X138497619Y-127528159D02*
X138388096Y-127528159D01*
X137511905Y-128240064D02*
X137621429Y-128294825D01*
X137621429Y-128294825D02*
X137840476Y-128294825D01*
X137840476Y-128294825D02*
X137950000Y-128240064D01*
X137950000Y-128240064D02*
X138004762Y-128185302D01*
X138004762Y-128185302D02*
X138059524Y-128075778D01*
X138059524Y-128075778D02*
X138059524Y-127747206D01*
X138059524Y-127747206D02*
X138004762Y-127637683D01*
X138004762Y-127637683D02*
X137950000Y-127582921D01*
X137950000Y-127582921D02*
X137840476Y-127528159D01*
X137840476Y-127528159D02*
X137621429Y-127528159D01*
X137621429Y-127528159D02*
X137511905Y-127582921D01*
X137019048Y-128294825D02*
X137019048Y-127144825D01*
X136526191Y-128294825D02*
X136526191Y-127692444D01*
X136526191Y-127692444D02*
X136580953Y-127582921D01*
X136580953Y-127582921D02*
X136690477Y-127528159D01*
X136690477Y-127528159D02*
X136854762Y-127528159D01*
X136854762Y-127528159D02*
X136964286Y-127582921D01*
X136964286Y-127582921D02*
X137019048Y-127637683D01*
X145561903Y-128996261D02*
X145561903Y-129927214D01*
X145561903Y-129927214D02*
X145507141Y-130036738D01*
X145507141Y-130036738D02*
X145452379Y-130091500D01*
X145452379Y-130091500D02*
X145342855Y-130146261D01*
X145342855Y-130146261D02*
X145123808Y-130146261D01*
X145123808Y-130146261D02*
X145014284Y-130091500D01*
X145014284Y-130091500D02*
X144959522Y-130036738D01*
X144959522Y-130036738D02*
X144904760Y-129927214D01*
X144904760Y-129927214D02*
X144904760Y-128996261D01*
X144411903Y-130091500D02*
X144302379Y-130146261D01*
X144302379Y-130146261D02*
X144083331Y-130146261D01*
X144083331Y-130146261D02*
X143973808Y-130091500D01*
X143973808Y-130091500D02*
X143919046Y-129981976D01*
X143919046Y-129981976D02*
X143919046Y-129927214D01*
X143919046Y-129927214D02*
X143973808Y-129817690D01*
X143973808Y-129817690D02*
X144083331Y-129762928D01*
X144083331Y-129762928D02*
X144247617Y-129762928D01*
X144247617Y-129762928D02*
X144357141Y-129708166D01*
X144357141Y-129708166D02*
X144411903Y-129598642D01*
X144411903Y-129598642D02*
X144411903Y-129543880D01*
X144411903Y-129543880D02*
X144357141Y-129434357D01*
X144357141Y-129434357D02*
X144247617Y-129379595D01*
X144247617Y-129379595D02*
X144083331Y-129379595D01*
X144083331Y-129379595D02*
X143973808Y-129434357D01*
X142988094Y-130091500D02*
X143097618Y-130146261D01*
X143097618Y-130146261D02*
X143316665Y-130146261D01*
X143316665Y-130146261D02*
X143426189Y-130091500D01*
X143426189Y-130091500D02*
X143480951Y-129981976D01*
X143480951Y-129981976D02*
X143480951Y-129543880D01*
X143480951Y-129543880D02*
X143426189Y-129434357D01*
X143426189Y-129434357D02*
X143316665Y-129379595D01*
X143316665Y-129379595D02*
X143097618Y-129379595D01*
X143097618Y-129379595D02*
X142988094Y-129434357D01*
X142988094Y-129434357D02*
X142933332Y-129543880D01*
X142933332Y-129543880D02*
X142933332Y-129653404D01*
X142933332Y-129653404D02*
X143480951Y-129762928D01*
X141345237Y-128996261D02*
X141126190Y-128996261D01*
X141126190Y-128996261D02*
X141016666Y-129051023D01*
X141016666Y-129051023D02*
X140907142Y-129160547D01*
X140907142Y-129160547D02*
X140852380Y-129379595D01*
X140852380Y-129379595D02*
X140852380Y-129762928D01*
X140852380Y-129762928D02*
X140907142Y-129981976D01*
X140907142Y-129981976D02*
X141016666Y-130091500D01*
X141016666Y-130091500D02*
X141126190Y-130146261D01*
X141126190Y-130146261D02*
X141345237Y-130146261D01*
X141345237Y-130146261D02*
X141454761Y-130091500D01*
X141454761Y-130091500D02*
X141564285Y-129981976D01*
X141564285Y-129981976D02*
X141619047Y-129762928D01*
X141619047Y-129762928D02*
X141619047Y-129379595D01*
X141619047Y-129379595D02*
X141564285Y-129160547D01*
X141564285Y-129160547D02*
X141454761Y-129051023D01*
X141454761Y-129051023D02*
X141345237Y-128996261D01*
X140359523Y-129379595D02*
X140359523Y-130146261D01*
X140359523Y-129489119D02*
X140304761Y-129434357D01*
X140304761Y-129434357D02*
X140195237Y-129379595D01*
X140195237Y-129379595D02*
X140030952Y-129379595D01*
X140030952Y-129379595D02*
X139921428Y-129434357D01*
X139921428Y-129434357D02*
X139866666Y-129543880D01*
X139866666Y-129543880D02*
X139866666Y-130146261D01*
X139154761Y-130146261D02*
X139264285Y-130091500D01*
X139264285Y-130091500D02*
X139319047Y-129981976D01*
X139319047Y-129981976D02*
X139319047Y-128996261D01*
X138826190Y-129379595D02*
X138552380Y-130146261D01*
X138278571Y-129379595D02*
X138552380Y-130146261D01*
X138552380Y-130146261D02*
X138661904Y-130420071D01*
X138661904Y-130420071D02*
X138716666Y-130474833D01*
X138716666Y-130474833D02*
X138826190Y-130529595D01*
D11*
%TO.C,JP2*%
X149730000Y-97439200D02*
X149730000Y-98039200D01*
X150430000Y-98739200D02*
X151830000Y-98739200D01*
X151830000Y-96739200D02*
X150430000Y-96739200D01*
X152530000Y-98039200D02*
X152530000Y-97439200D01*
X149730000Y-97439200D02*
G75*
G02*
X150430000Y-96739200I699999J1D01*
G01*
X150430000Y-98739200D02*
G75*
G02*
X149730000Y-98039200I-1J699999D01*
G01*
X151830000Y-96739200D02*
G75*
G02*
X152530000Y-97439200I0J-700000D01*
G01*
X152530000Y-98039200D02*
G75*
G02*
X151830000Y-98739200I-700000J0D01*
G01*
%TO.C,REF\u002A\u002A*%
X146442850Y-116893622D02*
X146442846Y-116918670D01*
X146442820Y-117064179D01*
X146442780Y-117196495D01*
X146442719Y-117316264D01*
X146442630Y-117424130D01*
X146442506Y-117520736D01*
X146442339Y-117606727D01*
X146442123Y-117682747D01*
X146441850Y-117749439D01*
X146441514Y-117807448D01*
X146441106Y-117857418D01*
X146440620Y-117899993D01*
X146440049Y-117935817D01*
X146439386Y-117965533D01*
X146438623Y-117989787D01*
X146437753Y-118009222D01*
X146436770Y-118024482D01*
X146435665Y-118036211D01*
X146434432Y-118045053D01*
X146433064Y-118051652D01*
X146431554Y-118056653D01*
X146429893Y-118060699D01*
X146417176Y-118083716D01*
X146397946Y-118104435D01*
X146369814Y-118122281D01*
X146369561Y-118122413D01*
X146345722Y-118129896D01*
X146314845Y-118133222D01*
X146283186Y-118132159D01*
X146256999Y-118126474D01*
X146231353Y-118111873D01*
X146204627Y-118085846D01*
X146184374Y-118053729D01*
X146181805Y-118047652D01*
X146179196Y-118039321D01*
X146177063Y-118028647D01*
X146175356Y-118014343D01*
X146174028Y-117995118D01*
X146173030Y-117969686D01*
X146172314Y-117936755D01*
X146171833Y-117895039D01*
X146171538Y-117843249D01*
X146171380Y-117780095D01*
X146171312Y-117704289D01*
X146171159Y-117382731D01*
X146012583Y-117379272D01*
X146012353Y-117379267D01*
X145952168Y-117377670D01*
X145903457Y-117375499D01*
X145863766Y-117372312D01*
X145830636Y-117367667D01*
X145801611Y-117361123D01*
X145774234Y-117352238D01*
X145746050Y-117340570D01*
X145714600Y-117325676D01*
X145648595Y-117287310D01*
X145584149Y-117235086D01*
X145529726Y-117173264D01*
X145485605Y-117102168D01*
X145452061Y-117022115D01*
X145435786Y-116973323D01*
X145435786Y-116513279D01*
X145435786Y-116304982D01*
X145704848Y-116304982D01*
X145704993Y-116366728D01*
X145705280Y-116440118D01*
X145705677Y-116526301D01*
X145707630Y-116938471D01*
X145724802Y-116973323D01*
X145737354Y-116995127D01*
X145768956Y-117033993D01*
X145807426Y-117066568D01*
X145848699Y-117089056D01*
X145860271Y-117093324D01*
X145875487Y-117097773D01*
X145892765Y-117101077D01*
X145914481Y-117103479D01*
X145943009Y-117105226D01*
X145980727Y-117106561D01*
X146030009Y-117107729D01*
X146171159Y-117110676D01*
X146171159Y-116516984D01*
X146171159Y-115923291D01*
X146023039Y-115925530D01*
X145980253Y-115926209D01*
X145941229Y-115927050D01*
X145912015Y-115928184D01*
X145890385Y-115929870D01*
X145874112Y-115932365D01*
X145860970Y-115935928D01*
X145848731Y-115940816D01*
X145835169Y-115947288D01*
X145813366Y-115959814D01*
X145773843Y-115992234D01*
X145740915Y-116032069D01*
X145718249Y-116075307D01*
X145718220Y-116075387D01*
X145715189Y-116083833D01*
X145712621Y-116092443D01*
X145710482Y-116102365D01*
X145708740Y-116114746D01*
X145707364Y-116130735D01*
X145706322Y-116151481D01*
X145705581Y-116178130D01*
X145705110Y-116211831D01*
X145704876Y-116253732D01*
X145704848Y-116304982D01*
X145435786Y-116304982D01*
X145435786Y-116053235D01*
X145455414Y-115997472D01*
X145461606Y-115980744D01*
X145498274Y-115904606D01*
X145545447Y-115836726D01*
X145602130Y-115778013D01*
X145667326Y-115729376D01*
X145740037Y-115691722D01*
X145819266Y-115665962D01*
X145822320Y-115665242D01*
X145839111Y-115661576D01*
X145855819Y-115658678D01*
X145874195Y-115656476D01*
X145895992Y-115654899D01*
X145922965Y-115653877D01*
X145956864Y-115653339D01*
X145999444Y-115653214D01*
X146052457Y-115653432D01*
X146117657Y-115653921D01*
X146356918Y-115655924D01*
X146385175Y-115674633D01*
X146408474Y-115695159D01*
X146428218Y-115723883D01*
X146443003Y-115754426D01*
X146442901Y-116516984D01*
X146442850Y-116893622D01*
G36*
X146442850Y-116893622D02*
G01*
X146442846Y-116918670D01*
X146442820Y-117064179D01*
X146442780Y-117196495D01*
X146442719Y-117316264D01*
X146442630Y-117424130D01*
X146442506Y-117520736D01*
X146442339Y-117606727D01*
X146442123Y-117682747D01*
X146441850Y-117749439D01*
X146441514Y-117807448D01*
X146441106Y-117857418D01*
X146440620Y-117899993D01*
X146440049Y-117935817D01*
X146439386Y-117965533D01*
X146438623Y-117989787D01*
X146437753Y-118009222D01*
X146436770Y-118024482D01*
X146435665Y-118036211D01*
X146434432Y-118045053D01*
X146433064Y-118051652D01*
X146431554Y-118056653D01*
X146429893Y-118060699D01*
X146417176Y-118083716D01*
X146397946Y-118104435D01*
X146369814Y-118122281D01*
X146369561Y-118122413D01*
X146345722Y-118129896D01*
X146314845Y-118133222D01*
X146283186Y-118132159D01*
X146256999Y-118126474D01*
X146231353Y-118111873D01*
X146204627Y-118085846D01*
X146184374Y-118053729D01*
X146181805Y-118047652D01*
X146179196Y-118039321D01*
X146177063Y-118028647D01*
X146175356Y-118014343D01*
X146174028Y-117995118D01*
X146173030Y-117969686D01*
X146172314Y-117936755D01*
X146171833Y-117895039D01*
X146171538Y-117843249D01*
X146171380Y-117780095D01*
X146171312Y-117704289D01*
X146171159Y-117382731D01*
X146012583Y-117379272D01*
X146012353Y-117379267D01*
X145952168Y-117377670D01*
X145903457Y-117375499D01*
X145863766Y-117372312D01*
X145830636Y-117367667D01*
X145801611Y-117361123D01*
X145774234Y-117352238D01*
X145746050Y-117340570D01*
X145714600Y-117325676D01*
X145648595Y-117287310D01*
X145584149Y-117235086D01*
X145529726Y-117173264D01*
X145485605Y-117102168D01*
X145452061Y-117022115D01*
X145435786Y-116973323D01*
X145435786Y-116513279D01*
X145435786Y-116304982D01*
X145704848Y-116304982D01*
X145704993Y-116366728D01*
X145705280Y-116440118D01*
X145705677Y-116526301D01*
X145707630Y-116938471D01*
X145724802Y-116973323D01*
X145737354Y-116995127D01*
X145768956Y-117033993D01*
X145807426Y-117066568D01*
X145848699Y-117089056D01*
X145860271Y-117093324D01*
X145875487Y-117097773D01*
X145892765Y-117101077D01*
X145914481Y-117103479D01*
X145943009Y-117105226D01*
X145980727Y-117106561D01*
X146030009Y-117107729D01*
X146171159Y-117110676D01*
X146171159Y-116516984D01*
X146171159Y-115923291D01*
X146023039Y-115925530D01*
X145980253Y-115926209D01*
X145941229Y-115927050D01*
X145912015Y-115928184D01*
X145890385Y-115929870D01*
X145874112Y-115932365D01*
X145860970Y-115935928D01*
X145848731Y-115940816D01*
X145835169Y-115947288D01*
X145813366Y-115959814D01*
X145773843Y-115992234D01*
X145740915Y-116032069D01*
X145718249Y-116075307D01*
X145718220Y-116075387D01*
X145715189Y-116083833D01*
X145712621Y-116092443D01*
X145710482Y-116102365D01*
X145708740Y-116114746D01*
X145707364Y-116130735D01*
X145706322Y-116151481D01*
X145705581Y-116178130D01*
X145705110Y-116211831D01*
X145704876Y-116253732D01*
X145704848Y-116304982D01*
X145435786Y-116304982D01*
X145435786Y-116053235D01*
X145455414Y-115997472D01*
X145461606Y-115980744D01*
X145498274Y-115904606D01*
X145545447Y-115836726D01*
X145602130Y-115778013D01*
X145667326Y-115729376D01*
X145740037Y-115691722D01*
X145819266Y-115665962D01*
X145822320Y-115665242D01*
X145839111Y-115661576D01*
X145855819Y-115658678D01*
X145874195Y-115656476D01*
X145895992Y-115654899D01*
X145922965Y-115653877D01*
X145956864Y-115653339D01*
X145999444Y-115653214D01*
X146052457Y-115653432D01*
X146117657Y-115653921D01*
X146356918Y-115655924D01*
X146385175Y-115674633D01*
X146408474Y-115695159D01*
X146428218Y-115723883D01*
X146443003Y-115754426D01*
X146442901Y-116516984D01*
X146442850Y-116893622D01*
G37*
X136768004Y-115641831D02*
X136817566Y-115648502D01*
X136858755Y-115658818D01*
X136863968Y-115660635D01*
X136935791Y-115693261D01*
X137002341Y-115737513D01*
X137061171Y-115791498D01*
X137109837Y-115853321D01*
X137122754Y-115874244D01*
X137155204Y-115943348D01*
X137175505Y-116016265D01*
X137183835Y-116091209D01*
X137180372Y-116166396D01*
X137165292Y-116240040D01*
X137138773Y-116310356D01*
X137100993Y-116375559D01*
X137052130Y-116433865D01*
X137045668Y-116439756D01*
X137026321Y-116455594D01*
X136998112Y-116477446D01*
X136962688Y-116504083D01*
X136921695Y-116534274D01*
X136876776Y-116566787D01*
X136829578Y-116600391D01*
X136801685Y-116620160D01*
X136755919Y-116652933D01*
X136713529Y-116683692D01*
X136676128Y-116711246D01*
X136645326Y-116734404D01*
X136622735Y-116751972D01*
X136609969Y-116762760D01*
X136606163Y-116766511D01*
X136576198Y-116806320D01*
X136556921Y-116852468D01*
X136548848Y-116902017D01*
X136552495Y-116952029D01*
X136568378Y-116999566D01*
X136581073Y-117022107D01*
X136614898Y-117062724D01*
X136656829Y-117093097D01*
X136705034Y-117112076D01*
X136757685Y-117118512D01*
X136774914Y-117117956D01*
X136815774Y-117111598D01*
X136852787Y-117097125D01*
X136888013Y-117073261D01*
X136923516Y-117038725D01*
X136961357Y-116992239D01*
X136982775Y-116971385D01*
X137014814Y-116955455D01*
X137051104Y-116948942D01*
X137088632Y-116951575D01*
X137124380Y-116963086D01*
X137155332Y-116983204D01*
X137178473Y-117011660D01*
X137183431Y-117021125D01*
X137196211Y-117060062D01*
X137196388Y-117099625D01*
X137183800Y-117141208D01*
X137158287Y-117186203D01*
X137118887Y-117235679D01*
X137062063Y-117287726D01*
X136996165Y-117331216D01*
X136922979Y-117365001D01*
X136844290Y-117387932D01*
X136833708Y-117389542D01*
X136807384Y-117391490D01*
X136774658Y-117392292D01*
X136740259Y-117391772D01*
X136684517Y-117387127D01*
X136612486Y-117371642D01*
X136546094Y-117344892D01*
X136483287Y-117305989D01*
X136422010Y-117254043D01*
X136379730Y-117208160D01*
X136334633Y-117142112D01*
X136301996Y-117070762D01*
X136282181Y-116995193D01*
X136275548Y-116916493D01*
X136282461Y-116835745D01*
X136301369Y-116756537D01*
X136331577Y-116682170D01*
X136372745Y-116615951D01*
X136425186Y-116557268D01*
X136425508Y-116556964D01*
X136442122Y-116542764D01*
X136468238Y-116522196D01*
X136501908Y-116496718D01*
X136541181Y-116467785D01*
X136584106Y-116436851D01*
X136628733Y-116405373D01*
X136685090Y-116366032D01*
X136733825Y-116331849D01*
X136773311Y-116303825D01*
X136804670Y-116281044D01*
X136829028Y-116262589D01*
X136847506Y-116247543D01*
X136861231Y-116234989D01*
X136871324Y-116224010D01*
X136878909Y-116213690D01*
X136885112Y-116203113D01*
X136891054Y-116191360D01*
X136897998Y-116175519D01*
X136910077Y-116126875D01*
X136909375Y-116078513D01*
X136896616Y-116032389D01*
X136872526Y-115990464D01*
X136837829Y-115954694D01*
X136793249Y-115927038D01*
X136753400Y-115914062D01*
X136703536Y-115911274D01*
X136649166Y-115921548D01*
X136647657Y-115921998D01*
X136633186Y-115926877D01*
X136620188Y-115933052D01*
X136606885Y-115942053D01*
X136591499Y-115955410D01*
X136572251Y-115974653D01*
X136547362Y-116001312D01*
X136515053Y-116036916D01*
X136502501Y-116048977D01*
X136470604Y-116067687D01*
X136435632Y-116075335D01*
X136399837Y-116072864D01*
X136365473Y-116061216D01*
X136334794Y-116041333D01*
X136310054Y-116014160D01*
X136293507Y-115980638D01*
X136287406Y-115941709D01*
X136288225Y-115927670D01*
X136299119Y-115886930D01*
X136321451Y-115844974D01*
X136353651Y-115803242D01*
X136394146Y-115763173D01*
X136441365Y-115726208D01*
X136493735Y-115693787D01*
X136549685Y-115667350D01*
X136607642Y-115648337D01*
X136619148Y-115645777D01*
X136663788Y-115640260D01*
X136715075Y-115639014D01*
X136768004Y-115641831D01*
G36*
X136768004Y-115641831D02*
G01*
X136817566Y-115648502D01*
X136858755Y-115658818D01*
X136863968Y-115660635D01*
X136935791Y-115693261D01*
X137002341Y-115737513D01*
X137061171Y-115791498D01*
X137109837Y-115853321D01*
X137122754Y-115874244D01*
X137155204Y-115943348D01*
X137175505Y-116016265D01*
X137183835Y-116091209D01*
X137180372Y-116166396D01*
X137165292Y-116240040D01*
X137138773Y-116310356D01*
X137100993Y-116375559D01*
X137052130Y-116433865D01*
X137045668Y-116439756D01*
X137026321Y-116455594D01*
X136998112Y-116477446D01*
X136962688Y-116504083D01*
X136921695Y-116534274D01*
X136876776Y-116566787D01*
X136829578Y-116600391D01*
X136801685Y-116620160D01*
X136755919Y-116652933D01*
X136713529Y-116683692D01*
X136676128Y-116711246D01*
X136645326Y-116734404D01*
X136622735Y-116751972D01*
X136609969Y-116762760D01*
X136606163Y-116766511D01*
X136576198Y-116806320D01*
X136556921Y-116852468D01*
X136548848Y-116902017D01*
X136552495Y-116952029D01*
X136568378Y-116999566D01*
X136581073Y-117022107D01*
X136614898Y-117062724D01*
X136656829Y-117093097D01*
X136705034Y-117112076D01*
X136757685Y-117118512D01*
X136774914Y-117117956D01*
X136815774Y-117111598D01*
X136852787Y-117097125D01*
X136888013Y-117073261D01*
X136923516Y-117038725D01*
X136961357Y-116992239D01*
X136982775Y-116971385D01*
X137014814Y-116955455D01*
X137051104Y-116948942D01*
X137088632Y-116951575D01*
X137124380Y-116963086D01*
X137155332Y-116983204D01*
X137178473Y-117011660D01*
X137183431Y-117021125D01*
X137196211Y-117060062D01*
X137196388Y-117099625D01*
X137183800Y-117141208D01*
X137158287Y-117186203D01*
X137118887Y-117235679D01*
X137062063Y-117287726D01*
X136996165Y-117331216D01*
X136922979Y-117365001D01*
X136844290Y-117387932D01*
X136833708Y-117389542D01*
X136807384Y-117391490D01*
X136774658Y-117392292D01*
X136740259Y-117391772D01*
X136684517Y-117387127D01*
X136612486Y-117371642D01*
X136546094Y-117344892D01*
X136483287Y-117305989D01*
X136422010Y-117254043D01*
X136379730Y-117208160D01*
X136334633Y-117142112D01*
X136301996Y-117070762D01*
X136282181Y-116995193D01*
X136275548Y-116916493D01*
X136282461Y-116835745D01*
X136301369Y-116756537D01*
X136331577Y-116682170D01*
X136372745Y-116615951D01*
X136425186Y-116557268D01*
X136425508Y-116556964D01*
X136442122Y-116542764D01*
X136468238Y-116522196D01*
X136501908Y-116496718D01*
X136541181Y-116467785D01*
X136584106Y-116436851D01*
X136628733Y-116405373D01*
X136685090Y-116366032D01*
X136733825Y-116331849D01*
X136773311Y-116303825D01*
X136804670Y-116281044D01*
X136829028Y-116262589D01*
X136847506Y-116247543D01*
X136861231Y-116234989D01*
X136871324Y-116224010D01*
X136878909Y-116213690D01*
X136885112Y-116203113D01*
X136891054Y-116191360D01*
X136897998Y-116175519D01*
X136910077Y-116126875D01*
X136909375Y-116078513D01*
X136896616Y-116032389D01*
X136872526Y-115990464D01*
X136837829Y-115954694D01*
X136793249Y-115927038D01*
X136753400Y-115914062D01*
X136703536Y-115911274D01*
X136649166Y-115921548D01*
X136647657Y-115921998D01*
X136633186Y-115926877D01*
X136620188Y-115933052D01*
X136606885Y-115942053D01*
X136591499Y-115955410D01*
X136572251Y-115974653D01*
X136547362Y-116001312D01*
X136515053Y-116036916D01*
X136502501Y-116048977D01*
X136470604Y-116067687D01*
X136435632Y-116075335D01*
X136399837Y-116072864D01*
X136365473Y-116061216D01*
X136334794Y-116041333D01*
X136310054Y-116014160D01*
X136293507Y-115980638D01*
X136287406Y-115941709D01*
X136288225Y-115927670D01*
X136299119Y-115886930D01*
X136321451Y-115844974D01*
X136353651Y-115803242D01*
X136394146Y-115763173D01*
X136441365Y-115726208D01*
X136493735Y-115693787D01*
X136549685Y-115667350D01*
X136607642Y-115648337D01*
X136619148Y-115645777D01*
X136663788Y-115640260D01*
X136715075Y-115639014D01*
X136768004Y-115641831D01*
G37*
X147724070Y-116488575D02*
X147724413Y-116563605D01*
X147724703Y-116644601D01*
X147724824Y-116713702D01*
X147724756Y-116772038D01*
X147724477Y-116820741D01*
X147723968Y-116860939D01*
X147723206Y-116893763D01*
X147722172Y-116920345D01*
X147720844Y-116941813D01*
X147719202Y-116959299D01*
X147717225Y-116973933D01*
X147714892Y-116986845D01*
X147707107Y-117019641D01*
X147679198Y-117096747D01*
X147639841Y-117167387D01*
X147590163Y-117230450D01*
X147531293Y-117284825D01*
X147464359Y-117329401D01*
X147390489Y-117363067D01*
X147310813Y-117384712D01*
X147273664Y-117390174D01*
X147191758Y-117392530D01*
X147110753Y-117382041D01*
X147032885Y-117359094D01*
X146960386Y-117324077D01*
X146917178Y-117294623D01*
X146861217Y-117244436D01*
X146811358Y-117185711D01*
X146770102Y-117121505D01*
X146739957Y-117054877D01*
X146735196Y-117040940D01*
X146729260Y-117021112D01*
X146724215Y-117000136D01*
X146720001Y-116976851D01*
X146716558Y-116950093D01*
X146713824Y-116918699D01*
X146711739Y-116881506D01*
X146710242Y-116837352D01*
X146709271Y-116785074D01*
X146708767Y-116723508D01*
X146708668Y-116651491D01*
X146708913Y-116567862D01*
X146709409Y-116477478D01*
X146979755Y-116477478D01*
X146979797Y-116545418D01*
X146980042Y-116612669D01*
X146980488Y-116677574D01*
X146981133Y-116738477D01*
X146981977Y-116793722D01*
X146983016Y-116841652D01*
X146984250Y-116880611D01*
X146985677Y-116908943D01*
X146987295Y-116924993D01*
X146987692Y-116927113D01*
X147004933Y-116982548D01*
X147033626Y-117030414D01*
X147073023Y-117069745D01*
X147122375Y-117099577D01*
X147138350Y-117106075D01*
X147189103Y-117117886D01*
X147241980Y-117118715D01*
X147293172Y-117108761D01*
X147338869Y-117088226D01*
X147339845Y-117087616D01*
X147368312Y-117065239D01*
X147396641Y-117035560D01*
X147420824Y-117003287D01*
X147436855Y-116973126D01*
X147438967Y-116967341D01*
X147441419Y-116959080D01*
X147443487Y-116949165D01*
X147445205Y-116936477D01*
X147446604Y-116919902D01*
X147447716Y-116898320D01*
X147448575Y-116870617D01*
X147449213Y-116835674D01*
X147449662Y-116792375D01*
X147449955Y-116739603D01*
X147450124Y-116676241D01*
X147450202Y-116601172D01*
X147450220Y-116513279D01*
X147450220Y-116088087D01*
X147431852Y-116048913D01*
X147406076Y-116004763D01*
X147368214Y-115963379D01*
X147322388Y-115933204D01*
X147312621Y-115928542D01*
X147293236Y-115920826D01*
X147273893Y-115916375D01*
X147249937Y-115914338D01*
X147216713Y-115913861D01*
X147200518Y-115913949D01*
X147172282Y-115915002D01*
X147151605Y-115917895D01*
X147134087Y-115923434D01*
X147115325Y-115932425D01*
X147069026Y-115963222D01*
X147030043Y-116004450D01*
X147002359Y-116053598D01*
X146986496Y-116109943D01*
X146985269Y-116121707D01*
X146983847Y-116148101D01*
X146982639Y-116185399D01*
X146981644Y-116231944D01*
X146980860Y-116286081D01*
X146980284Y-116346153D01*
X146979916Y-116410504D01*
X146979755Y-116477478D01*
X146709409Y-116477478D01*
X146709442Y-116471457D01*
X146709777Y-116419327D01*
X146710317Y-116341455D01*
X146710866Y-116275611D01*
X146711468Y-116220589D01*
X146712170Y-116175187D01*
X146713018Y-116138202D01*
X146714058Y-116108431D01*
X146715335Y-116084669D01*
X146716895Y-116065715D01*
X146718784Y-116050363D01*
X146721048Y-116037412D01*
X146723733Y-116025658D01*
X146726885Y-116013897D01*
X146730763Y-116000667D01*
X146761549Y-115922593D01*
X146803079Y-115852201D01*
X146854250Y-115790341D01*
X146913958Y-115737856D01*
X146981099Y-115695595D01*
X147054570Y-115664404D01*
X147133267Y-115645130D01*
X147216085Y-115638619D01*
X147294568Y-115643642D01*
X147372217Y-115660259D01*
X147443621Y-115688920D01*
X147509837Y-115730060D01*
X147571924Y-115784110D01*
X147608390Y-115823282D01*
X147647798Y-115875047D01*
X147678475Y-115929437D01*
X147702996Y-115990502D01*
X147721909Y-116046265D01*
X147722113Y-116088087D01*
X147724070Y-116488575D01*
G36*
X147724070Y-116488575D02*
G01*
X147724413Y-116563605D01*
X147724703Y-116644601D01*
X147724824Y-116713702D01*
X147724756Y-116772038D01*
X147724477Y-116820741D01*
X147723968Y-116860939D01*
X147723206Y-116893763D01*
X147722172Y-116920345D01*
X147720844Y-116941813D01*
X147719202Y-116959299D01*
X147717225Y-116973933D01*
X147714892Y-116986845D01*
X147707107Y-117019641D01*
X147679198Y-117096747D01*
X147639841Y-117167387D01*
X147590163Y-117230450D01*
X147531293Y-117284825D01*
X147464359Y-117329401D01*
X147390489Y-117363067D01*
X147310813Y-117384712D01*
X147273664Y-117390174D01*
X147191758Y-117392530D01*
X147110753Y-117382041D01*
X147032885Y-117359094D01*
X146960386Y-117324077D01*
X146917178Y-117294623D01*
X146861217Y-117244436D01*
X146811358Y-117185711D01*
X146770102Y-117121505D01*
X146739957Y-117054877D01*
X146735196Y-117040940D01*
X146729260Y-117021112D01*
X146724215Y-117000136D01*
X146720001Y-116976851D01*
X146716558Y-116950093D01*
X146713824Y-116918699D01*
X146711739Y-116881506D01*
X146710242Y-116837352D01*
X146709271Y-116785074D01*
X146708767Y-116723508D01*
X146708668Y-116651491D01*
X146708913Y-116567862D01*
X146709409Y-116477478D01*
X146979755Y-116477478D01*
X146979797Y-116545418D01*
X146980042Y-116612669D01*
X146980488Y-116677574D01*
X146981133Y-116738477D01*
X146981977Y-116793722D01*
X146983016Y-116841652D01*
X146984250Y-116880611D01*
X146985677Y-116908943D01*
X146987295Y-116924993D01*
X146987692Y-116927113D01*
X147004933Y-116982548D01*
X147033626Y-117030414D01*
X147073023Y-117069745D01*
X147122375Y-117099577D01*
X147138350Y-117106075D01*
X147189103Y-117117886D01*
X147241980Y-117118715D01*
X147293172Y-117108761D01*
X147338869Y-117088226D01*
X147339845Y-117087616D01*
X147368312Y-117065239D01*
X147396641Y-117035560D01*
X147420824Y-117003287D01*
X147436855Y-116973126D01*
X147438967Y-116967341D01*
X147441419Y-116959080D01*
X147443487Y-116949165D01*
X147445205Y-116936477D01*
X147446604Y-116919902D01*
X147447716Y-116898320D01*
X147448575Y-116870617D01*
X147449213Y-116835674D01*
X147449662Y-116792375D01*
X147449955Y-116739603D01*
X147450124Y-116676241D01*
X147450202Y-116601172D01*
X147450220Y-116513279D01*
X147450220Y-116088087D01*
X147431852Y-116048913D01*
X147406076Y-116004763D01*
X147368214Y-115963379D01*
X147322388Y-115933204D01*
X147312621Y-115928542D01*
X147293236Y-115920826D01*
X147273893Y-115916375D01*
X147249937Y-115914338D01*
X147216713Y-115913861D01*
X147200518Y-115913949D01*
X147172282Y-115915002D01*
X147151605Y-115917895D01*
X147134087Y-115923434D01*
X147115325Y-115932425D01*
X147069026Y-115963222D01*
X147030043Y-116004450D01*
X147002359Y-116053598D01*
X146986496Y-116109943D01*
X146985269Y-116121707D01*
X146983847Y-116148101D01*
X146982639Y-116185399D01*
X146981644Y-116231944D01*
X146980860Y-116286081D01*
X146980284Y-116346153D01*
X146979916Y-116410504D01*
X146979755Y-116477478D01*
X146709409Y-116477478D01*
X146709442Y-116471457D01*
X146709777Y-116419327D01*
X146710317Y-116341455D01*
X146710866Y-116275611D01*
X146711468Y-116220589D01*
X146712170Y-116175187D01*
X146713018Y-116138202D01*
X146714058Y-116108431D01*
X146715335Y-116084669D01*
X146716895Y-116065715D01*
X146718784Y-116050363D01*
X146721048Y-116037412D01*
X146723733Y-116025658D01*
X146726885Y-116013897D01*
X146730763Y-116000667D01*
X146761549Y-115922593D01*
X146803079Y-115852201D01*
X146854250Y-115790341D01*
X146913958Y-115737856D01*
X146981099Y-115695595D01*
X147054570Y-115664404D01*
X147133267Y-115645130D01*
X147216085Y-115638619D01*
X147294568Y-115643642D01*
X147372217Y-115660259D01*
X147443621Y-115688920D01*
X147509837Y-115730060D01*
X147571924Y-115784110D01*
X147608390Y-115823282D01*
X147647798Y-115875047D01*
X147678475Y-115929437D01*
X147702996Y-115990502D01*
X147721909Y-116046265D01*
X147722113Y-116088087D01*
X147724070Y-116488575D01*
G37*
X139523675Y-114899713D02*
X139557634Y-114915787D01*
X139586607Y-114941858D01*
X139608230Y-114977928D01*
X139608978Y-114980002D01*
X139610320Y-114985595D01*
X139611539Y-114993822D01*
X139612639Y-115005312D01*
X139613627Y-115020691D01*
X139614509Y-115040589D01*
X139615290Y-115065634D01*
X139615975Y-115096454D01*
X139616571Y-115133676D01*
X139617084Y-115177930D01*
X139617518Y-115229843D01*
X139617881Y-115290043D01*
X139618176Y-115359159D01*
X139618411Y-115437818D01*
X139618591Y-115526649D01*
X139618722Y-115626281D01*
X139618809Y-115737340D01*
X139618858Y-115860456D01*
X139618875Y-115996256D01*
X139618865Y-116145368D01*
X139618860Y-116180655D01*
X139618834Y-116325403D01*
X139618793Y-116457001D01*
X139618731Y-116576094D01*
X139618641Y-116683324D01*
X139618516Y-116779336D01*
X139618348Y-116864773D01*
X139618130Y-116940279D01*
X139617855Y-117006496D01*
X139617516Y-117064068D01*
X139617106Y-117113640D01*
X139616618Y-117155853D01*
X139616044Y-117191352D01*
X139615377Y-117220780D01*
X139614610Y-117244781D01*
X139613736Y-117263998D01*
X139612748Y-117279074D01*
X139611639Y-117290654D01*
X139610401Y-117299379D01*
X139609027Y-117305895D01*
X139607511Y-117310844D01*
X139605844Y-117314870D01*
X139594858Y-117334850D01*
X139567279Y-117365130D01*
X139530807Y-117384862D01*
X139493346Y-117393013D01*
X139452234Y-117390271D01*
X139414780Y-117375739D01*
X139383342Y-117350381D01*
X139360276Y-117315159D01*
X139359837Y-117314176D01*
X139357769Y-117308826D01*
X139355944Y-117302230D01*
X139354347Y-117293543D01*
X139352963Y-117281917D01*
X139351776Y-117266506D01*
X139350771Y-117246464D01*
X139349933Y-117220944D01*
X139349245Y-117189101D01*
X139348693Y-117150088D01*
X139348261Y-117103058D01*
X139347934Y-117047165D01*
X139347696Y-116981564D01*
X139347532Y-116905407D01*
X139347426Y-116817848D01*
X139347363Y-116718041D01*
X139347327Y-116605140D01*
X139347174Y-115923291D01*
X139199054Y-115925530D01*
X139183160Y-115925776D01*
X139137006Y-115926643D01*
X139101948Y-115927712D01*
X139075787Y-115929204D01*
X139056320Y-115931337D01*
X139041348Y-115934332D01*
X139028669Y-115938408D01*
X139016082Y-115943785D01*
X139007055Y-115948254D01*
X138966631Y-115975787D01*
X138930254Y-116012160D01*
X138902227Y-116053235D01*
X138883645Y-116088087D01*
X138880160Y-116691023D01*
X138876675Y-117293959D01*
X138857515Y-117326551D01*
X138835611Y-117353919D01*
X138803648Y-117377126D01*
X138767331Y-117390952D01*
X138730575Y-117393339D01*
X138689256Y-117383291D01*
X138653614Y-117361754D01*
X138625742Y-117328733D01*
X138604831Y-117295065D01*
X138602796Y-116740368D01*
X138602792Y-116739133D01*
X138602431Y-116627765D01*
X138602239Y-116529369D01*
X138602253Y-116442987D01*
X138602513Y-116367660D01*
X138603055Y-116302431D01*
X138603918Y-116246342D01*
X138605140Y-116198434D01*
X138606758Y-116157749D01*
X138608812Y-116123329D01*
X138611339Y-116094217D01*
X138614376Y-116069453D01*
X138617963Y-116048080D01*
X138622137Y-116029140D01*
X138626936Y-116011674D01*
X138632398Y-115994725D01*
X138659025Y-115931127D01*
X138701746Y-115860907D01*
X138755162Y-115798787D01*
X138818393Y-115745614D01*
X138890557Y-115702234D01*
X138970775Y-115669494D01*
X138977993Y-115667337D01*
X138994557Y-115663622D01*
X139015211Y-115660707D01*
X139041928Y-115658447D01*
X139076675Y-115656696D01*
X139121424Y-115655308D01*
X139178143Y-115654137D01*
X139347174Y-115651173D01*
X139347174Y-115327460D01*
X139347213Y-115260929D01*
X139347381Y-115194349D01*
X139347716Y-115139431D01*
X139348258Y-115094941D01*
X139349043Y-115059645D01*
X139350111Y-115032311D01*
X139351498Y-115011706D01*
X139353244Y-114996595D01*
X139355386Y-114985747D01*
X139357962Y-114977928D01*
X139361884Y-114969306D01*
X139385291Y-114935392D01*
X139415539Y-114911476D01*
X139450263Y-114897557D01*
X139487096Y-114893636D01*
X139523675Y-114899713D01*
G36*
X139523675Y-114899713D02*
G01*
X139557634Y-114915787D01*
X139586607Y-114941858D01*
X139608230Y-114977928D01*
X139608978Y-114980002D01*
X139610320Y-114985595D01*
X139611539Y-114993822D01*
X139612639Y-115005312D01*
X139613627Y-115020691D01*
X139614509Y-115040589D01*
X139615290Y-115065634D01*
X139615975Y-115096454D01*
X139616571Y-115133676D01*
X139617084Y-115177930D01*
X139617518Y-115229843D01*
X139617881Y-115290043D01*
X139618176Y-115359159D01*
X139618411Y-115437818D01*
X139618591Y-115526649D01*
X139618722Y-115626281D01*
X139618809Y-115737340D01*
X139618858Y-115860456D01*
X139618875Y-115996256D01*
X139618865Y-116145368D01*
X139618860Y-116180655D01*
X139618834Y-116325403D01*
X139618793Y-116457001D01*
X139618731Y-116576094D01*
X139618641Y-116683324D01*
X139618516Y-116779336D01*
X139618348Y-116864773D01*
X139618130Y-116940279D01*
X139617855Y-117006496D01*
X139617516Y-117064068D01*
X139617106Y-117113640D01*
X139616618Y-117155853D01*
X139616044Y-117191352D01*
X139615377Y-117220780D01*
X139614610Y-117244781D01*
X139613736Y-117263998D01*
X139612748Y-117279074D01*
X139611639Y-117290654D01*
X139610401Y-117299379D01*
X139609027Y-117305895D01*
X139607511Y-117310844D01*
X139605844Y-117314870D01*
X139594858Y-117334850D01*
X139567279Y-117365130D01*
X139530807Y-117384862D01*
X139493346Y-117393013D01*
X139452234Y-117390271D01*
X139414780Y-117375739D01*
X139383342Y-117350381D01*
X139360276Y-117315159D01*
X139359837Y-117314176D01*
X139357769Y-117308826D01*
X139355944Y-117302230D01*
X139354347Y-117293543D01*
X139352963Y-117281917D01*
X139351776Y-117266506D01*
X139350771Y-117246464D01*
X139349933Y-117220944D01*
X139349245Y-117189101D01*
X139348693Y-117150088D01*
X139348261Y-117103058D01*
X139347934Y-117047165D01*
X139347696Y-116981564D01*
X139347532Y-116905407D01*
X139347426Y-116817848D01*
X139347363Y-116718041D01*
X139347327Y-116605140D01*
X139347174Y-115923291D01*
X139199054Y-115925530D01*
X139183160Y-115925776D01*
X139137006Y-115926643D01*
X139101948Y-115927712D01*
X139075787Y-115929204D01*
X139056320Y-115931337D01*
X139041348Y-115934332D01*
X139028669Y-115938408D01*
X139016082Y-115943785D01*
X139007055Y-115948254D01*
X138966631Y-115975787D01*
X138930254Y-116012160D01*
X138902227Y-116053235D01*
X138883645Y-116088087D01*
X138880160Y-116691023D01*
X138876675Y-117293959D01*
X138857515Y-117326551D01*
X138835611Y-117353919D01*
X138803648Y-117377126D01*
X138767331Y-117390952D01*
X138730575Y-117393339D01*
X138689256Y-117383291D01*
X138653614Y-117361754D01*
X138625742Y-117328733D01*
X138604831Y-117295065D01*
X138602796Y-116740368D01*
X138602792Y-116739133D01*
X138602431Y-116627765D01*
X138602239Y-116529369D01*
X138602253Y-116442987D01*
X138602513Y-116367660D01*
X138603055Y-116302431D01*
X138603918Y-116246342D01*
X138605140Y-116198434D01*
X138606758Y-116157749D01*
X138608812Y-116123329D01*
X138611339Y-116094217D01*
X138614376Y-116069453D01*
X138617963Y-116048080D01*
X138622137Y-116029140D01*
X138626936Y-116011674D01*
X138632398Y-115994725D01*
X138659025Y-115931127D01*
X138701746Y-115860907D01*
X138755162Y-115798787D01*
X138818393Y-115745614D01*
X138890557Y-115702234D01*
X138970775Y-115669494D01*
X138977993Y-115667337D01*
X138994557Y-115663622D01*
X139015211Y-115660707D01*
X139041928Y-115658447D01*
X139076675Y-115656696D01*
X139121424Y-115655308D01*
X139178143Y-115654137D01*
X139347174Y-115651173D01*
X139347174Y-115327460D01*
X139347213Y-115260929D01*
X139347381Y-115194349D01*
X139347716Y-115139431D01*
X139348258Y-115094941D01*
X139349043Y-115059645D01*
X139350111Y-115032311D01*
X139351498Y-115011706D01*
X139353244Y-114996595D01*
X139355386Y-114985747D01*
X139357962Y-114977928D01*
X139361884Y-114969306D01*
X139385291Y-114935392D01*
X139415539Y-114911476D01*
X139450263Y-114897557D01*
X139487096Y-114893636D01*
X139523675Y-114899713D01*
G37*
X143630984Y-115653891D02*
X143868499Y-115655924D01*
X143897463Y-115675101D01*
X143905051Y-115680695D01*
X143925629Y-115700786D01*
X143940594Y-115722047D01*
X143940895Y-115722638D01*
X143943059Y-115727153D01*
X143944982Y-115732204D01*
X143946678Y-115738580D01*
X143948157Y-115747070D01*
X143949433Y-115758461D01*
X143950516Y-115773542D01*
X143951420Y-115793102D01*
X143952155Y-115817930D01*
X143952735Y-115848813D01*
X143953171Y-115886540D01*
X143953476Y-115931901D01*
X143953660Y-115985682D01*
X143953737Y-116048673D01*
X143953719Y-116121662D01*
X143953617Y-116205438D01*
X143953443Y-116300789D01*
X143953210Y-116408504D01*
X143952930Y-116529371D01*
X143951098Y-117308925D01*
X143933672Y-117334670D01*
X143928423Y-117341499D01*
X143907035Y-117361596D01*
X143881395Y-117378246D01*
X143875955Y-117380880D01*
X143835981Y-117392212D01*
X143795758Y-117391124D01*
X143758005Y-117378467D01*
X143725441Y-117355090D01*
X143700786Y-117321841D01*
X143700708Y-117321691D01*
X143698317Y-117316905D01*
X143696203Y-117311700D01*
X143694345Y-117305230D01*
X143692724Y-117296650D01*
X143691321Y-117285116D01*
X143690115Y-117269782D01*
X143689089Y-117249803D01*
X143688222Y-117224334D01*
X143687495Y-117192529D01*
X143686888Y-117153545D01*
X143686382Y-117106536D01*
X143685958Y-117050656D01*
X143685596Y-116985061D01*
X143685277Y-116908906D01*
X143684981Y-116821345D01*
X143684689Y-116721533D01*
X143684381Y-116608626D01*
X143682538Y-115923294D01*
X143534518Y-115925531D01*
X143492981Y-115926190D01*
X143453649Y-115927031D01*
X143424192Y-115928160D01*
X143402386Y-115929832D01*
X143386006Y-115932305D01*
X143372828Y-115935833D01*
X143360626Y-115940672D01*
X143347176Y-115947080D01*
X143337065Y-115952433D01*
X143295982Y-115982142D01*
X143260294Y-116020275D01*
X143234272Y-116062466D01*
X143234206Y-116062610D01*
X143231579Y-116068487D01*
X143229272Y-116074624D01*
X143227260Y-116081932D01*
X143225514Y-116091322D01*
X143224009Y-116103709D01*
X143222718Y-116120002D01*
X143221614Y-116141116D01*
X143220671Y-116167960D01*
X143219863Y-116201449D01*
X143219161Y-116242493D01*
X143218541Y-116292005D01*
X143217976Y-116350898D01*
X143217438Y-116420082D01*
X143216901Y-116500471D01*
X143216339Y-116592975D01*
X143215725Y-116698509D01*
X143212240Y-117301960D01*
X143193541Y-117330211D01*
X143174479Y-117353644D01*
X143141059Y-117378432D01*
X143103266Y-117391563D01*
X143063490Y-117392715D01*
X143024121Y-117381570D01*
X142987552Y-117357806D01*
X142985662Y-117356163D01*
X142978384Y-117349971D01*
X142972002Y-117344149D01*
X142966457Y-117337802D01*
X142961692Y-117330036D01*
X142957648Y-117319957D01*
X142954265Y-117306669D01*
X142951487Y-117289280D01*
X142949253Y-117266893D01*
X142947505Y-117238616D01*
X142946185Y-117203553D01*
X142945235Y-117160810D01*
X142944595Y-117109493D01*
X142944207Y-117048707D01*
X142944012Y-116977559D01*
X142943952Y-116895152D01*
X142943968Y-116800594D01*
X142944002Y-116692989D01*
X142944008Y-116660247D01*
X142944029Y-116554083D01*
X142944102Y-116460632D01*
X142944291Y-116378938D01*
X142944662Y-116308047D01*
X142945279Y-116247002D01*
X142946207Y-116194848D01*
X142947512Y-116150630D01*
X142949257Y-116113393D01*
X142951509Y-116082180D01*
X142954332Y-116056038D01*
X142957790Y-116034010D01*
X142961949Y-116015140D01*
X142966874Y-115998474D01*
X142972630Y-115983057D01*
X142979281Y-115967932D01*
X142986893Y-115952144D01*
X142995530Y-115934739D01*
X142999018Y-115927811D01*
X143043305Y-115855928D01*
X143097360Y-115793858D01*
X143160777Y-115742000D01*
X143233151Y-115700752D01*
X143236845Y-115699033D01*
X143263700Y-115687043D01*
X143288652Y-115677267D01*
X143313463Y-115669498D01*
X143339892Y-115663529D01*
X143369698Y-115659151D01*
X143404641Y-115656159D01*
X143446481Y-115654344D01*
X143496979Y-115653499D01*
X143557893Y-115653417D01*
X143630984Y-115653891D01*
G36*
X143630984Y-115653891D02*
G01*
X143868499Y-115655924D01*
X143897463Y-115675101D01*
X143905051Y-115680695D01*
X143925629Y-115700786D01*
X143940594Y-115722047D01*
X143940895Y-115722638D01*
X143943059Y-115727153D01*
X143944982Y-115732204D01*
X143946678Y-115738580D01*
X143948157Y-115747070D01*
X143949433Y-115758461D01*
X143950516Y-115773542D01*
X143951420Y-115793102D01*
X143952155Y-115817930D01*
X143952735Y-115848813D01*
X143953171Y-115886540D01*
X143953476Y-115931901D01*
X143953660Y-115985682D01*
X143953737Y-116048673D01*
X143953719Y-116121662D01*
X143953617Y-116205438D01*
X143953443Y-116300789D01*
X143953210Y-116408504D01*
X143952930Y-116529371D01*
X143951098Y-117308925D01*
X143933672Y-117334670D01*
X143928423Y-117341499D01*
X143907035Y-117361596D01*
X143881395Y-117378246D01*
X143875955Y-117380880D01*
X143835981Y-117392212D01*
X143795758Y-117391124D01*
X143758005Y-117378467D01*
X143725441Y-117355090D01*
X143700786Y-117321841D01*
X143700708Y-117321691D01*
X143698317Y-117316905D01*
X143696203Y-117311700D01*
X143694345Y-117305230D01*
X143692724Y-117296650D01*
X143691321Y-117285116D01*
X143690115Y-117269782D01*
X143689089Y-117249803D01*
X143688222Y-117224334D01*
X143687495Y-117192529D01*
X143686888Y-117153545D01*
X143686382Y-117106536D01*
X143685958Y-117050656D01*
X143685596Y-116985061D01*
X143685277Y-116908906D01*
X143684981Y-116821345D01*
X143684689Y-116721533D01*
X143684381Y-116608626D01*
X143682538Y-115923294D01*
X143534518Y-115925531D01*
X143492981Y-115926190D01*
X143453649Y-115927031D01*
X143424192Y-115928160D01*
X143402386Y-115929832D01*
X143386006Y-115932305D01*
X143372828Y-115935833D01*
X143360626Y-115940672D01*
X143347176Y-115947080D01*
X143337065Y-115952433D01*
X143295982Y-115982142D01*
X143260294Y-116020275D01*
X143234272Y-116062466D01*
X143234206Y-116062610D01*
X143231579Y-116068487D01*
X143229272Y-116074624D01*
X143227260Y-116081932D01*
X143225514Y-116091322D01*
X143224009Y-116103709D01*
X143222718Y-116120002D01*
X143221614Y-116141116D01*
X143220671Y-116167960D01*
X143219863Y-116201449D01*
X143219161Y-116242493D01*
X143218541Y-116292005D01*
X143217976Y-116350898D01*
X143217438Y-116420082D01*
X143216901Y-116500471D01*
X143216339Y-116592975D01*
X143215725Y-116698509D01*
X143212240Y-117301960D01*
X143193541Y-117330211D01*
X143174479Y-117353644D01*
X143141059Y-117378432D01*
X143103266Y-117391563D01*
X143063490Y-117392715D01*
X143024121Y-117381570D01*
X142987552Y-117357806D01*
X142985662Y-117356163D01*
X142978384Y-117349971D01*
X142972002Y-117344149D01*
X142966457Y-117337802D01*
X142961692Y-117330036D01*
X142957648Y-117319957D01*
X142954265Y-117306669D01*
X142951487Y-117289280D01*
X142949253Y-117266893D01*
X142947505Y-117238616D01*
X142946185Y-117203553D01*
X142945235Y-117160810D01*
X142944595Y-117109493D01*
X142944207Y-117048707D01*
X142944012Y-116977559D01*
X142943952Y-116895152D01*
X142943968Y-116800594D01*
X142944002Y-116692989D01*
X142944008Y-116660247D01*
X142944029Y-116554083D01*
X142944102Y-116460632D01*
X142944291Y-116378938D01*
X142944662Y-116308047D01*
X142945279Y-116247002D01*
X142946207Y-116194848D01*
X142947512Y-116150630D01*
X142949257Y-116113393D01*
X142951509Y-116082180D01*
X142954332Y-116056038D01*
X142957790Y-116034010D01*
X142961949Y-116015140D01*
X142966874Y-115998474D01*
X142972630Y-115983057D01*
X142979281Y-115967932D01*
X142986893Y-115952144D01*
X142995530Y-115934739D01*
X142999018Y-115927811D01*
X143043305Y-115855928D01*
X143097360Y-115793858D01*
X143160777Y-115742000D01*
X143233151Y-115700752D01*
X143236845Y-115699033D01*
X143263700Y-115687043D01*
X143288652Y-115677267D01*
X143313463Y-115669498D01*
X143339892Y-115663529D01*
X143369698Y-115659151D01*
X143404641Y-115656159D01*
X143446481Y-115654344D01*
X143496979Y-115653499D01*
X143557893Y-115653417D01*
X143630984Y-115653891D01*
G37*
X137445490Y-115640291D02*
X137482429Y-115650521D01*
X137514788Y-115667939D01*
X137538365Y-115691487D01*
X137539266Y-115693188D01*
X137544623Y-115706985D01*
X137553526Y-115732751D01*
X137565643Y-115769433D01*
X137580641Y-115815974D01*
X137598186Y-115871320D01*
X137617946Y-115934415D01*
X137639587Y-116004203D01*
X137662777Y-116079629D01*
X137687182Y-116159638D01*
X137712470Y-116243175D01*
X137721904Y-116274425D01*
X137746572Y-116355797D01*
X137770036Y-116432723D01*
X137791985Y-116504212D01*
X137812111Y-116569273D01*
X137830103Y-116626919D01*
X137845651Y-116676157D01*
X137858445Y-116715999D01*
X137868175Y-116745454D01*
X137874532Y-116763533D01*
X137877204Y-116769246D01*
X137877480Y-116768703D01*
X137881018Y-116758436D01*
X137888135Y-116736070D01*
X137898518Y-116702632D01*
X137911855Y-116659150D01*
X137927834Y-116606653D01*
X137946143Y-116546168D01*
X137966470Y-116478725D01*
X137988501Y-116405350D01*
X138011926Y-116327072D01*
X138036431Y-116244920D01*
X138041333Y-116228471D01*
X138065856Y-116146463D01*
X138089397Y-116068207D01*
X138111625Y-115994771D01*
X138132211Y-115927224D01*
X138150825Y-115866635D01*
X138167139Y-115814072D01*
X138180821Y-115770603D01*
X138191543Y-115737299D01*
X138198976Y-115715227D01*
X138202789Y-115705456D01*
X138206676Y-115699568D01*
X138222264Y-115681270D01*
X138241022Y-115663839D01*
X138250452Y-115656630D01*
X138267037Y-115647335D01*
X138286439Y-115642378D01*
X138314211Y-115639945D01*
X138337614Y-115639208D01*
X138357222Y-115640958D01*
X138373736Y-115646814D01*
X138392973Y-115658118D01*
X138402067Y-115664538D01*
X138430095Y-115693841D01*
X138448397Y-115729533D01*
X138454886Y-115767908D01*
X138453483Y-115775812D01*
X138448286Y-115796850D01*
X138439476Y-115829749D01*
X138427285Y-115873702D01*
X138411947Y-115927903D01*
X138393693Y-115991546D01*
X138372756Y-116063824D01*
X138349370Y-116143932D01*
X138323767Y-116231062D01*
X138296179Y-116324408D01*
X138266840Y-116423164D01*
X138235981Y-116526523D01*
X138017158Y-117257714D01*
X138085558Y-117485708D01*
X138097210Y-117524280D01*
X138113539Y-117577434D01*
X138128813Y-117626144D01*
X138142454Y-117668624D01*
X138153888Y-117703088D01*
X138162539Y-117727749D01*
X138167830Y-117740823D01*
X138173308Y-117750879D01*
X138205757Y-117793411D01*
X138248016Y-117826477D01*
X138299292Y-117849576D01*
X138358795Y-117862205D01*
X138362814Y-117862688D01*
X138393272Y-117867763D01*
X138420923Y-117874520D01*
X138440218Y-117881634D01*
X138448804Y-117886586D01*
X138477703Y-117912708D01*
X138498195Y-117947522D01*
X138508271Y-117987891D01*
X138507285Y-118021749D01*
X138495130Y-118060594D01*
X138472469Y-118093832D01*
X138440929Y-118118314D01*
X138426927Y-118125324D01*
X138412453Y-118130344D01*
X138395721Y-118132763D01*
X138372849Y-118133103D01*
X138339957Y-118131885D01*
X138294479Y-118127836D01*
X138215650Y-118110602D01*
X138141977Y-118080520D01*
X138073118Y-118037434D01*
X138008732Y-117981189D01*
X137998482Y-117970922D01*
X137988090Y-117960463D01*
X137978479Y-117950326D01*
X137969421Y-117939862D01*
X137960686Y-117928418D01*
X137952046Y-117915345D01*
X137943271Y-117899991D01*
X137934132Y-117881705D01*
X137924400Y-117859836D01*
X137913847Y-117833734D01*
X137902243Y-117802748D01*
X137889359Y-117766226D01*
X137874966Y-117723518D01*
X137858835Y-117673973D01*
X137840736Y-117616940D01*
X137820442Y-117551769D01*
X137797723Y-117477807D01*
X137772349Y-117394405D01*
X137744093Y-117300912D01*
X137712724Y-117196676D01*
X137678013Y-117081046D01*
X137639733Y-116953373D01*
X137597653Y-116813004D01*
X137590201Y-116788148D01*
X137555934Y-116673779D01*
X137522785Y-116563018D01*
X137490974Y-116456614D01*
X137460726Y-116355318D01*
X137432262Y-116259877D01*
X137405805Y-116171042D01*
X137381579Y-116089563D01*
X137359805Y-116016188D01*
X137340706Y-115951667D01*
X137324505Y-115896750D01*
X137311425Y-115852187D01*
X137301688Y-115818726D01*
X137295518Y-115797117D01*
X137293136Y-115788109D01*
X137292083Y-115769935D01*
X137298953Y-115734787D01*
X137315352Y-115700230D01*
X137339166Y-115670191D01*
X137368280Y-115648598D01*
X137374694Y-115645641D01*
X137408178Y-115638312D01*
X137445490Y-115640291D01*
G36*
X137445490Y-115640291D02*
G01*
X137482429Y-115650521D01*
X137514788Y-115667939D01*
X137538365Y-115691487D01*
X137539266Y-115693188D01*
X137544623Y-115706985D01*
X137553526Y-115732751D01*
X137565643Y-115769433D01*
X137580641Y-115815974D01*
X137598186Y-115871320D01*
X137617946Y-115934415D01*
X137639587Y-116004203D01*
X137662777Y-116079629D01*
X137687182Y-116159638D01*
X137712470Y-116243175D01*
X137721904Y-116274425D01*
X137746572Y-116355797D01*
X137770036Y-116432723D01*
X137791985Y-116504212D01*
X137812111Y-116569273D01*
X137830103Y-116626919D01*
X137845651Y-116676157D01*
X137858445Y-116715999D01*
X137868175Y-116745454D01*
X137874532Y-116763533D01*
X137877204Y-116769246D01*
X137877480Y-116768703D01*
X137881018Y-116758436D01*
X137888135Y-116736070D01*
X137898518Y-116702632D01*
X137911855Y-116659150D01*
X137927834Y-116606653D01*
X137946143Y-116546168D01*
X137966470Y-116478725D01*
X137988501Y-116405350D01*
X138011926Y-116327072D01*
X138036431Y-116244920D01*
X138041333Y-116228471D01*
X138065856Y-116146463D01*
X138089397Y-116068207D01*
X138111625Y-115994771D01*
X138132211Y-115927224D01*
X138150825Y-115866635D01*
X138167139Y-115814072D01*
X138180821Y-115770603D01*
X138191543Y-115737299D01*
X138198976Y-115715227D01*
X138202789Y-115705456D01*
X138206676Y-115699568D01*
X138222264Y-115681270D01*
X138241022Y-115663839D01*
X138250452Y-115656630D01*
X138267037Y-115647335D01*
X138286439Y-115642378D01*
X138314211Y-115639945D01*
X138337614Y-115639208D01*
X138357222Y-115640958D01*
X138373736Y-115646814D01*
X138392973Y-115658118D01*
X138402067Y-115664538D01*
X138430095Y-115693841D01*
X138448397Y-115729533D01*
X138454886Y-115767908D01*
X138453483Y-115775812D01*
X138448286Y-115796850D01*
X138439476Y-115829749D01*
X138427285Y-115873702D01*
X138411947Y-115927903D01*
X138393693Y-115991546D01*
X138372756Y-116063824D01*
X138349370Y-116143932D01*
X138323767Y-116231062D01*
X138296179Y-116324408D01*
X138266840Y-116423164D01*
X138235981Y-116526523D01*
X138017158Y-117257714D01*
X138085558Y-117485708D01*
X138097210Y-117524280D01*
X138113539Y-117577434D01*
X138128813Y-117626144D01*
X138142454Y-117668624D01*
X138153888Y-117703088D01*
X138162539Y-117727749D01*
X138167830Y-117740823D01*
X138173308Y-117750879D01*
X138205757Y-117793411D01*
X138248016Y-117826477D01*
X138299292Y-117849576D01*
X138358795Y-117862205D01*
X138362814Y-117862688D01*
X138393272Y-117867763D01*
X138420923Y-117874520D01*
X138440218Y-117881634D01*
X138448804Y-117886586D01*
X138477703Y-117912708D01*
X138498195Y-117947522D01*
X138508271Y-117987891D01*
X138507285Y-118021749D01*
X138495130Y-118060594D01*
X138472469Y-118093832D01*
X138440929Y-118118314D01*
X138426927Y-118125324D01*
X138412453Y-118130344D01*
X138395721Y-118132763D01*
X138372849Y-118133103D01*
X138339957Y-118131885D01*
X138294479Y-118127836D01*
X138215650Y-118110602D01*
X138141977Y-118080520D01*
X138073118Y-118037434D01*
X138008732Y-117981189D01*
X137998482Y-117970922D01*
X137988090Y-117960463D01*
X137978479Y-117950326D01*
X137969421Y-117939862D01*
X137960686Y-117928418D01*
X137952046Y-117915345D01*
X137943271Y-117899991D01*
X137934132Y-117881705D01*
X137924400Y-117859836D01*
X137913847Y-117833734D01*
X137902243Y-117802748D01*
X137889359Y-117766226D01*
X137874966Y-117723518D01*
X137858835Y-117673973D01*
X137840736Y-117616940D01*
X137820442Y-117551769D01*
X137797723Y-117477807D01*
X137772349Y-117394405D01*
X137744093Y-117300912D01*
X137712724Y-117196676D01*
X137678013Y-117081046D01*
X137639733Y-116953373D01*
X137597653Y-116813004D01*
X137590201Y-116788148D01*
X137555934Y-116673779D01*
X137522785Y-116563018D01*
X137490974Y-116456614D01*
X137460726Y-116355318D01*
X137432262Y-116259877D01*
X137405805Y-116171042D01*
X137381579Y-116089563D01*
X137359805Y-116016188D01*
X137340706Y-115951667D01*
X137324505Y-115896750D01*
X137311425Y-115852187D01*
X137301688Y-115818726D01*
X137295518Y-115797117D01*
X137293136Y-115788109D01*
X137292083Y-115769935D01*
X137298953Y-115734787D01*
X137315352Y-115700230D01*
X137339166Y-115670191D01*
X137368280Y-115648598D01*
X137374694Y-115645641D01*
X137408178Y-115638312D01*
X137445490Y-115640291D01*
G37*
X140901349Y-116612647D02*
X140901387Y-116746731D01*
X140901412Y-116894110D01*
X140901565Y-118027741D01*
X140882298Y-118064621D01*
X140874005Y-118079206D01*
X140855849Y-118101601D01*
X140832410Y-118117694D01*
X140816237Y-118125021D01*
X140775916Y-118134061D01*
X140735881Y-118131561D01*
X140698849Y-118118316D01*
X140667538Y-118095123D01*
X140644666Y-118062774D01*
X140642619Y-118058459D01*
X140639476Y-118050915D01*
X140636891Y-118042358D01*
X140634807Y-118031497D01*
X140633172Y-118017039D01*
X140631931Y-117997690D01*
X140631030Y-117972158D01*
X140630414Y-117939149D01*
X140630029Y-117897372D01*
X140629822Y-117845532D01*
X140629737Y-117782338D01*
X140629721Y-117706495D01*
X140629721Y-117381089D01*
X140502512Y-117380951D01*
X140448935Y-117380504D01*
X140392429Y-117378717D01*
X140345128Y-117375311D01*
X140304428Y-117370012D01*
X140267724Y-117362548D01*
X140232410Y-117352645D01*
X140181600Y-117332688D01*
X140116217Y-117295375D01*
X140055463Y-117247652D01*
X140001474Y-117191520D01*
X139956384Y-117128982D01*
X139922329Y-117062038D01*
X139920650Y-117057880D01*
X139913086Y-117038129D01*
X139906608Y-117018647D01*
X139901143Y-116998250D01*
X139896614Y-116975754D01*
X139892945Y-116949974D01*
X139890063Y-116919728D01*
X139887892Y-116883830D01*
X139886356Y-116841096D01*
X139885381Y-116790344D01*
X139884891Y-116730388D01*
X139884811Y-116660044D01*
X139885065Y-116578129D01*
X139885579Y-116483459D01*
X139885662Y-116469871D01*
X139886201Y-116382532D01*
X139886688Y-116316416D01*
X140156463Y-116316416D01*
X140156502Y-116377515D01*
X140156740Y-116450195D01*
X140157151Y-116535637D01*
X140159221Y-116924530D01*
X140177589Y-116963704D01*
X140206673Y-117012408D01*
X140245277Y-117052260D01*
X140293994Y-117083038D01*
X140340137Y-117105760D01*
X140479701Y-117108154D01*
X140487585Y-117108280D01*
X140529700Y-117108657D01*
X140566638Y-117108498D01*
X140596209Y-117107848D01*
X140616224Y-117106751D01*
X140624493Y-117105249D01*
X140625023Y-117101683D01*
X140625794Y-117085377D01*
X140626521Y-117056841D01*
X140627197Y-117017103D01*
X140627812Y-116967190D01*
X140628358Y-116908131D01*
X140628824Y-116840954D01*
X140629203Y-116766686D01*
X140629485Y-116686356D01*
X140629660Y-116600992D01*
X140629721Y-116511621D01*
X140629721Y-115923291D01*
X140481601Y-115925530D01*
X140445960Y-115926094D01*
X140405017Y-115926941D01*
X140374244Y-115928052D01*
X140351420Y-115929671D01*
X140334320Y-115932045D01*
X140320723Y-115935420D01*
X140308405Y-115940041D01*
X140295143Y-115946155D01*
X140259043Y-115966898D01*
X140217347Y-116003542D01*
X140186451Y-116048978D01*
X140166135Y-116103474D01*
X140163811Y-116113948D01*
X140161773Y-116126995D01*
X140160105Y-116143369D01*
X140158783Y-116164249D01*
X140157783Y-116190815D01*
X140157079Y-116224245D01*
X140156647Y-116265719D01*
X140156463Y-116316416D01*
X139886688Y-116316416D01*
X139886752Y-116307731D01*
X139887429Y-116244242D01*
X139888344Y-116190839D01*
X139889610Y-116146295D01*
X139891340Y-116109384D01*
X139893647Y-116078879D01*
X139896643Y-116053555D01*
X139900442Y-116032183D01*
X139905155Y-116013540D01*
X139910897Y-115996397D01*
X139917780Y-115979528D01*
X139925916Y-115961708D01*
X139935419Y-115941709D01*
X139972834Y-115875319D01*
X140023967Y-115810504D01*
X140084898Y-115755590D01*
X140155563Y-115710636D01*
X140235895Y-115675699D01*
X140291658Y-115656112D01*
X140535386Y-115653783D01*
X140581880Y-115653420D01*
X140637097Y-115653210D01*
X140687289Y-115653259D01*
X140730673Y-115653553D01*
X140765467Y-115654079D01*
X140789887Y-115654824D01*
X140802151Y-115655775D01*
X140820318Y-115662138D01*
X140846886Y-115679846D01*
X140870996Y-115704523D01*
X140888565Y-115732538D01*
X140888624Y-115732668D01*
X140890269Y-115736783D01*
X140891765Y-115741929D01*
X140893119Y-115748751D01*
X140894339Y-115757896D01*
X140895432Y-115770009D01*
X140896404Y-115785734D01*
X140897263Y-115805718D01*
X140898017Y-115830606D01*
X140898671Y-115861044D01*
X140899234Y-115897676D01*
X140899712Y-115941149D01*
X140900112Y-115992108D01*
X140900443Y-116051199D01*
X140900710Y-116119066D01*
X140900921Y-116196355D01*
X140901083Y-116283713D01*
X140901204Y-116381784D01*
X140901290Y-116491214D01*
X140901300Y-116511621D01*
X140901349Y-116612647D01*
G36*
X140901349Y-116612647D02*
G01*
X140901387Y-116746731D01*
X140901412Y-116894110D01*
X140901565Y-118027741D01*
X140882298Y-118064621D01*
X140874005Y-118079206D01*
X140855849Y-118101601D01*
X140832410Y-118117694D01*
X140816237Y-118125021D01*
X140775916Y-118134061D01*
X140735881Y-118131561D01*
X140698849Y-118118316D01*
X140667538Y-118095123D01*
X140644666Y-118062774D01*
X140642619Y-118058459D01*
X140639476Y-118050915D01*
X140636891Y-118042358D01*
X140634807Y-118031497D01*
X140633172Y-118017039D01*
X140631931Y-117997690D01*
X140631030Y-117972158D01*
X140630414Y-117939149D01*
X140630029Y-117897372D01*
X140629822Y-117845532D01*
X140629737Y-117782338D01*
X140629721Y-117706495D01*
X140629721Y-117381089D01*
X140502512Y-117380951D01*
X140448935Y-117380504D01*
X140392429Y-117378717D01*
X140345128Y-117375311D01*
X140304428Y-117370012D01*
X140267724Y-117362548D01*
X140232410Y-117352645D01*
X140181600Y-117332688D01*
X140116217Y-117295375D01*
X140055463Y-117247652D01*
X140001474Y-117191520D01*
X139956384Y-117128982D01*
X139922329Y-117062038D01*
X139920650Y-117057880D01*
X139913086Y-117038129D01*
X139906608Y-117018647D01*
X139901143Y-116998250D01*
X139896614Y-116975754D01*
X139892945Y-116949974D01*
X139890063Y-116919728D01*
X139887892Y-116883830D01*
X139886356Y-116841096D01*
X139885381Y-116790344D01*
X139884891Y-116730388D01*
X139884811Y-116660044D01*
X139885065Y-116578129D01*
X139885579Y-116483459D01*
X139885662Y-116469871D01*
X139886201Y-116382532D01*
X139886688Y-116316416D01*
X140156463Y-116316416D01*
X140156502Y-116377515D01*
X140156740Y-116450195D01*
X140157151Y-116535637D01*
X140159221Y-116924530D01*
X140177589Y-116963704D01*
X140206673Y-117012408D01*
X140245277Y-117052260D01*
X140293994Y-117083038D01*
X140340137Y-117105760D01*
X140479701Y-117108154D01*
X140487585Y-117108280D01*
X140529700Y-117108657D01*
X140566638Y-117108498D01*
X140596209Y-117107848D01*
X140616224Y-117106751D01*
X140624493Y-117105249D01*
X140625023Y-117101683D01*
X140625794Y-117085377D01*
X140626521Y-117056841D01*
X140627197Y-117017103D01*
X140627812Y-116967190D01*
X140628358Y-116908131D01*
X140628824Y-116840954D01*
X140629203Y-116766686D01*
X140629485Y-116686356D01*
X140629660Y-116600992D01*
X140629721Y-116511621D01*
X140629721Y-115923291D01*
X140481601Y-115925530D01*
X140445960Y-115926094D01*
X140405017Y-115926941D01*
X140374244Y-115928052D01*
X140351420Y-115929671D01*
X140334320Y-115932045D01*
X140320723Y-115935420D01*
X140308405Y-115940041D01*
X140295143Y-115946155D01*
X140259043Y-115966898D01*
X140217347Y-116003542D01*
X140186451Y-116048978D01*
X140166135Y-116103474D01*
X140163811Y-116113948D01*
X140161773Y-116126995D01*
X140160105Y-116143369D01*
X140158783Y-116164249D01*
X140157783Y-116190815D01*
X140157079Y-116224245D01*
X140156647Y-116265719D01*
X140156463Y-116316416D01*
X139886688Y-116316416D01*
X139886752Y-116307731D01*
X139887429Y-116244242D01*
X139888344Y-116190839D01*
X139889610Y-116146295D01*
X139891340Y-116109384D01*
X139893647Y-116078879D01*
X139896643Y-116053555D01*
X139900442Y-116032183D01*
X139905155Y-116013540D01*
X139910897Y-115996397D01*
X139917780Y-115979528D01*
X139925916Y-115961708D01*
X139935419Y-115941709D01*
X139972834Y-115875319D01*
X140023967Y-115810504D01*
X140084898Y-115755590D01*
X140155563Y-115710636D01*
X140235895Y-115675699D01*
X140291658Y-115656112D01*
X140535386Y-115653783D01*
X140581880Y-115653420D01*
X140637097Y-115653210D01*
X140687289Y-115653259D01*
X140730673Y-115653553D01*
X140765467Y-115654079D01*
X140789887Y-115654824D01*
X140802151Y-115655775D01*
X140820318Y-115662138D01*
X140846886Y-115679846D01*
X140870996Y-115704523D01*
X140888565Y-115732538D01*
X140888624Y-115732668D01*
X140890269Y-115736783D01*
X140891765Y-115741929D01*
X140893119Y-115748751D01*
X140894339Y-115757896D01*
X140895432Y-115770009D01*
X140896404Y-115785734D01*
X140897263Y-115805718D01*
X140898017Y-115830606D01*
X140898671Y-115861044D01*
X140899234Y-115897676D01*
X140899712Y-115941149D01*
X140900112Y-115992108D01*
X140900443Y-116051199D01*
X140900710Y-116119066D01*
X140900921Y-116196355D01*
X140901083Y-116283713D01*
X140901204Y-116381784D01*
X140901290Y-116491214D01*
X140901300Y-116511621D01*
X140901349Y-116612647D01*
G37*
X142149242Y-116426736D02*
X142149260Y-116516764D01*
X142149256Y-116579735D01*
X142149190Y-116666440D01*
X142148963Y-116741091D01*
X142148478Y-116804832D01*
X142147636Y-116858810D01*
X142146338Y-116904171D01*
X142144484Y-116942060D01*
X142141977Y-116973623D01*
X142138718Y-117000005D01*
X142134608Y-117022353D01*
X142129549Y-117041813D01*
X142123441Y-117059529D01*
X142116186Y-117076647D01*
X142107685Y-117094314D01*
X142097840Y-117113675D01*
X142086248Y-117135904D01*
X142069102Y-117166179D01*
X142052519Y-117190742D01*
X142033362Y-117214053D01*
X142008488Y-117240571D01*
X142004104Y-117245017D01*
X141944364Y-117295434D01*
X141875870Y-117336910D01*
X141801484Y-117367970D01*
X141724068Y-117387140D01*
X141691300Y-117391227D01*
X141616360Y-117391918D01*
X141541112Y-117381585D01*
X141468023Y-117361025D01*
X141399562Y-117331033D01*
X141338195Y-117292406D01*
X141286392Y-117245940D01*
X141265569Y-117218596D01*
X141248613Y-117179765D01*
X141244307Y-117140476D01*
X141252475Y-117102641D01*
X141272939Y-117068172D01*
X141305522Y-117038982D01*
X141310758Y-117035596D01*
X141350709Y-117018026D01*
X141391380Y-117014296D01*
X141432214Y-117024375D01*
X141472657Y-117048233D01*
X141483802Y-117056758D01*
X141511227Y-117077240D01*
X141531873Y-117091377D01*
X141548799Y-117100974D01*
X141565062Y-117107837D01*
X141583721Y-117113770D01*
X141587852Y-117114923D01*
X141639596Y-117121922D01*
X141691645Y-117116466D01*
X141741584Y-117099645D01*
X141786993Y-117072546D01*
X141825456Y-117036257D01*
X141854554Y-116991868D01*
X141860656Y-116979113D01*
X141865541Y-116967043D01*
X141869125Y-116954148D01*
X141871653Y-116938244D01*
X141873373Y-116917143D01*
X141874533Y-116888661D01*
X141875380Y-116850610D01*
X141876160Y-116800806D01*
X141878390Y-116649201D01*
X141559467Y-116649201D01*
X141528086Y-116649199D01*
X141458210Y-116649159D01*
X141400449Y-116649024D01*
X141353495Y-116648738D01*
X141316040Y-116648248D01*
X141286777Y-116647497D01*
X141264398Y-116646429D01*
X141247595Y-116644991D01*
X141235062Y-116643125D01*
X141225490Y-116640778D01*
X141217573Y-116637893D01*
X141210002Y-116634416D01*
X141184149Y-116617181D01*
X141160751Y-116591373D01*
X141142042Y-116563116D01*
X141140487Y-116377357D01*
X141409410Y-116377357D01*
X141643900Y-116377357D01*
X141878390Y-116377357D01*
X141876160Y-116225751D01*
X141875460Y-116180718D01*
X141874626Y-116141500D01*
X141873513Y-116112176D01*
X141871883Y-116090611D01*
X141869500Y-116074664D01*
X141866127Y-116062198D01*
X141861525Y-116051075D01*
X141855458Y-116039156D01*
X141853508Y-116035533D01*
X141821607Y-115990207D01*
X141782485Y-115955110D01*
X141738008Y-115930231D01*
X141690041Y-115915560D01*
X141640450Y-115911088D01*
X141591099Y-115916805D01*
X141543854Y-115932701D01*
X141500580Y-115958767D01*
X141463142Y-115994992D01*
X141433406Y-116041367D01*
X141427773Y-116053088D01*
X141422670Y-116065381D01*
X141418930Y-116078253D01*
X141416295Y-116093931D01*
X141414507Y-116114642D01*
X141413309Y-116142612D01*
X141412442Y-116180068D01*
X141411648Y-116229237D01*
X141409410Y-116377357D01*
X141140487Y-116377357D01*
X141140039Y-116323855D01*
X141139905Y-116307589D01*
X141139470Y-116245450D01*
X141139320Y-116195087D01*
X141139527Y-116154739D01*
X141140162Y-116122650D01*
X141141299Y-116097062D01*
X141143008Y-116076218D01*
X141145363Y-116058358D01*
X141148434Y-116041726D01*
X141152293Y-116024564D01*
X141160354Y-115994649D01*
X141190247Y-115918491D01*
X141231151Y-115849582D01*
X141281924Y-115788816D01*
X141341426Y-115737091D01*
X141408516Y-115695300D01*
X141482053Y-115664341D01*
X141560898Y-115645108D01*
X141643908Y-115638498D01*
X141664843Y-115638900D01*
X141747836Y-115648651D01*
X141826061Y-115670818D01*
X141898446Y-115704571D01*
X141963918Y-115749083D01*
X142021408Y-115803525D01*
X142069842Y-115867071D01*
X142108151Y-115938892D01*
X142135262Y-116018160D01*
X142135465Y-116018955D01*
X142138273Y-116030584D01*
X142140673Y-116042478D01*
X142142697Y-116055778D01*
X142144376Y-116071622D01*
X142145742Y-116091150D01*
X142146828Y-116115502D01*
X142147665Y-116145818D01*
X142148285Y-116183237D01*
X142148722Y-116228899D01*
X142149005Y-116283942D01*
X142149168Y-116349508D01*
X142149195Y-116377357D01*
X142149242Y-116426736D01*
G36*
X142149242Y-116426736D02*
G01*
X142149260Y-116516764D01*
X142149256Y-116579735D01*
X142149190Y-116666440D01*
X142148963Y-116741091D01*
X142148478Y-116804832D01*
X142147636Y-116858810D01*
X142146338Y-116904171D01*
X142144484Y-116942060D01*
X142141977Y-116973623D01*
X142138718Y-117000005D01*
X142134608Y-117022353D01*
X142129549Y-117041813D01*
X142123441Y-117059529D01*
X142116186Y-117076647D01*
X142107685Y-117094314D01*
X142097840Y-117113675D01*
X142086248Y-117135904D01*
X142069102Y-117166179D01*
X142052519Y-117190742D01*
X142033362Y-117214053D01*
X142008488Y-117240571D01*
X142004104Y-117245017D01*
X141944364Y-117295434D01*
X141875870Y-117336910D01*
X141801484Y-117367970D01*
X141724068Y-117387140D01*
X141691300Y-117391227D01*
X141616360Y-117391918D01*
X141541112Y-117381585D01*
X141468023Y-117361025D01*
X141399562Y-117331033D01*
X141338195Y-117292406D01*
X141286392Y-117245940D01*
X141265569Y-117218596D01*
X141248613Y-117179765D01*
X141244307Y-117140476D01*
X141252475Y-117102641D01*
X141272939Y-117068172D01*
X141305522Y-117038982D01*
X141310758Y-117035596D01*
X141350709Y-117018026D01*
X141391380Y-117014296D01*
X141432214Y-117024375D01*
X141472657Y-117048233D01*
X141483802Y-117056758D01*
X141511227Y-117077240D01*
X141531873Y-117091377D01*
X141548799Y-117100974D01*
X141565062Y-117107837D01*
X141583721Y-117113770D01*
X141587852Y-117114923D01*
X141639596Y-117121922D01*
X141691645Y-117116466D01*
X141741584Y-117099645D01*
X141786993Y-117072546D01*
X141825456Y-117036257D01*
X141854554Y-116991868D01*
X141860656Y-116979113D01*
X141865541Y-116967043D01*
X141869125Y-116954148D01*
X141871653Y-116938244D01*
X141873373Y-116917143D01*
X141874533Y-116888661D01*
X141875380Y-116850610D01*
X141876160Y-116800806D01*
X141878390Y-116649201D01*
X141559467Y-116649201D01*
X141528086Y-116649199D01*
X141458210Y-116649159D01*
X141400449Y-116649024D01*
X141353495Y-116648738D01*
X141316040Y-116648248D01*
X141286777Y-116647497D01*
X141264398Y-116646429D01*
X141247595Y-116644991D01*
X141235062Y-116643125D01*
X141225490Y-116640778D01*
X141217573Y-116637893D01*
X141210002Y-116634416D01*
X141184149Y-116617181D01*
X141160751Y-116591373D01*
X141142042Y-116563116D01*
X141140487Y-116377357D01*
X141409410Y-116377357D01*
X141643900Y-116377357D01*
X141878390Y-116377357D01*
X141876160Y-116225751D01*
X141875460Y-116180718D01*
X141874626Y-116141500D01*
X141873513Y-116112176D01*
X141871883Y-116090611D01*
X141869500Y-116074664D01*
X141866127Y-116062198D01*
X141861525Y-116051075D01*
X141855458Y-116039156D01*
X141853508Y-116035533D01*
X141821607Y-115990207D01*
X141782485Y-115955110D01*
X141738008Y-115930231D01*
X141690041Y-115915560D01*
X141640450Y-115911088D01*
X141591099Y-115916805D01*
X141543854Y-115932701D01*
X141500580Y-115958767D01*
X141463142Y-115994992D01*
X141433406Y-116041367D01*
X141427773Y-116053088D01*
X141422670Y-116065381D01*
X141418930Y-116078253D01*
X141416295Y-116093931D01*
X141414507Y-116114642D01*
X141413309Y-116142612D01*
X141412442Y-116180068D01*
X141411648Y-116229237D01*
X141409410Y-116377357D01*
X141140487Y-116377357D01*
X141140039Y-116323855D01*
X141139905Y-116307589D01*
X141139470Y-116245450D01*
X141139320Y-116195087D01*
X141139527Y-116154739D01*
X141140162Y-116122650D01*
X141141299Y-116097062D01*
X141143008Y-116076218D01*
X141145363Y-116058358D01*
X141148434Y-116041726D01*
X141152293Y-116024564D01*
X141160354Y-115994649D01*
X141190247Y-115918491D01*
X141231151Y-115849582D01*
X141281924Y-115788816D01*
X141341426Y-115737091D01*
X141408516Y-115695300D01*
X141482053Y-115664341D01*
X141560898Y-115645108D01*
X141643908Y-115638498D01*
X141664843Y-115638900D01*
X141747836Y-115648651D01*
X141826061Y-115670818D01*
X141898446Y-115704571D01*
X141963918Y-115749083D01*
X142021408Y-115803525D01*
X142069842Y-115867071D01*
X142108151Y-115938892D01*
X142135262Y-116018160D01*
X142135465Y-116018955D01*
X142138273Y-116030584D01*
X142140673Y-116042478D01*
X142142697Y-116055778D01*
X142144376Y-116071622D01*
X142145742Y-116091150D01*
X142146828Y-116115502D01*
X142147665Y-116145818D01*
X142148285Y-116183237D01*
X142148722Y-116228899D01*
X142149005Y-116283942D01*
X142149168Y-116349508D01*
X142149195Y-116377357D01*
X142149242Y-116426736D01*
G37*
X145205753Y-116423397D02*
X145205764Y-116516764D01*
X145205759Y-116558878D01*
X145205703Y-116644349D01*
X145205563Y-116717468D01*
X145205311Y-116779338D01*
X145204920Y-116831059D01*
X145204364Y-116873733D01*
X145203614Y-116908462D01*
X145202643Y-116936347D01*
X145201425Y-116958489D01*
X145199932Y-116975990D01*
X145198136Y-116989951D01*
X145196011Y-117001474D01*
X145193530Y-117011660D01*
X145192687Y-117014720D01*
X145175527Y-117063791D01*
X145151510Y-117116278D01*
X145123528Y-117166435D01*
X145094473Y-117208515D01*
X145055749Y-117251017D01*
X144995908Y-117299779D01*
X144927561Y-117339751D01*
X144852811Y-117369751D01*
X144773765Y-117388597D01*
X144745896Y-117391409D01*
X144700675Y-117391868D01*
X144651398Y-117388858D01*
X144603377Y-117382748D01*
X144561924Y-117373905D01*
X144516256Y-117358990D01*
X144451161Y-117328420D01*
X144387433Y-117286395D01*
X144350712Y-117255176D01*
X144323540Y-117222240D01*
X144308034Y-117188239D01*
X144303112Y-117151445D01*
X144303205Y-117145148D01*
X144309588Y-117104528D01*
X144326928Y-117071135D01*
X144356505Y-117042356D01*
X144376393Y-117029543D01*
X144415835Y-117015621D01*
X144456446Y-117015017D01*
X144496640Y-117027633D01*
X144534828Y-117053371D01*
X144547349Y-117063624D01*
X144575988Y-117083919D01*
X144603764Y-117100414D01*
X144605790Y-117101454D01*
X144626571Y-117110962D01*
X144645843Y-117116446D01*
X144668744Y-117118914D01*
X144700412Y-117119374D01*
X144748266Y-117115716D01*
X144794105Y-117102712D01*
X144834806Y-117078892D01*
X144873667Y-117042798D01*
X144888754Y-117025578D01*
X144903937Y-117005156D01*
X144915320Y-116984122D01*
X144923438Y-116960257D01*
X144928824Y-116931340D01*
X144932010Y-116895154D01*
X144933531Y-116849478D01*
X144933919Y-116792093D01*
X144933919Y-116652686D01*
X144606312Y-116649201D01*
X144530779Y-116648308D01*
X144458937Y-116647221D01*
X144399601Y-116646015D01*
X144352012Y-116644663D01*
X144315413Y-116643139D01*
X144289046Y-116641416D01*
X144272153Y-116639468D01*
X144263978Y-116637269D01*
X144253690Y-116630229D01*
X144230467Y-116607184D01*
X144210556Y-116578748D01*
X144198277Y-116550618D01*
X144196540Y-116540917D01*
X144194532Y-116516424D01*
X144193212Y-116479564D01*
X144192573Y-116429946D01*
X144192607Y-116367181D01*
X144193306Y-116290880D01*
X144193651Y-116263641D01*
X144193771Y-116255718D01*
X144463420Y-116255718D01*
X144463420Y-116377357D01*
X144701021Y-116377357D01*
X144938623Y-116377357D01*
X144936271Y-116232548D01*
X144933919Y-116087738D01*
X144910973Y-116041155D01*
X144885011Y-115998873D01*
X144847262Y-115960325D01*
X144798946Y-115930014D01*
X144798095Y-115929595D01*
X144779377Y-115921734D01*
X144759744Y-115916975D01*
X144734866Y-115914611D01*
X144700412Y-115913936D01*
X144671112Y-115914155D01*
X144647773Y-115915643D01*
X144629568Y-115919408D01*
X144611867Y-115926449D01*
X144590045Y-115937764D01*
X144559182Y-115957575D01*
X144519048Y-115995170D01*
X144489532Y-116039294D01*
X144485662Y-116047644D01*
X144477032Y-116073135D01*
X144470726Y-116104751D01*
X144466511Y-116144430D01*
X144464154Y-116194107D01*
X144463420Y-116255718D01*
X144193771Y-116255718D01*
X144194620Y-116199765D01*
X144195883Y-116147271D01*
X144197721Y-116104300D01*
X144200416Y-116068990D01*
X144204248Y-116039481D01*
X144209500Y-116013913D01*
X144216453Y-115990424D01*
X144225387Y-115967153D01*
X144236585Y-115942242D01*
X144250328Y-115913828D01*
X144269206Y-115879023D01*
X144316287Y-115813233D01*
X144373293Y-115756368D01*
X144438997Y-115709379D01*
X144512176Y-115673217D01*
X144591604Y-115648834D01*
X144596026Y-115647893D01*
X144645267Y-115641178D01*
X144700497Y-115639176D01*
X144756876Y-115641690D01*
X144809562Y-115648523D01*
X144853713Y-115659479D01*
X144877948Y-115668294D01*
X144954702Y-115705211D01*
X145023146Y-115752594D01*
X145082354Y-115809594D01*
X145131397Y-115875359D01*
X145169350Y-115949039D01*
X145172574Y-115956817D01*
X145179216Y-115973238D01*
X145184907Y-115988701D01*
X145189721Y-116004354D01*
X145193730Y-116021342D01*
X145197009Y-116040811D01*
X145199630Y-116063907D01*
X145201668Y-116091776D01*
X145203196Y-116125564D01*
X145204286Y-116166417D01*
X145205014Y-116215480D01*
X145205452Y-116273901D01*
X145205674Y-116342825D01*
X145205708Y-116377357D01*
X145205753Y-116423397D01*
G36*
X145205753Y-116423397D02*
G01*
X145205764Y-116516764D01*
X145205759Y-116558878D01*
X145205703Y-116644349D01*
X145205563Y-116717468D01*
X145205311Y-116779338D01*
X145204920Y-116831059D01*
X145204364Y-116873733D01*
X145203614Y-116908462D01*
X145202643Y-116936347D01*
X145201425Y-116958489D01*
X145199932Y-116975990D01*
X145198136Y-116989951D01*
X145196011Y-117001474D01*
X145193530Y-117011660D01*
X145192687Y-117014720D01*
X145175527Y-117063791D01*
X145151510Y-117116278D01*
X145123528Y-117166435D01*
X145094473Y-117208515D01*
X145055749Y-117251017D01*
X144995908Y-117299779D01*
X144927561Y-117339751D01*
X144852811Y-117369751D01*
X144773765Y-117388597D01*
X144745896Y-117391409D01*
X144700675Y-117391868D01*
X144651398Y-117388858D01*
X144603377Y-117382748D01*
X144561924Y-117373905D01*
X144516256Y-117358990D01*
X144451161Y-117328420D01*
X144387433Y-117286395D01*
X144350712Y-117255176D01*
X144323540Y-117222240D01*
X144308034Y-117188239D01*
X144303112Y-117151445D01*
X144303205Y-117145148D01*
X144309588Y-117104528D01*
X144326928Y-117071135D01*
X144356505Y-117042356D01*
X144376393Y-117029543D01*
X144415835Y-117015621D01*
X144456446Y-117015017D01*
X144496640Y-117027633D01*
X144534828Y-117053371D01*
X144547349Y-117063624D01*
X144575988Y-117083919D01*
X144603764Y-117100414D01*
X144605790Y-117101454D01*
X144626571Y-117110962D01*
X144645843Y-117116446D01*
X144668744Y-117118914D01*
X144700412Y-117119374D01*
X144748266Y-117115716D01*
X144794105Y-117102712D01*
X144834806Y-117078892D01*
X144873667Y-117042798D01*
X144888754Y-117025578D01*
X144903937Y-117005156D01*
X144915320Y-116984122D01*
X144923438Y-116960257D01*
X144928824Y-116931340D01*
X144932010Y-116895154D01*
X144933531Y-116849478D01*
X144933919Y-116792093D01*
X144933919Y-116652686D01*
X144606312Y-116649201D01*
X144530779Y-116648308D01*
X144458937Y-116647221D01*
X144399601Y-116646015D01*
X144352012Y-116644663D01*
X144315413Y-116643139D01*
X144289046Y-116641416D01*
X144272153Y-116639468D01*
X144263978Y-116637269D01*
X144253690Y-116630229D01*
X144230467Y-116607184D01*
X144210556Y-116578748D01*
X144198277Y-116550618D01*
X144196540Y-116540917D01*
X144194532Y-116516424D01*
X144193212Y-116479564D01*
X144192573Y-116429946D01*
X144192607Y-116367181D01*
X144193306Y-116290880D01*
X144193651Y-116263641D01*
X144193771Y-116255718D01*
X144463420Y-116255718D01*
X144463420Y-116377357D01*
X144701021Y-116377357D01*
X144938623Y-116377357D01*
X144936271Y-116232548D01*
X144933919Y-116087738D01*
X144910973Y-116041155D01*
X144885011Y-115998873D01*
X144847262Y-115960325D01*
X144798946Y-115930014D01*
X144798095Y-115929595D01*
X144779377Y-115921734D01*
X144759744Y-115916975D01*
X144734866Y-115914611D01*
X144700412Y-115913936D01*
X144671112Y-115914155D01*
X144647773Y-115915643D01*
X144629568Y-115919408D01*
X144611867Y-115926449D01*
X144590045Y-115937764D01*
X144559182Y-115957575D01*
X144519048Y-115995170D01*
X144489532Y-116039294D01*
X144485662Y-116047644D01*
X144477032Y-116073135D01*
X144470726Y-116104751D01*
X144466511Y-116144430D01*
X144464154Y-116194107D01*
X144463420Y-116255718D01*
X144193771Y-116255718D01*
X144194620Y-116199765D01*
X144195883Y-116147271D01*
X144197721Y-116104300D01*
X144200416Y-116068990D01*
X144204248Y-116039481D01*
X144209500Y-116013913D01*
X144216453Y-115990424D01*
X144225387Y-115967153D01*
X144236585Y-115942242D01*
X144250328Y-115913828D01*
X144269206Y-115879023D01*
X144316287Y-115813233D01*
X144373293Y-115756368D01*
X144438997Y-115709379D01*
X144512176Y-115673217D01*
X144591604Y-115648834D01*
X144596026Y-115647893D01*
X144645267Y-115641178D01*
X144700497Y-115639176D01*
X144756876Y-115641690D01*
X144809562Y-115648523D01*
X144853713Y-115659479D01*
X144877948Y-115668294D01*
X144954702Y-115705211D01*
X145023146Y-115752594D01*
X145082354Y-115809594D01*
X145131397Y-115875359D01*
X145169350Y-115949039D01*
X145172574Y-115956817D01*
X145179216Y-115973238D01*
X145184907Y-115988701D01*
X145189721Y-116004354D01*
X145193730Y-116021342D01*
X145197009Y-116040811D01*
X145199630Y-116063907D01*
X145201668Y-116091776D01*
X145203196Y-116125564D01*
X145204286Y-116166417D01*
X145205014Y-116215480D01*
X145205452Y-116273901D01*
X145205674Y-116342825D01*
X145205708Y-116377357D01*
X145205753Y-116423397D01*
G37*
X141589645Y-112830056D02*
X141583728Y-112862079D01*
X141580169Y-112881952D01*
X141579114Y-112888907D01*
X141579128Y-112888910D01*
X141585236Y-112884825D01*
X141601923Y-112872941D01*
X141628565Y-112853717D01*
X141664538Y-112827607D01*
X141709218Y-112795069D01*
X141761981Y-112756558D01*
X141822203Y-112712533D01*
X141889260Y-112663448D01*
X141962527Y-112609760D01*
X142041382Y-112551927D01*
X142125200Y-112490403D01*
X142213357Y-112425647D01*
X142305229Y-112358113D01*
X142400193Y-112288259D01*
X142494429Y-112218955D01*
X142587118Y-112150863D01*
X142676378Y-112085364D01*
X142761560Y-112022931D01*
X142842014Y-111964039D01*
X142917092Y-111909160D01*
X142986144Y-111858768D01*
X143048520Y-111813336D01*
X143103572Y-111773337D01*
X143150650Y-111739245D01*
X143189105Y-111711533D01*
X143218287Y-111690675D01*
X143237548Y-111677144D01*
X143246239Y-111671413D01*
X143248208Y-111670400D01*
X143290380Y-111656392D01*
X143337478Y-111653276D01*
X143385567Y-111661336D01*
X143402452Y-111667019D01*
X143419890Y-111675522D01*
X143438313Y-111688143D01*
X143460593Y-111706881D01*
X143489600Y-111733733D01*
X143497185Y-111740864D01*
X143516263Y-111758673D01*
X143544562Y-111785013D01*
X143581490Y-111819333D01*
X143626453Y-111861083D01*
X143678859Y-111909713D01*
X143738114Y-111964674D01*
X143803626Y-112025416D01*
X143874802Y-112091389D01*
X143951048Y-112162043D01*
X144031771Y-112236828D01*
X144116378Y-112315195D01*
X144204277Y-112396593D01*
X144294873Y-112480473D01*
X144387575Y-112566285D01*
X144484469Y-112655952D01*
X144586047Y-112749942D01*
X144678266Y-112835295D01*
X144761575Y-112912469D01*
X144836426Y-112981922D01*
X144903269Y-113044114D01*
X144962555Y-113099503D01*
X145014735Y-113148548D01*
X145060260Y-113191707D01*
X145099580Y-113229439D01*
X145133147Y-113262202D01*
X145161411Y-113290455D01*
X145166548Y-113295765D01*
X145184824Y-113314656D01*
X145203835Y-113335265D01*
X145218896Y-113352739D01*
X145230457Y-113367538D01*
X145238971Y-113380119D01*
X145244886Y-113390942D01*
X145248654Y-113400464D01*
X145250726Y-113409145D01*
X145251553Y-113417444D01*
X145251586Y-113425818D01*
X145251275Y-113434726D01*
X145251071Y-113444627D01*
X145247315Y-113485796D01*
X145231565Y-113533437D01*
X145203969Y-113574143D01*
X145165005Y-113607255D01*
X145115149Y-113632116D01*
X145112987Y-113632966D01*
X145098874Y-113638705D01*
X145072727Y-113649437D01*
X145035142Y-113664914D01*
X144986717Y-113684888D01*
X144928051Y-113709112D01*
X144859739Y-113737339D01*
X144809987Y-113757907D01*
X144782382Y-113769319D01*
X144696575Y-113804806D01*
X144602918Y-113843552D01*
X144502007Y-113885309D01*
X144394441Y-113929829D01*
X144280817Y-113976866D01*
X144161733Y-114026170D01*
X144037786Y-114077495D01*
X143909575Y-114130592D01*
X143777697Y-114185214D01*
X143642751Y-114241113D01*
X143505332Y-114298042D01*
X143366041Y-114355753D01*
X143225473Y-114413998D01*
X143084228Y-114472529D01*
X142942902Y-114531098D01*
X142802094Y-114589459D01*
X142662401Y-114647363D01*
X142524421Y-114704563D01*
X142388751Y-114760810D01*
X142255990Y-114815857D01*
X142126735Y-114869457D01*
X142001585Y-114921361D01*
X141881135Y-114971323D01*
X141765986Y-115019093D01*
X141656733Y-115064426D01*
X141553976Y-115107072D01*
X141458311Y-115146784D01*
X141370337Y-115183315D01*
X141290651Y-115216416D01*
X141219851Y-115245840D01*
X141158534Y-115271340D01*
X141107300Y-115292667D01*
X141066744Y-115309574D01*
X141037465Y-115321813D01*
X141020061Y-115329137D01*
X140979056Y-115341307D01*
X140931118Y-115343844D01*
X140884606Y-115334966D01*
X140842002Y-115315504D01*
X140805789Y-115286291D01*
X140778448Y-115248158D01*
X140776821Y-115244564D01*
X140770221Y-115226616D01*
X140760332Y-115196902D01*
X140747487Y-115156562D01*
X140732017Y-115106740D01*
X140714254Y-115048576D01*
X140694528Y-114983212D01*
X140673173Y-114911791D01*
X140650518Y-114835454D01*
X140626896Y-114755342D01*
X140614636Y-114713521D01*
X141498366Y-114713521D01*
X141498446Y-114718192D01*
X141503397Y-114716460D01*
X141520468Y-114709746D01*
X141548909Y-114698281D01*
X141587939Y-114682391D01*
X141636773Y-114662399D01*
X141694630Y-114638633D01*
X141760728Y-114611415D01*
X141834284Y-114581073D01*
X141914517Y-114547930D01*
X142000643Y-114512313D01*
X142091880Y-114474546D01*
X142187446Y-114434954D01*
X142286560Y-114393863D01*
X142388437Y-114351598D01*
X142492297Y-114308483D01*
X142597356Y-114264845D01*
X142702833Y-114221008D01*
X142807945Y-114177297D01*
X142911910Y-114134037D01*
X143013945Y-114091555D01*
X143113268Y-114050174D01*
X143209098Y-114010220D01*
X143300650Y-113972019D01*
X143387144Y-113935895D01*
X143467797Y-113902173D01*
X143541826Y-113871179D01*
X143608450Y-113843237D01*
X143666886Y-113818674D01*
X143716351Y-113797814D01*
X143756063Y-113780982D01*
X143785240Y-113768503D01*
X143803100Y-113760703D01*
X143808860Y-113757907D01*
X143803796Y-113757989D01*
X143786420Y-113759152D01*
X143758572Y-113761341D01*
X143722161Y-113764382D01*
X143679094Y-113768105D01*
X143631276Y-113772336D01*
X143580616Y-113776903D01*
X143529021Y-113781634D01*
X143478398Y-113786357D01*
X143430654Y-113790900D01*
X143387695Y-113795090D01*
X143351430Y-113798755D01*
X143323766Y-113801723D01*
X143315462Y-113802565D01*
X143293649Y-113804674D01*
X143259889Y-113807890D01*
X143215233Y-113812114D01*
X143160734Y-113817249D01*
X143097444Y-113823194D01*
X143026417Y-113829852D01*
X142948704Y-113837122D01*
X142865358Y-113844907D01*
X142777432Y-113853107D01*
X142685978Y-113861624D01*
X142679025Y-113862271D01*
X142571027Y-113872360D01*
X142476071Y-113881312D01*
X142393361Y-113889216D01*
X142322099Y-113896158D01*
X142261490Y-113902227D01*
X142210737Y-113907509D01*
X142169043Y-113912092D01*
X142135612Y-113916062D01*
X142109648Y-113919509D01*
X142090354Y-113922519D01*
X142076933Y-113925178D01*
X142068589Y-113927576D01*
X142064525Y-113929798D01*
X142063403Y-113931012D01*
X142054025Y-113942763D01*
X142037302Y-113964911D01*
X142035009Y-113968011D01*
X142013803Y-113996675D01*
X141984101Y-114037270D01*
X141948766Y-114085914D01*
X141908370Y-114141824D01*
X141863485Y-114204216D01*
X141814681Y-114272307D01*
X141810945Y-114277523D01*
X141794812Y-114299990D01*
X141772831Y-114330546D01*
X141746745Y-114366773D01*
X141718293Y-114406252D01*
X141689216Y-114446566D01*
X141680135Y-114459154D01*
X141650807Y-114499847D01*
X141622482Y-114539199D01*
X141596951Y-114574720D01*
X141576004Y-114603920D01*
X141561431Y-114624311D01*
X141557435Y-114629914D01*
X141538856Y-114655766D01*
X141521805Y-114679210D01*
X141509541Y-114695757D01*
X141505366Y-114701530D01*
X141498366Y-114713521D01*
X140614636Y-114713521D01*
X140602639Y-114672599D01*
X140578077Y-114588365D01*
X140553542Y-114503782D01*
X140529367Y-114419992D01*
X140505882Y-114338137D01*
X140483418Y-114259358D01*
X140462308Y-114184798D01*
X140442884Y-114115599D01*
X140425475Y-114052901D01*
X140421544Y-114038532D01*
X140819652Y-114038532D01*
X140819769Y-114039870D01*
X140822609Y-114051705D01*
X140828627Y-114074156D01*
X140837287Y-114105278D01*
X140848050Y-114143130D01*
X140860379Y-114185769D01*
X140865654Y-114203831D01*
X140877722Y-114244841D01*
X140888283Y-114280302D01*
X140896747Y-114308253D01*
X140902522Y-114326732D01*
X140905017Y-114333779D01*
X140905478Y-114333903D01*
X140907057Y-114331038D01*
X140908430Y-114326218D01*
X141301670Y-114326218D01*
X141303183Y-114324855D01*
X141311684Y-114314306D01*
X141326769Y-114294472D01*
X141347453Y-114266679D01*
X141372754Y-114232251D01*
X141401687Y-114192516D01*
X141433270Y-114148799D01*
X141450806Y-114124410D01*
X141480858Y-114082488D01*
X141507543Y-114045104D01*
X141529902Y-114013612D01*
X141546976Y-113989364D01*
X141557805Y-113973713D01*
X141561432Y-113968011D01*
X141561310Y-113967962D01*
X141553108Y-113968249D01*
X141534395Y-113969753D01*
X141508219Y-113972162D01*
X141477628Y-113975163D01*
X141445670Y-113978445D01*
X141415395Y-113981695D01*
X141389851Y-113984600D01*
X141372085Y-113986848D01*
X141365147Y-113988126D01*
X141364180Y-113992056D01*
X141360855Y-114007945D01*
X141357194Y-114026135D01*
X141355558Y-114034266D01*
X141348664Y-114069134D01*
X141340546Y-114110666D01*
X141331581Y-114156978D01*
X141325029Y-114191271D01*
X141316986Y-114234297D01*
X141310296Y-114271191D01*
X141305290Y-114300068D01*
X141302304Y-114319039D01*
X141301670Y-114326218D01*
X140908430Y-114326218D01*
X140909472Y-114322558D01*
X140913008Y-114307116D01*
X140917948Y-114283361D01*
X140924578Y-114249946D01*
X140933182Y-114205521D01*
X140944044Y-114148738D01*
X140950329Y-114115015D01*
X140956488Y-114080141D01*
X140961041Y-114052206D01*
X140963623Y-114033455D01*
X140963872Y-114026135D01*
X140960484Y-114025814D01*
X140946064Y-114026317D01*
X140923707Y-114027776D01*
X140897037Y-114029882D01*
X140869674Y-114032321D01*
X140845242Y-114034783D01*
X140827360Y-114036957D01*
X140819652Y-114038532D01*
X140421544Y-114038532D01*
X140410415Y-113997847D01*
X140398034Y-113951579D01*
X140388665Y-113915238D01*
X140382638Y-113889967D01*
X140380286Y-113876906D01*
X140380045Y-113872698D01*
X140380184Y-113844593D01*
X140385067Y-113820756D01*
X140396201Y-113793262D01*
X140400023Y-113784383D01*
X140409033Y-113762733D01*
X140422696Y-113729545D01*
X140440721Y-113685538D01*
X140462818Y-113631430D01*
X140475568Y-113600149D01*
X141440639Y-113600149D01*
X141441435Y-113600122D01*
X141452459Y-113599205D01*
X141475089Y-113597155D01*
X141507607Y-113594132D01*
X141548293Y-113590297D01*
X141595428Y-113585810D01*
X141647293Y-113580833D01*
X141690043Y-113576601D01*
X141747282Y-113570484D01*
X141793795Y-113564906D01*
X141828785Y-113559975D01*
X141851457Y-113555794D01*
X141861017Y-113552470D01*
X141864627Y-113547824D01*
X141875947Y-113532531D01*
X141894199Y-113507569D01*
X141896340Y-113504625D01*
X142369264Y-113504625D01*
X142370620Y-113510473D01*
X142384098Y-113511701D01*
X142389686Y-113511272D01*
X142408692Y-113509597D01*
X142439932Y-113506747D01*
X142482457Y-113502813D01*
X142535313Y-113497883D01*
X142597549Y-113492047D01*
X142668214Y-113485394D01*
X142746355Y-113478015D01*
X142831022Y-113469998D01*
X142921262Y-113461432D01*
X143016123Y-113452409D01*
X143114655Y-113443016D01*
X143115721Y-113442914D01*
X143224672Y-113432522D01*
X143337158Y-113421804D01*
X143451438Y-113410924D01*
X143565772Y-113400048D01*
X143678417Y-113389341D01*
X143787632Y-113378969D01*
X143891677Y-113369096D01*
X143988809Y-113359889D01*
X144077288Y-113351513D01*
X144155372Y-113344133D01*
X144221320Y-113337914D01*
X144278069Y-113332519D01*
X144347388Y-113325779D01*
X144411387Y-113319391D01*
X144468842Y-113313484D01*
X144518529Y-113308191D01*
X144559227Y-113303641D01*
X144589710Y-113299966D01*
X144608758Y-113297297D01*
X144615145Y-113295765D01*
X144611307Y-113291870D01*
X144597842Y-113279013D01*
X144575293Y-113257763D01*
X144544281Y-113228697D01*
X144505427Y-113192394D01*
X144459354Y-113149433D01*
X144406684Y-113100393D01*
X144348037Y-113045853D01*
X144284037Y-112986392D01*
X144215304Y-112922588D01*
X144142460Y-112855020D01*
X144066128Y-112784267D01*
X143986928Y-112710909D01*
X143930969Y-112659107D01*
X143841469Y-112576325D01*
X143761380Y-112502354D01*
X143690209Y-112436751D01*
X143627461Y-112379070D01*
X143572639Y-112328867D01*
X143525251Y-112285699D01*
X143484800Y-112249120D01*
X143450792Y-112218686D01*
X143422732Y-112193953D01*
X143400126Y-112174477D01*
X143382477Y-112159813D01*
X143369292Y-112149517D01*
X143360075Y-112143144D01*
X143354332Y-112140249D01*
X143351568Y-112140390D01*
X143349932Y-112142488D01*
X143340936Y-112154668D01*
X143324741Y-112176871D01*
X143301959Y-112208245D01*
X143273205Y-112247939D01*
X143239090Y-112295102D01*
X143200227Y-112348883D01*
X143157229Y-112408432D01*
X143110709Y-112472897D01*
X143061280Y-112541428D01*
X143009555Y-112613172D01*
X142956146Y-112687280D01*
X142931707Y-112721202D01*
X142901666Y-112762901D01*
X142846729Y-112839182D01*
X142791946Y-112915274D01*
X142737931Y-112990326D01*
X142685297Y-113063485D01*
X142634656Y-113133902D01*
X142586621Y-113200726D01*
X142541806Y-113263105D01*
X142500822Y-113320188D01*
X142464283Y-113371125D01*
X142432801Y-113415064D01*
X142406990Y-113451154D01*
X142387463Y-113478545D01*
X142374831Y-113496386D01*
X142369708Y-113503825D01*
X142369264Y-113504625D01*
X141896340Y-113504625D01*
X141918714Y-113473862D01*
X141948825Y-113432331D01*
X141983863Y-113383900D01*
X142023161Y-113329491D01*
X142066050Y-113270027D01*
X142111863Y-113206430D01*
X142159930Y-113139623D01*
X142198184Y-113086433D01*
X142244520Y-113022023D01*
X142288062Y-112961519D01*
X142328142Y-112905846D01*
X142364092Y-112855931D01*
X142395245Y-112812702D01*
X142420933Y-112777086D01*
X142440488Y-112750008D01*
X142453242Y-112732397D01*
X142458527Y-112725179D01*
X142458893Y-112724710D01*
X142460502Y-112722617D01*
X142461339Y-112721202D01*
X142460750Y-112720937D01*
X142458081Y-112722296D01*
X142452679Y-112725754D01*
X142443889Y-112731783D01*
X142431058Y-112740858D01*
X142413533Y-112753452D01*
X142390659Y-112770039D01*
X142361782Y-112791093D01*
X142326250Y-112817088D01*
X142283407Y-112848497D01*
X142232601Y-112885794D01*
X142173177Y-112929453D01*
X142104482Y-112979947D01*
X142025862Y-113037750D01*
X141936664Y-113103337D01*
X141469649Y-113446725D01*
X141454580Y-113523196D01*
X141449292Y-113550440D01*
X141444498Y-113576081D01*
X141441447Y-113593570D01*
X141440639Y-113600149D01*
X140475568Y-113600149D01*
X140488695Y-113567942D01*
X140518062Y-113495792D01*
X140550626Y-113415700D01*
X140586098Y-113328385D01*
X140591930Y-113314020D01*
X141000487Y-113314020D01*
X141004397Y-113312337D01*
X141017522Y-113303964D01*
X141037536Y-113290108D01*
X141062041Y-113272391D01*
X141121446Y-113228653D01*
X141158991Y-113034277D01*
X141160424Y-113026860D01*
X141170163Y-112976460D01*
X141179089Y-112930309D01*
X141186834Y-112890296D01*
X141193033Y-112858308D01*
X141197321Y-112836233D01*
X141199333Y-112825959D01*
X141199314Y-112825572D01*
X141196093Y-112831942D01*
X141188325Y-112849594D01*
X141176552Y-112877238D01*
X141161316Y-112913586D01*
X141143156Y-112957349D01*
X141122616Y-113007238D01*
X141100235Y-113061963D01*
X141094990Y-113074838D01*
X141072827Y-113129467D01*
X141052627Y-113179614D01*
X141034944Y-113223875D01*
X141020334Y-113260849D01*
X141009351Y-113289132D01*
X141002551Y-113307324D01*
X141000487Y-113314020D01*
X140591930Y-113314020D01*
X140624187Y-113234566D01*
X140664600Y-113134964D01*
X140707048Y-113030296D01*
X140751238Y-112921283D01*
X140796881Y-112808644D01*
X140843685Y-112693097D01*
X140891359Y-112575363D01*
X140939612Y-112456160D01*
X140988153Y-112336209D01*
X141036691Y-112216227D01*
X141084935Y-112096936D01*
X141132593Y-111979053D01*
X141179376Y-111863298D01*
X141224991Y-111750390D01*
X141269148Y-111641050D01*
X141311556Y-111535995D01*
X141351923Y-111435946D01*
X141389959Y-111341622D01*
X141425373Y-111253741D01*
X141457874Y-111173024D01*
X141487170Y-111100190D01*
X141512971Y-111035957D01*
X141534985Y-110981046D01*
X141552921Y-110936175D01*
X141566489Y-110902064D01*
X141575398Y-110879433D01*
X141579356Y-110868999D01*
X141588337Y-110847011D01*
X141615704Y-110805281D01*
X141652422Y-110772473D01*
X141696521Y-110750114D01*
X141746035Y-110739729D01*
X141786561Y-110740919D01*
X141833401Y-110753744D01*
X141874805Y-110777927D01*
X141909170Y-110812169D01*
X141934894Y-110855168D01*
X141950374Y-110905622D01*
X141950479Y-110909352D01*
X141949202Y-110922785D01*
X141946022Y-110945423D01*
X141940873Y-110977638D01*
X141933684Y-111019804D01*
X141924388Y-111072291D01*
X141912917Y-111135473D01*
X141899201Y-111209722D01*
X141883172Y-111295409D01*
X141864762Y-111392907D01*
X141843903Y-111502589D01*
X141820525Y-111624826D01*
X141794561Y-111759990D01*
X141765942Y-111908455D01*
X141746234Y-112010611D01*
X141724800Y-112121876D01*
X141704258Y-112228674D01*
X141684757Y-112330237D01*
X141666441Y-112425796D01*
X141649457Y-112514584D01*
X141633951Y-112595832D01*
X141620071Y-112668771D01*
X141607962Y-112732634D01*
X141597771Y-112786652D01*
X141590412Y-112825959D01*
X141589645Y-112830056D01*
G36*
X141589645Y-112830056D02*
G01*
X141583728Y-112862079D01*
X141580169Y-112881952D01*
X141579114Y-112888907D01*
X141579128Y-112888910D01*
X141585236Y-112884825D01*
X141601923Y-112872941D01*
X141628565Y-112853717D01*
X141664538Y-112827607D01*
X141709218Y-112795069D01*
X141761981Y-112756558D01*
X141822203Y-112712533D01*
X141889260Y-112663448D01*
X141962527Y-112609760D01*
X142041382Y-112551927D01*
X142125200Y-112490403D01*
X142213357Y-112425647D01*
X142305229Y-112358113D01*
X142400193Y-112288259D01*
X142494429Y-112218955D01*
X142587118Y-112150863D01*
X142676378Y-112085364D01*
X142761560Y-112022931D01*
X142842014Y-111964039D01*
X142917092Y-111909160D01*
X142986144Y-111858768D01*
X143048520Y-111813336D01*
X143103572Y-111773337D01*
X143150650Y-111739245D01*
X143189105Y-111711533D01*
X143218287Y-111690675D01*
X143237548Y-111677144D01*
X143246239Y-111671413D01*
X143248208Y-111670400D01*
X143290380Y-111656392D01*
X143337478Y-111653276D01*
X143385567Y-111661336D01*
X143402452Y-111667019D01*
X143419890Y-111675522D01*
X143438313Y-111688143D01*
X143460593Y-111706881D01*
X143489600Y-111733733D01*
X143497185Y-111740864D01*
X143516263Y-111758673D01*
X143544562Y-111785013D01*
X143581490Y-111819333D01*
X143626453Y-111861083D01*
X143678859Y-111909713D01*
X143738114Y-111964674D01*
X143803626Y-112025416D01*
X143874802Y-112091389D01*
X143951048Y-112162043D01*
X144031771Y-112236828D01*
X144116378Y-112315195D01*
X144204277Y-112396593D01*
X144294873Y-112480473D01*
X144387575Y-112566285D01*
X144484469Y-112655952D01*
X144586047Y-112749942D01*
X144678266Y-112835295D01*
X144761575Y-112912469D01*
X144836426Y-112981922D01*
X144903269Y-113044114D01*
X144962555Y-113099503D01*
X145014735Y-113148548D01*
X145060260Y-113191707D01*
X145099580Y-113229439D01*
X145133147Y-113262202D01*
X145161411Y-113290455D01*
X145166548Y-113295765D01*
X145184824Y-113314656D01*
X145203835Y-113335265D01*
X145218896Y-113352739D01*
X145230457Y-113367538D01*
X145238971Y-113380119D01*
X145244886Y-113390942D01*
X145248654Y-113400464D01*
X145250726Y-113409145D01*
X145251553Y-113417444D01*
X145251586Y-113425818D01*
X145251275Y-113434726D01*
X145251071Y-113444627D01*
X145247315Y-113485796D01*
X145231565Y-113533437D01*
X145203969Y-113574143D01*
X145165005Y-113607255D01*
X145115149Y-113632116D01*
X145112987Y-113632966D01*
X145098874Y-113638705D01*
X145072727Y-113649437D01*
X145035142Y-113664914D01*
X144986717Y-113684888D01*
X144928051Y-113709112D01*
X144859739Y-113737339D01*
X144809987Y-113757907D01*
X144782382Y-113769319D01*
X144696575Y-113804806D01*
X144602918Y-113843552D01*
X144502007Y-113885309D01*
X144394441Y-113929829D01*
X144280817Y-113976866D01*
X144161733Y-114026170D01*
X144037786Y-114077495D01*
X143909575Y-114130592D01*
X143777697Y-114185214D01*
X143642751Y-114241113D01*
X143505332Y-114298042D01*
X143366041Y-114355753D01*
X143225473Y-114413998D01*
X143084228Y-114472529D01*
X142942902Y-114531098D01*
X142802094Y-114589459D01*
X142662401Y-114647363D01*
X142524421Y-114704563D01*
X142388751Y-114760810D01*
X142255990Y-114815857D01*
X142126735Y-114869457D01*
X142001585Y-114921361D01*
X141881135Y-114971323D01*
X141765986Y-115019093D01*
X141656733Y-115064426D01*
X141553976Y-115107072D01*
X141458311Y-115146784D01*
X141370337Y-115183315D01*
X141290651Y-115216416D01*
X141219851Y-115245840D01*
X141158534Y-115271340D01*
X141107300Y-115292667D01*
X141066744Y-115309574D01*
X141037465Y-115321813D01*
X141020061Y-115329137D01*
X140979056Y-115341307D01*
X140931118Y-115343844D01*
X140884606Y-115334966D01*
X140842002Y-115315504D01*
X140805789Y-115286291D01*
X140778448Y-115248158D01*
X140776821Y-115244564D01*
X140770221Y-115226616D01*
X140760332Y-115196902D01*
X140747487Y-115156562D01*
X140732017Y-115106740D01*
X140714254Y-115048576D01*
X140694528Y-114983212D01*
X140673173Y-114911791D01*
X140650518Y-114835454D01*
X140626896Y-114755342D01*
X140614636Y-114713521D01*
X141498366Y-114713521D01*
X141498446Y-114718192D01*
X141503397Y-114716460D01*
X141520468Y-114709746D01*
X141548909Y-114698281D01*
X141587939Y-114682391D01*
X141636773Y-114662399D01*
X141694630Y-114638633D01*
X141760728Y-114611415D01*
X141834284Y-114581073D01*
X141914517Y-114547930D01*
X142000643Y-114512313D01*
X142091880Y-114474546D01*
X142187446Y-114434954D01*
X142286560Y-114393863D01*
X142388437Y-114351598D01*
X142492297Y-114308483D01*
X142597356Y-114264845D01*
X142702833Y-114221008D01*
X142807945Y-114177297D01*
X142911910Y-114134037D01*
X143013945Y-114091555D01*
X143113268Y-114050174D01*
X143209098Y-114010220D01*
X143300650Y-113972019D01*
X143387144Y-113935895D01*
X143467797Y-113902173D01*
X143541826Y-113871179D01*
X143608450Y-113843237D01*
X143666886Y-113818674D01*
X143716351Y-113797814D01*
X143756063Y-113780982D01*
X143785240Y-113768503D01*
X143803100Y-113760703D01*
X143808860Y-113757907D01*
X143803796Y-113757989D01*
X143786420Y-113759152D01*
X143758572Y-113761341D01*
X143722161Y-113764382D01*
X143679094Y-113768105D01*
X143631276Y-113772336D01*
X143580616Y-113776903D01*
X143529021Y-113781634D01*
X143478398Y-113786357D01*
X143430654Y-113790900D01*
X143387695Y-113795090D01*
X143351430Y-113798755D01*
X143323766Y-113801723D01*
X143315462Y-113802565D01*
X143293649Y-113804674D01*
X143259889Y-113807890D01*
X143215233Y-113812114D01*
X143160734Y-113817249D01*
X143097444Y-113823194D01*
X143026417Y-113829852D01*
X142948704Y-113837122D01*
X142865358Y-113844907D01*
X142777432Y-113853107D01*
X142685978Y-113861624D01*
X142679025Y-113862271D01*
X142571027Y-113872360D01*
X142476071Y-113881312D01*
X142393361Y-113889216D01*
X142322099Y-113896158D01*
X142261490Y-113902227D01*
X142210737Y-113907509D01*
X142169043Y-113912092D01*
X142135612Y-113916062D01*
X142109648Y-113919509D01*
X142090354Y-113922519D01*
X142076933Y-113925178D01*
X142068589Y-113927576D01*
X142064525Y-113929798D01*
X142063403Y-113931012D01*
X142054025Y-113942763D01*
X142037302Y-113964911D01*
X142035009Y-113968011D01*
X142013803Y-113996675D01*
X141984101Y-114037270D01*
X141948766Y-114085914D01*
X141908370Y-114141824D01*
X141863485Y-114204216D01*
X141814681Y-114272307D01*
X141810945Y-114277523D01*
X141794812Y-114299990D01*
X141772831Y-114330546D01*
X141746745Y-114366773D01*
X141718293Y-114406252D01*
X141689216Y-114446566D01*
X141680135Y-114459154D01*
X141650807Y-114499847D01*
X141622482Y-114539199D01*
X141596951Y-114574720D01*
X141576004Y-114603920D01*
X141561431Y-114624311D01*
X141557435Y-114629914D01*
X141538856Y-114655766D01*
X141521805Y-114679210D01*
X141509541Y-114695757D01*
X141505366Y-114701530D01*
X141498366Y-114713521D01*
X140614636Y-114713521D01*
X140602639Y-114672599D01*
X140578077Y-114588365D01*
X140553542Y-114503782D01*
X140529367Y-114419992D01*
X140505882Y-114338137D01*
X140483418Y-114259358D01*
X140462308Y-114184798D01*
X140442884Y-114115599D01*
X140425475Y-114052901D01*
X140421544Y-114038532D01*
X140819652Y-114038532D01*
X140819769Y-114039870D01*
X140822609Y-114051705D01*
X140828627Y-114074156D01*
X140837287Y-114105278D01*
X140848050Y-114143130D01*
X140860379Y-114185769D01*
X140865654Y-114203831D01*
X140877722Y-114244841D01*
X140888283Y-114280302D01*
X140896747Y-114308253D01*
X140902522Y-114326732D01*
X140905017Y-114333779D01*
X140905478Y-114333903D01*
X140907057Y-114331038D01*
X140908430Y-114326218D01*
X141301670Y-114326218D01*
X141303183Y-114324855D01*
X141311684Y-114314306D01*
X141326769Y-114294472D01*
X141347453Y-114266679D01*
X141372754Y-114232251D01*
X141401687Y-114192516D01*
X141433270Y-114148799D01*
X141450806Y-114124410D01*
X141480858Y-114082488D01*
X141507543Y-114045104D01*
X141529902Y-114013612D01*
X141546976Y-113989364D01*
X141557805Y-113973713D01*
X141561432Y-113968011D01*
X141561310Y-113967962D01*
X141553108Y-113968249D01*
X141534395Y-113969753D01*
X141508219Y-113972162D01*
X141477628Y-113975163D01*
X141445670Y-113978445D01*
X141415395Y-113981695D01*
X141389851Y-113984600D01*
X141372085Y-113986848D01*
X141365147Y-113988126D01*
X141364180Y-113992056D01*
X141360855Y-114007945D01*
X141357194Y-114026135D01*
X141355558Y-114034266D01*
X141348664Y-114069134D01*
X141340546Y-114110666D01*
X141331581Y-114156978D01*
X141325029Y-114191271D01*
X141316986Y-114234297D01*
X141310296Y-114271191D01*
X141305290Y-114300068D01*
X141302304Y-114319039D01*
X141301670Y-114326218D01*
X140908430Y-114326218D01*
X140909472Y-114322558D01*
X140913008Y-114307116D01*
X140917948Y-114283361D01*
X140924578Y-114249946D01*
X140933182Y-114205521D01*
X140944044Y-114148738D01*
X140950329Y-114115015D01*
X140956488Y-114080141D01*
X140961041Y-114052206D01*
X140963623Y-114033455D01*
X140963872Y-114026135D01*
X140960484Y-114025814D01*
X140946064Y-114026317D01*
X140923707Y-114027776D01*
X140897037Y-114029882D01*
X140869674Y-114032321D01*
X140845242Y-114034783D01*
X140827360Y-114036957D01*
X140819652Y-114038532D01*
X140421544Y-114038532D01*
X140410415Y-113997847D01*
X140398034Y-113951579D01*
X140388665Y-113915238D01*
X140382638Y-113889967D01*
X140380286Y-113876906D01*
X140380045Y-113872698D01*
X140380184Y-113844593D01*
X140385067Y-113820756D01*
X140396201Y-113793262D01*
X140400023Y-113784383D01*
X140409033Y-113762733D01*
X140422696Y-113729545D01*
X140440721Y-113685538D01*
X140462818Y-113631430D01*
X140475568Y-113600149D01*
X141440639Y-113600149D01*
X141441435Y-113600122D01*
X141452459Y-113599205D01*
X141475089Y-113597155D01*
X141507607Y-113594132D01*
X141548293Y-113590297D01*
X141595428Y-113585810D01*
X141647293Y-113580833D01*
X141690043Y-113576601D01*
X141747282Y-113570484D01*
X141793795Y-113564906D01*
X141828785Y-113559975D01*
X141851457Y-113555794D01*
X141861017Y-113552470D01*
X141864627Y-113547824D01*
X141875947Y-113532531D01*
X141894199Y-113507569D01*
X141896340Y-113504625D01*
X142369264Y-113504625D01*
X142370620Y-113510473D01*
X142384098Y-113511701D01*
X142389686Y-113511272D01*
X142408692Y-113509597D01*
X142439932Y-113506747D01*
X142482457Y-113502813D01*
X142535313Y-113497883D01*
X142597549Y-113492047D01*
X142668214Y-113485394D01*
X142746355Y-113478015D01*
X142831022Y-113469998D01*
X142921262Y-113461432D01*
X143016123Y-113452409D01*
X143114655Y-113443016D01*
X143115721Y-113442914D01*
X143224672Y-113432522D01*
X143337158Y-113421804D01*
X143451438Y-113410924D01*
X143565772Y-113400048D01*
X143678417Y-113389341D01*
X143787632Y-113378969D01*
X143891677Y-113369096D01*
X143988809Y-113359889D01*
X144077288Y-113351513D01*
X144155372Y-113344133D01*
X144221320Y-113337914D01*
X144278069Y-113332519D01*
X144347388Y-113325779D01*
X144411387Y-113319391D01*
X144468842Y-113313484D01*
X144518529Y-113308191D01*
X144559227Y-113303641D01*
X144589710Y-113299966D01*
X144608758Y-113297297D01*
X144615145Y-113295765D01*
X144611307Y-113291870D01*
X144597842Y-113279013D01*
X144575293Y-113257763D01*
X144544281Y-113228697D01*
X144505427Y-113192394D01*
X144459354Y-113149433D01*
X144406684Y-113100393D01*
X144348037Y-113045853D01*
X144284037Y-112986392D01*
X144215304Y-112922588D01*
X144142460Y-112855020D01*
X144066128Y-112784267D01*
X143986928Y-112710909D01*
X143930969Y-112659107D01*
X143841469Y-112576325D01*
X143761380Y-112502354D01*
X143690209Y-112436751D01*
X143627461Y-112379070D01*
X143572639Y-112328867D01*
X143525251Y-112285699D01*
X143484800Y-112249120D01*
X143450792Y-112218686D01*
X143422732Y-112193953D01*
X143400126Y-112174477D01*
X143382477Y-112159813D01*
X143369292Y-112149517D01*
X143360075Y-112143144D01*
X143354332Y-112140249D01*
X143351568Y-112140390D01*
X143349932Y-112142488D01*
X143340936Y-112154668D01*
X143324741Y-112176871D01*
X143301959Y-112208245D01*
X143273205Y-112247939D01*
X143239090Y-112295102D01*
X143200227Y-112348883D01*
X143157229Y-112408432D01*
X143110709Y-112472897D01*
X143061280Y-112541428D01*
X143009555Y-112613172D01*
X142956146Y-112687280D01*
X142931707Y-112721202D01*
X142901666Y-112762901D01*
X142846729Y-112839182D01*
X142791946Y-112915274D01*
X142737931Y-112990326D01*
X142685297Y-113063485D01*
X142634656Y-113133902D01*
X142586621Y-113200726D01*
X142541806Y-113263105D01*
X142500822Y-113320188D01*
X142464283Y-113371125D01*
X142432801Y-113415064D01*
X142406990Y-113451154D01*
X142387463Y-113478545D01*
X142374831Y-113496386D01*
X142369708Y-113503825D01*
X142369264Y-113504625D01*
X141896340Y-113504625D01*
X141918714Y-113473862D01*
X141948825Y-113432331D01*
X141983863Y-113383900D01*
X142023161Y-113329491D01*
X142066050Y-113270027D01*
X142111863Y-113206430D01*
X142159930Y-113139623D01*
X142198184Y-113086433D01*
X142244520Y-113022023D01*
X142288062Y-112961519D01*
X142328142Y-112905846D01*
X142364092Y-112855931D01*
X142395245Y-112812702D01*
X142420933Y-112777086D01*
X142440488Y-112750008D01*
X142453242Y-112732397D01*
X142458527Y-112725179D01*
X142458893Y-112724710D01*
X142460502Y-112722617D01*
X142461339Y-112721202D01*
X142460750Y-112720937D01*
X142458081Y-112722296D01*
X142452679Y-112725754D01*
X142443889Y-112731783D01*
X142431058Y-112740858D01*
X142413533Y-112753452D01*
X142390659Y-112770039D01*
X142361782Y-112791093D01*
X142326250Y-112817088D01*
X142283407Y-112848497D01*
X142232601Y-112885794D01*
X142173177Y-112929453D01*
X142104482Y-112979947D01*
X142025862Y-113037750D01*
X141936664Y-113103337D01*
X141469649Y-113446725D01*
X141454580Y-113523196D01*
X141449292Y-113550440D01*
X141444498Y-113576081D01*
X141441447Y-113593570D01*
X141440639Y-113600149D01*
X140475568Y-113600149D01*
X140488695Y-113567942D01*
X140518062Y-113495792D01*
X140550626Y-113415700D01*
X140586098Y-113328385D01*
X140591930Y-113314020D01*
X141000487Y-113314020D01*
X141004397Y-113312337D01*
X141017522Y-113303964D01*
X141037536Y-113290108D01*
X141062041Y-113272391D01*
X141121446Y-113228653D01*
X141158991Y-113034277D01*
X141160424Y-113026860D01*
X141170163Y-112976460D01*
X141179089Y-112930309D01*
X141186834Y-112890296D01*
X141193033Y-112858308D01*
X141197321Y-112836233D01*
X141199333Y-112825959D01*
X141199314Y-112825572D01*
X141196093Y-112831942D01*
X141188325Y-112849594D01*
X141176552Y-112877238D01*
X141161316Y-112913586D01*
X141143156Y-112957349D01*
X141122616Y-113007238D01*
X141100235Y-113061963D01*
X141094990Y-113074838D01*
X141072827Y-113129467D01*
X141052627Y-113179614D01*
X141034944Y-113223875D01*
X141020334Y-113260849D01*
X141009351Y-113289132D01*
X141002551Y-113307324D01*
X141000487Y-113314020D01*
X140591930Y-113314020D01*
X140624187Y-113234566D01*
X140664600Y-113134964D01*
X140707048Y-113030296D01*
X140751238Y-112921283D01*
X140796881Y-112808644D01*
X140843685Y-112693097D01*
X140891359Y-112575363D01*
X140939612Y-112456160D01*
X140988153Y-112336209D01*
X141036691Y-112216227D01*
X141084935Y-112096936D01*
X141132593Y-111979053D01*
X141179376Y-111863298D01*
X141224991Y-111750390D01*
X141269148Y-111641050D01*
X141311556Y-111535995D01*
X141351923Y-111435946D01*
X141389959Y-111341622D01*
X141425373Y-111253741D01*
X141457874Y-111173024D01*
X141487170Y-111100190D01*
X141512971Y-111035957D01*
X141534985Y-110981046D01*
X141552921Y-110936175D01*
X141566489Y-110902064D01*
X141575398Y-110879433D01*
X141579356Y-110868999D01*
X141588337Y-110847011D01*
X141615704Y-110805281D01*
X141652422Y-110772473D01*
X141696521Y-110750114D01*
X141746035Y-110739729D01*
X141786561Y-110740919D01*
X141833401Y-110753744D01*
X141874805Y-110777927D01*
X141909170Y-110812169D01*
X141934894Y-110855168D01*
X141950374Y-110905622D01*
X141950479Y-110909352D01*
X141949202Y-110922785D01*
X141946022Y-110945423D01*
X141940873Y-110977638D01*
X141933684Y-111019804D01*
X141924388Y-111072291D01*
X141912917Y-111135473D01*
X141899201Y-111209722D01*
X141883172Y-111295409D01*
X141864762Y-111392907D01*
X141843903Y-111502589D01*
X141820525Y-111624826D01*
X141794561Y-111759990D01*
X141765942Y-111908455D01*
X141746234Y-112010611D01*
X141724800Y-112121876D01*
X141704258Y-112228674D01*
X141684757Y-112330237D01*
X141666441Y-112425796D01*
X141649457Y-112514584D01*
X141633951Y-112595832D01*
X141620071Y-112668771D01*
X141607962Y-112732634D01*
X141597771Y-112786652D01*
X141590412Y-112825959D01*
X141589645Y-112830056D01*
G37*
%TD*%
%LPC*%
%TO.C,JP2*%
X150980000Y-98489200D02*
X151280000Y-98489200D01*
X151280000Y-96989200D01*
X150980000Y-96989200D01*
X150980000Y-98489200D01*
G36*
X150980000Y-98489200D02*
G01*
X151280000Y-98489200D01*
X151280000Y-96989200D01*
X150980000Y-96989200D01*
X150980000Y-98489200D01*
G37*
%TD*%
D12*
%TO.C,J3*%
X145384000Y-100611000D03*
X139604000Y-100611000D03*
D13*
X146814000Y-101111000D03*
D14*
X146814000Y-96931000D03*
D13*
X138174000Y-101111000D03*
D14*
X138174000Y-96931000D03*
%TD*%
D15*
%TO.C,J6*%
X128016000Y-96012000D03*
D16*
X128016000Y-98552000D03*
X128016000Y-101092000D03*
X128016000Y-103632000D03*
X128016000Y-106172000D03*
X128016000Y-108712000D03*
X128016000Y-111252000D03*
X128016000Y-113792000D03*
X128016000Y-116332000D03*
X128016000Y-118872000D03*
X128016000Y-121412000D03*
X128016000Y-123952000D03*
X128016000Y-126492000D03*
X128016000Y-129032000D03*
X128016000Y-131572000D03*
X128016000Y-134112000D03*
%TD*%
D15*
%TO.C,JP1*%
X150469600Y-110002400D03*
D16*
X150469600Y-112542400D03*
%TD*%
D15*
%TO.C,J7*%
X155956000Y-96012000D03*
D16*
X155956000Y-98552000D03*
X155956000Y-101092000D03*
X155956000Y-103632000D03*
X155956000Y-106172000D03*
X155956000Y-108712000D03*
X155956000Y-111252000D03*
X155956000Y-113792000D03*
X155956000Y-116332000D03*
X155956000Y-118872000D03*
X155956000Y-121412000D03*
X155956000Y-123952000D03*
X155956000Y-126492000D03*
X155956000Y-129032000D03*
X155956000Y-131572000D03*
X155956000Y-134112000D03*
%TD*%
D17*
%TO.C,JP2*%
X150480000Y-97739200D03*
D18*
X151780000Y-97739200D03*
%TD*%
%LPD*%
D19*
X125476000Y-94232000D02*
X158496000Y-94232000D01*
X158496000Y-136142000D01*
X125476000Y-136142000D01*
X125476000Y-94232000D01*
M02*
